<svg xmlns="http://www.w3.org/2000/svg" xmlns:xlink="http://www.w3.org/1999/xlink" width="92" height="71" viewBox="0 0 92 71"><defs><style>.a{fill:none;}.b{clip-path:url(#a);}.c{fill:#fff;}.d{fill:#231f20;}.e{fill:#383784;}.f{fill:#006bb7;}.g{fill:#25247b;}.h{fill:#ed1c24;}.i{fill:#47a6dc;}</style><clipPath id="a"><rect class="a" width="92" height="71" transform="translate(1849 15014)"/></clipPath></defs><g class="b" transform="translate(-1849 -15014)"><g transform="translate(51.702 -42.018)"><path class="c" d="M5.121,0H81.816a5.121,5.121,0,0,1,5.121,5.121V48.5a5.121,5.121,0,0,1-5.121,5.121H5.121A5.121,5.121,0,0,1,0,48.5V5.121A5.121,5.121,0,0,1,5.121,0Z" transform="translate(1800 15061)"/><g transform="translate(1842.216 15100.356)"><path class="d" d="M-106.162,234.607a1.529,1.529,0,0,1,.866.206.723.723,0,0,1,.3.643.873.873,0,0,1-.081.39.677.677,0,0,1-.234.266,1.084,1.084,0,0,1-.374.151,2.371,2.371,0,0,1-.5.049h-.236v.913h-.471v-2.554a2.329,2.329,0,0,1,.365-.051Q-106.33,234.607-106.162,234.607Zm.033.408c-.12,0-.218,0-.3.011v.882h.228a1.163,1.163,0,0,0,.524-.1.37.37,0,0,0,.183-.361.426.426,0,0,0-.049-.214.345.345,0,0,0-.134-.134.639.639,0,0,0-.2-.069A1.473,1.473,0,0,0-106.128,235.015Z" transform="translate(106.895 -234.322)"/><path class="d" d="M-101.114,236.755a1.266,1.266,0,0,1-.067.423.942.942,0,0,1-.191.325.862.862,0,0,1-.3.209.963.963,0,0,1-.383.075.946.946,0,0,1-.381-.075.866.866,0,0,1-.3-.209.962.962,0,0,1-.192-.325,1.225,1.225,0,0,1-.069-.423,1.212,1.212,0,0,1,.069-.421.942.942,0,0,1,.194-.323.862.862,0,0,1,.3-.208.96.96,0,0,1,.378-.073.972.972,0,0,1,.38.073.839.839,0,0,1,.3.208.965.965,0,0,1,.193.323A1.225,1.225,0,0,1-101.114,236.755Zm-.464,0a.764.764,0,0,0-.126-.462.409.409,0,0,0-.349-.17.409.409,0,0,0-.349.17.764.764,0,0,0-.126.462.779.779,0,0,0,.126.467.408.408,0,0,0,.349.172.408.408,0,0,0,.349-.172A.779.779,0,0,0-101.577,236.755Z" transform="translate(105.123 -234.832)"/><path class="d" d="M-96.935,236.765a1.378,1.378,0,0,1-.058.411.965.965,0,0,1-.167.322.738.738,0,0,1-.271.209.869.869,0,0,1-.369.075.913.913,0,0,1-.254-.034.954.954,0,0,1-.191-.075v.759H-98.7v-2.585q.138-.037.34-.071a2.6,2.6,0,0,1,.426-.033,1.137,1.137,0,0,1,.415.071.864.864,0,0,1,.312.2.9.9,0,0,1,.2.322A1.223,1.223,0,0,1-96.935,236.765Zm-.464.007a.732.732,0,0,0-.137-.471.535.535,0,0,0-.44-.168c-.043,0-.087,0-.133.005a.722.722,0,0,0-.137.025v1.118a.7.7,0,0,0,.159.076.614.614,0,0,0,.211.035.406.406,0,0,0,.361-.168A.8.8,0,0,0-97.4,236.772Z" transform="translate(103.174 -234.839)"/><path class="d" d="M-92.936,236.755a1.266,1.266,0,0,1-.068.423.933.933,0,0,1-.191.325.86.86,0,0,1-.3.209.966.966,0,0,1-.383.075.951.951,0,0,1-.382-.075.864.864,0,0,1-.3-.209.964.964,0,0,1-.193-.325,1.238,1.238,0,0,1-.069-.423,1.224,1.224,0,0,1,.069-.421.951.951,0,0,1,.194-.323.864.864,0,0,1,.3-.208.958.958,0,0,1,.378-.073.974.974,0,0,1,.38.073.837.837,0,0,1,.3.208.965.965,0,0,1,.193.323A1.225,1.225,0,0,1-92.936,236.755Zm-.464,0a.764.764,0,0,0-.125-.462.41.41,0,0,0-.349-.17.41.41,0,0,0-.35.17.764.764,0,0,0-.125.462.779.779,0,0,0,.125.467.409.409,0,0,0,.35.172.408.408,0,0,0,.349-.172A.779.779,0,0,0-93.4,236.755Z" transform="translate(101.411 -234.832)"/><path class="d" d="M-90.56,234.812l.452-.075v.591h.7v.378h-.7v.8a.58.58,0,0,0,.075.336.3.3,0,0,0,.254.1.831.831,0,0,0,.219-.026,1.526,1.526,0,0,0,.151-.049l.075.359a1.691,1.691,0,0,1-.206.069,1.126,1.126,0,0,1-.3.035.953.953,0,0,1-.349-.056.516.516,0,0,1-.222-.163.644.644,0,0,1-.116-.258,1.608,1.608,0,0,1-.033-.346Z" transform="translate(99.48 -234.382)"/><path class="d" d="M-87.917,236.766a1.222,1.222,0,0,1,.077-.452.948.948,0,0,1,.2-.324.846.846,0,0,1,.292-.194.9.9,0,0,1,.337-.066.806.806,0,0,1,.63.251,1.086,1.086,0,0,1,.226.748c0,.025,0,.053,0,.084s0,.059-.006.084h-1.29a.515.515,0,0,0,.166.365.634.634,0,0,0,.428.129,1.4,1.4,0,0,0,.3-.03,1.23,1.23,0,0,0,.215-.063l.06.37a.7.7,0,0,1-.1.039,1.389,1.389,0,0,1-.15.037c-.056.011-.117.021-.181.028a1.821,1.821,0,0,1-.2.011,1.206,1.206,0,0,1-.449-.076.832.832,0,0,1-.314-.214.871.871,0,0,1-.183-.321A1.318,1.318,0,0,1-87.917,236.766Zm1.313-.2a.594.594,0,0,0-.026-.177.422.422,0,0,0-.076-.146.371.371,0,0,0-.123-.1.4.4,0,0,0-.174-.036.4.4,0,0,0-.183.039.42.42,0,0,0-.133.1.46.46,0,0,0-.084.146.8.8,0,0,0-.042.168Z" transform="translate(98.28 -234.832)"/><path class="d" d="M-83.47,238.49a.893.893,0,0,1,.007.093v.06a1.69,1.69,0,0,1-.073.479,2.081,2.081,0,0,1-.2.467l-.355-.1a1.834,1.834,0,0,0,.122-.425,2.5,2.5,0,0,0,.032-.364c0-.03,0-.068,0-.112s0-.079-.005-.1Z" transform="translate(96.546 -236.085)"/><path class="d" d="M-78.855,234.947c.04.135.082.275.127.421s.092.292.14.437.1.289.146.43.1.274.14.4q.057-.2.109-.44t.1-.494q.052-.256.1-.521t.1-.524h.486q-.131.7-.291,1.352t-.359,1.24h-.453q-.29-.755-.561-1.649-.138.452-.281.86t-.285.789h-.45q-.2-.591-.36-1.24t-.289-1.352h.5q.045.255.1.52t.1.522q.055.256.11.5t.112.441q.071-.191.144-.4t.144-.43q.071-.219.137-.436c.044-.145.084-.284.122-.419Z" transform="translate(95.019 -234.344)"/><path class="d" d="M-73.595,235.73a1.1,1.1,0,0,1,.378.056.6.6,0,0,1,.245.157.585.585,0,0,1,.131.245,1.2,1.2,0,0,1,.039.316v1.186q-.1.022-.316.054a3.211,3.211,0,0,1-.477.032,1.43,1.43,0,0,1-.321-.034.678.678,0,0,1-.249-.109.5.5,0,0,1-.161-.194.672.672,0,0,1-.058-.3.567.567,0,0,1,.066-.284.536.536,0,0,1,.178-.189.769.769,0,0,1,.26-.1,1.454,1.454,0,0,1,.309-.032,1.313,1.313,0,0,1,.157.009,1.451,1.451,0,0,1,.176.032V236.5a.583.583,0,0,0-.019-.15.31.31,0,0,0-.066-.125.3.3,0,0,0-.123-.084.53.53,0,0,0-.193-.03,1.735,1.735,0,0,0-.288.022,1.21,1.21,0,0,0-.213.052l-.056-.367a1.876,1.876,0,0,1,.251-.06A1.938,1.938,0,0,1-73.595,235.73Zm.038,1.687a1.7,1.7,0,0,0,.318-.022v-.5a.894.894,0,0,0-.108-.022.991.991,0,0,0-.157-.011,1.018,1.018,0,0,0-.152.011.469.469,0,0,0-.138.041.243.243,0,0,0-.1.084.232.232,0,0,0-.038.136.24.24,0,0,0,.1.223A.522.522,0,0,0-73.557,237.417Z" transform="translate(92.137 -234.832)"/><path class="d" d="M-70.02,235.8l.183-.192c.065-.069.128-.137.191-.206l.177-.2c.056-.063.1-.119.144-.167h.535q-.187.21-.394.434t-.416.437a2.606,2.606,0,0,1,.235.226q.123.134.239.282t.216.3a2.986,2.986,0,0,1,.168.277h-.524c-.045-.077-.1-.158-.155-.243s-.122-.167-.189-.247-.136-.155-.205-.226a1.772,1.772,0,0,0-.206-.182v.9h-.453v-2.828l.453-.075Z" transform="translate(90.362 -234.086)"/><path class="d" d="M-66.164,235.73a1.1,1.1,0,0,1,.378.056.6.6,0,0,1,.245.157.584.584,0,0,1,.131.245,1.2,1.2,0,0,1,.039.316v1.186c-.069.015-.175.033-.316.054a3.211,3.211,0,0,1-.477.032,1.438,1.438,0,0,1-.322-.034.679.679,0,0,1-.248-.109.511.511,0,0,1-.161-.194.68.68,0,0,1-.058-.3.567.567,0,0,1,.066-.284.536.536,0,0,1,.178-.189.764.764,0,0,1,.26-.1,1.454,1.454,0,0,1,.309-.032,1.313,1.313,0,0,1,.157.009,1.451,1.451,0,0,1,.176.032V236.5a.582.582,0,0,0-.019-.15.31.31,0,0,0-.066-.125.3.3,0,0,0-.123-.084.53.53,0,0,0-.193-.03,1.735,1.735,0,0,0-.288.022,1.21,1.21,0,0,0-.213.052l-.056-.367a1.876,1.876,0,0,1,.251-.06A1.938,1.938,0,0,1-66.164,235.73Zm.038,1.687a1.7,1.7,0,0,0,.318-.022v-.5a.884.884,0,0,0-.109-.022.979.979,0,0,0-.157-.011,1.019,1.019,0,0,0-.152.011.469.469,0,0,0-.138.041.248.248,0,0,0-.1.084.236.236,0,0,0-.037.136.24.24,0,0,0,.1.223A.522.522,0,0,0-66.126,237.417Z" transform="translate(88.764 -234.832)"/><path class="d" d="M-63.083,234.812l.453-.075v.591h.7v.378h-.7v.8a.575.575,0,0,0,.075.336.3.3,0,0,0,.254.1.831.831,0,0,0,.219-.026,1.526,1.526,0,0,0,.151-.049l.075.359a1.677,1.677,0,0,1-.205.069,1.129,1.129,0,0,1-.3.035.957.957,0,0,1-.35-.056.516.516,0,0,1-.222-.163.643.643,0,0,1-.116-.258,1.572,1.572,0,0,1-.034-.346Z" transform="translate(87.008 -234.382)"/><path class="d" d="M-59.718,234.538a.259.259,0,0,1-.082.2.278.278,0,0,1-.194.075.282.282,0,0,1-.2-.075.258.258,0,0,1-.082-.2.263.263,0,0,1,.082-.205.282.282,0,0,1,.2-.075.278.278,0,0,1,.194.075A.264.264,0,0,1-59.718,234.538Zm-.049,2.528h-.452V235.11h.452Z" transform="translate(85.733 -234.164)"/><path class="d" d="M-55.172,234.947c.04.135.082.275.127.421s.092.292.14.437.1.289.146.43.1.274.14.4q.057-.2.109-.44t.1-.494q.052-.256.1-.521t.1-.524h.486q-.131.7-.291,1.352t-.359,1.24h-.453q-.29-.755-.561-1.649-.138.452-.281.86t-.285.789h-.45q-.2-.591-.36-1.24t-.289-1.352h.5q.045.255.1.52t.1.522q.055.256.11.5t.112.441q.071-.191.144-.4t.144-.43q.071-.219.137-.436c.044-.145.084-.284.122-.419Z" transform="translate(84.269 -234.344)"/><path class="d" d="M-48.721,236.755a1.266,1.266,0,0,1-.067.423.942.942,0,0,1-.191.325.862.862,0,0,1-.3.209.963.963,0,0,1-.383.075.951.951,0,0,1-.382-.075.864.864,0,0,1-.3-.209.962.962,0,0,1-.192-.325,1.226,1.226,0,0,1-.069-.423,1.212,1.212,0,0,1,.069-.421.942.942,0,0,1,.194-.323.862.862,0,0,1,.3-.208.96.96,0,0,1,.378-.073.972.972,0,0,1,.38.073.839.839,0,0,1,.3.208.963.963,0,0,1,.192.323A1.212,1.212,0,0,1-48.721,236.755Zm-.464,0a.764.764,0,0,0-.126-.462.409.409,0,0,0-.349-.17.409.409,0,0,0-.349.17.764.764,0,0,0-.126.462.779.779,0,0,0,.126.467.408.408,0,0,0,.349.172.408.408,0,0,0,.349-.172A.779.779,0,0,0-49.184,236.755Z" transform="translate(81.34 -234.832)"/><path class="d" d="M-46.345,234.812l.453-.075v.591h.7v.378h-.7v.8a.575.575,0,0,0,.075.336.3.3,0,0,0,.254.1.827.827,0,0,0,.218-.026,1.545,1.545,0,0,0,.152-.049l.074.359a1.646,1.646,0,0,1-.205.069,1.126,1.126,0,0,1-.3.035.957.957,0,0,1-.35-.056.516.516,0,0,1-.222-.163.651.651,0,0,1-.116-.258,1.606,1.606,0,0,1-.034-.346Z" transform="translate(79.41 -234.382)"/><path class="d" d="M-43.7,236.766a1.233,1.233,0,0,1,.076-.452.949.949,0,0,1,.2-.324.846.846,0,0,1,.292-.194.9.9,0,0,1,.336-.066.806.806,0,0,1,.63.251,1.086,1.086,0,0,1,.227.748c0,.025,0,.053,0,.084s0,.059-.005.084h-1.29a.515.515,0,0,0,.167.365.633.633,0,0,0,.428.129,1.391,1.391,0,0,0,.3-.03,1.216,1.216,0,0,0,.215-.063l.06.37a.715.715,0,0,1-.1.039,1.389,1.389,0,0,1-.15.037c-.056.011-.116.021-.181.028a1.821,1.821,0,0,1-.2.011,1.206,1.206,0,0,1-.449-.076.837.837,0,0,1-.314-.214.871.871,0,0,1-.183-.321A1.318,1.318,0,0,1-43.7,236.766Zm1.313-.2a.594.594,0,0,0-.026-.177.423.423,0,0,0-.077-.146.36.36,0,0,0-.123-.1.4.4,0,0,0-.174-.036.405.405,0,0,0-.183.039.426.426,0,0,0-.133.1.482.482,0,0,0-.084.146.83.83,0,0,0-.041.168Z" transform="translate(78.21 -234.832)"/></g><g transform="translate(1809.624 15118.693)"><path class="c" d="M-145.419,270.845a.72.72,0,0,1-.107.378.3.3,0,0,1-.249.176h-3.2v-3.342h3.05a.321.321,0,0,1,.278.149.646.646,0,0,1,.1.378v.473a.555.555,0,0,1-.1.293.533.533,0,0,0-.1.279.315.315,0,0,0,.085.189,1.9,1.9,0,0,1,.153.206.64.64,0,0,1,.082.326Zm-.833-1.963q0-.275-.217-.275l-1.644,0c-.075,0-.113.048-.113.146v.532c0,.1.038.146.113.146h1.641c.146,0,.22-.091.22-.275Zm0,1.491,0-.064c-.012-.221-.1-.33-.27-.33h-1.591c-.075,0-.113.05-.113.151v.545c0,.1.038.147.113.147h1.644q.221,0,.221-.276Z" transform="translate(148.97 -268.058)"/><path class="c" d="M-139.707,270.86a.625.625,0,0,1-.118.383.352.352,0,0,1-.291.158h-2.807a.352.352,0,0,1-.294-.154.625.625,0,0,1-.116-.387v-2.8h.737v2.434c0,.223.09.335.27.335h1.609a.236.236,0,0,0,.192-.092.37.37,0,0,0,.075-.243v-2.434h.744Z" transform="translate(147.461 -268.058)"/><path class="c" d="M-134.688,270.827v.573h-2.751v-3.342h.744v2.476a.375.375,0,0,0,.053.218.2.2,0,0,0,.174.076Z" transform="translate(145.883 -268.058)"/><path class="c" d="M-129.762,271.4h-1.093l-1.164-1.315a.3.3,0,0,0-.234-.11q-.267,0-.267.335V271.4h-.74v-3.342h.74v1.009c0,.223.081.335.242.335a1,1,0,0,0,.167-.009.352.352,0,0,0,.153-.106l1.1-1.229h.91l-1.256,1.394a.384.384,0,0,0-.121.247.384.384,0,0,0,.135.253Z" transform="translate(144.764 -268.058)"/><path class="c" d="M-122,270.86a.625.625,0,0,1-.115.387.357.357,0,0,1-.3.154h-2.459q-.416,0-.409-.688v-.119h.729a.3.3,0,0,0,.068.187.187.187,0,0,0,.146.088h1.327a.228.228,0,0,0,.242-.16,1.544,1.544,0,0,0,.029-.376.381.381,0,0,0-.075-.245.24.24,0,0,0-.2-.094H-124.9a.349.349,0,0,1-.294-.158.65.65,0,0,1-.116-.393V268.6a.634.634,0,0,1,.114-.388.352.352,0,0,1,.3-.153h2.463q.416,0,.409.688v.119h-.733a.312.312,0,0,0-.068-.191.187.187,0,0,0-.146-.09H-124.3a.222.222,0,0,0-.238.162,1.562,1.562,0,0,0-.029.377.375.375,0,0,0,.075.244.236.236,0,0,0,.192.092h1.894a.354.354,0,0,1,.291.156A.621.621,0,0,1-122,270Z" transform="translate(142.635 -268.058)"/><path class="c" d="M-115.012,271.4h-.7v-2.563c0-.1-.03-.142-.089-.142h-.092c-.033,0-.073.049-.117.147l-1.153,2.48a.1.1,0,0,1-.1.078h-.459a.1.1,0,0,1-.1-.078l-1.16-2.48c-.045-.1-.084-.147-.117-.147h-.093c-.059,0-.089.047-.089.142V271.4h-.74v-3.342h1.37l1,2.013c.031.086.082.128.153.128a.163.163,0,0,0,.157-.128l.993-2.013h1.33Z" transform="translate(141.218 -268.058)"/><path class="c" d="M-109.157,270.86a.625.625,0,0,1-.116.387.356.356,0,0,1-.3.154h-2.459q-.416,0-.409-.688v-.119h.73a.3.3,0,0,0,.067.187.188.188,0,0,0,.146.088h1.328a.227.227,0,0,0,.242-.16,1.544,1.544,0,0,0,.029-.376.381.381,0,0,0-.075-.245.239.239,0,0,0-.2-.094h-1.89a.348.348,0,0,1-.293-.158.645.645,0,0,1-.116-.393V268.6a.634.634,0,0,1,.114-.388.352.352,0,0,1,.3-.153h2.463q.416,0,.409.688v.119h-.733a.316.316,0,0,0-.067-.191.188.188,0,0,0-.146-.09h-1.327a.222.222,0,0,0-.239.162,1.562,1.562,0,0,0-.029.377.375.375,0,0,0,.075.244.238.238,0,0,0,.193.092h1.893a.352.352,0,0,1,.291.156.621.621,0,0,1,.118.385Z" transform="translate(139.196 -268.058)"/><path class="c" d="M-100.868,270.845a.713.713,0,0,1-.107.378.3.3,0,0,1-.249.176h-3.195v-3.342h3.049a.32.32,0,0,1,.278.149.646.646,0,0,1,.1.378v.473a.549.549,0,0,1-.1.293.533.533,0,0,0-.1.279.319.319,0,0,0,.085.189,1.909,1.909,0,0,1,.153.206.64.64,0,0,1,.082.326Zm-.833-1.963q0-.275-.217-.275l-1.644,0c-.076,0-.114.048-.114.146v.532c0,.1.038.146.114.146h1.64q.221,0,.22-.275Zm0,1.491,0-.064c-.012-.221-.1-.33-.27-.33h-1.59c-.076,0-.114.05-.114.151v.545q0,.147.114.147h1.644q.221,0,.22-.276Z" transform="translate(137.041 -268.058)"/><path class="c" d="M-95.3,271.4h-.751v-1.027a.363.363,0,0,0-.075-.241.238.238,0,0,0-.193-.09h-1.572c-.076,0-.114.05-.114.151V271.4h-.74v-3.342h3.014a.357.357,0,0,1,.3.156.62.62,0,0,1,.117.385v.518a.514.514,0,0,1-.163.319.511.511,0,0,0-.164.3.309.309,0,0,0,.09.193c.093.11.149.177.165.2a.618.618,0,0,1,.089.33Zm-.751-2.5c0-.183-.073-.276-.22-.276h-1.619q-.114,0-.114.144v.575c0,.1.038.148.114.148h1.619c.147,0,.22-.091.22-.275Z" transform="translate(135.523 -268.058)"/><path class="c" d="M-89.846,270.86a.624.624,0,0,1-.117.383.353.353,0,0,1-.291.158h-2.608a.352.352,0,0,1-.294-.156.629.629,0,0,1-.116-.385V268.6a.63.63,0,0,1,.116-.388.354.354,0,0,1,.294-.153h2.608a.353.353,0,0,1,.291.156.62.62,0,0,1,.117.385Zm-.743-.367v-1.531c0-.223-.09-.335-.271-.335h-1.4c-.18,0-.27.112-.27.335v1.531c0,.223.09.335.27.335h1.4a.241.241,0,0,0,.2-.092A.37.37,0,0,0-90.589,270.492Z" transform="translate(134.057 -268.058)"/><path class="c" d="M-84.081,271.4h-.794c-.073-.2-.145-.377-.213-.536a.188.188,0,0,0-.193-.106h-1.69a.177.177,0,0,0-.189.106c-.019.04-.091.218-.217.536h-.794l1.413-3.342H-85.5Zm-1.338-1.339a.4.4,0,0,0-.032-.133l-.47-1.2c-.037-.1-.073-.146-.106-.146h-.2c-.034,0-.07.049-.107.146l-.459,1.2a.358.358,0,0,0-.036.133.115.115,0,0,0,.132.128h1.146C-85.463,270.185-85.419,270.144-85.419,270.061Z" transform="translate(132.691 -268.058)"/><path class="c" d="M-78.581,270.845a.749.749,0,0,1-.1.378.289.289,0,0,1-.244.176h-3.092v-3.342h3.05a.33.33,0,0,1,.281.149.632.632,0,0,1,.106.378Zm-.729-.3v-1.665q0-.27-.22-.27h-1.758v2.21h1.762Q-79.311,270.823-79.31,270.547Z" transform="translate(131.043 -268.058)"/><path class="c" d="M-73.115,270.86a.624.624,0,0,1-.117.383.353.353,0,0,1-.292.158h-2.608a.351.351,0,0,1-.293-.156.624.624,0,0,1-.116-.385V268.6a.625.625,0,0,1,.116-.388.353.353,0,0,1,.293-.153h2.608a.354.354,0,0,1,.292.156.62.62,0,0,1,.117.385v.308h-.747q-.029-.28-.267-.28h-1.4c-.18,0-.271.112-.271.335v1.531c0,.223.091.335.271.335h1.4a.236.236,0,0,0,.187-.083.348.348,0,0,0,.081-.22h.747Z" transform="translate(129.577 -268.058)"/><path class="c" d="M-67.55,271.4h-.793c-.074-.2-.145-.377-.214-.536a.187.187,0,0,0-.192-.106h-1.691a.176.176,0,0,0-.188.106q-.029.06-.217.536h-.793l1.413-3.342h1.256Zm-1.338-1.339a.4.4,0,0,0-.032-.133l-.469-1.2c-.038-.1-.073-.146-.107-.146h-.2c-.033,0-.069.049-.107.146l-.459,1.2a.369.369,0,0,0-.035.133.115.115,0,0,0,.132.128h1.145C-68.932,270.185-68.888,270.144-68.888,270.061Z" transform="translate(128.264 -268.058)"/><path class="c" d="M-62.556,270.86a.625.625,0,0,1-.116.387.355.355,0,0,1-.3.154h-2.459q-.416,0-.409-.688v-.119h.729a.3.3,0,0,0,.067.187.188.188,0,0,0,.146.088h1.328a.226.226,0,0,0,.242-.16,1.544,1.544,0,0,0,.029-.376.381.381,0,0,0-.075-.245.239.239,0,0,0-.2-.094h-1.889a.349.349,0,0,1-.294-.158.65.65,0,0,1-.116-.393V268.6a.638.638,0,0,1,.113-.388.353.353,0,0,1,.3-.153h2.462q.416,0,.409.688v.119h-.733a.316.316,0,0,0-.067-.191.188.188,0,0,0-.146-.09h-1.328a.221.221,0,0,0-.238.162,1.562,1.562,0,0,0-.029.377.375.375,0,0,0,.075.244.236.236,0,0,0,.192.092h1.893a.354.354,0,0,1,.292.156.621.621,0,0,1,.117.385Z" transform="translate(126.718 -268.058)"/><path class="c" d="M-57.727,268.663H-58.77c-.161,0-.242.086-.242.257V271.4h-.715V268.92c0-.171-.075-.257-.224-.257H-61v-.6h3.274Z" transform="translate(125.416 -268.058)"/></g><g transform="translate(1842.104 15093.746)"><path class="e" d="M-105.531,222.273q.139.253.321.625t.378.8q.2.433.389.886l.363.851.363-.851q.192-.452.389-.886t.378-.8q.181-.372.32-.625h1.092q.077.529.143,1.185t.115,1.365q.05.709.092,1.423t.073,1.342h-1.169q-.023-.775-.062-1.687t-.115-1.841q-.139.323-.309.713t-.335.783q-.166.391-.321.748c-.1.238-.191.441-.262.609h-.839q-.108-.253-.263-.609t-.32-.748q-.166-.392-.336-.783t-.309-.713q-.077.928-.115,1.841t-.062,1.687h-1.17q.031-.629.073-1.342t.092-1.423q.05-.709.116-1.365t.142-1.185Z" transform="translate(107.1 -222.15)"/><path class="e" d="M-91.314,222.273v1.02h-1.608v4.294h-1.2v-4.294H-95.73v-1.02Z" transform="translate(101.939 -222.15)"/><path class="e" d="M-84.824,227.587q-.089-.277-.192-.569l-.2-.581H-87.3q-.1.29-.2.583t-.189.567H-88.94q.3-.858.571-1.587t.529-1.373q.259-.644.509-1.223t.521-1.131h1.137q.263.552.518,1.131t.514,1.223q.259.645.529,1.373t.572,1.587Zm-1.442-4.11c-.027.077-.066.182-.117.315s-.11.286-.176.46-.139.366-.221.575-.164.429-.248.659H-85.5q-.123-.346-.238-.661t-.218-.576l-.181-.46C-86.193,223.657-86.234,223.552-86.266,223.477Z" transform="translate(98.857 -222.15)"/><path class="e" d="M-74.782,227.587q-.515-.912-1.116-1.8a18.367,18.367,0,0,0-1.277-1.68v3.482h-1.185v-5.314h.977q.254.253.562.621t.627.786q.319.418.635.867t.592.863v-3.137h1.193v5.314Z" transform="translate(94.054 -222.15)"/><path class="e" d="M-63.6,224.876a3.107,3.107,0,0,1-.215,1.2,2.242,2.242,0,0,1-.612.851,2.607,2.607,0,0,1-.966.506,4.488,4.488,0,0,1-1.277.169q-.324,0-.754-.027a6.207,6.207,0,0,1-.846-.111v-5.177a7.2,7.2,0,0,1,.866-.1q.45-.027.773-.027a4.688,4.688,0,0,1,1.242.153,2.551,2.551,0,0,1,.958.483,2.158,2.158,0,0,1,.615.844A3.2,3.2,0,0,1-63.6,224.876Zm-3.47,1.687c.056,0,.122.009.2.011s.163,0,.265,0a1.773,1.773,0,0,0,1.335-.453,1.73,1.73,0,0,0,.435-1.25,1.751,1.751,0,0,0-.416-1.265,1.762,1.762,0,0,0-1.315-.43c-.082,0-.167,0-.254,0a2.4,2.4,0,0,0-.246.019Z" transform="translate(89.475 -222.099)"/><path class="e" d="M-55.675,227.587q-.089-.277-.192-.569l-.2-.581h-2.082q-.1.29-.2.583t-.189.567H-59.79q.3-.858.571-1.587t.529-1.373q.259-.644.509-1.223t.521-1.131h1.137q.263.552.518,1.131t.514,1.223q.259.645.529,1.373t.572,1.587Zm-1.442-4.11c-.027.077-.066.182-.117.315s-.11.286-.176.46-.14.366-.221.575-.164.429-.248.659h1.525q-.123-.346-.238-.661t-.218-.576l-.181-.46Q-57.069,223.59-57.117,223.477Z" transform="translate(85.625 -222.15)"/><path class="e" d="M-44.677,224.824a3.261,3.261,0,0,1-.2,1.2,2.475,2.475,0,0,1-.558.867,2.3,2.3,0,0,1-.843.525,3.076,3.076,0,0,1-1.05.176,3,3,0,0,1-1.031-.176,2.378,2.378,0,0,1-.846-.525,2.454,2.454,0,0,1-.569-.867,3.2,3.2,0,0,1-.208-1.2,3.106,3.106,0,0,1,.216-1.2,2.559,2.559,0,0,1,.58-.87,2.4,2.4,0,0,1,.846-.529,2.919,2.919,0,0,1,1.012-.176,3,3,0,0,1,1.031.176,2.355,2.355,0,0,1,.846.529,2.5,2.5,0,0,1,.57.87A3.214,3.214,0,0,1-44.677,224.824Zm-4.07,0a2.4,2.4,0,0,0,.1.706,1.6,1.6,0,0,0,.277.541,1.22,1.22,0,0,0,.442.349,1.394,1.394,0,0,0,.6.123,1.4,1.4,0,0,0,.6-.123,1.22,1.22,0,0,0,.446-.349,1.621,1.621,0,0,0,.277-.541,2.417,2.417,0,0,0,.1-.706,2.457,2.457,0,0,0-.1-.709,1.62,1.62,0,0,0-.277-.544,1.22,1.22,0,0,0-.446-.349,1.4,1.4,0,0,0-.6-.122,1.364,1.364,0,0,0-.6.126,1.262,1.262,0,0,0-.442.353,1.6,1.6,0,0,0-.277.544A2.409,2.409,0,0,0-48.747,224.824Z" transform="translate(81.174 -222.048)"/></g><rect class="e" width="0.498" height="27.531" transform="translate(1838.465 15075.685)"/><g transform="translate(1819.67 15071.609)"><path class="f" d="M-142.851,185.683l-2.57-.58,1.492-3.317.249,1.409s5.8-1.161,6.468,1.493c0,0-.995-1.327-5.97-.166Z" transform="translate(145.421 -181.786)"/><path class="g" d="M-132.514,189.3s1.694-2.135.746-3.566c.593.455,2.4,2.57,1.575,6.219l-.5-2.488Z" transform="translate(139.562 -183.578)"/></g><path class="h" d="M-156.444,232.874l2.939.618-1.683,3.638-.293-1.54s-6.62,1.309-7.394-1.589c0,0,1.145,1.444,6.818.141Z" transform="translate(1972.5 14866.819)"/><path class="g" d="M-162.893,226.876s-1.921,2.346-.829,3.9c-.68-.494-2.762-2.8-1.839-6.792l.584,2.717Z" transform="translate(1973.824 14870.83)"/><g transform="translate(1806.299 15075.998)"><circle class="g" cx="11.444" cy="11.444" r="11.444"/><circle class="i" cx="10.78" cy="10.78" r="10.78" transform="translate(0.663 0.663)"/><g transform="translate(0.664 0.663)"><g transform="translate(0.017 0.018)"><path class="a" d="M-167.718,201.692a10.763,10.763,0,0,0,10.763,10.763,10.762,10.762,0,0,0,10.762-10.763,10.762,10.762,0,0,0-10.762-10.762A10.762,10.762,0,0,0-167.718,201.692Z" transform="translate(167.718 -190.93)"/><g transform="translate(0.182 1.208)"><path class="c" d="M-148.353,205.167c0,.009.022.064.036.068a.179.179,0,0,0,.082-.114C-148.229,205.052-148.344,205.108-148.353,205.167Zm-3.466-8.369c.131.02.14.105.217.115,0-.007,0-.018,0-.022s-.067-.1-.134-.114a.43.43,0,0,1-.084-.009C-151.824,196.776-151.819,196.788-151.819,196.8Zm.527.265a.387.387,0,0,0-.126-.082c-.006,0-.011.009-.017.01a.365.365,0,0,0,.148.112C-151.273,197.1-151.281,197.074-151.292,197.062Zm-.728-.421c-.016-.022-.086-.031-.094-.037a.215.215,0,0,0,.107.1c.009,0,0-.021,0-.027S-152.014,196.653-152.02,196.641Zm.549,9.125c-.058.005-.112.006-.172.009-.009.005-.062-.015-.062-.015-.086-.027-.17-.016-.224-.038-.077-.043-.035-.173-.121-.172-.03,0-.054.066-.057.094,0,.134.112.1.114.209.108.022.152.082.274.077a.281.281,0,0,0,.087-.046v0l0,0s.006,0,.007-.007C-151.569,205.835-151.487,205.841-151.471,205.767Zm3.369-3.255a.158.158,0,0,0,.005.052h-.026a.385.385,0,0,0,.008.084s-.036.048-.031.048a.272.272,0,0,0,.024.068.219.219,0,0,0,.066,0,.161.161,0,0,1-.029.107c0,.009,0,.022,0,.031h.039c.034,0,.034-.044.015-.073,0-.009,0-.023,0-.032.036,0,.059-.055.059-.069s0-.022,0-.032h-.056c-.01,0-.024-.022-.025-.032,0-.074.084-.117.089-.152-.014-.01-.026-.021-.041-.021C-148.042,202.492-148.061,202.51-148.1,202.512Zm-1.8-4.226a.125.125,0,0,1,.031.055.024.024,0,0,1-.022.02c-.082-.009-.091-.056-.154-.086a.742.742,0,0,1-.328-.418c0-.029.02-.033.014-.054-.007-.055-.073-.173-.141-.187-.01,0,0,.062-.066,0,.005,0,.011-.006.015,0s.02-.041.005-.04c-.035,0-.057,0-.06.015a.171.171,0,0,0,0,.091c.009.067-.061.086-.053.155s.078.092.091.156c0,.009,0,.022,0,.028s.035.009.049.016c.053.023.057.165.061.22s.063.078.072.141a.191.191,0,0,1-.017.089c.067.038.068.087.136.111.015-.04-.007-.049-.013-.078.077.054.118.066.152.132.009,0,.02-.013.023-.021s.035,0,.051.005a.192.192,0,0,0,.108.07c.111.012.094-.076.137-.064.014,0,.035.029.034.042s-.046.071-.042.071a.267.267,0,0,1,.05.011c.036,0,.1.092.133.14.037,0,.029-.044.063-.04.015,0,0-.026,0-.038a.764.764,0,0,0-.024-.084.494.494,0,0,1,.141-.023c.031,0,.039.037.052.044.046.022.07.006.107.029a.82.82,0,0,0,.25.1c.035,0,.063.008.062-.009s-.048-.027-.063-.042c-.106-.081-.164-.2-.283-.222s-.2-.026-.3-.042c-.084-.017-.132-.164-.175-.168A1.39,1.39,0,0,0-149.906,198.286Zm-1.521-1.308a.012.012,0,0,0,.009,0s0,0,.007,0S-151.422,196.978-151.427,196.978Zm.548-.458c-.007-.055.023-.052.014-.1s-.035-.071-.046-.121c-.011-.075-.028-.14-.039-.217-.007-.052.06-.061.052-.116a.269.269,0,0,0-.141-.2c0-.022-.02-.033-.029-.049a.291.291,0,0,1-.015-.074.261.261,0,0,0-.035-.007.223.223,0,0,1-.029.151c-.008.05.038.09.01.133a.626.626,0,0,0,.016.087.114.114,0,0,1-.019.093c-.027.086-.076.149-.1.236a.126.126,0,0,1,.1-.032.237.237,0,0,1,.191.245c.013.087-.088.116-.121.174,0,0,.013,0,.016.007A.043.043,0,0,0-151,196.7l.052.008c.066.009.076.094.138.1.015,0-.01-.1-.018-.113C-150.841,196.625-150.866,196.582-150.879,196.52Zm.328.762s0-.007.009-.007a.118.118,0,0,1-.051-.008c-.091-.015-.15-.191-.158-.252,0-.016.026-.025.02-.04a.117.117,0,0,0-.039-.062c-.132.062-.165.192-.381.166-.046,0-.085-.04-.115-.023.01.021.035.038.04.058s-.038.052-.058.051a.365.365,0,0,0,.173.062c.117.016.159.127.213.186.081-.035.129-.037.214-.075a.077.077,0,0,1,.041.041c.069.012.149-.025.159.055,0,.044-.069.033-.089.05.048.055.088.045.133.086.01,0,.021,0,.031,0,0-.035-.013-.073-.014-.105,0-.016.024-.026.019-.042-.011-.05-.1-.1-.108-.127a.076.076,0,0,1-.005-.036C-150.531,197.272-150.538,197.282-150.551,197.283Zm1.6,1.668c-.039,0-.06.031-.115.02,0,.013.016.05,0,.047a.231.231,0,0,0-.037.032c0,.013.016.036.005.048.014,0,.031.018.042.006.022.09.074.241.141.25.008,0,.011-.007.012-.016v0c.035,0,.055-.051.055-.068l-.054-.083a.316.316,0,0,1-.026-.069c.031,0,.03-.035.029-.056,0,.013.016.031,0,.043a.464.464,0,0,1,.056.027.04.04,0,0,0,.039-.045C-148.8,199.064-148.942,198.959-148.954,198.951Zm.2,6.185c-.014.046-.055.07-.061.108,0,.01.017.007.026.009.063-.009.1-.065.158-.072.036,0,.063-.005.1-.009a.332.332,0,0,0,.078-.03c0-.024-.017-.038-.026-.049-.061,0-.125.013-.194.017-.013.044-.04.023-.068.029Zm-3.146.132a.663.663,0,0,0-.236.188c-.051.051-.108.042-.117.128,0,.01,0,.034,0,.043.01,0,.029.01.036,0,.073-.016.078-.055.064-.119.083-.039.07-.105.147-.16C-151.958,205.315-151.917,205.3-151.9,205.268Zm3.7.908c.02.028.072.078.121.071.019,0,.027-.035.033-.054.008-.123-.061-.111-.118-.125-.014-.005-.008-.034-.014-.046-.035-.046-.2-.042-.257-.007a.249.249,0,0,0,.231.091C-148.179,206.1-148.215,206.163-148.2,206.175Zm-.3-1.788c0,.028.038.043.039.072s-.031.051-.039.088a.365.365,0,0,0,.1,0c0,.012-.006.03,0,.04a.507.507,0,0,1-.052.1c.045,0,.067-.085.061-.114a.308.308,0,0,0,0-.074c0-.066.036-.089.042-.163,0-.05,0-.089-.033-.114A.183.183,0,0,1-148.5,204.387Zm-2.883,1.764c-.062.066-.052.1-.1.178a.275.275,0,0,1-.128.067c-.014,0-.037.051-.049.068s-.05.01-.069.016c-.038.011-.054.055-.062.075s-.1.028-.116.031c.037.024.073.057.069.09a.24.24,0,0,0,.034,0c.009,0,.1-.071.113-.078.046,0,.106-.008.147-.01.086-.023.21-.1.223-.162,0-.019.051-.039.058-.051.123-.125.221-.3.409-.31.139-.008.119.094.189.133-.025.079.016.1.017.138a1.908,1.908,0,0,1,.2-.016c.136-.016.183-.192.319-.205.019,0,.078,0,.074.028.039,0,.074,0,.106-.01s.079-.015.084-.053c0-.069-.087-.091-.117-.1.078-.091.049-.168.084-.255s.163-.147.221-.179a.841.841,0,0,1,.268-.079c.075-.009.107-.159.185-.135a.128.128,0,0,1,0-.052c.01.047.026.1.064.1.014,0,.043-.007.048-.021.029-.06.009-.079.031-.128s.077-.038.088-.075c-.066-.033-.2-.017-.233-.08a.166.166,0,0,0,.033,0,.376.376,0,0,0,.135.014c.024,0,.042-.018.066-.022a.124.124,0,0,0,.031-.054c.039-.084.144-.059.149-.137,0-.028-.032-.048-.061-.048-.057,0-.082-.088-.165-.087s-.143.1-.233.131c0,.071-.007.141-.011.21a.082.082,0,0,1-.075.058c0,.019-.075.122-.1.123s-.074-.082-.082-.093a.182.182,0,0,0-.114-.068c-.046-.015-.093-.116-.159-.126,0,.024-.048.029-.062.033-.064.028-.112.1-.139.121-.046,0-.1.007-.14.008a.246.246,0,0,1-.093.054s.011-.009.013-.014-.014.01-.016.015l-.011,0v.007a.782.782,0,0,1-.369.146c-.061.009-.1.094-.167.093,0,.051-.051.058-.074.064-.182.074-.179.227-.32.311-.061.031-.171-.028-.179.106,0,.066.105.047.1.09A.7.7,0,0,1-151.384,206.151Zm2.026-.41c-.007.058-.019.118.019.117a.069.069,0,0,0,.032-.049c.005-.056-.038-.064-.04-.092s.012-.088-.021-.094c-.013.049-.024.031-.024.064S-149.382,205.743-149.358,205.742ZM-149.2,199c.029-.019.029-.027.031-.048,0,0-.1-.08-.1-.084-.079.01-.1-.068-.169-.079-.108-.009-.026.159.019.168a.091.091,0,0,0,.068-.025c.048.051.064.122.127.135C-149.193,199.068-149.194,199.02-149.2,199Zm.168,7.51c0,.023-.005.056-.008.078a.213.213,0,0,0,.045-.006.263.263,0,0,0,.14-.07A.472.472,0,0,0-149.029,206.51Zm-2.613-.613a.035.035,0,0,1,.01-.01S-151.641,205.893-151.642,205.9Zm4.064-4.932c.082,0,.061-.063.05-.145-.011-.113-.11-.337-.171-.342C-147.8,200.469-147.669,200.949-147.578,200.964Zm-3.5-7.315a.612.612,0,0,0-.213-.116c-.128-.04-.117-.007-.231-.037-.014-.034-.041-.031-.091-.059-.081-.017-.322-.069-.415-.084a.666.666,0,0,0,.1.067c.04.015.079.02.12.033s.067.034.117.045c.032.012.04,0,.073.009s.054.023.091.035a.491.491,0,0,0,.1.04c.04.017.043.017.07.01a.621.621,0,0,0,.1.051C-151.146,193.674-151.06,193.7-151.08,193.65Zm4.7,11.505c-.006.054.019.067.046.054q.1-.441.174-.894s0,0,0,0c-.019,0-.019.026-.022.048a.18.18,0,0,1,0,.048c-.01.067.006.079-.047.088a.422.422,0,0,1-.068.2c-.016.035-.051.048-.054.1s-.017.143-.024.214C-146.339,205.055-146.379,205.105-146.383,205.155Zm-4.487-11.432a.026.026,0,0,0,0-.008.091.091,0,0,0-.023-.015l-.015-.008c-.014,0-.011,0-.026,0l-.008,0,0,0h0c.009.012.019.013.048.032S-150.857,193.731-150.869,193.723Zm4.71,10.449.016,0c.028-.208.052-.418.068-.629a.492.492,0,0,0-.051.2c0,.048.007.049,0,.09a.451.451,0,0,1-.05.178c-.011.062-.015.094-.028.143.021,0,.006,0,.027,0S-146.171,204.181-146.159,204.172Zm-5.2-10.472a.757.757,0,0,0-.228-.1c-.117-.032-.2-.053-.185,0,.045.014.088.02.134.037.078,0,.179.042.254.053Zm-5.574-.5c0-.037-.165-.049-.261-.054s-.3.011-.3.048a2.406,2.406,0,0,0,.5.023C-156.964,193.213-156.937,193.209-156.937,193.2Zm1.689.138c-.06,0-.118-.009-.182-.011-.006.009-.035,0-.037.019a.1.1,0,0,0,.057.02A.251.251,0,0,0-155.248,193.334Zm2.966-.028a.072.072,0,0,0,.025,0c-.092-.014-.511-.087-.528-.093s-.055,0-.043,0c.006.026.148.049.223.067C-152.482,193.309-152.257,193.361-152.282,193.306Zm.025,0,.016,0A.03.03,0,0,0-152.257,193.3Zm.875.337c-.022-.032-.124-.068-.117-.035a.174.174,0,0,0,.074.038C-151.375,193.662-151.378,193.662-151.383,193.641Zm4.192,9.492c.012,0,.016.007.025,0-.051-.147-.174-.21-.227-.315-.011-.023-.014-.047-.025-.066a.1.1,0,0,1-.028.081c.02.016.016.03.041.03.01.046.028.054.069.054A.352.352,0,0,0-147.19,203.133Zm.784,1.694c.025-.016.017-.026.034-.037s.02-.058.023-.074c.013-.042.043-.027.05-.065a.046.046,0,0,0-.041-.055c-.022.077-.01.164-.075.182,0,.016,0,.035-.008.051S-146.417,204.825-146.406,204.827Zm-.914-.487c.016,0,.018.005.034.008a.255.255,0,0,0,.014.053,1.17,1.17,0,0,1,.028.241c.038.007.063.086.064.115s-.017.054-.023.078a.692.692,0,0,1,.025.176c.056.017.045.08.092.07.032-.007.048-.052.048-.081.056-.029.1-.094.143-.105s.01.044.068.045c.012-.008.011-.032.026-.03s.009-.059.013-.079c.036-.016.019.02.057.015.1-.019.072-.189.119-.3,0-.007,0-.017,0-.025,0-.026.022-.017.037-.037a.647.647,0,0,0,.056-.223c.005-.089-.022-.044-.09-.04-.091.01-.066-.152-.1-.224-.021-.034-.028-.022-.079-.04s-.039-.058-.064-.106c.011-.025-.019-.063-.019-.063-.026-.021-.007-.023-.03-.036s-.008-.032-.017-.042c-.026-.046-.1-.017-.112-.058-.022-.088-.088-.293-.146-.29s-.057.057-.055.14c-.01.116-.142.054-.153.168,0,.051.074.019.076.063,0,.01-.005.029-.015.028a1.158,1.158,0,0,0,.1.072c0,.016-.014.034-.016.05a.041.041,0,0,1,.022.037c-.006.084-.108.36-.175.371C-147.387,204.375-147.366,204.347-147.32,204.34Zm-.177-2.45a.473.473,0,0,1-.042-.153c-.007-.062.007-.105,0-.161s-.013-.1-.053-.1-.013.088-.059.088c-.031,0-.039-.041-.059-.054a.057.057,0,0,1,0,.025c0,.01,0,.025,0,.035a1.942,1.942,0,0,0-.023.229c.02.113.089.123.1.233a.309.309,0,0,1-.075.23.21.21,0,0,0,0-.026.054.054,0,0,0-.05-.042c-.049,0-.044.116-.074.119s-.021-.038-.042-.037-.017,0-.025.01c.007.027.031.04.032.062s-.02.007-.029,0c.007.044-.014.068-.049.063,0,.011,0,.03,0,.042s.01.032.02.031.018-.028.017-.042c.022-.06.116-.112.135-.155.027.035.011.062.006.1.055,0,.055-.114.106-.112.031,0,.038.024.068.031s.053-.049.052-.072a.111.111,0,0,0-.03-.056.231.231,0,0,1-.005-.051c.01,0,.014,0,.023,0,.01.015.016.038.032.037a.147.147,0,0,0,.075-.09C-147.461,201.985-147.448,201.877-147.5,201.89Zm.092,4.03c.038-.007.072-.031.072-.05.008-.058-.009-.053-.05-.041a.126.126,0,0,0-.067.033.089.089,0,0,0,0-.042.714.714,0,0,1-.084.015c0,.044,0,.07-.01.08.015,0,.018,0,.032-.006l.031-.027C-147.449,205.9-147.452,205.933-147.4,205.92Zm.189-.151c0,.022.019.054.028.05.032,0,.013-.046.07-.05.015,0,0,.037-.007.051a.811.811,0,0,1,.319-.149c.038-.009.031-.068.077-.083a.268.268,0,0,0,.145-.073c.044-.032.069.006.1-.052s.023-.1.09-.129c0-.015-.015-.093-.043-.087s-.007.028-.021.025c-.025.014-.005-.026-.034-.02-.07.023-.131.186-.212.209-.043.008-.014-.063-.072-.057s-.085.114-.139.121c-.031,0-.038,0-.086,0-.013,0-.012.008-.025,0,0,.024.1.017.106.012a.188.188,0,0,1-.134.094c-.028.008-.021.042-.03.052-.023.04-.041,0-.076.026A.7.7,0,0,0-147.216,205.769Zm-.1.055c0,.029,0,.049.026.046a.083.083,0,0,0,.031-.042.239.239,0,0,1,.007-.052c-.014,0-.015,0-.029.005S-147.294,205.811-147.312,205.824Zm.819-4.238c0-.026.016-.061,0-.068s-.084-.126-.141-.131c-.021-.006-.028.039-.025.064,0,.068.06.2.124.219S-146.485,201.648-146.492,201.586Zm.013,3.228c0-.008,0-.017,0-.026-.014.009-.022-.011-.025,0-.015,0-.023.015-.026.03s-.007.062.021.055S-146.484,204.837-146.48,204.814Zm-1.37,1.161c.048-.005.087-.019.134-.023s.081-.008.086-.068-.028-.033-.061-.026c-.072.013-.1.055-.153.063s-.063-.014-.1-.037C-147.93,205.952-147.9,205.958-147.849,205.975Zm-9.427,1.809c0,.016,0,.043,0,.059.087.018.1.082.177.086a.093.093,0,0,0,.042-.059C-157.063,207.79-157.245,207.781-157.277,207.783Zm.352,3.275c-.015,0-.033.016-.048.023.086.056.058.13.119.189.008,0,.016-.014.024-.019a.028.028,0,0,0,.017.011c.06.01.117.016.118.048,0,.011-.024.025-.024.038,0,.028.069.064.082.072.058.052.1.129.216.124.054,0,.09-.015.088-.047s-.065-.055-.068-.1c.005-.079.214-.048.221-.114,0-.04-.055-.041-.081-.058a.149.149,0,0,1-.068-.147A.19.19,0,0,1-156.3,211v0c.02-.031.069-.043.067-.075,0-.012-.009-.03-.017-.039a.363.363,0,0,0,.265-.249c-.073.072-.167.076-.232.117-.037.023-.045.052-.074.066.009.01.023.015.023.027a.38.38,0,0,1-.1.127h-.035c0-.025-.029-.039-.053-.038h-.037c0,.108-.081.157-.222.16C-156.836,211.1-156.832,211.06-156.925,211.059Zm-.1-2.948c.044.041.056.026.1.027s.147-.018.147-.039c0-.084-.1-.1-.162-.123a.136.136,0,0,1-.085.058C-157.022,208.054-157.021,208.089-157.022,208.11Zm-.577-14.558a7.662,7.662,0,0,0-1.172.294.983.983,0,0,1,.325.041c.062.029.077.108.186.106.258-.02.548-.211.9-.226.115,0,.055.054.082.079.072.052.39.034.392.137-.012.037-.608.144.244.158a9.506,9.506,0,0,1,1.124.3,2.552,2.552,0,0,1,.352-.017c.075.011.169.052.248.063.1.011.161-.033.265,0a1.116,1.116,0,0,1,.454.3c.066.07-.127-.005-.123.034a.238.238,0,0,0,.055.168c.068.073.2.148.212.2s.283.112.266.2c.262.062.363.244.5.36.165-.072.188-.45.173-.569-.022-.14-.23-.236-.393-.289a1.76,1.76,0,0,1-.455-.3,2.16,2.16,0,0,0-.437-.14c-.187-.072-.135-.129-.153-.173s-.122-.076-.064-.085a.56.56,0,0,1,.169.029c.577.389.658.185.56.14a1.654,1.654,0,0,1,.324.034.618.618,0,0,1,.554.371c.1.015.192.02.29.038.134.019.215-.015.431.014.169.025.712.122.908.178a4.593,4.593,0,0,1,.791.45c.109.074.349.271.368.346,0,.017-.094.164-.4-.016-.112-.054-.214.144-.2.244a.685.685,0,0,0,.123.212c.1.116.056.146.114.256a1.214,1.214,0,0,0,.265.316c.219.19.552.687.814.743.148.027.137-.079.137-.079a2.233,2.233,0,0,1,.4.407c.026.031.109.093.14.122a.334.334,0,0,0,.135.084c.016.068,0,.087-.048.121a.469.469,0,0,0-.091.412.264.264,0,0,0,.114.21c.029.016.135.043.14.085a.2.2,0,0,1,.09.061c.024.007.038,0,.062.011,0-.023-.029-.048-.033-.071.023-.006.015-.029.013-.047-.008-.038-.055-.11-.054-.124s.015-.055.008-.082c.029,0,.027-.017.036-.027a.23.23,0,0,1-.008-.05.11.11,0,0,1-.076-.079c0-.062.039-.136.086-.127.032.008.045.032.06.032.033.007.031-.039.028-.057-.01-.049-.054-.054-.057-.091s.007-.045-.015-.084c.057.011.07-.023.117-.013.125.036.206.168.311.2-.014-.068-.084-.112-.1-.171a.048.048,0,0,1,.057-.052.165.165,0,0,1,.068.064,1.7,1.7,0,0,0,.181.18c.058.05.146.057.165.131,0,.039-.039.033-.06.043-.031.025.02.114-.038.152-.023.02-.056,0-.091-.014s-.039-.162-.079-.169-.031.064-.062.088-.107-.037-.133.011c.1.116.193.037.251.177.03.063.113.109.131.167a.087.087,0,0,1-.079.1c0,.032.008.064.011.093h-.007l0,0c-.03.017-.016.076-.028.1a.5.5,0,0,0-.057.352c.021.156.08.21.1.325a1.154,1.154,0,0,1,.21.314c.04.108.086.293.173.312a.175.175,0,0,0,.061.1c.108.1.174.243.321.269.036,0-.014.03.036.03a.832.832,0,0,1,.046.1c.047.063.116.028.178.085a.806.806,0,0,1,.105.085c.021.044-.023.114.029.118s.068-.181.064-.206c.044-.04.041.021.087-.015.066.173.164.221.193.446a.18.18,0,0,1-.015.075,1.4,1.4,0,0,1-.118.323.925.925,0,0,0-.092.449c0,.125.032.165.034.268.085.045.092.1.151.171.029.033-.007.114.051.115,0,0,0,0,.007,0V203c.005.056.033.128.052.129s.018-.074.019-.1a.14.14,0,0,0-.008-.073c.015-.015.015-.052.015-.078.034,0,.073-.025.073-.1.044,0,.024-.072.044-.137a.194.194,0,0,1,.022-.044,10.743,10.743,0,0,0-4.024-8.289.191.191,0,0,1-.149-.017.306.306,0,0,1-.137-.116c-.131-.042-.2-.052-.316-.087-.211-.076-.2-.078-.531-.184a.982.982,0,0,0-.556-.268,3.061,3.061,0,0,0-.686-.126c-.132-.012-.116.021-.208.045s-.687-.086-.876-.115c-.345-.053-.446-.037-.5.062-.407-.046-.795-.078-1.215-.1-.042,0-.527.121-.443.01.02-.028-.1-.042-.275-.052A6.113,6.113,0,0,0-157.6,193.552Zm2.4,18.579c-.029.005-.072,0-.1.007a.118.118,0,0,0,.1.047C-155.205,212.149-155.21,212.159-155.2,212.131Zm1.522-5.611c.067,0,.179-.164.186-.2A.409.409,0,0,0-153.676,206.52Zm-.169.236c0,.009,0,.027,0,.036.066,0,.1-.1.1-.13C-153.8,206.693-153.85,206.719-153.845,206.756Zm-2.4,4.8c.015.042.128.177.221.17.016.052-.015.057,0,.105.025,0,.173.015.211.01.021.039.164.223.164.223a.543.543,0,0,0,.209.067c.02,0,.1-.023.125-.023a1.137,1.137,0,0,0,.258-.079c.009,0,.031-.007.029-.015,0-.086-.158-.117-.21-.166a.114.114,0,0,0-.088-.039c-.141.008-.222-.073-.313-.1a.571.571,0,0,1-.105-.08s.005-.026,0-.034a.142.142,0,0,0-.1-.035c0-.008,0-.013,0-.021,0-.054-.084-.1-.135-.114a.041.041,0,0,1-.043.037c0,.029,0,.049-.031.051s-.073-.025-.1-.029c-.007.011-.027.014-.042.015A.05.05,0,0,1-156.25,211.557Zm2.576-4.91a.1.1,0,0,0,.031.011c.076,0,.171-.031.176-.1A.253.253,0,0,0-153.674,206.647Zm-6.832-6.218c0,.017-.008.051-.012.068.02,0,.057,0,.076,0a.153.153,0,0,0,.09-.061.22.22,0,0,1-.065-.041A.172.172,0,0,1-160.506,200.429Zm-3.766-4.47c0-.025.02-.039.019-.061.064-.033.039-.039.09-.027.018-.076,0-.068-.088-.029-.016.08-.119.12-.144.189,0,.025,0,.03.023.022C-164.335,196.038-164.276,195.959-164.273,195.959Zm.285-.3c0,.043-.075.079-.025.113a.319.319,0,0,0,.1-.141.246.246,0,0,0,.141-.123c.007-.027-.022-.014-.042-.015-.077.025-.047.032-.1.029-.025.079-.005.063-.038.126C-163.949,195.654-163.978,195.657-163.988,195.657Zm-.548.73c.032-.008.061-.052.073-.078a.073.073,0,0,0-.007-.031c.032-.014.047-.06.076-.06a.517.517,0,0,0,.064-.072c0-.01.008-.016.007-.026-.038.014-.06.032-.1.05,0,0,.041.021.014.031s-.033-.007-.042-.025a.434.434,0,0,0-.019.07c-.007.016-.024.028-.031.044s.014.012.011.026S-164.583,196.4-164.536,196.386Zm-2.837,4.677c-.01,0,.044-.088.048-.106.042-.012.079-.126.108-.162a.39.39,0,0,1,.029-.048c0-.039.011-.082.013-.12.033-.06.064-.115.092-.165.044-.075.093-.069.138-.15-.023.008-.08.037-.049-.027a1.358,1.358,0,0,1,.168-.283,1.269,1.269,0,0,0,.081-.232,2.183,2.183,0,0,0,.106-.236.065.065,0,0,0,.005-.032s0,0-.006,0a1.206,1.206,0,0,1,.367-.384c.029-.022.029-.073.043-.108.075-.175.136-.132.156-.315.074-.037.18-.254.274-.406.022-.044.007-.051-.018-.075.062-.11.054-.17.119-.287a5.964,5.964,0,0,0,.1-.605c.018-.071.107-.117.128-.186,0-.013-.014-.016-.028-.012l.006,0a1.464,1.464,0,0,0,.3-.211c0-.027-.013-.01-.027-.02a.461.461,0,0,0,.211-.135c-.025,0-.028-.005-.03-.017a.393.393,0,0,0,.06-.031c.007,0,.01-.009.015,0-.02-.007-.028-.013-.048,0a.388.388,0,0,0-.112.078,1.535,1.535,0,0,0-.387.322.061.061,0,0,1-.008.029.045.045,0,0,0,.017-.007.028.028,0,0,0-.01.008.25.25,0,0,0-.112.085.046.046,0,0,1-.025-.061c.008-.031.047-.048.062-.082a.165.165,0,0,0,.042-.031c.042-.043.127-.082.148-.111.052-.088.157-.091.2-.155a.335.335,0,0,0,.2-.2c.007-.008.116-.087.116-.087.051-.042.023-.06.063-.1a.314.314,0,0,1,.091-.05.936.936,0,0,0,.154-.265c0-.019.031-.031.035-.046a.1.1,0,0,0,.038-.01c.067-.025.188-.1.191-.135.011-.011.009-.025.013-.04.015-.044.061-.056.134-.079s.081-.045.086-.063-.058,0-.048-.027.011-.021.011-.035c.076-.02.046.013.1,0a.323.323,0,0,0,.075-.059c.009-.036-.017-.023-.024-.043.021-.021.06-.062.08-.042a.427.427,0,0,0,.139-.077c.006.029.016.049.05.029a.72.72,0,0,0,.234-.158c.131-.08.28-.115.431-.2.083-.022.172-.043.256-.061a1.34,1.34,0,0,0,.452-.24c.052,0,.144,0,.192,0a.451.451,0,0,1-.058.048,1.082,1.082,0,0,0,.472.06.174.174,0,0,0,.056-.028c0-.019-.028-.02-.037-.015.029-.023.01-.018.012-.034.013-.06-.05-.1-.2-.091.005-.01,0-.015,0-.026a.17.17,0,0,0,.061-.011c.125-.017.443.085.434.174,0,.015,0,.025-.007.04-.01.063.1.064.221.073a.228.228,0,0,1,.125.05c.073.037.254.051.34.081a1.433,1.433,0,0,0,.441.037c.2,0,.292.193.547.138-.067-.052-.176-.02-.274-.042-.066-.021-.1-.143-.164-.158-.1-.016-.208.021-.268-.015a2.543,2.543,0,0,0-.424-.1c-.121-.022-.11-.108-.229-.129.023-.007.057-.007.081-.011a.686.686,0,0,0,.2.008.982.982,0,0,0,.152-.04c.016.022.027.023.031.044a1.107,1.107,0,0,0,.278-.107c.013.016,0,.028,0,.04a.217.217,0,0,0,.068-.008c.029,0,.062.015.081.013s.058-.051.066-.074a.478.478,0,0,0,.007-.054.051.051,0,0,1,.05-.045c.049,0,.087.034.106.034a2.087,2.087,0,0,0,.4-.158c-.025,0-.06,0-.085,0,.059-.06.235-.086.241-.133.007-.079-.158-.171-.275-.165a2.137,2.137,0,0,1-.541.01.459.459,0,0,1,.076-.1c-.054-.011-.021.021-.055.034,0-.015.005-.022.006-.037.052,0,.026-.032.055-.036.089-.012.111.031.229.014a1.747,1.747,0,0,1,.235-.042c.116-.012.3-.042.341-.048.011-.038.08-.047.081-.074,0-.011,0-.025-.014-.022a.35.35,0,0,0,.173-.052c-.137-.025-.4-.009-.53-.038-.03,0-.069.008-.1.01-.012.076-.088.066-.21.076a.859.859,0,0,1-.152.019c.07-.082.181-.1.344-.149.048-.016.158-.081.218-.1s.281-.064.3-.078l-.074-.054c-.1.011-.2.016-.3.031a1.767,1.767,0,0,0-.672-.094c-.071,0-.117.028-.19.025s-.117-.043-.2-.024a1.183,1.183,0,0,0-.164.059c.019.009.023.007.038.02a.146.146,0,0,1-.117-.005c-.06.021-.078.023-.121.043l-.246.049c-.066.032-.086.037-.159.073-.125.025-.242.056-.367.082a3.111,3.111,0,0,1-.538.185c-.08.021-.121.017-.2.044a1.137,1.137,0,0,0-.23.084v0a.389.389,0,0,1-.051.016l-.071.046c-.2.1-.464.228-.568.264-.035.013.165-.1-.088-.011-.037.015.017-.061-.111.033a.268.268,0,0,1-.075.029,10.749,10.749,0,0,0-3.637,6.236l0,0c.022-.039.01-.08.029-.134.031-.086.1-.111.117-.225.018-.01.022-.016.023-.018a.018.018,0,0,0,0,.011c.042-.068.068-.127.105-.182s.034-.126.061-.169.036-.137.063-.17c.056-.046.091-.054.137-.127a.1.1,0,0,1,0,.058,1.147,1.147,0,0,1-.084.246c-.027.075-.067.087-.1.137a.673.673,0,0,0-.08.2c-.034.112-.078.174-.116.273a.822.822,0,0,1-.108.3c-.014-.032-.052.052-.054.088S-167.386,201.07-167.373,201.063Zm6.306-.364c-.062,0-.126,0-.193.005a.239.239,0,0,0,.138.063C-161.1,200.766-161.07,200.718-161.067,200.7Zm.111-.105a.148.148,0,0,0,0,.051c0,.013.036.029.053.032a.252.252,0,0,0,.1-.062.52.52,0,0,0-.076-.007h.022A.36.36,0,0,0-160.956,200.594Zm-.468-5.423c.052-.031.087-.04.12-.059a.132.132,0,0,1,.007-.039,1.508,1.508,0,0,0-.247-.011.157.157,0,0,1-.063.01.159.159,0,0,0-.007.039A.661.661,0,0,1-161.424,195.171Zm-.376,6c0,.015,0,.044,0,.059a.982.982,0,0,0,.188.037.09.09,0,0,0,.064-.061,1.061,1.061,0,0,1,0-.118A.366.366,0,0,0-161.8,201.167Zm.464-.376a.274.274,0,0,0-.14.071l.042.016C-161.38,200.874-161.363,200.81-161.336,200.791Zm7.983,5.5a.275.275,0,0,1,.049.01c.049,0,.189-.052.194-.123,0,0-.01,0-.011,0a.129.129,0,0,1-.011-.018C-153.19,206.192-153.316,206.23-153.353,206.288Zm5.433-3.512h-.038c.012.094.066.113.073.2.008,0,.013,0,.021,0A.76.76,0,0,1-147.92,202.776Zm.252,3.229c-.01.075-.061.067-.07.132,0,.015.01.033.024.032a.029.029,0,0,1,.015,0c.022-.009.026-.059.031-.073.039-.009.1-.022.1-.076s-.03-.026-.063-.019A.081.081,0,0,1-147.669,206.006Zm.181-1.282c0-.02-.031-.05-.026-.079,0-.135-.028-.312-.119-.3-.088.028-.175.061-.269.087a.121.121,0,0,1-.031,0,.957.957,0,0,0-.121-.121c-.009,0-.015,0-.024,0,0,.015,0,.042.017.044.011.085.026.18.11.172.05,0,.086-.047.138-.05s.073.017.141.01.12-.031.116.077c-.006.084-.037.193-.089.195-.028,0-.019-.027-.037-.051,0,.005,0,.015.006.021a.676.676,0,0,0-.221-.078.15.15,0,0,1,0,.044c.089.032.084.15.19.142a1.322,1.322,0,0,1-.111.241c0,.01.015.022.013.032a.229.229,0,0,1-.061.105c0,.064.074.04.073.1a.354.354,0,0,1,.048-.006.24.24,0,0,1,0-.049c.01-.072.071-.106.074-.176,0-.039-.007-.079-.005-.113.012.009.015-.007.029,0,.031,0,.05.025.049.059-.007.072-.044.113-.048.183,0,.025-.019.211.033.209a.1.1,0,0,0,.063-.078c.008-.086.017-.169.023-.258.028-.01.067-.01.076-.08A.894.894,0,0,0-147.487,204.724Zm-.459-1.816c-.022.014-.04.02-.056,0,.005.059.032.1.078.1.01,0,.023-.017.023-.027C-147.906,202.958-147.932,202.936-147.947,202.908Zm.3-.48c-.007.041.018.1.038.1s.1-.194.1-.194c-.016-.006-.022,0-.039,0C-147.6,202.376-147.646,202.36-147.651,202.428Zm-.059-.062c.011,0,.031.009.04,0C-147.678,202.359-147.7,202.355-147.71,202.366Zm-.131.4a.047.047,0,0,0-.058.058c.007.063.054.1.061.165,0,.044-.02.042-.015.068a.04.04,0,0,0,.027.025.229.229,0,0,0,.08-.137c0-.013-.025-.029-.039-.029S-147.817,202.78-147.84,202.77Zm-.053-.2c.024-.009.034,0,.059,0,0-.022-.007-.056-.008-.078h-.038c-.014.044-.064.066-.055.13C-147.934,202.643-147.886,202.589-147.893,202.568Zm.067.129c.013.087.1.133.146.163,0-.089,0-.193,0-.232,0-.009-.017-.026-.027-.025s-.01.011-.016.016C-147.76,202.64-147.826,202.664-147.826,202.7Zm-4.426,7.956v-.007S-152.255,210.653-152.252,210.653Zm-.609-4.641h0l.007,0Zm.031-.02a.078.078,0,0,1-.025.017A.065.065,0,0,0-152.83,205.993Zm-.149.092a.305.305,0,0,1,.055,0,.7.7,0,0,0,.094-.065.293.293,0,0,0-.031,0C-152.914,206.04-152.956,206.048-152.979,206.084Zm.276-.1c0,.014.026.049.04.047s.036-.029.038-.044a.184.184,0,0,1,0-.049.111.111,0,0,0,.09-.139A1.359,1.359,0,0,0-152.7,205.982Zm2.233,4.2a.17.17,0,0,0,.159-.038C-150.389,210.132-150.4,210.141-150.469,210.185Zm-1.591.874c.052-.02.059-.039.065-.074a.226.226,0,0,1-.066.011C-152.068,211.035-152.057,211.037-152.061,211.06Zm-.5-1.266c-.006.044-.008.088-.016.129.026.036,0,.053.027.087.084.116.174.139.207.281a.786.786,0,0,1,.092.355h0c.037.18.454.023.464.209a1.978,1.978,0,0,0,.276-.164c.115-.011.053.072.177.048.192-.042.51-.2.556-.369.016-.062.085-.122.1-.176a.031.031,0,0,1,.009-.021.186.186,0,0,0,.087.008.411.411,0,0,1,.056-.013.115.115,0,0,1-.011-.083.218.218,0,0,1,.066-.093.194.194,0,0,0,0,.04c.038.012.026.075.093.064.021-.012.051-.029.056-.052-.1.006-.084-.211-.064-.27.064.058.132.248.223.224.055-.012.055-.082.055-.082.033-.015.173-.235.225-.289a1.356,1.356,0,0,1,.494-.245c.151-.038.163.017.238.02.191.008.431-.143.4.047a2.058,2.058,0,0,0,.2-.053c.065-.05.044-.009.094-.038a.145.145,0,0,1,.1,0,10.856,10.856,0,0,0,.715-1.024l.014-.031c.013-.022.027-.041.042-.06a.322.322,0,0,0,.05-.085.089.089,0,0,0,.007-.022c0-.021,0-.019,0-.045-.012.021-.031.047-.041.064-.007-.022,0-.034.015-.053.016-.067.063-.127.094-.23.022-.084.038-.164.063-.246.006-.034,0-.029-.019-.039a.139.139,0,0,1-.014.044c-.054.009-.08-.048-.12-.108-.029-.039-.132-.01-.2-.006-.112.008-.384-.037-.353-.2,0-.026.009-.055.014-.081,0-.051.02-.084-.028-.108-.025.05-.056.075-.073.109-.038-.024-.007-.1-.016-.15-.034.026-.049.052-.087.056.022-.137-.057-.14-.046-.251-.109.022-.115-.072-.2-.06s-.136.118-.152.212a.072.072,0,0,0-.086-.039c-.023.005-.061.046-.07.051-.022-.043,0-.083,0-.123.008-.072-.053-.1-.043-.168s-.165-.093-.242-.082a.172.172,0,0,1-.079-.025c.036-.05.082-.069.1-.132a1.034,1.034,0,0,1-.439.2c-.065.007-.078-.033-.132-.026a.208.208,0,0,0-.108.107c0,.071.063.065.1.092a2.5,2.5,0,0,0,.029.254c0,.042-.076.044-.1.064s-.043.1-.061.11c-.138.07-.214.108-.347.173-.075.041-.116.147-.209.164-.164.01-.155-.277-.171-.4.017-.162.03-.321.045-.484-.079-.061-.048-.132-.134-.173a2.461,2.461,0,0,1-.147.361c-.028.078-.01.17-.073.221-.057.022-.167.064-.185.076-.072.051-.09.215-.12.309-.066.149-.109.225-.17.357s-.292.2-.4.3a.633.633,0,0,0-.124.242c-.033.068-.115.077-.192.085-.023.21-.243.311-.363.416a.027.027,0,0,0,0,.015,1.285,1.285,0,0,0-.2.529C-152.619,209.618-152.606,209.761-152.562,209.793Zm.443,1.423c-.016.087.068.25.168.229a.881.881,0,0,0,.4-.407c.013-.058-.266.054-.271.053a.987.987,0,0,1-.212,0C-152.064,211.142-152.109,211.168-152.119,211.216Zm3.938-8.229a1.707,1.707,0,0,0-.08.4c.007.061.06.082.067.176.016-.005.037-.086.045-.117,0,0,0,0,0,0s.017-.029.023-.043c.018.032.046.045.045.071s-.046.054-.045.112c0,.043.017.067.053.07.015,0,.018-.03.019-.043.016.01.028,0,.044,0,.06-.007.1-.093.1-.187,0-.037-.009-.053-.026-.061a.542.542,0,0,1,.013-.053.275.275,0,0,1,.06,0c0,.013,0,.033,0,.046.031,0,.033-.017.04-.027a.091.091,0,0,0,.014.025c.015,0,.038-.048.038-.048.045.051.037.219.092.217s0-.1-.007-.118.011-.039.013-.052a.691.691,0,0,0-.034-.132c-.085,0-.069-.1-.149-.108-.055,0-.034.086-.07.085h-.026c0-.036-.014-.059-.044-.066-.009-.072-.079-.055-.1-.081a.7.7,0,0,1-.023-.125C-148.15,202.938-148.167,202.965-148.181,202.987Z" transform="translate(167.384 -193.143)"/></g></g><path class="a" d="M-146.193,201.692a10.762,10.762,0,0,1-10.762,10.763,10.762,10.762,0,0,1-10.762-10.763,10.762,10.762,0,0,1,10.762-10.763A10.763,10.763,0,0,1-146.193,201.692Z" transform="translate(167.735 -190.912)"/><g transform="translate(0.075 0.523)"><path class="c" d="M-139.718,192.755l.026.012C-139.7,192.76-139.7,192.756-139.718,192.755Z" transform="translate(154.951 -192.263)"/><path class="c" d="M-139.64,192.791l0,0,.009,0Z" transform="translate(154.915 -192.279)"/><path class="c" d="M-140.8,219.077c-.021.038-.02.14-.047.174a3.625,3.625,0,0,1-.438.408c-.182.106-.388.105-.411.377-.007.091.073.218.069.278,0,.01-.137.251-.137.251a.616.616,0,0,0-.127.115c0,.078-.01.162.055.205,0,.033-.018.061-.022.13a.238.238,0,0,0,.247.256c.352-.039.435-.37.561-.619a2.555,2.555,0,0,0,.345-.993.829.829,0,0,1,.1.02c0-.024.007-.06.007-.083C-140.652,219.451-140.608,219.09-140.8,219.077Z" transform="translate(155.94 -204.211)"/><path class="c" d="M-131.458,212.175c0,.086.039.165.1.165.08-.009.133-.145.14-.258.01-.195-.11-.261-.165-.408C-131.389,211.858-131.452,211.994-131.458,212.175Z" transform="translate(151.201 -200.851)"/><path class="c" d="M-128.778,212.971c-.02,0-.016.006-.019-.021-.013-.074-.02-.146-.06-.174-.052.011-.018,0-.069.011-.02-.039.007-.045-.041-.039-.01,0-.013-.008-.014,0s0,.028,0,.04c.009.05.009.176.046.192s.041-.008.045.036a1.046,1.046,0,0,0,.019.143c.006.066.049.035.057.144a.542.542,0,0,0,.008.162c.01.014.027,0,.026.016s-.008.041,0,.041c.023-.131.044-.262.063-.394a.378.378,0,0,0-.011-.04C-128.747,213.043-128.751,212.989-128.778,212.971Z" transform="translate(150.078 -201.337)"/><path class="c" d="M-128.733,214.372c-.01.008,0,0-.015,0a.046.046,0,0,0,0,.019c-.006.033-.005.1.019.1a.26.26,0,0,0,0-.1C-128.734,214.388-128.734,214.38-128.733,214.372Z" transform="translate(149.973 -202.075)"/><path class="c" d="M-128.8,213.87c0,.009,0,.007-.011.013h0c0,.029.005.093.025.1C-128.756,213.957-128.787,213.9-128.8,213.87Z" transform="translate(150.001 -201.848)"/><path class="c" d="M-140.158,193.954l.149.029c.082.027.046.047.091.077.009.013.087.017.122.026.015,0,.029.014.038.02.126.028.248.054.374.084l-.015-.011c-.117-.061-.275-.112-.3-.175-.027-.116.254-.142.476-.1.079.013.086-.015.2.019.049.013.051-.006.081-.006.132.024.239.063.373.091.029.007.079.022.131.038-.057-.039-.116-.078-.174-.116a2.759,2.759,0,0,1-.338-.074c-.049-.014-.086-.043-.137-.058-.082-.025-.072-.005-.132-.023a3.487,3.487,0,0,0-.377-.037c-.076-.017-.109-.019-.182-.035-.031-.016-.05,0-.042,0s.037.018.042.037c.015.042-.22.011-.217.041s.064.03.084.052c-.077-.008-.224-.032-.22,0,0,.012.008.014.007.026.011.043-.139,0-.131.04C-140.243,193.928-140.158,193.954-140.158,193.954Z" transform="translate(155.196 -192.69)"/><path class="c" d="M-138.723,194.56l-.035-.02Z" transform="translate(154.515 -193.073)"/><path class="c" d="M-138.693,194.576l0,0h0Z" transform="translate(154.486 -193.089)"/><path class="c" d="M-128.618,212.032c-.005.011.01.02,0,0Z" transform="translate(149.913 -201.013)"/><path class="c" d="M-135,195.925c.027.014.076.026.129.045-.062-.057-.124-.113-.188-.168,0,.01-.01.016-.03.02S-135.051,195.9-135,195.925Z" transform="translate(152.852 -193.646)"/><path class="c" d="M-146.808,194.982a.386.386,0,0,0-.118-.049c.032.059.1.152.03.125,0,0-.018.016-.048.027a.278.278,0,0,1-.163,0c-.045,0-.024-.072-.031-.081-.026,0,.108-.018.1-.038s.024-.026.01-.046a.776.776,0,0,1-.114-.091c-.032-.059-.032-.1-.061-.147a.568.568,0,0,0-.1-.105.014.014,0,0,1,.008-.019q-.1-.079-.194-.155h0l-.078-.06c-.015,0-.019,0-.013.014s0,.009,0,.012a.366.366,0,0,0-.074-.019c-.056-.007-.052.052-.1.054s-.1-.017-.125,0c-.044.018.07.052.082.074.033.053-.033.045.016.072a1.883,1.883,0,0,1,.187.1c.108.1.1.121.017.088-.055-.018-.145-.081-.228-.122-.15-.073-.307-.144-.4-.186-.642-.247-.33-.026-.347-.017-.282,0-.155-.081-.241-.109a3.042,3.042,0,0,1-.713-.083c-.014-.019.123-.028.1-.038a2.005,2.005,0,0,0-.595,0c-.1.01-.177-.023-.263-.015-.131.021-.021.118-.289.064-.066-.013-.228-.078-.2-.109s.257.04.255.01c-.022-.079-.364-.222-.465-.14-.032.026.109.04.012.132-.023.014.1.051.11.1s-.182.019-.234,0c-.026-.01,0-.057-.052-.057-.126,0-.336.078-.407.076-.079.016.076.091.041.117a2.416,2.416,0,0,1-.617-.114,1.071,1.071,0,0,0,.086.106c.072.018.134.036.208.056-.134-.007-.208.029-.315-.015a.666.666,0,0,1-.172-.059c-.037-.021,0-.054-.026-.09a1.286,1.286,0,0,0-.2-.155,4.908,4.908,0,0,1,.631.064c.327.053.954-.066-.044-.279a6.4,6.4,0,0,0-.69-.133,1.568,1.568,0,0,0-.3-.046c-.016,0-.153-.009-.216-.016,0-.015-.045-.013-.112-.033.153-.015.2.006.258-.037-.052-.013-.2-.036-.229-.039a.117.117,0,0,0-.1.026c-.073-.006-.057-.014-.067-.045a1.658,1.658,0,0,0-.247.048c-.009-.013-.007-.024-.034-.035a1.766,1.766,0,0,1-.281.055c.031-.028.135-.026.137-.061s-.248.02-.347.022a.5.5,0,0,1-.138-.028.859.859,0,0,0-.138.03c0,.017.045.019.1.022a.961.961,0,0,0-.316.059c0-.014,0-.019,0-.033-.139,0-.161.05-.245.058,0-.01,0-.013,0-.023a2.189,2.189,0,0,0-.283.034.145.145,0,0,0,.051.014,1.626,1.626,0,0,1-.215.019.31.31,0,0,0-.135.043.516.516,0,0,1,.092,0c-.01,0-.084.035-.108.04-.078,0-.024,0-.118,0,.022-.011-.011,0-.041-.008-.016.01-.039.021-.055.032a.091.091,0,0,0-.045,0,.1.1,0,0,0-.09.042s-.038.027-.013.022a.617.617,0,0,0-.114.046,4.166,4.166,0,0,0,.464-.051.812.812,0,0,1-.325.164.7.7,0,0,0-.282.118s-.063.06-.063.06c-.04,0-.043.074-.114.1a2.668,2.668,0,0,1-.553.191c.048,0,.073,0,.137,0-.205.014-.216.072-.324.092a.614.614,0,0,0-.269.115c-.034.02-.1.05-.1.09a.242.242,0,0,0,.123.222c-.026.017-.1.06-.1.079.043-.007.1-.017.153-.028a.144.144,0,0,1,0,.04c-.019.008-.1.028-.1.05a.991.991,0,0,0,.255.052,1.392,1.392,0,0,0,.617-.218.425.425,0,0,0,.114.057c-.011.01-.033.027-.032.04-.007.048.082.053.112.094.038.057.023.1.123.141,0,.01-.01.02-.014.029s.044.156.1.158c.156-.014.185-.144.291-.15.039,0,.14,0,.227,0,.025-.056.164-.069.191-.143-.029-.007-.091-.014-.09-.044,0-.059-.015-.166.111-.174.061,0,.246-.073.248-.117s-.021-.121-.134-.126c0-.019-.019-.04-.046-.046a.846.846,0,0,0-.093-.071c.1-.024.037-.07.084-.107a.917.917,0,0,1,.257-.1c.128-.029.409-.12.415-.178.016-.016,0-.023,0-.057,0-.073.148-.128.35-.128.147,0,.342.009.346.073,0,.048-.256.136-.342.157-.155.048-.114.121-.37.124.01.02-.02.11-.022.13a.075.075,0,0,0,.073.078c-.016.013-.084.031-.086.06,0,.058.132.09.261.09,0,.031.026.033.106.035a2.781,2.781,0,0,0,.3,0,.435.435,0,0,0,.3-.073c.051.03.311.034.361.081-.075.022-.139.1-.222.1-.107,0-.322-.047-.459-.05s-.513.133-.422.178c.109.045.194-.042.3.045.08.066-.038.132-.087.134-.124,0-.14-.063-.248-.069s-.216.186-.221.258c0,.111-.219.08-.239.181a2.187,2.187,0,0,1-.226.012.3.3,0,0,0,.026-.033,1.831,1.831,0,0,0-.212-.006,1.968,1.968,0,0,0-.233.064c-.092.027-.155,0-.26.029a.246.246,0,0,1-.108.034.888.888,0,0,1-.1-.04c0-.009.032-.022.039-.037-.145,0-.259.075-.428.087a1.315,1.315,0,0,1-.167-.139c-.045,0,.047.09-.019.1,0-.011,0-.023,0-.035-.03,0-.064-.022-.062-.052,0-.064.081-.085.142-.126.016-.005.073-.021.075-.035a.065.065,0,0,1,0-.025c-.039.006-.114,0-.112-.027a.123.123,0,0,1,.043-.082.1.1,0,0,0,0-.037c-.152.066-.382.09-.4.223,0,.073.087.094.1.177a.351.351,0,0,1,.036.077.306.306,0,0,1-.138.064.376.376,0,0,0-.147.021c-.01,0-.037.027-.054.019-.034.01-.006,0-.084.007a1.3,1.3,0,0,0-.454.228c-.006,0-.062.033-.064.048,0,.043.008.092-.042.127-.019.016-.268.1-.3.114s-.054.01-.083.015c-.044.1.005.124-.172.146a.174.174,0,0,1-.1.069.246.246,0,0,1-.168-.033c-.016,0-.041,0-.057.007s0,.021,0,.031-.021.07.02.076c0,.008,0,.019,0,.028-.02,0-.088.028-.134.034s-.135,0-.149-.022c-.061.021-.215.06-.222.1,0,0,0,.01,0,.015,0,.06.235.063.327.073.025,0,.03.019.066.021-.007.062.051.206.17.2,0,.029.031.019.029.058a.181.181,0,0,1-.029.064l.012-.008c0,.022,0,.1,0,.115-.008.081-.109.085-.118.171-.015,0-.108.029-.149.034-.058,0-.091-.02-.161,0-.094.01-.18.021-.275.027a.254.254,0,0,1-.093-.015c-.089.009-.166.021-.251.028-.028.013-.061-.009-.081-.007a.9.9,0,0,0-.231.138c0,.033.051.087.043.151-.015.108-.073.223-.082.33,0,.026-.064.049-.07.1,0,.029.038.054.082.051-.009.086-.015.173-.024.262a.037.037,0,0,0,.04.04c.091-.005.142-.052.244-.061.125-.01.117.192.206.188.125-.013.21-.126.351-.14a1.037,1.037,0,0,1,.183-.026v-.005c.118.028.136-.114.211-.156.131-.07.177-.183.258-.283-.025,0-.057-.023-.056-.052a.574.574,0,0,1,.3-.313.437.437,0,0,0,.307-.159c-.01-.027-.023-.064-.03-.092.006-.059.1-.111.2-.12.117-.011.086.04.223.032a.983.983,0,0,0,.342-.136c.057-.017.063-.075.179-.082.24-.014.38.091.377.257.009.026.106.045.149.072a.589.589,0,0,0,.348.133c0,.022.1.045.121.041a2.731,2.731,0,0,0,.319.24c.011.033.063.058.063.126a.123.123,0,0,1-.114.126c0,.014.026.035.071.03.093,0,.094-.1.156-.145,0,0,.062-.05.062-.068,0-.055-.06-.03-.059-.088,0-.036.01-.113.089-.116s.114.055.209.063c.021-.1-.164-.164-.3-.208-.031-.007-.191-.028-.167-.084,0-.009.01-.026.014-.036a.827.827,0,0,1-.259,0c-.041-.011-.105-.124-.126-.182a.247.247,0,0,0-.162-.129c-.077-.016-.132-.037-.129-.1,0-.022.019-.056.029-.078a.05.05,0,0,1-.031-.024c0-.04.141-.049.214-.085.029.022-.006.114.078.111.067,0,.127-.006.193-.007,0,.106.191.271.335.274.024,0,.068,0,.091,0,0,.06.1.063.193.092s.231.117.232.181c0,.032,0,.076,0,.116,0,.09-.032.1.047.159a.353.353,0,0,1,.137.143c0,.007.019.049.039.05a.97.97,0,0,1,.113,0c-.014.019-.087.1-.087.14a.289.289,0,0,0,.25.232.58.58,0,0,0,.093,0c-.068-.025,0-.108,0-.136a.474.474,0,0,0-.039-.162c0-.01,0-.027,0-.037.027.015.1.122.171.139h.014c.01-.033.088-.087.113-.1a.191.191,0,0,0-.026-.041,1,1,0,0,1-.232-.127c0-.011.022-.032.027-.055-.031-.028-.083-.063-.125-.1,0-.018.048-.051.073-.05.063,0,.072.07.171.067a.157.157,0,0,0,0-.1.92.92,0,0,1,.218-.058c.12,0,.122.046.225.051a.529.529,0,0,0,.22-.02c.061-.015.18-.016.24-.027.024-.007.064,0,.086-.016-.041-.043-.216-.1-.22-.194,0-.058.117-.151.181-.191,0-.032,0-.079,0-.113.015-.022.017.011.04-.061,0-.037.068-.062.134-.071,0-.019,0-.046-.008-.064.143-.022.158-.183.3-.185a2.332,2.332,0,0,0,.38.091c.02,0-.133.055-.12.07a1.011,1.011,0,0,0,.252.172,1.491,1.491,0,0,0,.442-.116c-.01,0-.179-.024-.179-.024-.02,0-.108-.015-.112-.068a3.342,3.342,0,0,1,.625-.162.67.67,0,0,1-.11.066c.011.021.192.144-.18.194.181.255.874.294.905.65.007,0,.019,0,.026,0h0a.824.824,0,0,1-.306.084c-.123,0-.238-.012-.363-.016-.073-.005-.318-.046-.324-.1-.148-.009-.141-.068-.318-.076a1.216,1.216,0,0,0-.376.029,1.021,1.021,0,0,1-.265.083c-.067,0-.134,0-.2,0-.025,0-.155-.025-.157.02,0,.026.039.017.053.054-.119.034-.683-.039-.7.1,0,.022.066.025.113.023-.01.019,0,.029,0,.055,0,.088-.07.081-.138.122a.5.5,0,0,1,.226.157c-.062.062.124.149.168.183a.157.157,0,0,1-.053.035.549.549,0,0,0,.073,0c.13-.048.192.1.32.11s.09-.133.23-.133.274.162.414.17c.194,0,.221-.068.326-.14a.213.213,0,0,0,.132.051c.04,0,.072-.037.123-.05a.427.427,0,0,1,0,.059c-.01.009-.044.029-.044.058,0,.067.034.153.039.256,0,.141-.123.16-.164.283s-.054.182-.1.319c-.005.019-.051.022-.052.067.014.022.033.072.045.1a.615.615,0,0,1-.031-.06.632.632,0,0,1-.2.009c-.149,0-.282-.067-.414-.064-.208-.007-.091.052-.312.057a2.931,2.931,0,0,1-.755-.169c-.109-.04-.26.008-.323-.061-.02-.028-.1-.051-.1-.14-.037,0-.1,0-.148,0-.005,0-.016-.007-.02-.012-.211.063-.366.06-.372.258,0,.031,0,.082,0,.122,0,.024-.074.09-.135.094-.5,0-.763-.387-1.2-.391-.062,0-.122,0-.185,0a.3.3,0,0,1-.286-.273c0-.092.087-.14.091-.228,0-.043-.078-.07-.08-.127.009-.074.091-.064.1-.156-.029,0-.068.037-.1.039-.1,0-.064-.1-.189-.1s-.129.093-.259.1c-.072.007-.1-.035-.189-.032s-.2.094-.269.1c-.04,0-.129-.053-.217-.047a2.76,2.76,0,0,0-.922.29.893.893,0,0,1-.326.116.507.507,0,0,1-.406-.107c-.063.053-.091.2-.142.258-.029.014-.063.043-.1.066-.155.189-.307.22-.467.42a.609.609,0,0,0-.09.36,1.421,1.421,0,0,1-.245.291,1.325,1.325,0,0,0-.369.261,2.362,2.362,0,0,0-.318.654c-.038.1-.149.167-.154.286-.008.237.1.412.094.674a.763.763,0,0,1-.2.5.908.908,0,0,1,.123.278c0,.042.022.1.025.188h-.015a1.014,1.014,0,0,0,.064.082,3.786,3.786,0,0,0,.3.335,1.924,1.924,0,0,1,.264.44c.117.191.343.159.58.538a.342.342,0,0,0,.164.054c.217.007.36-.107.6-.1.12,0,.273.1.364.1s.115-.075.212-.105a3.14,3.14,0,0,1,.9-.222c.269.008.054.39.247.405.062,0,.279-.026.4-.025a.458.458,0,0,1,.417.27c-.067.054-.061.234-.061.311,0,.019-.028.04,0,.093a.517.517,0,0,0-.146.245c.01.3.364.591.547.8.086.109.067.239.12.365a1.625,1.625,0,0,1,.177.5,1.613,1.613,0,0,1,.094.336c0,.306-.342.448-.33.842a1.431,1.431,0,0,0,.4.828c.054.07.129.1.134.178,0,.041.006.093.005.139a.912.912,0,0,0,.406.8c.045.038.171.272.3.434a.1.1,0,0,1-.011.146c.052.038.052.105.055.2.01,0,.023-.015.059-.02a.215.215,0,0,0,.2.093c.232.007.288-.131.549-.135.068,0,.1.044.171.045s.1-.025.183-.032c.021-.081.226-.037.336-.071a1.262,1.262,0,0,0,.5-.387c.1-.094.184-.1.329-.208a.515.515,0,0,0,.2-.32c0-.042-.034-.076-.09-.1.079-.129-.029-.11.212-.194.073-.025.195-.021.256-.078a.743.743,0,0,0,.1-.374c0-.2-.147-.153-.146-.3a.232.232,0,0,1,.194-.174c.1-.364.883-.327.927-.769a.151.151,0,0,0-.045-.11c0-.121.011-.239.016-.369.006-.036.016-.088.026-.135a.186.186,0,0,0,.049-.089c0-.11-.238-.24-.236-.446.009-.176-.1-.329-.1-.523.012-.166.172-.214.225-.37.08-.236.25-.218.411-.353.061-.056.079-.284.146-.337.167-.117.341-.221.517-.358a2.679,2.679,0,0,0,.511-.606,2.511,2.511,0,0,0,.46-1.093c0-.028-.025-.054-.042-.093a6.146,6.146,0,0,1-.641.206c-.1.013-.158-.03-.254,0s-.09.1-.193.108-.2-.2-.276-.264c.064-.078.006-.088,0-.2-.215,0-.271-.257-.376-.339a1.933,1.933,0,0,1-.3-.192c-.117-.118-.051-.273-.168-.433a1.8,1.8,0,0,1-.319-.447c0-.111,0-.221,0-.335-.1-.076-.286-.206-.254-.343-.209-.37-.407-.725-.618-1.088,0-.027,0-.078,0-.1.114.113.23.38.374.407.022-.063.085-.209.116-.3a1.528,1.528,0,0,0-.031.193,1.5,1.5,0,0,0,.116.151c.072.112.137.171.224.283a.726.726,0,0,1,.1.151c.007.029,0,.13.043.17.017.012.11.017.133.033a.913.913,0,0,0,.087.083c.033.118.128.149.132.3.008.239.055.365.291.422a.777.777,0,0,0,.226.429c.069.073.217.144.188.286-.009.043-.066.176.009.183a.733.733,0,0,0,.052.354c.043.065,0,.064.008.072s.187.086.2.087.03-.017.04-.023c.129,0,.156-.1.264-.18l.238.02a4.092,4.092,0,0,1,.395-.242,2.352,2.352,0,0,0,.428-.15c-.007-.011-.026-.041-.024-.056,0-.136.328-.151.5-.181a.232.232,0,0,1,.162-.174c.087,0,.076-.172.164-.173.066,0,.058-.1.082-.174s.074-.093.162-.092c0-.147.221-.2.22-.337,0-.041-.079-.043-.109-.1v.005c-.034-.02-.05-.125-.111-.147-.167-.062-.271-.091-.362-.272,0-.074-.01-.144-.009-.221-.208.155-.207.391-.619.382-.092,0-.245-.049-.251-.137s.036-.12.036-.192a.669.669,0,0,1-.009-.067c-.066.012-.045.088-.117.1-.007-.042-.04-.074-.047-.141a.82.82,0,0,1-.366-.449,1.275,1.275,0,0,1-.018-.138c0-.091.025-.188.115-.186.177.007.313.2.385.334.01.019,0,.071.034.109.07.069.163.038.239.113a.6.6,0,0,0,.209.177c.1.008.2.007.292.014.027-.031.049-.083.117-.082.121.009.129.182.187.246a1.329,1.329,0,0,0,.2.063c.154.01.392.091.5.1a.107.107,0,0,1,.026,0c.034.006.074.016.111.025,0-.013.026-.026.045-.038.041.016.088.033.138.049a1.655,1.655,0,0,1,.178-.02.544.544,0,0,1,.152.015c.067.029.1.16.141.238a.507.507,0,0,0,.3.217.759.759,0,0,1,.111.018c-.015.024-.022.07-.059.082s-.076-.017-.119.016c.074.093.138.265.286.277.124,0,.132-.127.187-.2a.092.092,0,0,1,.037,0c0,.019-.026.063-.024.077.005.078.051.144.054.234,0,.073-.016.08-.017.159l0,0c0,.014.008.067.01.081a1.221,1.221,0,0,0,.083.331c.029.126.074.3.094.383a1.191,1.191,0,0,0,.054.181c.035.069.016.14.047.23a.685.685,0,0,1,.093.178c.031.123.075.226.1.359,0,.015.011.051.036.054,0,.033.026.061.061.053s.043-.066.056-.113.027-.033.078-.069.026-.162.079-.188c.015,0,.039-.009.04-.023s.013,0,.019-.007c0-.041-.014-.092-.017-.141,0-.1.048-.189.049-.329,0-.085-.03-.213-.029-.311,0-.117.081-.085.147-.121.035-.009.063-.076.094-.124.066-.1.127-.218.193-.328.05-.088.148-.111.2-.2.031-.05.019-.108.029-.185.016-.049.073.017.093-.062.023.04.026.055.075.063.073,0,.149-.014.143-.176a.194.194,0,0,1,.1.136c.021.06.013.144.039.216a1,1,0,0,0,.092.179,1.049,1.049,0,0,1,.067.206c0,.024.015.041.016.065a.954.954,0,0,0-.008.147c0,.07,0,.11.032.114.064,0,.085-.123.118-.206a.534.534,0,0,1,.021.079c.013.005.026,0,.028.026.023.078-.047.206.016.217,0,.155.041.371.041.586,0,.049-.028.145,0,.181h-.01c-.01.063-.021.128-.026.2,0,.009.009.029,0,.028l.005.01a.029.029,0,0,1,.02-.013c.079.007.038.162.045.229.013.1.013.2.017.334,0,.019,0,.038,0,.056.018-.141.032-.284.045-.427a.175.175,0,0,1-.027-.047c-.008-.046-.008-.114-.015-.147h0c0-.138-.046-.088-.046-.234s.035-.183.038-.339c0-.039.019-.1.02-.144,0-.025-.028-.055.01-.055s.038.007.044.065c0,0,0,.063.008.064l0,0c0-.035,0-.07,0-.105A10.735,10.735,0,0,0-146.808,194.982Zm-5.118,4.739Zm1.062-2.072.013,0S-150.862,197.651-150.864,197.649Zm1.888.341c-.044,0-.087.081-.093.146.123.029.185.079.195.165,0,.029.007.075.005.1s.008.12.012.125c.005.028,0,.074.008.1a.985.985,0,0,1-.268.013c-.07-.007-.22-.005-.27-.054-.031-.027-.056-.088-.108-.11a.315.315,0,0,1-.179-.115c-.037-.058.012-.086-.039-.144-.027-.027-.076-.035-.082-.08.023,0,.061.013.084.015.071-.072.06-.169.15-.2a.986.986,0,0,1-.437-.5c0-.037-.139-.112-.144-.18a.824.824,0,0,1,.125-.189.787.787,0,0,0,.216-.043,1.1,1.1,0,0,1,.408-.047.691.691,0,0,1,.505.3c-.084.038-.192-.017-.3-.028a1.358,1.358,0,0,0-.389.065c.014.087.1.089.144.138.125.151.293.2.312.369a1.368,1.368,0,0,1,.187-.045c.01.072.118.139.123.209C-148.863,198-148.919,198-148.977,197.991Z" transform="translate(164.828 -192.618)"/><path class="c" d="M-141.039,192.547c-.012,0-.02,0-.031,0s0,0,0,.005S-141.051,192.553-141.039,192.547Z" transform="translate(155.565 -192.168)"/><path class="c" d="M-142.23,192.284c.043.008.067.02.116.032a.42.42,0,0,0-.069,0,.59.59,0,0,0,.088.019.841.841,0,0,1-.1-.008.385.385,0,0,0,.137.04h0a.32.32,0,0,0,.058.023c.043.009.043-.011.087-.011a1.23,1.23,0,0,1,.167.028s0-.008,0-.008a.1.1,0,0,1,.048.009c.053,0,.117.049.118,0-.029,0-.087-.03-.146-.043a1.315,1.315,0,0,0-.17-.019c-.088-.018-.158-.046-.286-.07a1.882,1.882,0,0,0-.372-.038,1,1,0,0,0,.111.023C-142.371,192.272-142.285,192.276-142.23,192.284Z" transform="translate(156.239 -192.028)"/><path class="c" d="M-139.639,192.9c.01,0,.026.015.049.021.042.013.05.028.061,0a.716.716,0,0,0,.1.038.519.519,0,0,0,.084.01l-.08-.04C-139.479,192.923-139.647,192.872-139.639,192.9Z" transform="translate(154.915 -192.326)"/><path class="c" d="M-139.708,192.808l-.118-.056c-.06-.014-.117-.034-.18-.047a.141.141,0,0,0-.052,0c.009,0,.206.073.236.083Z" transform="translate(155.106 -192.239)"/><path class="c" d="M-139.742,192.744l-.029-.014c0,.007,0,.005.007.014Z" transform="translate(154.975 -192.252)"/><path class="c" d="M-151.562,192.143c-.033.028.05.032.14.036l-.043.007a.322.322,0,0,0,.167.01.456.456,0,0,0,.165-.052.09.09,0,0,0,.043,0,.466.466,0,0,0,.078.008,1.222,1.222,0,0,1,.139-.008,2.089,2.089,0,0,1-.277.055c-.025,0-.147,0-.152.026,0,.058.137.011.2.005a2.084,2.084,0,0,1,.241-.007c-.064.008-.124.01-.18.022,0,0-.121,0-.2.012,0,.051.281.056.412.073.081-.026.07-.069.164-.094a.368.368,0,0,0,.082-.016.469.469,0,0,1,.3-.116.366.366,0,0,0,.129.019l-.076,0a.448.448,0,0,0,.107.04c-.018.033-.067.015-.083.045.071,0,.182,0,.25,0-.017.008-.017.01-.006.028.142-.012.2-.035.345-.055-.052-.014-.2-.005-.206-.055-.058,0-.113,0-.174,0,.016-.007.011-.011,0-.023a.551.551,0,0,1-.1,0l.054,0a2.563,2.563,0,0,0-.428-.051c-.016,0-.038,0-.054,0,.018-.013.024-.034-.061-.032a.8.8,0,0,0-.1.023c0-.017.008-.016.019-.029s-.139-.015-.21-.017-.1-.009-.108.027.027.039.056.06c-.134-.005-.087-.053-.232-.048-.044,0-.086.01-.093.031s.013,0,.018.014c-.033-.008-.076,0-.123-.008a.34.34,0,0,1,.066-.025c-.12.005-.176.01-.262.016a.889.889,0,0,0-.188.052.482.482,0,0,0,.125.022A.1.1,0,0,1-151.562,192.143Z" transform="translate(160.402 -191.92)"/><path class="c" d="M-149.626,191.926c-.019.054.093.011.185.009l.252,0c-.024.007-.082,0-.134.011-.01,0-.068,0-.107,0,.014.014.019.019.068.021.105,0,.2-.008.306-.007a.4.4,0,0,0,.187.025,4.476,4.476,0,0,0,.553-.069.843.843,0,0,0-.242-.042h-.176c-.079,0-.111.014-.16.014-.017-.009-.007,0,0-.034h-.064a.408.408,0,0,1-.134.034,2.033,2.033,0,0,1-.212-.023c-.053,0-.1.005-.149,0l.026.013c-.028,0-.063,0-.091,0,0,0,0,.007,0,.007a.99.99,0,0,1-.106,0c-.025,0-.055,0-.08,0C-149.7,191.921-149.667,191.915-149.626,191.926Z" transform="translate(159.483 -191.854)"/><path class="c" d="M-151.593,192.358c-.041-.041-.1-.031-.154-.044,0,0,0,0,0,0l-.01,0,.007,0-.008,0C-151.842,192.332-151.7,192.358-151.593,192.358Z" transform="translate(160.427 -192.061)"/><path class="c" d="M-151.737,192.315h0Z" transform="translate(160.407 -192.063)"/><path class="c" d="M-151.74,192.314h0Z" transform="translate(160.41 -192.062)"/><path class="c" d="M-158.517,198.418a.381.381,0,0,0,.1-.031.527.527,0,0,1,.208-.11.406.406,0,0,0,.146-.039c.051-.034.016-.075.021-.1s.013-.081.019-.122.1-.042.108-.069c0-.064-.036-.134-.163-.116-.028.006-.063.01-.091.015a.34.34,0,0,0-.173.093c0,.018,0,.021.024.04a.975.975,0,0,1-.161.065c-.015,0-.054,0-.065.049s.037.051.088.057c-.038.09-.168.115-.185.209C-158.641,198.4-158.581,198.431-158.517,198.418Z" transform="translate(163.538 -194.564)"/><path class="c" d="M-157.522,197.1c.055-.014.109-.054.116-.094-.039.011-.132.04-.14.06S-157.537,197.1-157.522,197.1Z" transform="translate(163.043 -194.194)"/><path class="c" d="M-157.313,197.084a.092.092,0,0,1,0,.027s-.044.033-.046.051.047.018.077.014a.1.1,0,0,1,0,.031.085.085,0,0,1-.026.028c0,.019-.008.037-.009.056a.24.24,0,0,0,.044-.007c-.01-.014-.023-.016.009-.052a.168.168,0,0,0,.091,0c-.021.024-.009.029-.01.067s-.06.054-.067.082.034.022.084.016.075-.025.132-.036a.187.187,0,0,0,.05,0c-.009.015-.045.027-.046.056s.072.033.13.021a.3.3,0,0,0-.007.055.523.523,0,0,1-.264.1c0,.039.038.05.03.1s-.161.077-.173.135c0,.007.015.014.026.015s.021-.021.058-.026c.06-.01.073.03.153.024a.266.266,0,0,0,.107-.05.042.042,0,0,0,.009.025c-.005.058-.119.046-.2.073a2.623,2.623,0,0,0-.216.164.023.023,0,0,0,0,.022l.04,0a.133.133,0,0,1,.083-.04.383.383,0,0,1,.08-.01.114.114,0,0,1,.1-.075c.035,0,.062.016.1.01.087-.013.249-.063.306-.069.083-.006.153-.016.236-.025a.414.414,0,0,0,.173-.074c0-.008,0-.019,0-.027a.441.441,0,0,1-.117,0c.057-.053.192-.1.207-.17,0-.036-.046-.061-.117-.058a.138.138,0,0,0-.078.023l.031-.018c-.02.007-.033.019-.074.034,0-.008,0-.017,0-.026a.041.041,0,0,0,.032-.029c.005-.028-.057-.041-.055-.07.01-.093-.136-.094-.222-.141-.066-.035-.032-.121-.139-.128-.041,0-.076.013-.129.014a.075.075,0,0,1,.049-.034c.012-.077.192-.134.185-.232-.109.017-.217.031-.33.048a.052.052,0,0,1-.012-.025c.023-.05.146-.058.153-.108,0-.007-.03-.023-.05-.022-.055.01-.107.019-.159.025a.208.208,0,0,0-.1.057c0,.017-.026.032-.032.061-.034.008-.074.025-.083.052,0,.007.013.016.024.016a.043.043,0,0,1-.026.024c-.009,0-.034,0-.032-.024a.416.416,0,0,0-.086.014C-157.437,197.085-157.395,197.089-157.313,197.084Z" transform="translate(162.99 -194.106)"/><path class="c" d="M-157,197.97c-.008,0-.019,0-.028,0-.029.014-.045.031-.045.049a.263.263,0,0,1,.062-.009A.424.424,0,0,0-157,197.97Z" transform="translate(162.829 -194.63)"/><path class="c" d="M-160.484,195.946c0,.01-.008.014-.009.026-.021,0-.021-.008-.055,0s-.069.033-.109.05-.022,0-.047,0c-.015.014-.011.008-.012.033a.661.661,0,0,1-.081.041c-.031.018-.054-.005-.044-.028s-.011-.007-.011-.028c-.014,0-.02.009-.033.012-.039.015-.05.043-.084.055,0,.009-.007.011-.007.02a.22.22,0,0,0-.079.026c0,.038.138,0,.186-.023,0,.01-.007.013.01.014a1.894,1.894,0,0,1-.221.1c.055.026.105-.038.171-.055-.015.034-.038.048-.048.084a.252.252,0,0,0-.042.026c.094-.03.112,0,.169-.017a2.039,2.039,0,0,0,.381-.076,2.711,2.711,0,0,0,.377-.168,1.262,1.262,0,0,0,.243-.153s.008-.005.011-.008c.02-.072-.158-.01-.137-.085,0-.01.022-.021.035-.031-.044.014-.073.034-.116.044s-.078.02-.073-.009c-.021.007-.014.016-.05.015a.185.185,0,0,0-.031.044c-.052-.016-.1.031-.156.054S-160.417,195.926-160.484,195.946Z" transform="translate(164.647 -193.628)"/><path class="c" d="M-166.318,215.422a.641.641,0,0,1,.033-.078,1.2,1.2,0,0,0,.118-.669.351.351,0,0,0-.112-.247c-.045-.027-.072-.007-.12-.034a.874.874,0,0,1-.2-.264.6.6,0,0,0-.145-.1.29.29,0,0,0-.1,0c-.055-.015-.069-.091-.125-.1-.038-.023-.012.006-.049.036-.009-.006-.005-.007-.017,0a.411.411,0,0,0-.019-.115c-.008-.037-.029-.033-.05-.062-.038-.042-.122-.15-.163-.162s-.043,0-.049.023a.415.415,0,0,0,0-.072c0-.01,0-.044-.019-.049s-.019.049-.031-.019c-.038-.005-.026-.026-.044-.056,0-.006-.006,0-.007,0-.056-.008-.024.038-.021.111.009.044.059.148.089.157s.028,0,.033-.022a.474.474,0,0,1,0,.07c-.007.026,0,.051-.014.046s-.013-.039-.016-.052c-.032-.021-.005-.01-.044-.015a.288.288,0,0,0-.043-.111c-.016-.021-.026-.013-.03-.057a1.063,1.063,0,0,1,.046-.36c0-.045-.029-.051-.041-.1a1.7,1.7,0,0,1-.052-.253c-.063-.051-.03-.152-.1-.18a10.688,10.688,0,0,0,1.2,3.93c.015.009.02.025.046.039a.05.05,0,0,0,.079-.043c0-.02-.022-.049-.012-.081.015-.064.019-.094.035-.171a.536.536,0,0,0-.022-.135c-.008-.035.008-.052.013-.082.009-.011,0-.022,0-.045-.016-.053-.046-.272-.059-.351-.031-.108-.081-.166-.053-.224S-166.337,215.479-166.318,215.422Z" transform="translate(167.613 -201.306)"/><path class="c" d="M-160.011,194.936l-.109.083a.509.509,0,0,0,.136-.085C-160,194.937-160.009,194.939-160.011,194.936Z" transform="translate(164.212 -193.252)"/><path class="c" d="M-161.178,195.792c.072-.046.11-.055.176-.1-.055.021-.244.1-.331.125-.089.079-.177.159-.263.241l.118-.068C-161.371,195.927-161.313,195.862-161.178,195.792Z" transform="translate(164.882 -193.596)"/><path class="c" d="M-159.759,194.735l-.1.075a.8.8,0,0,0,.163-.1A.336.336,0,0,0-159.759,194.735Z" transform="translate(164.094 -193.152)"/><path class="c" d="M-160.385,195.235c.008-.014-.005-.007-.028.005-.037.029-.073.058-.109.088l.058-.023C-160.413,195.274-160.4,195.262-160.385,195.235Z" transform="translate(164.394 -193.385)"/><path class="c" d="M-160.655,195.541a.324.324,0,0,0,.113-.062c.026-.064-.051-.061-.137-.046l-.146.124C-160.777,195.553-160.791,195.6-160.655,195.541Z" transform="translate(164.532 -193.475)"/><path class="c" d="M-159.421,194.54l.139-.072a.516.516,0,0,0-.068.026c0-.011.008-.009.01-.02a.43.43,0,0,0-.06.022l-.06.042C-159.459,194.548-159.447,194.548-159.421,194.54Z" transform="translate(163.912 -193.041)"/><path class="c" d="M-151.61,202.2c-.1-.015-.137.04-.222.041s-.143-.062-.285-.008c0,.01,0,.028,0,.038.018.019.075.02.09.025.108.027.181.109.295.133-.006.011.037.022.052.02s.038-.026.04-.039c0-.035-.031-.049-.031-.086a.2.2,0,0,1,.034-.061C-151.63,202.247-151.617,202.217-151.61,202.2Z" transform="translate(160.579 -196.549)"/><path class="c" d="M-153.217,200.969c.01-.028.045-.144.067-.21-.016,0-.023-.033-.022-.055-.025.007-.061.049-.1.056-.01.006-.034.007-.045.013C-153.293,200.806-153.281,200.959-153.217,200.969Z" transform="translate(161.125 -195.871)"/><path class="c" d="M-153.371,201.44c-.005.029-.033.066-.043.107s-.007.109.058.109c.039,0,.168-.081.173-.156a.286.286,0,0,0-.03-.214c-.015,0-.035-.031-.08-.027s-.064.052-.135.074C-153.424,201.367-153.371,201.393-153.371,201.44Z" transform="translate(161.175 -196.123)"/><path class="c" d="M-155.146,201.849c0-.012-.028-.046-.027-.055a.563.563,0,0,0-.1.043c.006,0,.056.043.076.042S-155.149,201.862-155.146,201.849Z" transform="translate(162.012 -196.366)"/><path class="c" d="M-152.359,197.263c0-.023-.027-.018-.025-.045-.021,0-.055,0-.076,0a.106.106,0,0,0,0,.023c0,.022.043.03.09.025,0,.005,0,.013,0,.018S-152.359,197.281-152.359,197.263Z" transform="translate(160.735 -194.289)"/><path class="c" d="M-152.213,197.221s-.007-.005-.008-.009a.045.045,0,0,1-.021.013.174.174,0,0,0,.055.01c.094,0,.059-.081.131-.1-.016-.039-.02-.058-.1-.054-.023,0-.08.064-.081.074s.04.03.082.032C-152.155,197.2-152.191,197.213-152.213,197.221Z" transform="translate(160.635 -194.227)"/><path class="c" d="M-149.938,196.575c.013,0,.07-.018.07-.024s0-.019,0-.027a.088.088,0,0,0,.033-.03.361.361,0,0,1-.044-.021s-.038.012-.037.023.017.019.028.026c-.026,0-.064.017-.09.021C-149.983,196.554-149.967,196.575-149.938,196.575Z" transform="translate(159.608 -193.95)"/><path class="c" d="M-147.8,203.1a1.052,1.052,0,0,0-.418-.034.816.816,0,0,0,.252.045A.3.3,0,0,0-147.8,203.1Z" transform="translate(158.809 -196.939)"/><path class="c" d="M-145.212,203.15a.394.394,0,0,0,.2-.057c.005-.013,0-.05.012-.055.03-.011.071.006.084-.048a1.8,1.8,0,0,0-.378.1c0,.009.023.028.033.028S-145.227,203.152-145.212,203.15Z" transform="translate(157.481 -196.909)"/><path class="c" d="M-138.166,210.924c.039,0,.1-.062.107-.084a.457.457,0,0,0-.173.035C-138.227,210.9-138.181,210.923-138.166,210.924Z" transform="translate(154.276 -200.472)"/><path class="c" d="M-141.025,194.328c-.009,0-.061.023-.059.033s.033.029.1.037a.5.5,0,0,0,.211,0c0-.01,0-.014-.005-.025-.075-.02-.113-.045-.187-.058C-140.991,194.316-141,194.329-141.025,194.328Z" transform="translate(155.571 -192.973)"/><path class="c" d="M-138.409,194.707c0,.029.118.07.176.085,0,0,.06.023.057.007C-138.2,194.757-138.421,194.675-138.409,194.707Z" transform="translate(154.357 -193.146)"/></g><path class="c" d="M-146.19,201.677c0-.075,0-.15,0-.225a10.723,10.723,0,0,0-.63-3.415.275.275,0,0,0-.009-.035h0a10.786,10.786,0,0,0-1.85-3.215.6.6,0,0,0-.048-.064l0,0a10.908,10.908,0,0,0-1.172-1.189l0,0q-.358-.31-.746-.586c-.185-.134-.374-.263-.567-.385a.971.971,0,0,0-.084-.058l0,0a10.728,10.728,0,0,0-2.449-1.123h0l-.056-.016-.072-.022h0l-.082-.024a10.715,10.715,0,0,0-1.329-.3h-.007a10.853,10.853,0,0,0-1.146-.116v0h-.049q-.147-.007-.295-.009l-.181,0h0l-.18,0c-.1,0-.2,0-.3.009h-.049v0a10.848,10.848,0,0,0-1.146.116h-.007a10.616,10.616,0,0,0-1.33.3l-.052.015h0l-.1.029-.062.018h0a10.744,10.744,0,0,0-2.444,1.119l0,0a.937.937,0,0,0-.089.061q-.292.184-.571.388c-.258.183-.507.378-.744.584l0,0a10.859,10.859,0,0,0-1.17,1.187l0,0a.513.513,0,0,0-.049.065A10.779,10.779,0,0,0-167.1,198h0a.368.368,0,0,0-.01.036,10.732,10.732,0,0,0-.634,3.643,10.726,10.726,0,0,0,.647,3.678h0c0,.013.011.025.017.038a10.784,10.784,0,0,0,1.887,3.234l0,0c.016.018.033.036.052.054q.229.266.473.517c.2.209.41.411.629.6l0,0a10.814,10.814,0,0,0,1.419,1.048l0,0c.028.017.06.034.092.051a10.721,10.721,0,0,0,2.306,1.048l.077.026h0l.128.038h0l.054.015a10.728,10.728,0,0,0,2.479.414l.022,0v0c.168.008.336.012.505.012s.337,0,.505-.012v0l.022,0a10.739,10.739,0,0,0,2.472-.412l.089-.025v0l.1-.029h0l.082-.027a10.721,10.721,0,0,0,2.3-1.046c.035-.018.069-.037.1-.055l0,0a10.874,10.874,0,0,0,1.414-1.045l0,0q.331-.289.632-.606.242-.248.469-.512a.679.679,0,0,0,.055-.057l0,0a10.789,10.789,0,0,0,1.883-3.228c.007-.014.013-.028.019-.042h0a10.728,10.728,0,0,0,.647-3.678h0Zm-.359.568a10.254,10.254,0,0,1-.581,3.412,4.443,4.443,0,0,1-1.418.594A11.593,11.593,0,0,0-148.1,203c0-.06,0-.12,0-.18a5.194,5.194,0,0,0,1.548-.626C-146.55,202.211-146.549,202.229-146.549,202.246Zm-4.867,8.626a2.915,2.915,0,0,1-.457.181,7.786,7.786,0,0,0,1.86-1.808,4.031,4.031,0,0,0,1.054-.426q-.158.183-.325.358A10.817,10.817,0,0,1-151.416,210.872Zm-13.237-1.693c-.112-.117-.222-.238-.328-.36a4.05,4.05,0,0,0,1.055.426,7.791,7.791,0,0,0,1.859,1.808,2.971,2.971,0,0,1-.456-.18A10.833,10.833,0,0,1-164.654,209.179Zm-3.061-7.5h0a10.229,10.229,0,0,1,.6-3.446.757.757,0,0,0,.32.386,10.829,10.829,0,0,0-.626,3.517.613.613,0,0,1-.289-.457h0Zm4.856-8.842a.284.284,0,0,1,.108-.2l.158-.1a9.7,9.7,0,0,1,2-.894.162.162,0,0,0-.019.074.141.141,0,0,0,.01.051,10.86,10.86,0,0,0-2.25,1.094A.168.168,0,0,1-162.858,192.836Zm2.89-1.477a6.95,6.95,0,0,1,1.635-.25.086.086,0,0,0-.031.061v0a10.032,10.032,0,0,0-2.118.4,1.264,1.264,0,0,1,.345-.163Zm3-.426h0l.173,0,.139,0a.882.882,0,0,0-.312.211.885.885,0,0,0-.311-.211l.138,0Zm5.889,1.9a.161.161,0,0,1,0,.028,10.847,10.847,0,0,0-2.25-1.094.142.142,0,0,0,.011-.051.156.156,0,0,0-.02-.074,9.691,9.691,0,0,1,2,.894l.158.1A.285.285,0,0,1-151.081,192.836ZM-148.132,203a11.552,11.552,0,0,1-.456,3.262,19.261,19.261,0,0,1-2.426.463,15.95,15.95,0,0,0,.3-3.408,21.076,21.076,0,0,0,2.576-.486C-148.133,202.886-148.132,202.943-148.132,203Zm-17.674-.17a21.077,21.077,0,0,0,2.576.486,15.951,15.951,0,0,0,.3,3.408,19.262,19.262,0,0,1-2.426-.463,11.556,11.556,0,0,1-.456-3.262C-165.808,202.943-165.807,202.886-165.806,202.83Zm5.226-11.112a.146.146,0,0,1,.038-.091,9.992,9.992,0,0,1,2.189-.421.125.125,0,0,0,.025.03,10.878,10.878,0,0,0-2.244.521A.125.125,0,0,1-160.579,191.718Zm7.181-.091a.144.144,0,0,1,.038.091.112.112,0,0,1-.008.04,10.914,10.914,0,0,0-2.244-.521.128.128,0,0,0,.026-.03A9.982,9.982,0,0,1-153.4,191.628Zm2.347,15.1c-1.1.146-2.361.253-3.722.31.079-1.042.116-2.187.109-3.394,1.432-.059,2.759-.17,3.918-.324A15.913,15.913,0,0,1-151.052,206.729Zm-5.918.354c-.74,0-1.464-.015-2.162-.043-.078-1.041-.116-2.186-.109-3.394.732.03,1.492.045,2.271.045s1.538-.016,2.271-.045c.008,1.207-.031,2.353-.109,3.394C-155.506,207.068-156.229,207.083-156.97,207.083Zm2.159-.008a23.95,23.95,0,0,1-.358,2.789c-.583.024-1.186.037-1.8.037s-1.218-.013-1.8-.037a23.95,23.95,0,0,1-.358-2.789c.7.028,1.42.044,2.159.044S-155.508,207.1-154.811,207.076Zm-8.383-3.755c1.158.154,2.485.265,3.918.324-.007,1.207.031,2.352.109,3.394-1.36-.056-2.622-.163-3.722-.31A15.914,15.914,0,0,1-163.194,203.321ZM-156.97,200c-.725,0-1.431-.014-2.113-.041.1-1.232.234-2.394.4-3.448.552.021,1.124.033,1.71.033s1.158-.011,1.71-.033c.168,1.054.305,2.216.4,3.448C-155.539,199.984-156.245,200-156.97,200Zm2.116-.006q.065.822.1,1.679c.03.659.047,1.308.051,1.94-.732.029-1.491.044-2.27.044s-1.538-.015-2.27-.044c0-.632.021-1.281.051-1.94q.039-.857.1-1.679c.683.027,1.39.042,2.115.042S-155.537,200.02-154.854,199.992Zm-2.116-3.486c-.584,0-1.154-.011-1.7-.032.152-.946.328-1.8.522-2.547q.573.021,1.183.021t1.183-.021c.194.743.37,1.6.522,2.547C-155.816,196.5-156.386,196.507-156.97,196.507Zm0-5.314a1.812,1.812,0,0,1,.179.213l-.179,0-.179,0A1.815,1.815,0,0,1-156.97,191.192Zm-.212.212c-.111,0-.217-.009-.315-.016a4.414,4.414,0,0,1,.472-.181A1.913,1.913,0,0,0-157.182,191.4Zm.268-.2a4.413,4.413,0,0,1,.472.181c-.1.008-.2.013-.315.016A1.988,1.988,0,0,0-156.915,191.208Zm.159.016q.306.055.607.133c-.068.01-.142.018-.221.025C-156.5,191.323-156.626,191.27-156.756,191.224Zm-.814.158c-.079-.007-.153-.015-.221-.025q.3-.078.607-.133Q-157.378,191.293-157.57,191.382Zm-.064.03a5.977,5.977,0,0,0-1.286.854c-.309-.037-.587-.082-.822-.133a8.659,8.659,0,0,1,1.862-.753C-157.8,191.392-157.721,191.4-157.634,191.412Zm.07.007c.115.01.235.017.357.021a4.992,4.992,0,0,0-.471.92c-.429-.016-.832-.046-1.194-.088A5.854,5.854,0,0,1-157.564,191.419Zm.39.022.2,0,.2,0a4.749,4.749,0,0,1,.475.92q-.331.012-.679.013t-.679-.013A4.749,4.749,0,0,1-157.174,191.441Zm.441,0c.122,0,.242-.011.357-.021a5.854,5.854,0,0,1,1.308.853c-.362.042-.766.073-1.194.088A4.992,4.992,0,0,0-156.733,191.44Zm.427-.028c.087-.009.17-.02.247-.032a8.658,8.658,0,0,1,1.862.753c-.236.051-.514.1-.822.133A5.964,5.964,0,0,0-156.306,191.412Zm.328-.046a1.693,1.693,0,0,0,.188-.045,10.712,10.712,0,0,1,2.2.621,2.766,2.766,0,0,1-.559.179A8.727,8.727,0,0,0-155.978,191.366Zm-.081-.023c-.181-.049-.365-.091-.55-.128q.37.033.733.091C-155.93,191.32-155.991,191.332-156.059,191.343Zm-.272-.135q.306.017.607.052c-.02.008-.044.016-.069.024Q-156.061,191.239-156.332,191.208Zm-1.277,0q-.271.031-.538.076c-.026-.008-.049-.016-.069-.024C-158.015,191.237-157.813,191.22-157.608,191.208Zm.277.007c-.185.037-.369.079-.55.128-.068-.011-.129-.023-.183-.037Q-157.7,191.249-157.331,191.215Zm-.631.151a8.727,8.727,0,0,0-1.834.755,2.767,2.767,0,0,1-.559-.179,10.678,10.678,0,0,1,2.2-.621A1.692,1.692,0,0,0-157.962,191.366Zm-1.883.782a10.191,10.191,0,0,0-1.852,1.33,3.529,3.529,0,0,1-.9-.322,11.118,11.118,0,0,1,2.2-1.2A2.516,2.516,0,0,0-159.844,192.148Zm.051.012a8.086,8.086,0,0,0,.834.14,8.975,8.975,0,0,0-1.3,1.429,12.863,12.863,0,0,1-1.39-.241A10.142,10.142,0,0,1-159.794,192.16Zm.881.146c.366.043.778.074,1.22.09a13.1,13.1,0,0,0-.481,1.495c-.745-.028-1.438-.082-2.052-.157A8.858,8.858,0,0,1-158.913,192.306Zm.73,1.621c-.195.744-.372,1.6-.525,2.546-1.08-.042-2.082-.123-2.963-.235a13.248,13.248,0,0,1,1.42-2.47C-159.635,193.844-158.937,193.9-158.183,193.927Zm1.213-.013c-.4,0-.794-.008-1.173-.022a12.835,12.835,0,0,1,.48-1.495c.224.008.455.012.693.012s.469,0,.693-.012a12.943,12.943,0,0,1,.48,1.495C-156.176,193.906-156.568,193.914-156.97,193.914Zm.722-1.518c.443-.016.854-.047,1.22-.09a8.881,8.881,0,0,1,1.312,1.427c-.613.075-1.307.129-2.052.157A13.1,13.1,0,0,0-156.247,192.4Zm1.268-.1a8.1,8.1,0,0,0,.833-.14,10.123,10.123,0,0,1,1.86,1.328,12.862,12.862,0,0,1-1.39.241A9,9,0,0,0-154.979,192.3Zm.884-.152a2.548,2.548,0,0,0,.552-.189,11.088,11.088,0,0,1,2.2,1.2,3.529,3.529,0,0,1-.9.322A10.191,10.191,0,0,0-154.1,192.148Zm.591-.211a.435.435,0,0,0,.153-.135,10.817,10.817,0,0,1,2.257,1.1.494.494,0,0,1-.222.235A11.111,11.111,0,0,0-153.5,191.937Zm-.04-.016a10.725,10.725,0,0,0-2.176-.624.478.478,0,0,0,.062-.029,10.877,10.877,0,0,1,2.273.523A.427.427,0,0,1-153.544,191.92Zm-4.739-.653a.479.479,0,0,0,.062.029,10.725,10.725,0,0,0-2.176.624.431.431,0,0,1-.16-.13A10.886,10.886,0,0,1-158.283,191.267Zm-2.153.669a11.092,11.092,0,0,0-2.188,1.2.491.491,0,0,1-.222-.235,10.8,10.8,0,0,1,2.257-1.1A.432.432,0,0,0-160.436,191.937Zm-2.217,1.219a11.462,11.462,0,0,0-2.343,2.22.584.584,0,0,1-.279-.346,10.748,10.748,0,0,1,2.4-2.109A.535.535,0,0,0-162.653,193.156Zm.033.021a3.43,3.43,0,0,0,.892.33,11.982,11.982,0,0,0-2,2.361,4.433,4.433,0,0,1-1.241-.472A11.4,11.4,0,0,1-162.62,193.177Zm.934.34a12.479,12.479,0,0,0,1.4.246,13.277,13.277,0,0,0-1.417,2.47,17.242,17.242,0,0,1-1.982-.357A11.9,11.9,0,0,1-161.686,193.517Zm-.034,2.747a17.484,17.484,0,0,0-1.092,3.392,20.357,20.357,0,0,1-2.425-.447A13.143,13.143,0,0,1-163.7,195.9,17,17,0,0,0-161.72,196.264Zm.036,0c.883.114,1.888.2,2.971.239-.169,1.055-.307,2.217-.4,3.448-1.337-.053-2.575-.155-3.659-.3A17.419,17.419,0,0,1-161.684,196.269Zm2.563,3.723c-.043.547-.078,1.108-.1,1.679-.03.659-.047,1.307-.051,1.939-1.433-.058-2.76-.169-3.917-.321,0-.081,0-.162,0-.244a18.748,18.748,0,0,1,.405-3.354C-161.7,199.834-160.458,199.937-159.121,199.991Zm4.457,3.618c0-.632-.021-1.281-.051-1.939-.026-.571-.061-1.132-.1-1.679,1.337-.055,2.577-.158,3.663-.3a18.751,18.751,0,0,1,.405,3.354c0,.082,0,.163,0,.244C-151.9,203.441-153.231,203.552-154.664,203.61Zm-.158-3.654c-.1-1.231-.235-2.393-.4-3.448,1.082-.043,2.088-.126,2.971-.239a17.42,17.42,0,0,1,1.093,3.392C-152.246,199.8-153.485,199.9-154.822,199.956Zm-.41-3.483c-.152-.944-.33-1.8-.525-2.546.754-.028,1.452-.083,2.067-.159a13.248,13.248,0,0,1,1.42,2.47C-153.15,196.35-154.152,196.431-155.232,196.473Zm1.582-2.71a12.513,12.513,0,0,0,1.4-.246,11.915,11.915,0,0,1,2,2.36,17.243,17.243,0,0,1-1.982.357A13.275,13.275,0,0,0-153.65,193.763Zm1.438-.257a3.443,3.443,0,0,0,.892-.33,11.415,11.415,0,0,1,2.345,2.219,4.416,4.416,0,0,1-1.241.472A11.982,11.982,0,0,0-152.211,193.507Zm.925-.351a.535.535,0,0,0,.223-.236,10.751,10.751,0,0,1,2.4,2.11.584.584,0,0,1-.279.346A11.449,11.449,0,0,0-151.287,193.156Zm-4.376-1.925q-.31-.037-.626-.056c.221,0,.441.013.66.029A.145.145,0,0,1-155.663,191.231Zm-2.614,0a.156.156,0,0,1-.034-.027c.219-.016.439-.027.66-.029Q-157.966,191.194-158.277,191.231Zm-7.026,3.833a.661.661,0,0,0,.29.333,11.292,11.292,0,0,0-1.776,3.193.637.637,0,0,1-.305-.427A10.43,10.43,0,0,1-165.3,195.064Zm.32.353a4.536,4.536,0,0,0,1.242.475,13.193,13.193,0,0,0-1.531,3.308,4.973,4.973,0,0,1-1.486-.588A11.243,11.243,0,0,1-164.983,195.417Zm-.3,3.809a13.072,13.072,0,0,0-.561,3.566,4.975,4.975,0,0,1-1.549-.631,10.8,10.8,0,0,1,.622-3.522A5.156,5.156,0,0,0-165.28,199.226Zm.034.009a20.291,20.291,0,0,0,2.427.452,18.739,18.739,0,0,0-.406,3.358c0,.08,0,.159,0,.239a21.086,21.086,0,0,1-2.576-.482A13.027,13.027,0,0,1-165.246,199.236Zm2.327,7.523a10.866,10.866,0,0,0,.9,2.668q.043.084.087.167a15.548,15.548,0,0,1-1.975-.386c-.105-.144-.209-.29-.307-.443a9.578,9.578,0,0,1-1.124-2.469A19.529,19.529,0,0,0-162.919,206.758Zm.928,2.652a10.8,10.8,0,0,1-.891-2.647c1.1.147,2.359.255,3.717.311a24.031,24.031,0,0,0,.358,2.788c-1.125-.048-2.174-.139-3.086-.264C-161.926,209.537-161.958,209.474-161.991,209.41Zm3.192.49a8.45,8.45,0,0,0,.483,1.667c-.8-.035-1.553-.1-2.2-.193a6.16,6.16,0,0,1-1.349-1.73C-160.963,209.766-159.923,209.854-158.8,209.9Zm.035,0c.579.023,1.179.035,1.794.035s1.215-.012,1.793-.035a8.244,8.244,0,0,1-.487,1.667c-.423.018-.861.028-1.307.028s-.883-.01-1.307-.028A8.276,8.276,0,0,1-158.764,209.9Zm3.623,0c1.124-.046,2.164-.134,3.069-.256a6.172,6.172,0,0,1-1.349,1.731c-.65.091-1.4.157-2.2.192A8.45,8.45,0,0,0-155.141,209.9Zm.008-.038a24.028,24.028,0,0,0,.358-2.788c1.358-.056,2.618-.164,3.717-.311a10.8,10.8,0,0,1-.891,2.647c-.032.064-.065.127-.1.189C-152.96,209.723-154.008,209.815-155.133,209.863Zm3.216-.437a10.867,10.867,0,0,0,.9-2.668,19.53,19.53,0,0,0,2.423-.463,9.579,9.579,0,0,1-1.124,2.469c-.1.152-.2.3-.308.443a15.6,15.6,0,0,1-1.974.386C-151.974,209.538-151.945,209.482-151.917,209.426Zm1.206-6.142c0-.08,0-.159,0-.239a18.739,18.739,0,0,0-.406-3.358,20.312,20.312,0,0,0,2.427-.452,13.027,13.027,0,0,1,.56,3.566A21.086,21.086,0,0,1-150.711,203.284Zm-.417-3.628a17.487,17.487,0,0,0-1.092-3.392,17,17,0,0,0,1.984-.363,13.143,13.143,0,0,1,1.533,3.308A20.357,20.357,0,0,1-151.127,199.656Zm.928-3.764a4.518,4.518,0,0,0,1.242-.475,11.249,11.249,0,0,1,1.775,3.2,4.973,4.973,0,0,1-1.486.588A13.193,13.193,0,0,0-150.2,195.892Zm1.272-.495a.661.661,0,0,0,.291-.333,10.437,10.437,0,0,1,1.791,3.1.636.636,0,0,1-.305.427A11.291,11.291,0,0,0-148.927,195.4Zm-4.45-3.8a.444.444,0,0,0-.1-.079,10.6,10.6,0,0,1,1.285.54A9.834,9.834,0,0,0-153.377,191.6Zm-.425-.187a1.261,1.261,0,0,1,.345.163,10.032,10.032,0,0,0-2.118-.4v0a.084.084,0,0,0-.032-.061,6.964,6.964,0,0,1,1.634.25Zm-1.809-.24c-.318-.024-.638-.035-.96-.029a7.384,7.384,0,0,1,.9-.033C-155.632,191.127-155.612,191.149-155.611,191.169Zm-1.085-.052.043-.01a3.78,3.78,0,0,1,.714-.087,1.476,1.476,0,0,1,.184.049A7.492,7.492,0,0,0-156.7,191.117Zm-.215.019a.685.685,0,0,1,.378-.189c.164.01.311.026.437.045a3.829,3.829,0,0,0-.566.08C-156.744,191.09-156.827,191.112-156.91,191.136Zm.971-.153.019,0h-.01Zm-1.09.153c-.083-.023-.166-.045-.25-.064a3.829,3.829,0,0,0-.566-.08c.126-.02.274-.035.437-.045A.685.685,0,0,1-157.029,191.136Zm-.98-.152h-.01l.02,0Zm.009.036a3.78,3.78,0,0,1,.714.087l.043.01a7.6,7.6,0,0,0-.94-.048A1.531,1.531,0,0,1-158,191.02Zm.632.12c-.322-.005-.642.005-.959.029,0-.02.02-.042.056-.062A7.384,7.384,0,0,1-157.369,191.139Zm-3.194.457a9.808,9.808,0,0,0-1.19.461,10.713,10.713,0,0,1,1.286-.541A.471.471,0,0,0-160.563,191.6Zm-6.863,10.572c0,.026,0,.051,0,.077a10.3,10.3,0,0,0,.565,3.371.732.732,0,0,1-.194-.235,10.684,10.684,0,0,1-.656-3.536A.864.864,0,0,0-167.425,202.169Zm.034.077c0-.017,0-.034,0-.051a5.194,5.194,0,0,0,1.548.626c0,.06,0,.12,0,.18a11.586,11.586,0,0,0,.451,3.251,4.444,4.444,0,0,1-1.418-.593A10.254,10.254,0,0,1-167.391,202.246Zm2.008,4.039a9.633,9.633,0,0,0,1.134,2.5c.091.14.185.275.282.408a3.312,3.312,0,0,1-1.111-.486,9.84,9.84,0,0,1-1.714-2.995A4.8,4.8,0,0,0-165.382,206.285Zm1.51,2.976a15.573,15.573,0,0,0,1.96.378,6.244,6.244,0,0,0,1.329,1.727,10.239,10.239,0,0,1-1.37-.277A7.738,7.738,0,0,1-163.872,209.26Zm3.343,2.153a4.113,4.113,0,0,0,1.143.707,5.929,5.929,0,0,1-.58-.123c-.085-.025-.168-.05-.251-.076a7.008,7.008,0,0,1-1.629-.763A10.924,10.924,0,0,0-160.529,211.413Zm.066.009c.639.087,1.373.15,2.164.182a2.213,2.213,0,0,0,.366.6.95.95,0,0,0,.071.07c-.493-.023-.952-.066-1.349-.123A3.97,3.97,0,0,1-160.463,211.422Zm2.556.755a2.2,2.2,0,0,1-.353-.57c.417.017.848.026,1.29.026s.874-.009,1.29-.026a2.2,2.2,0,0,1-.353.57.969.969,0,0,1-.1.1c-.27.012-.549.019-.834.019s-.564-.007-.834-.019A1.033,1.033,0,0,1-157.906,212.176Zm1.9.024a2.213,2.213,0,0,0,.366-.6c.791-.033,1.525-.1,2.164-.182a3.989,3.989,0,0,1-1.253.725c-.4.058-.855.1-1.348.123A.944.944,0,0,0-156.008,212.2Zm2.6-.787a10.833,10.833,0,0,0,1.317-.256,7,7,0,0,1-1.625.761c-.087.028-.176.055-.264.081-.167.045-.359.085-.572.121A4.107,4.107,0,0,0-153.411,211.413Zm.054-.048a6.267,6.267,0,0,0,1.329-1.727,15.544,15.544,0,0,0,1.96-.378,7.71,7.71,0,0,1-1.919,1.827A10.308,10.308,0,0,1-153.357,211.366Zm3.383-2.174c.1-.133.191-.268.282-.408a9.633,9.633,0,0,0,1.134-2.5,4.8,4.8,0,0,0,1.408-.573,9.863,9.863,0,0,1-1.714,3A3.327,3.327,0,0,1-149.974,209.192Zm1.875-6.4a13.072,13.072,0,0,0-.561-3.566,5.156,5.156,0,0,0,1.487-.588,10.8,10.8,0,0,1,.622,3.522A4.975,4.975,0,0,1-148.1,202.792Zm.957-4.174a.759.759,0,0,0,.32-.386,10.224,10.224,0,0,1,.6,3.445h0a.611.611,0,0,1-.29.457A10.825,10.825,0,0,0-147.142,198.618Zm.175-.861a10.481,10.481,0,0,0-1.661-2.737.326.326,0,0,0,0-.04.309.309,0,0,0-.009-.073A10.745,10.745,0,0,1-146.966,197.757Zm-1.748-2.948a.318.318,0,0,1,.054.171h0a10.781,10.781,0,0,0-2.392-2.095.218.218,0,0,0,.007-.05.258.258,0,0,0-.044-.139q.213.135.419.282A10.83,10.83,0,0,1-148.714,194.809Zm-6.946-3.737a.732.732,0,0,0-.132-.052,3.369,3.369,0,0,1,.487.043c.125.019.25.042.373.065A7.149,7.149,0,0,0-155.66,191.071Zm-2.974-.009a3.377,3.377,0,0,1,.487-.043.748.748,0,0,0-.132.052,7.149,7.149,0,0,0-.727.056Q-158.822,191.092-158.634,191.062Zm-4.637,1.918q.207-.147.421-.283a.257.257,0,0,0-.044.139.217.217,0,0,0,.007.05,10.793,10.793,0,0,0-2.392,2.095h0a.319.319,0,0,1,.055-.172A10.837,10.837,0,0,1-163.271,192.98Zm-2.041,2.04a10.472,10.472,0,0,0-1.662,2.739,10.757,10.757,0,0,1,1.669-2.853.311.311,0,0,0-.01.074A.247.247,0,0,0-165.312,195.02Zm-1.53,10.653a9.934,9.934,0,0,0,1.068,2.155,10.745,10.745,0,0,1-1.226-2.3A1.021,1.021,0,0,0-166.842,205.673Zm4.581,5.353c.091.034.191.067.3.1a7.067,7.067,0,0,0,.635.373Q-161.807,211.284-162.261,211.026Zm3.042,1.156.021.007-.053-.011Zm.6.114h0a3.434,3.434,0,0,1-.392-.086c.36.046.763.079,1.19.1a.725.725,0,0,0,.146.09C-157.989,212.377-158.3,212.344-158.615,212.3Zm1.12.112a.531.531,0,0,1-.258-.1c.254.01.517.016.784.016s.53-.006.784-.016a.533.533,0,0,1-.258.1q-.261.013-.525.013C-157.146,212.422-157.321,212.417-157.5,212.409Zm1.373-.1c.427-.019.829-.052,1.188-.1a3.408,3.408,0,0,1-.39.085h0c-.311.048-.626.081-.944.1A.7.7,0,0,0-156.122,212.308Zm1.38-.119.02-.007.032,0Zm2.131-.692a7.156,7.156,0,0,0,.633-.372c.108-.032.208-.064.3-.1Q-152.132,211.284-152.611,211.5Zm4.447-3.671a9.976,9.976,0,0,0,1.066-2.152,1.046,1.046,0,0,0,.159-.147A10.739,10.739,0,0,1-148.164,207.826Zm1.279-2.44a.74.74,0,0,1-.193.231,10.3,10.3,0,0,0,.565-3.371c0-.026,0-.051,0-.077a.864.864,0,0,0,.287-.323A10.691,10.691,0,0,1-146.885,205.385Z" transform="translate(167.75 -190.897)"/></g></g><path class="c" d="M-143.6,194.564l-7.454,5.258a2.64,2.64,0,0,0-.793.89l-1.336-1.805a.691.691,0,0,0-.995-.166.691.691,0,0,0-.166.995l2.651,3.785.191.271,8.317,11.791a1.492,1.492,0,0,0,2.08.36l7.454-5.258a2.654,2.654,0,0,0,.639-3.7l-8.508-12.062A1.493,1.493,0,0,0-143.6,194.564Z" transform="translate(1969.149 14884.245)"/><path class="d" d="M-133.014,206.986l-8.508-12.062a1.493,1.493,0,0,0-2.08-.359l-7.454,5.258a2.64,2.64,0,0,0-.793.89l-1.336-1.805a.691.691,0,0,0-.995-.166.691.691,0,0,0-.166.995l2.651,3.785.191.271,8.317,11.791a1.492,1.492,0,0,0,2.08.36l7.454-5.258A2.654,2.654,0,0,0-133.014,206.986Zm-4.2-2.926h0a.663.663,0,0,1-.159.924l-.678.478a.663.663,0,0,1-.925-.16.663.663,0,0,1,.159-.924l.678-.478A.663.663,0,0,1-137.209,204.059Zm-7.1-6.762.678-.478a.415.415,0,0,1,.578.1.414.414,0,0,1-.1.578l-.678.478a.415.415,0,0,1-.578-.1A.415.415,0,0,1-144.312,197.3Zm-2.778,1.959.678-.478a.414.414,0,0,1,.578.1.414.414,0,0,1-.1.578l-.678.478a.414.414,0,0,1-.578-.1h0A.415.415,0,0,1-147.091,199.257Zm-2.878,2.538a.415.415,0,0,1,.1-.578l.678-.478a.415.415,0,0,1,.578.1.414.414,0,0,1-.1.578l-.677.478A.415.415,0,0,1-149.969,201.795Zm3.405,6.123-2.581-3.66a1.493,1.493,0,0,1,.36-2.08l6.369-4.493a.663.663,0,0,1,.924.159l2.581,3.66a1.493,1.493,0,0,1-.359,2.08l-6.37,4.493A.663.663,0,0,1-146.564,207.917Zm6.077-.735-.678.478a.663.663,0,0,1-.924-.16h0a.664.664,0,0,1,.16-.924l.678-.478a.664.664,0,0,1,.925.16A.664.664,0,0,1-140.486,207.182Zm-4.719,2.517a.663.663,0,0,1,.16-.925l.677-.478a.664.664,0,0,1,.924.16.663.663,0,0,1-.159.924l-.678.478A.663.663,0,0,1-145.206,209.7Zm1.338,1.9a.663.663,0,0,1,.159-.925l.678-.478a.663.663,0,0,1,.925.16.663.663,0,0,1-.159.925l-.678.478A.663.663,0,0,1-143.867,211.6Zm2.94,1.579-.678.478a.663.663,0,0,1-.925-.159.664.664,0,0,1,.16-.925l.678-.478a.663.663,0,0,1,.925.159A.663.663,0,0,1-140.927,213.175Zm.177-3.778a.663.663,0,0,1,.16-.924l.678-.478a.663.663,0,0,1,.924.159.663.663,0,0,1-.159.925l-.678.478A.664.664,0,0,1-140.75,209.4Zm2.941,1.579-.678.478a.663.663,0,0,1-.925-.159.663.663,0,0,1,.159-.924l.678-.478a.663.663,0,0,1,.924.159A.663.663,0,0,1-137.81,210.977Zm.176-3.778h0a.664.664,0,0,1,.16-.924l.678-.478a.663.663,0,0,1,.925.159h0a.663.663,0,0,1-.16.925l-.678.478A.664.664,0,0,1-137.633,207.2Zm2.941,1.579-.678.478a.663.663,0,0,1-.924-.159.663.663,0,0,1,.16-.924l.678-.478a.664.664,0,0,1,.924.16A.664.664,0,0,1-134.693,208.778Z" transform="translate(1969.149 14884.245)"/><g transform="translate(1842.255 15075.713)"><g transform="translate(0 0)"><path class="h" d="M-101.964,189.206c3.152,0,4.772,1.486,4.772,4.087v.511h-3.063v-.673c0-1.161-.589-1.6-1.62-1.6s-1.62.441-1.62,1.6c0,3.344,6.332,3.971,6.332,8.614,0,2.6-1.649,4.086-4.831,4.086s-4.83-1.486-4.83-4.086v-1h3.063v1.161c0,1.161.648,1.579,1.679,1.579s1.679-.418,1.679-1.579c0-3.344-6.333-3.97-6.333-8.614C-106.736,190.692-105.116,189.206-101.964,189.206Z" transform="translate(106.824 -189.206)"/></g><g transform="translate(26.535 0)"><path class="h" d="M-53.371,189.206c3.152,0,4.772,1.486,4.772,4.087v.511h-3.063v-.673c0-1.161-.589-1.6-1.62-1.6s-1.62.441-1.62,1.6c0,3.344,6.333,3.971,6.333,8.614,0,2.6-1.649,4.086-4.831,4.086s-4.831-1.486-4.831-4.086v-1h3.063v1.161c0,1.161.648,1.579,1.679,1.579s1.679-.418,1.679-1.579c0-3.344-6.333-3.97-6.333-8.614C-58.143,190.692-56.522,189.206-53.371,189.206Z" transform="translate(58.231 -189.206)"/></g><g transform="translate(11.198 0.126)"><path class="h" d="M-79.425,200.977l2.209-11.54h4.506V205.69h-3.063V194.034l-2.239,11.655h-3.063L-83.489,194.2V205.69h-2.828V189.437h4.506Z" transform="translate(86.317 -189.437)"/></g></g><g transform="translate(1817.782 15079.282)"><path class="c" d="M-131.544,210.694-139,215.952a.747.747,0,0,1-1.04-.18l-8.508-12.062a1.909,1.909,0,0,1,.459-2.658l7.454-5.258a.746.746,0,0,1,1.04.18l8.508,12.062A1.91,1.91,0,0,1-131.544,210.694Zm-16.447-9.507a1.744,1.744,0,0,0-.419,2.427l8.508,12.062a.581.581,0,0,0,.809.14l7.454-5.258a1.744,1.744,0,0,0,.419-2.427l-8.508-12.062a.581.581,0,0,0-.809-.14Z" transform="translate(148.894 -195.658)"/></g></g></g></svg>