<svg xmlns="http://www.w3.org/2000/svg" width="116" height="81.439" viewBox="0 0 116 81.439"><defs><style>.a{fill:#fff;}.b{fill:#231f20;}.c{fill:#383784;}.d{fill:#006bb7;}.e{fill:#25247b;}.f{fill:#ed1c24;}.g{fill:#47a6dc;}.h{fill:none;}</style></defs><path class="a" d="M6.833,0H109.167A6.833,6.833,0,0,1,116,6.833V64.708a6.834,6.834,0,0,1-6.833,6.833H6.833A6.833,6.833,0,0,1,0,64.708V6.833A6.833,6.833,0,0,1,6.833,0Z"/><g transform="translate(56.329 52.513)"><path class="b" d="M-105.916,234.607a2.04,2.04,0,0,1,1.155.275.965.965,0,0,1,.4.858,1.165,1.165,0,0,1-.108.521.9.9,0,0,1-.312.355,1.446,1.446,0,0,1-.5.2,3.161,3.161,0,0,1-.673.065h-.315V238.1h-.629v-3.408a3.1,3.1,0,0,1,.487-.068Q-106.142,234.607-105.916,234.607Zm.044.544c-.16,0-.291,0-.394.015v1.177h.3a1.552,1.552,0,0,0,.7-.127.493.493,0,0,0,.244-.482.568.568,0,0,0-.065-.285.461.461,0,0,0-.179-.179.853.853,0,0,0-.272-.092A1.969,1.969,0,0,0-105.872,235.151Z" transform="translate(106.895 -234.227)"/><path class="b" d="M-100.486,237.1a1.69,1.69,0,0,1-.09.564,1.257,1.257,0,0,1-.254.434,1.15,1.15,0,0,1-.4.279,1.284,1.284,0,0,1-.512.1,1.262,1.262,0,0,1-.509-.1,1.155,1.155,0,0,1-.395-.279,1.284,1.284,0,0,1-.256-.434,1.636,1.636,0,0,1-.093-.564,1.617,1.617,0,0,1,.093-.562,1.257,1.257,0,0,1,.259-.431,1.149,1.149,0,0,1,.4-.277,1.28,1.28,0,0,1,.5-.1,1.3,1.3,0,0,1,.506.1,1.119,1.119,0,0,1,.4.277,1.287,1.287,0,0,1,.257.431A1.634,1.634,0,0,1-100.486,237.1Zm-.619,0a1.019,1.019,0,0,0-.168-.616.546.546,0,0,0-.466-.227.546.546,0,0,0-.466.227,1.019,1.019,0,0,0-.168.616,1.04,1.04,0,0,0,.168.624.544.544,0,0,0,.466.23.544.544,0,0,0,.466-.23A1.04,1.04,0,0,0-101.1,237.1Z" transform="translate(105.836 -234.532)"/><path class="b" d="M-96.346,237.107a1.839,1.839,0,0,1-.077.549,1.288,1.288,0,0,1-.222.429.985.985,0,0,1-.361.279,1.159,1.159,0,0,1-.492.1,1.219,1.219,0,0,1-.34-.045,1.275,1.275,0,0,1-.254-.1v1.013h-.6v-3.449q.185-.049.454-.095a3.475,3.475,0,0,1,.569-.044,1.517,1.517,0,0,1,.554.095,1.152,1.152,0,0,1,.417.272,1.2,1.2,0,0,1,.264.429A1.632,1.632,0,0,1-96.346,237.107Zm-.619.009a.977.977,0,0,0-.182-.629.713.713,0,0,0-.587-.224c-.057,0-.116,0-.177.007a.963.963,0,0,0-.182.033V237.8a.93.93,0,0,0,.212.1.819.819,0,0,0,.282.047.541.541,0,0,0,.482-.224A1.062,1.062,0,0,0-96.965,237.116Z" transform="translate(104.67 -234.536)"/><path class="b" d="M-92.308,237.1a1.69,1.69,0,0,1-.09.564,1.246,1.246,0,0,1-.254.434,1.147,1.147,0,0,1-.4.279,1.289,1.289,0,0,1-.511.1,1.268,1.268,0,0,1-.509-.1,1.152,1.152,0,0,1-.394-.279,1.286,1.286,0,0,1-.257-.434,1.653,1.653,0,0,1-.093-.564,1.634,1.634,0,0,1,.093-.562,1.268,1.268,0,0,1,.259-.431,1.152,1.152,0,0,1,.4-.277,1.278,1.278,0,0,1,.5-.1,1.3,1.3,0,0,1,.506.1,1.116,1.116,0,0,1,.4.277,1.287,1.287,0,0,1,.257.431A1.634,1.634,0,0,1-92.308,237.1Zm-.619,0a1.019,1.019,0,0,0-.167-.616.547.547,0,0,0-.466-.227.547.547,0,0,0-.467.227,1.019,1.019,0,0,0-.167.616,1.04,1.04,0,0,0,.167.624.545.545,0,0,0,.467.23.545.545,0,0,0,.466-.23A1.04,1.04,0,0,0-92.928,237.1Z" transform="translate(103.617 -234.532)"/><path class="b" d="M-90.56,234.837l.6-.1v.788h.928v.5h-.928v1.063a.774.774,0,0,0,.1.449.4.4,0,0,0,.34.135,1.108,1.108,0,0,0,.292-.035,2.048,2.048,0,0,0,.2-.065l.1.479a2.256,2.256,0,0,1-.275.092,1.5,1.5,0,0,1-.4.047,1.272,1.272,0,0,1-.466-.074.689.689,0,0,1-.3-.217.859.859,0,0,1-.155-.345,2.146,2.146,0,0,1-.044-.462Z" transform="translate(102.462 -234.263)"/><path class="b" d="M-87.917,237.112a1.63,1.63,0,0,1,.1-.6,1.265,1.265,0,0,1,.272-.432,1.129,1.129,0,0,1,.389-.259,1.207,1.207,0,0,1,.45-.087,1.076,1.076,0,0,1,.841.334,1.448,1.448,0,0,1,.3,1c0,.033,0,.071,0,.112s0,.079-.008.112h-1.721a.687.687,0,0,0,.222.487.845.845,0,0,0,.571.172,1.861,1.861,0,0,0,.4-.04,1.642,1.642,0,0,0,.287-.085l.079.494a.945.945,0,0,1-.137.052,1.855,1.855,0,0,1-.2.05c-.075.015-.156.028-.242.038a2.429,2.429,0,0,1-.264.015,1.61,1.61,0,0,1-.6-.1,1.111,1.111,0,0,1-.419-.285,1.162,1.162,0,0,1-.245-.428A1.759,1.759,0,0,1-87.917,237.112Zm1.752-.27a.792.792,0,0,0-.035-.237.563.563,0,0,0-.1-.195.5.5,0,0,0-.165-.13.529.529,0,0,0-.232-.047.54.54,0,0,0-.244.052.56.56,0,0,0-.177.137.615.615,0,0,0-.112.195,1.063,1.063,0,0,0-.055.224Z" transform="translate(101.745 -234.532)"/><path class="b" d="M-83.261,238.49a1.192,1.192,0,0,1,.009.125v.08a2.255,2.255,0,0,1-.1.639,2.776,2.776,0,0,1-.272.624l-.474-.13a2.447,2.447,0,0,0,.162-.567,3.339,3.339,0,0,0,.042-.486c0-.04,0-.09,0-.15s0-.1-.007-.135Z" transform="translate(100.708 -235.281)"/><path class="b" d="M-78.227,235.044c.053.18.109.366.169.562s.122.389.187.584.13.386.195.574.128.365.187.531q.075-.27.145-.587t.14-.659q.069-.342.137-.7t.128-.7h.648q-.175.938-.388,1.8t-.479,1.654h-.6q-.387-1.008-.749-2.2-.185.6-.375,1.148t-.38,1.053h-.6q-.269-.788-.48-1.654t-.385-1.8h.673q.06.34.127.694t.139.7q.073.342.147.662t.15.589q.1-.255.192-.536t.192-.574q.1-.292.182-.581c.058-.193.112-.379.162-.559Z" transform="translate(99.795 -234.24)"/><path class="b" d="M-73.331,235.73a1.469,1.469,0,0,1,.5.075.8.8,0,0,1,.327.21.781.781,0,0,1,.175.326,1.6,1.6,0,0,1,.052.422v1.582q-.139.03-.421.072a4.281,4.281,0,0,1-.637.043,1.909,1.909,0,0,1-.428-.045.9.9,0,0,1-.332-.145.673.673,0,0,1-.214-.259.9.9,0,0,1-.078-.394.757.757,0,0,1,.087-.379.716.716,0,0,1,.238-.252,1.026,1.026,0,0,1,.347-.14,1.938,1.938,0,0,1,.412-.042,1.751,1.751,0,0,1,.209.012,1.933,1.933,0,0,1,.235.042v-.1a.777.777,0,0,0-.025-.2.413.413,0,0,0-.087-.167.4.4,0,0,0-.165-.112.706.706,0,0,0-.257-.04,2.313,2.313,0,0,0-.384.03,1.617,1.617,0,0,0-.284.07l-.075-.49a2.5,2.5,0,0,1,.334-.079A2.587,2.587,0,0,1-73.331,235.73Zm.05,2.251a2.266,2.266,0,0,0,.424-.03v-.669a1.2,1.2,0,0,0-.144-.03,1.327,1.327,0,0,0-.21-.015,1.364,1.364,0,0,0-.2.015.625.625,0,0,0-.184.055.325.325,0,0,0-.132.112.31.31,0,0,0-.05.181.32.32,0,0,0,.135.3A.7.7,0,0,0-73.281,237.981Z" transform="translate(98.072 -234.532)"/><path class="b" d="M-69.869,236.367l.244-.256c.087-.092.171-.183.255-.275l.237-.264c.075-.085.139-.159.192-.222h.713q-.249.28-.525.579t-.555.584a3.482,3.482,0,0,1,.314.3q.164.178.318.377t.289.4a3.994,3.994,0,0,1,.224.369h-.7c-.06-.1-.129-.211-.207-.324s-.162-.223-.252-.329-.181-.207-.274-.3a2.37,2.37,0,0,0-.275-.243v1.2h-.6v-3.773l.6-.1Z" transform="translate(97.011 -234.086)"/><path class="b" d="M-65.9,235.73a1.469,1.469,0,0,1,.5.075.8.8,0,0,1,.327.21.78.78,0,0,1,.174.326,1.6,1.6,0,0,1,.052.422v1.582c-.093.02-.234.044-.421.072a4.281,4.281,0,0,1-.637.043,1.92,1.92,0,0,1-.429-.045.906.906,0,0,1-.332-.145.681.681,0,0,1-.215-.259.907.907,0,0,1-.077-.394.757.757,0,0,1,.087-.379.716.716,0,0,1,.238-.252,1.02,1.02,0,0,1,.347-.14,1.938,1.938,0,0,1,.412-.042,1.751,1.751,0,0,1,.209.012,1.933,1.933,0,0,1,.235.042v-.1a.776.776,0,0,0-.025-.2.413.413,0,0,0-.087-.167.4.4,0,0,0-.165-.112.706.706,0,0,0-.257-.04,2.313,2.313,0,0,0-.384.03,1.617,1.617,0,0,0-.284.07l-.075-.49a2.5,2.5,0,0,1,.334-.079A2.587,2.587,0,0,1-65.9,235.73Zm.05,2.251a2.267,2.267,0,0,0,.424-.03v-.669a1.188,1.188,0,0,0-.145-.03,1.311,1.311,0,0,0-.209-.015,1.364,1.364,0,0,0-.2.015.625.625,0,0,0-.184.055.331.331,0,0,0-.133.112.315.315,0,0,0-.05.181.32.32,0,0,0,.135.3A.7.7,0,0,0-65.85,237.981Z" transform="translate(96.056 -234.532)"/><path class="b" d="M-63.083,234.837l.6-.1v.788h.928v.5h-.928v1.063a.768.768,0,0,0,.1.449.394.394,0,0,0,.339.135,1.108,1.108,0,0,0,.292-.035,2.048,2.048,0,0,0,.2-.065l.1.479a2.239,2.239,0,0,1-.274.092,1.507,1.507,0,0,1-.4.047,1.276,1.276,0,0,1-.467-.074.689.689,0,0,1-.3-.217.858.858,0,0,1-.154-.345,2.1,2.1,0,0,1-.045-.462Z" transform="translate(95.006 -234.263)"/><path class="b" d="M-59.532,234.632a.346.346,0,0,1-.109.27.371.371,0,0,1-.259.1.376.376,0,0,1-.264-.1.344.344,0,0,1-.11-.27.351.351,0,0,1,.11-.274.376.376,0,0,1,.264-.1.371.371,0,0,1,.259.1A.353.353,0,0,1-59.532,234.632Zm-.065,3.374h-.6V235.4h.6Z" transform="translate(94.244 -234.133)"/><path class="b" d="M-54.544,235.044c.053.18.109.366.169.562s.122.389.187.584.13.386.195.574.128.365.187.531q.075-.27.145-.587t.14-.659q.069-.342.137-.7t.128-.7h.648q-.175.938-.388,1.8t-.479,1.654h-.6q-.387-1.008-.749-2.2-.185.6-.375,1.148t-.38,1.053h-.6q-.269-.788-.48-1.654t-.385-1.8h.673q.06.34.128.694t.139.7q.073.342.147.662t.15.589q.1-.255.192-.536t.192-.574q.1-.292.182-.581c.058-.193.112-.379.162-.559Z" transform="translate(93.368 -234.24)"/><path class="b" d="M-48.093,237.1a1.69,1.69,0,0,1-.09.564,1.257,1.257,0,0,1-.254.434,1.15,1.15,0,0,1-.4.279,1.284,1.284,0,0,1-.511.1,1.268,1.268,0,0,1-.509-.1,1.152,1.152,0,0,1-.394-.279,1.284,1.284,0,0,1-.256-.434,1.636,1.636,0,0,1-.093-.564,1.617,1.617,0,0,1,.093-.562,1.257,1.257,0,0,1,.259-.431,1.149,1.149,0,0,1,.4-.277,1.28,1.28,0,0,1,.5-.1,1.3,1.3,0,0,1,.506.1,1.119,1.119,0,0,1,.4.277,1.285,1.285,0,0,1,.256.431A1.617,1.617,0,0,1-48.093,237.1Zm-.619,0a1.019,1.019,0,0,0-.168-.616.546.546,0,0,0-.466-.227.546.546,0,0,0-.466.227,1.019,1.019,0,0,0-.168.616,1.04,1.04,0,0,0,.168.624.544.544,0,0,0,.466.23.544.544,0,0,0,.466-.23A1.04,1.04,0,0,0-48.712,237.1Z" transform="translate(91.618 -234.532)"/><path class="b" d="M-46.345,234.837l.6-.1v.788h.928v.5h-.928v1.063a.768.768,0,0,0,.1.449.4.4,0,0,0,.34.135,1.1,1.1,0,0,0,.291-.035,2.072,2.072,0,0,0,.2-.065l.1.479a2.2,2.2,0,0,1-.274.092,1.5,1.5,0,0,1-.4.047,1.276,1.276,0,0,1-.467-.074.689.689,0,0,1-.3-.217.868.868,0,0,1-.154-.345,2.143,2.143,0,0,1-.045-.462Z" transform="translate(90.463 -234.263)"/><path class="b" d="M-43.7,237.112a1.646,1.646,0,0,1,.1-.6,1.266,1.266,0,0,1,.273-.432,1.129,1.129,0,0,1,.389-.259,1.2,1.2,0,0,1,.449-.087,1.075,1.075,0,0,1,.841.334,1.449,1.449,0,0,1,.3,1c0,.033,0,.071,0,.112s0,.079-.007.112h-1.722a.688.688,0,0,0,.222.487.844.844,0,0,0,.571.172,1.854,1.854,0,0,0,.4-.04,1.623,1.623,0,0,0,.287-.085l.08.494a.959.959,0,0,1-.138.052,1.854,1.854,0,0,1-.2.05c-.074.015-.155.028-.242.038a2.429,2.429,0,0,1-.264.015,1.61,1.61,0,0,1-.6-.1,1.117,1.117,0,0,1-.419-.285,1.162,1.162,0,0,1-.245-.428A1.759,1.759,0,0,1-43.7,237.112Zm1.752-.27a.792.792,0,0,0-.035-.237.564.564,0,0,0-.1-.195.481.481,0,0,0-.165-.13.528.528,0,0,0-.232-.047.541.541,0,0,0-.245.052.569.569,0,0,0-.177.137.644.644,0,0,0-.112.195,1.107,1.107,0,0,0-.055.224Z" transform="translate(89.746 -234.532)"/></g><g transform="translate(12.841 76.979)"><path class="a" d="M-144.231,271.777a.961.961,0,0,1-.143.5.4.4,0,0,1-.332.235h-4.264v-4.46h4.069a.428.428,0,0,1,.37.2.862.862,0,0,1,.138.5v.631a.741.741,0,0,1-.133.392.711.711,0,0,0-.133.373.42.42,0,0,0,.113.252,2.541,2.541,0,0,1,.2.274.854.854,0,0,1,.109.434Zm-1.111-2.619q0-.366-.29-.366l-2.193.006c-.1,0-.151.064-.151.2v.71c0,.131.051.2.151.2h2.19c.2,0,.294-.122.294-.366Zm0,1.989,0-.086c-.016-.295-.136-.441-.361-.441h-2.123c-.1,0-.151.067-.151.2v.728c0,.131.051.2.151.2h2.193c.2,0,.3-.122.3-.368Z" transform="translate(148.97 -268.058)"/><path class="a" d="M-138.495,271.8a.834.834,0,0,1-.157.511.47.47,0,0,1-.389.21h-3.746a.47.47,0,0,1-.392-.205.834.834,0,0,1-.154-.516v-3.738h.983v3.248c0,.3.12.447.361.447h2.147a.315.315,0,0,0,.256-.123.494.494,0,0,0,.1-.324v-3.248h.993Z" transform="translate(148.841 -268.058)"/><path class="a" d="M-133.768,271.753v.764h-3.671v-4.46h.993v3.3a.5.5,0,0,0,.071.291.266.266,0,0,0,.233.1Z" transform="translate(148.705 -268.058)"/><path class="a" d="M-128.593,272.518h-1.458l-1.552-1.755a.407.407,0,0,0-.313-.147q-.356,0-.357.447v1.455h-.988v-4.46h.988V269.4c0,.3.107.447.323.447a1.339,1.339,0,0,0,.223-.013.47.47,0,0,0,.2-.141l1.467-1.639h1.215l-1.676,1.86a.512.512,0,0,0-.161.33.513.513,0,0,0,.181.337Z" transform="translate(148.609 -268.058)"/><path class="a" d="M-120.895,271.8a.834.834,0,0,1-.153.516.476.476,0,0,1-.4.205h-3.281q-.555,0-.546-.918v-.159h.973a.4.4,0,0,0,.091.249.25.25,0,0,0,.194.117h1.77a.3.3,0,0,0,.323-.214,2.06,2.06,0,0,0,.038-.5.509.509,0,0,0-.1-.327.321.321,0,0,0-.262-.126h-2.521a.465.465,0,0,1-.392-.21.867.867,0,0,1-.154-.524v-1.126a.846.846,0,0,1,.152-.518.469.469,0,0,1,.394-.2h3.286q.555,0,.546.918v.159h-.978a.416.416,0,0,0-.091-.254.25.25,0,0,0-.194-.12h-1.771a.3.3,0,0,0-.318.217,2.084,2.084,0,0,0-.038.5.5.5,0,0,0,.1.326.315.315,0,0,0,.256.123h2.527a.472.472,0,0,1,.389.208.828.828,0,0,1,.156.514Z" transform="translate(148.427 -268.058)"/><path class="a" d="M-113.338,272.518h-.93V269.1c0-.127-.04-.19-.119-.19h-.123c-.044,0-.1.066-.156.2l-1.539,3.309a.135.135,0,0,1-.133.1h-.613a.131.131,0,0,1-.133-.1l-1.548-3.309c-.06-.131-.112-.2-.156-.2h-.124c-.079,0-.118.063-.118.19v3.42h-.988v-4.46h1.828l1.339,2.686c.042.115.109.171.2.171a.217.217,0,0,0,.209-.171l1.325-2.686h1.775Z" transform="translate(148.305 -268.058)"/><path class="a" d="M-108.051,271.8a.834.834,0,0,1-.154.516.474.474,0,0,1-.4.205h-3.281q-.555,0-.546-.918v-.159h.974a.4.4,0,0,0,.09.249.251.251,0,0,0,.194.117h1.771a.3.3,0,0,0,.322-.214,2.059,2.059,0,0,0,.038-.5.509.509,0,0,0-.1-.327.319.319,0,0,0-.261-.126h-2.522a.464.464,0,0,1-.391-.21.861.861,0,0,1-.154-.524v-1.126a.846.846,0,0,1,.151-.518.47.47,0,0,1,.394-.2h3.286q.555,0,.546.918v.159h-.978a.421.421,0,0,0-.09-.254.252.252,0,0,0-.2-.12h-1.77a.3.3,0,0,0-.319.217,2.084,2.084,0,0,0-.038.5.5.5,0,0,0,.1.326.317.317,0,0,0,.257.123h2.526a.469.469,0,0,1,.389.208.829.829,0,0,1,.157.514Z" transform="translate(148.132 -268.058)"/><path class="a" d="M-99.681,271.777a.952.952,0,0,1-.143.5.4.4,0,0,1-.332.235h-4.263v-4.46h4.068a.427.427,0,0,1,.37.2.862.862,0,0,1,.138.5v.631a.732.732,0,0,1-.133.392.711.711,0,0,0-.133.373.426.426,0,0,0,.113.252,2.548,2.548,0,0,1,.2.274.854.854,0,0,1,.109.434Zm-1.111-2.619q0-.366-.289-.366l-2.193.006c-.1,0-.152.064-.152.2v.71c0,.131.051.2.152.2h2.189q.295,0,.294-.366Zm0,1.989,0-.086c-.016-.295-.136-.441-.361-.441h-2.122c-.1,0-.152.067-.152.2v.728q0,.2.152.2h2.193c.2,0,.294-.122.294-.368Z" transform="translate(147.947 -268.058)"/><path class="a" d="M-94.153,272.518h-1v-1.37a.484.484,0,0,0-.1-.321.317.317,0,0,0-.257-.12h-2.1c-.1,0-.152.067-.152.2v1.609h-.988v-4.46h4.021a.477.477,0,0,1,.395.208.828.828,0,0,1,.156.514v.691a.686.686,0,0,1-.218.426.682.682,0,0,0-.219.407.412.412,0,0,0,.12.257c.124.147.2.237.221.269a.824.824,0,0,1,.119.441Zm-1-3.34c0-.244-.1-.368-.294-.368h-2.16q-.152,0-.152.193v.767c0,.131.051.2.152.2h2.16c.2,0,.294-.122.294-.368Z" transform="translate(147.817 -268.058)"/><path class="a" d="M-88.7,271.8a.833.833,0,0,1-.156.511.471.471,0,0,1-.389.21h-3.48a.469.469,0,0,1-.392-.208.839.839,0,0,1-.154-.514v-3.017a.841.841,0,0,1,.154-.518.472.472,0,0,1,.392-.2h3.48a.472.472,0,0,1,.389.208.828.828,0,0,1,.156.514Zm-.992-.49v-2.043c0-.3-.12-.447-.362-.447h-1.87c-.24,0-.361.15-.361.447v2.043c0,.3.12.447.361.447h1.87a.321.321,0,0,0,.262-.123A.494.494,0,0,0-89.692,271.306Z" transform="translate(147.691 -268.058)"/><path class="a" d="M-82.714,272.518h-1.059c-.1-.264-.193-.5-.284-.715a.251.251,0,0,0-.257-.141H-86.57a.236.236,0,0,0-.252.141c-.025.053-.121.291-.289.715H-88.17l1.886-4.46h1.676Zm-1.785-1.787a.53.53,0,0,0-.043-.178l-.627-1.6c-.05-.13-.1-.2-.142-.2h-.266c-.045,0-.093.065-.143.2l-.613,1.6a.477.477,0,0,0-.048.178.153.153,0,0,0,.176.171h1.529C-84.558,270.9-84.5,270.842-84.5,270.731Z" transform="translate(147.574 -268.058)"/><path class="a" d="M-77.432,271.777a1,1,0,0,1-.135.5.385.385,0,0,1-.325.235h-4.126v-4.46h4.069a.441.441,0,0,1,.375.2.842.842,0,0,1,.142.5Zm-.973-.4v-2.221c0-.24-.1-.36-.294-.36h-2.346v2.949h2.351C-78.5,271.747-78.4,271.625-78.4,271.379Z" transform="translate(147.433 -268.058)"/><path class="a" d="M-71.969,271.8a.833.833,0,0,1-.156.511.471.471,0,0,1-.39.21H-76a.469.469,0,0,1-.391-.208.833.833,0,0,1-.154-.514v-3.017a.835.835,0,0,1,.154-.518.471.471,0,0,1,.391-.2h3.48a.472.472,0,0,1,.39.208.828.828,0,0,1,.156.514v.41h-1q-.038-.374-.357-.374h-1.87c-.24,0-.361.15-.361.447v2.043c0,.3.121.447.361.447h1.87a.314.314,0,0,0,.249-.111.464.464,0,0,0,.107-.293h1Z" transform="translate(147.307 -268.058)"/><path class="a" d="M-66.183,272.518h-1.058c-.1-.264-.193-.5-.285-.715a.25.25,0,0,0-.256-.141h-2.256a.234.234,0,0,0-.251.141q-.038.079-.29.715h-1.058l1.885-4.46h1.676Zm-1.785-1.787a.53.53,0,0,0-.043-.178l-.626-1.6c-.051-.13-.1-.2-.143-.2h-.266c-.044,0-.092.065-.143.2l-.613,1.6a.492.492,0,0,0-.047.178.153.153,0,0,0,.176.171h1.528C-68.027,270.9-67.968,270.842-67.968,270.731Z" transform="translate(147.194 -268.058)"/><path class="a" d="M-61.45,271.8a.834.834,0,0,1-.154.516.473.473,0,0,1-.4.205h-3.281q-.555,0-.545-.918v-.159h.973a.4.4,0,0,0,.09.249.251.251,0,0,0,.194.117H-62.8a.3.3,0,0,0,.322-.214,2.059,2.059,0,0,0,.038-.5.509.509,0,0,0-.1-.327.319.319,0,0,0-.261-.126h-2.521a.465.465,0,0,1-.392-.21.867.867,0,0,1-.154-.524v-1.126a.852.852,0,0,1,.151-.518.471.471,0,0,1,.395-.2h3.285q.555,0,.546.918v.159h-.978a.421.421,0,0,0-.09-.254.251.251,0,0,0-.194-.12h-1.771a.3.3,0,0,0-.318.217,2.085,2.085,0,0,0-.038.5.5.5,0,0,0,.1.326.315.315,0,0,0,.256.123H-62a.472.472,0,0,1,.39.208.828.828,0,0,1,.156.514Z" transform="translate(147.062 -268.058)"/><path class="a" d="M-56.633,268.865h-1.391c-.215,0-.323.115-.323.342v3.31H-59.3v-3.31c0-.228-.1-.342-.3-.342H-61v-.807h4.368Z" transform="translate(146.95 -268.058)"/></g><g transform="translate(56.18 43.693)"><path class="c" d="M-105.006,222.273q.186.338.428.834t.5,1.074q.262.578.52,1.182l.484,1.136.484-1.136q.257-.6.52-1.182t.5-1.074q.242-.5.427-.834h1.457q.1.706.19,1.581t.154,1.822q.067.946.123,1.9t.1,1.79h-1.56q-.031-1.034-.082-2.251t-.154-2.456q-.186.431-.412.952t-.447,1.044q-.222.521-.428,1c-.137.317-.254.588-.35.813h-1.119q-.144-.338-.35-.813t-.427-1q-.222-.522-.448-1.044t-.412-.952q-.1,1.238-.154,2.456t-.082,2.251H-107.1q.042-.839.1-1.79t.123-1.9q.067-.946.154-1.822t.189-1.581Z" transform="translate(107.1 -222.109)"/><path class="c" d="M-89.838,222.273v1.361h-2.146v5.73h-1.6v-5.73H-95.73v-1.361Z" transform="translate(104.015 -222.109)"/><path class="c" d="M-83.448,229.364q-.119-.369-.256-.759l-.272-.775h-2.778q-.136.387-.27.777t-.252.757H-88.94q.4-1.145.762-2.118t.705-1.832q.345-.859.68-1.631t.7-1.51h1.518q.351.737.691,1.51t.686,1.631q.345.86.706,1.832t.764,2.118Zm-1.924-5.484c-.036.1-.088.243-.157.42s-.147.382-.235.614-.186.488-.294.767-.219.573-.331.879h2.034q-.164-.461-.317-.882t-.291-.769c-.092-.232-.172-.436-.241-.614S-85.33,223.98-85.373,223.88Z" transform="translate(102.172 -222.109)"/><path class="c" d="M-73.586,229.364q-.687-1.218-1.489-2.4a24.506,24.506,0,0,0-1.7-2.241v4.646h-1.581v-7.091h1.3q.339.338.75.829t.836,1.048q.425.557.847,1.156t.791,1.151v-4.185h1.591v7.091Z" transform="translate(99.301 -222.109)"/><path class="c" d="M-62.041,225.783a4.146,4.146,0,0,1-.287,1.607,2.991,2.991,0,0,1-.816,1.136,3.478,3.478,0,0,1-1.289.675,5.987,5.987,0,0,1-1.7.225q-.432,0-1.006-.036a8.288,8.288,0,0,1-1.129-.148v-6.907a9.611,9.611,0,0,1,1.155-.138q.6-.036,1.032-.036a6.255,6.255,0,0,1,1.658.2,3.4,3.4,0,0,1,1.279.644,2.88,2.88,0,0,1,.821,1.126A4.265,4.265,0,0,1-62.041,225.783Zm-4.63,2.251c.075.007.162.012.262.015s.217.005.354.005a2.366,2.366,0,0,0,1.781-.6,2.309,2.309,0,0,0,.58-1.668,2.337,2.337,0,0,0-.554-1.688A2.351,2.351,0,0,0-66,223.521c-.109,0-.222,0-.339.006a3.21,3.21,0,0,0-.329.025Z" transform="translate(96.563 -222.079)"/><path class="c" d="M-54.3,229.364q-.119-.369-.256-.759l-.272-.775H-57.6q-.136.387-.27.777t-.252.757H-59.79q.4-1.145.761-2.118t.705-1.832q.345-.859.68-1.631t.7-1.51h1.518q.351.737.691,1.51t.686,1.631q.345.86.706,1.832t.764,2.118Zm-1.924-5.484c-.036.1-.087.243-.157.42s-.147.382-.235.614-.187.488-.3.767-.219.573-.331.879h2.034q-.164-.461-.317-.882t-.291-.769c-.092-.232-.172-.436-.241-.614S-56.18,223.98-56.223,223.88Z" transform="translate(94.261 -222.109)"/><path class="c" d="M-42.9,225.752a4.351,4.351,0,0,1-.272,1.6,3.3,3.3,0,0,1-.744,1.156,3.072,3.072,0,0,1-1.124.7,4.1,4.1,0,0,1-1.4.235,4,4,0,0,1-1.376-.235,3.174,3.174,0,0,1-1.129-.7,3.274,3.274,0,0,1-.759-1.156,4.274,4.274,0,0,1-.278-1.6,4.144,4.144,0,0,1,.288-1.6,3.414,3.414,0,0,1,.775-1.161,3.2,3.2,0,0,1,1.129-.706,3.9,3.9,0,0,1,1.35-.235,4,4,0,0,1,1.376.235,3.142,3.142,0,0,1,1.129.706,3.331,3.331,0,0,1,.76,1.161A4.289,4.289,0,0,1-42.9,225.752Zm-5.43,0a3.2,3.2,0,0,0,.129.941,2.137,2.137,0,0,0,.369.721,1.629,1.629,0,0,0,.59.466,1.86,1.86,0,0,0,.8.164,1.874,1.874,0,0,0,.8-.164,1.628,1.628,0,0,0,.6-.466,2.163,2.163,0,0,0,.369-.721,3.225,3.225,0,0,0,.128-.941,3.279,3.279,0,0,0-.128-.946,2.161,2.161,0,0,0-.369-.726,1.628,1.628,0,0,0-.6-.466,1.874,1.874,0,0,0-.8-.163,1.82,1.82,0,0,0-.8.168,1.683,1.683,0,0,0-.59.471,2.135,2.135,0,0,0-.369.726A3.214,3.214,0,0,0-48.332,225.752Z" transform="translate(91.601 -222.048)"/></g><rect class="c" width="0.664" height="36.735" transform="translate(51.323 19.592)"/><g transform="translate(26.246 14.157)"><path class="d" d="M-141.991,186.986l-3.43-.775,1.991-4.426.332,1.881s7.745-1.549,8.63,1.992c0,0-1.328-1.771-7.966-.221Z" transform="translate(145.421 -181.786)"/><path class="e" d="M-132.514,190.492s2.26-2.849,1-4.758c.791.607,3.209,3.43,2.1,8.3l-.664-3.32Z" transform="translate(141.918 -182.857)"/></g><path class="f" d="M-154.294,232.874l3.921.824-2.246,4.854-.391-2.055s-8.833,1.747-9.866-2.12c0,0,1.527,1.927,9.1.189Z" transform="translate(175.717 -181.246)"/><path class="e" d="M-161.923,227.841s-2.563,3.131-1.107,5.21c-.907-.659-3.685-3.73-2.453-9.062l.779,3.626Z" transform="translate(176.509 -178.864)"/><g transform="translate(8.405 20.011)"><circle class="e" cx="15.269" cy="15.269" r="15.269"/><circle class="g" cx="14.384" cy="14.384" r="14.384" transform="translate(0.885 0.885)"/><g transform="translate(0.885 0.885)"><g transform="translate(0.023 0.024)"><path class="h" d="M-167.718,205.29a14.361,14.361,0,0,0,14.361,14.361A14.36,14.36,0,0,0-139,205.29a14.36,14.36,0,0,0-14.36-14.36A14.36,14.36,0,0,0-167.718,205.29Z" transform="translate(167.718 -190.93)"/><g transform="translate(0.243 1.612)"><path class="a" d="M-141.991,209.186c0,.012.03.086.048.091a.238.238,0,0,0,.109-.152C-141.826,209.033-141.978,209.108-141.991,209.186Zm-4.625-11.167c.174.027.187.141.289.153,0-.009,0-.024,0-.03s-.089-.138-.178-.152a.57.57,0,0,1-.111-.012C-146.622,197.99-146.615,198.007-146.616,198.019Zm.7.353a.517.517,0,0,0-.168-.109c-.008,0-.015.012-.023.014a.486.486,0,0,0,.2.15C-145.887,198.427-145.9,198.388-145.913,198.372Zm-.971-.562c-.021-.029-.114-.041-.125-.05a.287.287,0,0,0,.143.135c.012,0,.006-.028,0-.036S-146.876,197.827-146.884,197.811Zm.733,12.176c-.077.007-.149.008-.229.012-.012.007-.083-.02-.083-.02-.114-.036-.227-.021-.3-.051-.1-.058-.047-.231-.162-.23-.039,0-.071.088-.076.126,0,.179.15.129.152.278.144.029.2.109.366.1a.375.375,0,0,0,.116-.061v0l.007-.005s.008-.006.009-.009C-146.282,210.078-146.172,210.087-146.151,209.987Zm4.5-4.343a.211.211,0,0,0,.007.07h-.035a.514.514,0,0,0,.011.112s-.048.064-.041.063a.365.365,0,0,0,.032.091.292.292,0,0,0,.087,0,.214.214,0,0,1-.039.142c0,.012,0,.03,0,.042h.052c.045-.006.045-.058.02-.1,0-.012,0-.031,0-.042.048,0,.079-.074.079-.092s0-.03,0-.042h-.075c-.013,0-.032-.03-.033-.042-.007-.1.111-.156.119-.2-.018-.013-.034-.028-.055-.028C-141.576,205.618-141.6,205.642-141.655,205.644Zm-2.407-5.639a.167.167,0,0,1,.042.074.033.033,0,0,1-.029.027c-.109-.012-.121-.075-.205-.114a.99.99,0,0,1-.437-.558c0-.039.027-.044.018-.071-.009-.073-.1-.23-.188-.25-.013,0,0,.082-.088.006.007,0,.015-.008.02,0,.02,0,.027-.055.007-.054-.047,0-.076,0-.08.02a.229.229,0,0,0,0,.122c.012.089-.082.115-.071.206s.1.122.121.208c0,.012,0,.03,0,.038s.047.012.065.021c.071.031.076.22.082.293s.084.1.1.189a.255.255,0,0,1-.023.119c.09.051.09.116.181.149.02-.053-.009-.066-.017-.1.1.071.158.088.2.176.012.006.027-.017.031-.028.022,0,.047.006.068.007a.256.256,0,0,0,.144.094c.149.016.126-.1.183-.085.019,0,.047.039.046.056s-.062.095-.055.095a.354.354,0,0,1,.067.015c.048.007.13.122.177.187.05-.006.039-.059.085-.053.02,0-.007-.034-.006-.051a1.02,1.02,0,0,0-.032-.111.658.658,0,0,1,.188-.031c.041.006.052.05.069.059.062.029.094.008.143.039a1.094,1.094,0,0,0,.333.135c.047.005.084.01.082-.012s-.064-.036-.085-.055c-.142-.109-.219-.271-.377-.3-.139-.021-.261-.034-.4-.056-.111-.023-.176-.219-.234-.224A1.854,1.854,0,0,0-144.063,200.005Zm-2.029-1.745a.017.017,0,0,0,.012,0s.006-.006.009-.006S-146.086,198.259-146.092,198.26Zm.731-.611c-.009-.073.031-.069.018-.135s-.047-.095-.061-.161c-.015-.1-.037-.187-.052-.29-.009-.07.079-.082.069-.155a.358.358,0,0,0-.189-.267c0-.03-.027-.044-.039-.066a.386.386,0,0,1-.02-.1.35.35,0,0,0-.047-.009.3.3,0,0,1-.039.2c-.011.066.05.119.014.178a.836.836,0,0,0,.021.116.152.152,0,0,1-.025.124c-.036.115-.1.2-.13.315a.168.168,0,0,1,.136-.043.316.316,0,0,1,.255.326c.018.116-.117.154-.161.232,0,.005.017,0,.021.009a.057.057,0,0,0,.063-.042c.021,0,.048.007.069.011.088.012.1.125.184.14.02,0-.013-.128-.023-.151C-145.31,197.789-145.344,197.732-145.361,197.65Zm.438,1.017c-.006,0,.006-.009.012-.009a.157.157,0,0,1-.068-.01c-.122-.02-.2-.255-.211-.336,0-.022.034-.033.026-.053a.156.156,0,0,0-.052-.083c-.176.082-.221.256-.508.222-.062-.007-.113-.054-.153-.031.013.028.047.051.053.078s-.051.069-.077.068a.487.487,0,0,0,.231.083c.157.021.213.169.284.248.108-.047.173-.05.285-.1a.1.1,0,0,1,.055.055c.093.016.2-.034.213.073.007.059-.093.044-.119.066.064.074.118.06.178.115.013,0,.028.007.041.006-.005-.047-.018-.1-.019-.141,0-.022.032-.034.025-.055-.015-.066-.131-.13-.144-.169a.1.1,0,0,1-.007-.048C-144.9,198.652-144.906,198.666-144.923,198.667Zm2.131,2.225c-.052,0-.08.042-.153.027,0,.017.021.066,0,.063a.308.308,0,0,0-.05.043c0,.017.022.048.007.063.019,0,.041.024.055.008.03.12.1.322.188.334.01,0,.015-.009.016-.022v.005c.047.007.074-.068.074-.09s-.072-.11-.072-.111a.423.423,0,0,1-.034-.092c.041-.006.04-.047.039-.075,0,.017.021.041.007.057a.624.624,0,0,1,.075.036.053.053,0,0,0,.052-.06C-142.592,201.044-142.776,200.9-142.792,200.892Zm.268,8.252c-.019.062-.074.093-.081.144,0,.013.023.009.035.012.085-.012.128-.087.211-.1.048,0,.085-.007.133-.012a.444.444,0,0,0,.1-.04c0-.032-.023-.05-.035-.065-.082.005-.167.017-.259.023-.017.058-.053.031-.09.039Zm-4.2.176a.886.886,0,0,0-.315.251c-.068.068-.144.056-.156.17,0,.013.005.045,0,.058.013,0,.039.014.047,0,.1-.021.1-.073.085-.159.111-.052.094-.141.2-.213C-146.8,209.383-146.746,209.37-146.722,209.321Zm4.936,1.211c.027.037.1.1.161.095.025,0,.036-.047.044-.071.011-.164-.082-.148-.157-.167-.019-.007-.01-.046-.019-.062-.047-.061-.272-.056-.342-.009a.333.333,0,0,0,.308.122C-141.759,210.435-141.807,210.515-141.786,210.532Zm-.4-2.386c0,.038.051.058.052.1s-.041.068-.052.118a.487.487,0,0,0,.13.007c0,.015-.008.04,0,.054a.674.674,0,0,1-.069.135c.06,0,.09-.113.082-.152a.41.41,0,0,0,.005-.1c0-.088.048-.119.055-.218.005-.066,0-.119-.044-.152A.245.245,0,0,1-142.188,208.145Zm-3.847,2.354c-.082.088-.07.138-.134.238a.368.368,0,0,1-.171.09c-.019,0-.05.068-.066.091s-.067.013-.092.022c-.05.015-.072.073-.082.1s-.136.037-.155.041c.049.032.1.076.092.12a.318.318,0,0,0,.046,0c.012,0,.135-.095.151-.1.061-.007.141-.01.2-.013.115-.031.28-.137.3-.216,0-.026.068-.052.078-.068.165-.167.294-.4.546-.414.185-.01.159.126.253.177-.033.106.021.14.023.184a2.542,2.542,0,0,1,.269-.022c.181-.022.245-.256.426-.274.025,0,.1.007.1.038.052,0,.1-.006.142-.013s.106-.02.111-.071c.005-.093-.117-.122-.156-.139.1-.121.065-.224.111-.34.036-.1.218-.2.3-.239a1.122,1.122,0,0,1,.357-.106c.1-.012.143-.213.246-.181a.171.171,0,0,1,0-.069c.014.063.034.135.085.13.018-.006.058-.009.064-.028.039-.079.012-.106.042-.171s.1-.05.118-.1c-.088-.044-.264-.023-.311-.107a.219.219,0,0,0,.044,0,.5.5,0,0,0,.18.018c.032,0,.056-.024.088-.03a.165.165,0,0,0,.041-.072c.052-.111.192-.079.2-.183,0-.038-.042-.063-.081-.063-.076.006-.109-.118-.22-.116s-.19.135-.311.175c0,.095-.009.188-.015.28a.109.109,0,0,1-.1.077c0,.025-.1.162-.139.164s-.1-.109-.109-.124a.243.243,0,0,0-.152-.091c-.061-.02-.125-.154-.212-.168,0,.032-.063.039-.083.044-.086.038-.15.137-.185.161-.062,0-.129.009-.187.011a.328.328,0,0,1-.124.072c0-.006.015-.012.017-.018s-.019.013-.022.02l-.015.005v.009a1.043,1.043,0,0,1-.493.195c-.082.012-.128.125-.222.124,0,.068-.068.078-.1.086-.243.1-.238.3-.427.415-.082.042-.228-.038-.239.141,0,.088.141.063.136.12A.933.933,0,0,1-146.035,210.5Zm2.7-.546c-.009.077-.025.157.026.156a.093.093,0,0,0,.042-.065c.007-.074-.05-.085-.053-.123.006-.053.016-.118-.028-.126-.017.065-.032.042-.032.086S-143.363,209.955-143.331,209.953Zm.214-9c.039-.025.039-.036.042-.063,0,0-.127-.107-.13-.111-.1.013-.128-.09-.225-.106-.144-.012-.034.212.025.224a.121.121,0,0,0,.091-.033c.064.068.085.163.17.181C-143.111,201.049-143.113,200.985-143.117,200.958Zm.224,10.021c0,.031-.007.074-.011.1a.285.285,0,0,0,.06-.008.351.351,0,0,0,.187-.094A.629.629,0,0,0-142.893,210.978Zm-3.486-.818a.047.047,0,0,1,.013-.014S-146.378,210.156-146.38,210.16Zm5.423-6.581c.109.006.081-.085.066-.193-.015-.151-.147-.45-.228-.456C-141.254,202.918-141.078,203.559-140.957,203.579Zm-4.673-9.76a.817.817,0,0,0-.284-.155c-.17-.054-.156-.009-.308-.05-.019-.045-.055-.042-.121-.079-.108-.023-.429-.093-.554-.112a.889.889,0,0,0,.134.09c.053.02.1.027.16.044s.089.045.156.06c.042.016.053,0,.1.012s.072.031.122.047a.657.657,0,0,0,.133.053c.053.023.057.023.094.013a.826.826,0,0,0,.137.068C-145.718,193.851-145.6,193.893-145.629,193.819Zm6.268,15.351c-.008.071.025.089.061.071q.14-.588.232-1.193s-.005,0-.006,0c-.026,0-.026.035-.03.064a.24.24,0,0,1,.006.064c-.013.089.008.106-.063.117a.562.562,0,0,1-.09.267c-.022.047-.068.064-.072.14-.011.094-.023.191-.032.285C-139.3,209.037-139.357,209.1-139.362,209.171Zm-5.986-15.254a.034.034,0,0,0-.007-.011.123.123,0,0,0-.031-.02l-.02-.011c-.019,0-.015-.006-.034,0l-.011,0,0,0h0c.012.016.025.017.064.043C-145.353,193.926-145.332,193.928-145.348,193.917Zm6.285,13.942a.076.076,0,0,0,.022,0c.038-.278.069-.557.091-.839a.656.656,0,0,0-.068.273c-.005.064.009.065,0,.12a.6.6,0,0,1-.066.238c-.015.082-.02.125-.038.19.028,0,.008,0,.036,0S-139.079,207.872-139.063,207.859Zm-6.945-13.972a1.009,1.009,0,0,0-.3-.14c-.157-.043-.265-.071-.246,0,.06.018.118.027.179.049.1.007.238.056.339.071Zm-7.437-.673c0-.049-.22-.066-.348-.071-.112,0-.395.015-.394.064a3.21,3.21,0,0,0,.668.031C-153.48,193.237-153.445,193.231-153.445,193.214Zm2.254.184c-.079-.007-.158-.012-.243-.015-.008.012-.047.006-.05.025a.135.135,0,0,0,.076.027A.334.334,0,0,0-151.191,193.4Zm3.957-.038a.1.1,0,0,0,.034,0c-.123-.019-.681-.116-.7-.125-.039,0-.073,0-.058.006.008.035.2.066.3.089C-147.5,193.365-147.2,193.434-147.234,193.36Zm.034,0,.022,0A.04.04,0,0,0-147.2,193.357Zm1.167.45c-.029-.043-.165-.091-.156-.047a.233.233,0,0,0,.1.051C-146.024,193.836-146.027,193.836-146.033,193.808Zm5.594,12.666c.016,0,.022.009.034,0-.068-.2-.232-.28-.3-.42-.015-.031-.018-.063-.033-.087a.131.131,0,0,1-.037.109c.026.022.021.039.055.039.014.062.037.072.092.072A.47.47,0,0,0-140.439,206.473Zm1.046,2.26c.033-.022.023-.034.045-.049.012,0,.027-.078.031-.1.018-.055.058-.036.067-.087a.061.061,0,0,0-.055-.073c-.03.1-.013.219-.1.243,0,.022-.006.047-.01.068C-139.4,208.741-139.408,208.731-139.393,208.733Zm-1.22-.65c.022,0,.024.007.045.011a.338.338,0,0,0,.019.071,1.562,1.562,0,0,1,.038.321c.051.009.085.115.086.154s-.023.072-.031.1a.923.923,0,0,1,.033.235c.075.023.06.106.123.093.042-.009.064-.069.064-.108.074-.039.128-.126.191-.141s.013.058.091.06c.016-.01.015-.043.034-.04s.012-.079.017-.1c.048-.021.026.026.076.02.139-.025.1-.253.158-.4-.007-.009,0-.023,0-.034.006-.035.03-.023.049-.049a.863.863,0,0,0,.074-.3c.007-.119-.03-.058-.12-.053-.122.014-.087-.2-.135-.3-.028-.045-.038-.03-.106-.054s-.052-.077-.086-.142c.015-.034-.025-.084-.025-.084-.034-.028-.009-.031-.039-.048s-.011-.042-.023-.056c-.035-.061-.133-.023-.15-.078-.03-.117-.117-.391-.195-.387s-.076.076-.073.187c-.014.155-.189.072-.2.224,0,.068.1.025.1.084,0,.013-.007.039-.02.038a1.541,1.541,0,0,0,.132.1c0,.021-.018.046-.021.067a.054.054,0,0,1,.03.05c-.008.111-.144.481-.233.495C-140.7,208.13-140.673,208.092-140.613,208.084Zm-.236-3.269a.631.631,0,0,1-.055-.2c-.009-.082.009-.141,0-.215s-.017-.135-.071-.138-.017.118-.079.117c-.041,0-.052-.055-.079-.071a.076.076,0,0,1-.006.034c0,.014-.007.034,0,.047a2.59,2.59,0,0,0-.031.305c.026.151.119.164.133.31a.413.413,0,0,1-.1.307.286.286,0,0,0,0-.035.072.072,0,0,0-.066-.056c-.066,0-.058.155-.1.159s-.028-.05-.055-.05-.023.005-.033.014c.009.036.041.054.043.083.005.011-.027.009-.039,0,.009.058-.018.09-.066.084,0,.015.005.04.006.055s.014.042.027.042.024-.037.023-.056c.03-.079.154-.149.18-.207.036.047.015.082.008.131.073-.005.073-.152.142-.149.042,0,.05.032.09.042s.071-.066.069-.1a.149.149,0,0,0-.04-.075.308.308,0,0,1-.007-.068c.013,0,.018,0,.031,0,.014.02.022.05.042.049a.2.2,0,0,0,.1-.12C-140.8,204.941-140.783,204.8-140.849,204.814Zm.123,5.377c.051-.009.1-.041.1-.067.01-.078-.012-.071-.067-.055a.169.169,0,0,0-.09.044.119.119,0,0,0,0-.055.965.965,0,0,1-.111.02c-.005.059,0,.094-.013.106.02,0,.023-.006.042-.008s.026-.022.041-.036C-140.785,210.161-140.788,210.208-140.726,210.191Zm.252-.2c0,.029.025.072.037.066.043-.006.017-.061.094-.067.02,0,0,.049-.009.068a1.083,1.083,0,0,1,.426-.2c.051-.012.041-.091.1-.111a.358.358,0,0,0,.194-.1c.059-.042.093.008.133-.07s.031-.135.12-.173c0-.02-.02-.124-.058-.117-.019.005-.009.038-.028.034-.033.019-.007-.034-.045-.026-.094.031-.175.248-.283.278-.058.011-.019-.084-.1-.076s-.113.152-.186.161c-.041,0-.05,0-.115,0-.017-.005-.016.011-.033.007.005.032.128.023.142.016a.251.251,0,0,1-.179.126c-.037.011-.028.056-.04.069-.031.054-.055-.005-.1.034A.943.943,0,0,0-140.474,209.99Zm-.128.074c0,.039,0,.065.035.061a.111.111,0,0,0,.041-.055.318.318,0,0,1,.009-.07c-.019,0-.02.005-.039.007S-140.578,210.046-140.6,210.063Zm1.093-5.655c0-.034.022-.081-.006-.09-.047-.007-.112-.168-.189-.175-.028-.008-.038.052-.034.085,0,.091.08.27.165.292C-139.482,204.523-139.5,204.491-139.508,204.408Zm.017,4.307c0-.011,0-.023,0-.034-.018.012-.029-.015-.033.007-.02,0-.031.02-.034.04,0,.039-.009.083.028.074S-139.5,208.747-139.491,208.715Zm-1.827,1.549c.064-.007.116-.025.179-.031.044-.007.109-.011.115-.09,0-.06-.037-.044-.082-.035-.1.018-.13.074-.2.084s-.084-.018-.14-.049C-141.426,210.234-141.384,210.242-141.319,210.264Zm-12.579,2.413c0,.021,0,.058,0,.079.117.024.138.109.237.115a.125.125,0,0,0,.055-.079C-153.612,212.687-153.856,212.674-153.9,212.678Zm.47,4.37c-.02,0-.044.022-.063.031.114.074.078.174.159.253.01-.007.021-.018.032-.025a.037.037,0,0,0,.023.015c.079.013.157.021.158.064-.006.015-.032.034-.032.05,0,.038.092.086.109.1.077.07.127.173.288.165.072,0,.12-.02.118-.063s-.087-.074-.091-.139c.007-.106.286-.063.3-.152,0-.053-.074-.055-.109-.078a.2.2,0,0,1-.091-.2.254.254,0,0,1,.034-.1v0c.026-.041.093-.057.09-.1,0-.016-.012-.039-.023-.052a.484.484,0,0,0,.353-.332c-.1.1-.223.1-.31.156-.049.031-.06.069-.1.087.012.013.031.02.031.036a.507.507,0,0,1-.14.17h-.047c0-.033-.039-.052-.071-.051h-.049c0,.144-.108.21-.3.213C-153.309,217.1-153.3,217.049-153.428,217.048Zm-.13-3.934c.058.055.075.035.132.036.077,0,.2-.024.2-.052,0-.112-.132-.134-.216-.165a.182.182,0,0,1-.113.077C-153.558,213.039-153.556,213.086-153.558,213.114Zm-.769-19.425a10.226,10.226,0,0,0-1.564.393,1.31,1.31,0,0,1,.434.055c.082.039.1.144.248.141.344-.026.731-.281,1.2-.3.153,0,.074.071.11.1.1.07.52.046.523.183-.016.049-.812.192.325.211a12.683,12.683,0,0,1,1.5.4,3.4,3.4,0,0,1,.469-.023c.1.015.225.07.331.085.127.015.215-.044.354,0a1.489,1.489,0,0,1,.606.406c.087.094-.169-.007-.164.046a.318.318,0,0,0,.073.224c.091.1.272.2.283.273.016.095.378.15.356.268.35.083.484.325.664.48.221-.1.251-.6.23-.759-.029-.187-.307-.315-.525-.385a2.348,2.348,0,0,1-.607-.4,2.882,2.882,0,0,0-.584-.187c-.25-.1-.181-.173-.2-.23s-.162-.1-.085-.113a.747.747,0,0,1,.225.039c.769.519.878.247.747.187a2.2,2.2,0,0,1,.433.046.825.825,0,0,1,.74.495c.131.02.256.027.387.051.179.025.287-.02.575.019.225.033.95.162,1.211.238a6.128,6.128,0,0,1,1.056.6c.145.1.466.361.49.461,0,.023-.125.219-.536-.022-.15-.072-.285.192-.266.325a.915.915,0,0,0,.165.283c.136.154.074.195.152.341a1.62,1.62,0,0,0,.354.422c.292.254.737.917,1.086.992.2.036.182-.1.182-.1a2.979,2.979,0,0,1,.537.544c.035.042.145.124.187.162a.445.445,0,0,0,.18.112c.022.09-.007.116-.064.161a.625.625,0,0,0-.122.55.352.352,0,0,0,.152.281c.039.021.18.058.187.113a.265.265,0,0,1,.12.081c.031.009.051.007.082.015,0-.031-.039-.063-.044-.095.031-.008.02-.039.018-.063-.01-.05-.073-.147-.072-.165-.006-.038.02-.074.011-.11.039,0,.036-.023.048-.036a.307.307,0,0,1-.011-.067.147.147,0,0,1-.1-.1c-.006-.083.052-.181.114-.169.042.01.06.043.079.042.044.009.041-.052.038-.076-.013-.065-.072-.072-.076-.121-.012-.065.009-.06-.02-.111.077.015.093-.031.157-.017.167.047.275.224.415.262-.018-.09-.112-.15-.133-.228a.063.063,0,0,1,.076-.069.22.22,0,0,1,.091.085,2.262,2.262,0,0,0,.241.24c.078.066.195.076.221.174,0,.052-.052.044-.079.057-.042.034.027.152-.051.2-.031.026-.075.007-.122-.019-.039-.009-.052-.216-.1-.226s-.042.085-.082.118c-.06.041-.143-.049-.178.015.13.155.258.05.334.237.04.084.151.146.174.222a.116.116,0,0,1-.1.134c0,.042.01.086.015.125h-.009l.005.007c-.04.023-.021.1-.038.135a.669.669,0,0,0-.076.469c.028.208.107.281.127.434a1.54,1.54,0,0,1,.281.419c.053.144.114.391.231.417a.233.233,0,0,0,.082.136c.144.133.232.324.428.359.047,0-.018.039.047.039a1.11,1.11,0,0,1,.061.136c.063.085.154.037.238.114a1.071,1.071,0,0,1,.141.113c.028.058-.031.152.039.158s.09-.242.086-.275c.058-.053.055.028.117-.02.087.23.219.3.258.595a.24.24,0,0,1-.02.1,1.863,1.863,0,0,1-.157.431,1.234,1.234,0,0,0-.122.6c0,.166.043.221.046.358.113.06.123.135.2.228.039.044-.009.152.068.153,0,0,.007,0,.009-.007v.02c.007.074.044.171.069.173s.024-.1.025-.138a.187.187,0,0,0-.011-.1c.02-.02.02-.07.02-.1.045,0,.1-.033.1-.137.059,0,.032-.1.059-.183a.259.259,0,0,1,.03-.059,14.334,14.334,0,0,0-5.369-11.061.254.254,0,0,1-.2-.023.409.409,0,0,1-.182-.155c-.174-.056-.27-.069-.422-.116-.281-.1-.265-.1-.709-.246a1.311,1.311,0,0,0-.742-.357,4.088,4.088,0,0,0-.915-.168c-.176-.016-.154.028-.277.06-.134.012-.917-.115-1.169-.154-.46-.071-.6-.05-.663.082-.543-.061-1.06-.1-1.621-.13-.056,0-.7.162-.592.014.026-.037-.13-.056-.367-.069A8.156,8.156,0,0,0-154.327,193.689Zm3.2,24.789c-.039.007-.1,0-.134.009a.157.157,0,0,0,.128.063C-151.133,218.5-151.14,218.516-151.125,218.478Zm2.031-7.487c.089,0,.238-.219.248-.27A.546.546,0,0,0-149.093,210.992Zm-.226.315c-.005.012,0,.036,0,.048.087,0,.14-.135.139-.174C-149.253,211.222-149.326,211.257-149.319,211.307Zm-3.209,6.406c.02.056.17.237.3.227.022.07-.02.076-.006.141.033,0,.231.02.282.014.028.052.219.3.219.3a.725.725,0,0,0,.278.089c.027,0,.128-.031.167-.031a1.518,1.518,0,0,0,.345-.1c.012,0,.041-.009.039-.02,0-.114-.211-.156-.28-.221a.152.152,0,0,0-.117-.052c-.189.01-.3-.1-.418-.13a.763.763,0,0,1-.141-.106s.007-.034-.005-.046a.19.19,0,0,0-.137-.047c0-.011-.005-.017-.007-.028,0-.072-.111-.13-.181-.152a.054.054,0,0,1-.057.049c0,.039,0,.065-.041.068-.057.005-.1-.034-.132-.039-.009.015-.036.018-.055.02A.066.066,0,0,1-152.528,217.713Zm3.437-6.551a.137.137,0,0,0,.041.015c.1,0,.229-.041.235-.138A.338.338,0,0,0-149.091,211.162Zm-9.116-8.3c0,.023-.011.068-.016.09.026,0,.076,0,.1,0a.2.2,0,0,0,.12-.082.294.294,0,0,1-.087-.055A.229.229,0,0,1-158.207,202.865Zm-5.025-5.965c.007-.033.026-.052.025-.082.086-.044.052-.052.12-.036.024-.1,0-.09-.118-.039-.021.106-.159.16-.192.252-.005.034,0,.039.031.029C-163.315,197.006-163.237,196.9-163.232,196.9Zm.38-.4c0,.057-.1.1-.034.151a.426.426,0,0,0,.137-.189.328.328,0,0,0,.188-.165c.009-.036-.03-.018-.055-.02-.1.034-.063.042-.129.039-.034.1-.007.084-.051.168C-162.8,196.494-162.839,196.5-162.853,196.5Zm-.732.973c.043-.011.081-.07.1-.1a.1.1,0,0,0-.009-.041c.042-.019.063-.079.1-.08a.691.691,0,0,0,.086-.1c0-.013.011-.021.009-.034-.051.019-.08.042-.133.067,0,0,.055.028.018.041s-.044-.009-.055-.034a.578.578,0,0,0-.025.093c-.009.022-.032.037-.041.059s.019.016.015.034S-163.646,197.488-163.584,197.47Zm-3.785,6.24c-.013,0,.058-.117.063-.141.055-.016.1-.168.144-.216a.522.522,0,0,1,.039-.063c0-.052.015-.109.017-.16.044-.08.086-.153.122-.221.058-.1.125-.092.184-.2-.031.011-.107.05-.066-.036a1.812,1.812,0,0,1,.224-.377,1.693,1.693,0,0,0,.108-.31,2.905,2.905,0,0,0,.141-.315.087.087,0,0,0,.007-.042s-.007,0-.008,0a1.609,1.609,0,0,1,.49-.513c.039-.03.039-.1.058-.144.1-.234.181-.176.208-.42.1-.049.24-.339.366-.542.029-.059.009-.068-.024-.1.083-.146.072-.227.159-.383a7.957,7.957,0,0,0,.14-.807c.024-.095.143-.157.171-.248,0-.017-.019-.021-.038-.016l.008,0a1.954,1.954,0,0,0,.394-.282c0-.036-.017-.013-.036-.027a.616.616,0,0,0,.282-.18c-.034,0-.037-.007-.04-.023a.52.52,0,0,0,.08-.042c.009,0,.013-.012.02-.007-.026-.009-.037-.017-.064,0a.518.518,0,0,0-.15.1,2.049,2.049,0,0,0-.517.429.081.081,0,0,1-.01.039.061.061,0,0,0,.023-.009.037.037,0,0,0-.013.01.334.334,0,0,0-.149.114.061.061,0,0,1-.033-.081c.011-.042.063-.064.082-.11a.22.22,0,0,0,.056-.042c.055-.058.17-.11.2-.148.069-.118.209-.121.262-.207a.446.446,0,0,0,.264-.263c.009-.01.155-.117.155-.117.068-.056.031-.079.084-.13a.418.418,0,0,1,.121-.067,1.249,1.249,0,0,0,.205-.353c0-.025.042-.041.047-.061a.127.127,0,0,0,.051-.014c.09-.033.251-.134.255-.181.015-.015.012-.034.017-.054.02-.058.082-.075.179-.106.079-.025.108-.06.115-.084s-.077-.005-.063-.036.015-.028.015-.047c.1-.027.061.017.133,0a.432.432,0,0,0,.1-.079c.012-.048-.023-.031-.032-.058.028-.028.079-.083.107-.055a.57.57,0,0,0,.185-.1c.008.039.022.065.067.039a.962.962,0,0,0,.313-.211c.174-.106.374-.153.576-.264.111-.03.23-.058.342-.082a1.788,1.788,0,0,0,.6-.32c.069,0,.192-.006.256,0a.6.6,0,0,1-.078.063,1.443,1.443,0,0,0,.63.08.233.233,0,0,0,.075-.038c0-.025-.038-.027-.05-.02.039-.031.013-.024.016-.045.017-.079-.067-.127-.262-.121.007-.013,0-.02,0-.034a.226.226,0,0,0,.081-.015c.166-.023.591.113.579.232,0,.02-.007.034-.009.053-.013.084.136.085.3.1a.3.3,0,0,1,.167.066c.1.05.34.068.453.109a1.911,1.911,0,0,0,.588.05c.273,0,.39.258.73.184-.09-.07-.235-.027-.365-.056-.088-.028-.14-.191-.219-.211-.13-.022-.277.028-.358-.02a3.4,3.4,0,0,0-.566-.137c-.162-.029-.147-.144-.306-.172.031-.009.076-.009.108-.015a.915.915,0,0,0,.262.011,1.31,1.31,0,0,0,.2-.053c.022.03.036.031.041.059a1.477,1.477,0,0,0,.371-.143c.017.022.005.038,0,.054a.289.289,0,0,0,.09-.01c.039,0,.082.02.109.018s.078-.068.087-.1a.633.633,0,0,0,.009-.072.068.068,0,0,1,.067-.06c.066,0,.117.045.142.046a2.782,2.782,0,0,0,.528-.211c-.033,0-.08,0-.113,0,.079-.079.314-.115.321-.178.009-.1-.211-.228-.367-.22a2.853,2.853,0,0,1-.721.013.612.612,0,0,1,.1-.13c-.072-.015-.028.028-.073.046,0-.02.007-.029.008-.049.07-.006.035-.043.074-.048.119-.016.148.042.305.018a2.334,2.334,0,0,1,.313-.055c.154-.016.4-.056.455-.063.015-.051.107-.063.108-.1,0-.015,0-.034-.018-.03a.467.467,0,0,0,.23-.07c-.183-.033-.539-.012-.707-.051-.039.006-.093.011-.132.014-.016.1-.118.087-.281.1a1.149,1.149,0,0,1-.2.025c.093-.109.242-.13.459-.2.063-.021.211-.109.291-.133s.375-.086.4-.1c0,0-.087-.065-.1-.072-.132.015-.262.021-.4.042a2.358,2.358,0,0,0-.9-.126c-.095,0-.156.037-.253.034s-.157-.057-.272-.032a1.58,1.58,0,0,0-.219.079c.025.012.031.009.05.027a.2.2,0,0,1-.157-.007c-.08.028-.1.031-.161.057-.115.023-.219.044-.328.065-.088.042-.115.05-.213.1-.166.033-.323.074-.49.11a4.148,4.148,0,0,1-.718.247c-.107.028-.162.023-.271.058a1.517,1.517,0,0,0-.307.112v0a.516.516,0,0,1-.068.022c-.011.006-.085.055-.095.061-.268.138-.619.3-.758.352-.047.018.22-.13-.117-.015-.05.02.023-.081-.149.044a.358.358,0,0,1-.1.039,14.343,14.343,0,0,0-4.853,8.321l0-.006c.03-.052.014-.106.039-.178.041-.114.138-.149.157-.3.024-.014.03-.022.031-.024a.024.024,0,0,0,0,.015c.056-.09.091-.17.141-.243s.045-.168.081-.226.048-.182.084-.227c.074-.062.121-.072.183-.169a.137.137,0,0,1-.005.077,1.531,1.531,0,0,1-.112.329c-.036.1-.089.116-.128.182a.9.9,0,0,0-.106.27c-.045.149-.1.232-.154.364a1.1,1.1,0,0,1-.144.4c-.019-.042-.07.07-.071.118C-167.386,203.653-167.386,203.721-167.37,203.71Zm8.414-.485c-.083,0-.168,0-.257.007a.319.319,0,0,0,.184.085C-158.995,203.314-158.96,203.25-158.955,203.225Zm.148-.141a.2.2,0,0,0,0,.068c0,.017.048.039.071.043a.337.337,0,0,0,.133-.082.69.69,0,0,0-.1-.009h.029A.479.479,0,0,0-158.807,203.084Zm-.624-7.236c.069-.041.116-.053.16-.079a.176.176,0,0,1,.009-.052,2.014,2.014,0,0,0-.33-.015.209.209,0,0,1-.084.013.211.211,0,0,0-.009.052A.882.882,0,0,1-159.432,195.848Zm-.5,8c0,.02,0,.058,0,.079a1.311,1.311,0,0,0,.251.05.121.121,0,0,0,.086-.081,1.42,1.42,0,0,1,0-.158A.489.489,0,0,0-159.933,203.849Zm.619-.5a.365.365,0,0,0-.187.095c.015.007.042.015.056.021C-159.373,203.459-159.35,203.373-159.315,203.347Zm10.652,7.335a.365.365,0,0,1,.065.014c.066,0,.252-.07.259-.165,0,0-.013,0-.015,0a.17.17,0,0,1-.015-.024C-148.445,210.554-148.612,210.605-148.663,210.683Zm7.249-4.686h-.051c.016.126.088.151.1.262.01,0,.017,0,.028,0A1.015,1.015,0,0,1-141.414,206Zm.336,4.309c-.014.1-.082.089-.093.176,0,.02.013.044.032.043a.039.039,0,0,1,.02,0c.03-.012.034-.079.041-.1.052-.012.129-.03.133-.1.01-.052-.04-.034-.085-.025A.109.109,0,0,1-141.078,210.306Zm.242-1.711c0-.027-.042-.067-.034-.1.007-.18-.038-.416-.159-.4-.117.037-.234.082-.359.117a.164.164,0,0,1-.042,0,1.276,1.276,0,0,0-.161-.162c-.012,0-.02,0-.032,0,0,.02.005.056.023.059.015.114.035.24.146.23.067,0,.114-.063.184-.067s.1.023.189.014.16-.042.154.1c-.008.111-.049.257-.119.26-.038,0-.025-.036-.05-.068.006.007,0,.02.008.028a.9.9,0,0,0-.294-.1.2.2,0,0,1,0,.059c.119.042.111.2.254.189a1.765,1.765,0,0,1-.148.322c.007.013.02.03.017.042a.305.305,0,0,1-.082.141c0,.085.1.054.1.139a.477.477,0,0,1,.064-.008.318.318,0,0,1,.006-.066c.013-.1.095-.142.1-.235,0-.052-.009-.106-.007-.151.016.012.02-.009.039-.005.041,0,.067.034.066.079-.009.1-.059.151-.063.245,0,.033-.025.281.044.278a.128.128,0,0,0,.085-.1c.01-.114.023-.226.031-.345.037-.013.09-.013.1-.106A1.192,1.192,0,0,0-140.836,208.6Zm-.613-2.423c-.03.018-.054.026-.075,0,.007.079.042.136.1.137.014,0,.031-.023.031-.036C-141.394,206.239-141.43,206.21-141.449,206.172Zm.395-.64c-.009.055.024.137.051.136s.127-.259.127-.259c-.021-.008-.03,0-.052,0C-140.99,205.463-141.047,205.442-141.054,205.532Zm-.079-.083c.015.005.042.012.054,0C-141.091,205.44-141.124,205.434-141.132,205.449Zm-.174.539a.063.063,0,0,0-.078.078c.009.085.072.133.081.22.006.059-.026.055-.02.09a.053.053,0,0,0,.036.034.305.305,0,0,0,.107-.183c0-.017-.033-.039-.052-.039C-141.239,206.17-141.275,206-141.306,205.988Zm-.071-.269c.032-.012.045,0,.079,0,0-.03-.009-.074-.01-.1h-.05c-.018.059-.085.087-.074.173C-141.431,205.819-141.368,205.747-141.377,205.719Zm.09.172c.017.117.138.178.2.217-.006-.119,0-.257-.006-.309,0-.012-.023-.034-.036-.034s-.013.015-.022.022C-141.2,205.815-141.288,205.847-141.288,205.891Zm-5.906,10.615V216.5S-147.2,216.506-147.194,216.506Zm-.812-6.192h0l.009,0Zm.042-.026a.1.1,0,0,1-.033.023A.087.087,0,0,0-147.965,210.288Zm-.2.122a.406.406,0,0,1,.073,0,.934.934,0,0,0,.125-.087.4.4,0,0,0-.041-.006C-148.076,210.352-148.132,210.362-148.164,210.411Zm.369-.137c0,.019.034.065.053.063s.048-.039.051-.058a.246.246,0,0,1,0-.066.148.148,0,0,0,.12-.185A1.812,1.812,0,0,0-147.795,210.274Zm2.98,5.609a.226.226,0,0,0,.213-.051C-144.707,215.811-144.718,215.824-144.815,215.883Zm-2.123,1.167c.069-.026.079-.052.087-.1a.3.3,0,0,1-.088.015C-146.948,217.017-146.933,217.019-146.938,217.049Zm-.669-1.69c-.008.059-.01.118-.022.173.035.048,0,.071.036.117.111.154.232.186.276.375a1.048,1.048,0,0,1,.122.474h0c.049.24.606.031.619.279a2.638,2.638,0,0,0,.369-.219c.153-.015.071.1.236.064.256-.056.681-.27.742-.493.021-.083.113-.162.14-.235a.041.041,0,0,1,.012-.028.249.249,0,0,0,.116.011.545.545,0,0,1,.074-.017.153.153,0,0,1-.015-.111.291.291,0,0,1,.088-.125.259.259,0,0,0,0,.053c.051.016.034.1.125.085.028-.016.068-.039.074-.069-.138.008-.112-.282-.085-.36.086.077.176.331.3.3.074-.016.073-.109.073-.109.044-.02.231-.313.3-.386a1.81,1.81,0,0,1,.659-.327c.2-.05.218.023.318.026.254.01.575-.191.536.063a2.743,2.743,0,0,0,.269-.071c.087-.067.058-.012.125-.05a.194.194,0,0,1,.138-.005,14.491,14.491,0,0,0,.954-1.366l.018-.041a.968.968,0,0,1,.055-.08.429.429,0,0,0,.066-.113.12.12,0,0,0,.009-.03c0-.028,0-.025,0-.06-.016.028-.042.063-.055.086-.009-.03.006-.045.02-.071.022-.089.085-.169.125-.307.03-.112.051-.219.084-.328.008-.045,0-.039-.025-.052a.186.186,0,0,1-.018.059c-.071.012-.106-.063-.16-.144-.039-.052-.176-.013-.264-.008-.149.01-.513-.049-.471-.268,0-.034.012-.074.018-.108.005-.068.026-.112-.038-.144-.033.067-.074.1-.1.145-.05-.032-.009-.137-.022-.2-.045.035-.065.069-.117.075.03-.182-.076-.187-.061-.335-.145.029-.154-.1-.27-.08s-.181.157-.2.283a.1.1,0,0,0-.115-.052c-.031.007-.081.061-.093.068-.029-.058,0-.111,0-.165.011-.1-.071-.127-.057-.224s-.22-.124-.324-.109a.23.23,0,0,1-.106-.034c.048-.066.11-.092.128-.176a1.38,1.38,0,0,1-.586.268c-.087.009-.1-.044-.176-.035a.277.277,0,0,0-.144.143c-.006.095.085.087.136.123a3.325,3.325,0,0,0,.039.339c0,.056-.1.058-.137.086s-.058.136-.082.147c-.184.094-.286.144-.463.23-.1.055-.154.2-.279.219-.219.014-.207-.37-.229-.54.023-.216.04-.428.06-.646-.1-.081-.063-.176-.179-.23a3.28,3.28,0,0,1-.2.482c-.037.1-.013.227-.1.3-.077.03-.222.085-.246.1-.1.068-.119.287-.16.412-.087.2-.146.3-.227.476s-.39.273-.538.4a.845.845,0,0,0-.165.324c-.044.091-.154.1-.256.114-.031.281-.324.415-.484.554a.037.037,0,0,0,.006.02,1.714,1.714,0,0,0-.271.706C-147.683,215.126-147.666,215.317-147.607,215.36Zm.591,1.9c-.022.117.091.333.224.305a1.175,1.175,0,0,0,.528-.544c.018-.077-.356.072-.361.071a1.317,1.317,0,0,1-.283,0C-146.942,217.159-147,217.194-147.016,217.258Zm5.255-10.98a2.278,2.278,0,0,0-.106.539c.009.082.079.11.09.235.021-.007.049-.114.06-.157,0,0,0,.006,0,.007,0-.019.023-.039.031-.058.024.043.062.06.06.095,0,.053-.062.071-.06.15,0,.057.023.089.071.093.02-.006.024-.039.025-.057.021.013.038,0,.058,0,.079-.009.134-.124.133-.25,0-.049-.012-.071-.034-.081a.71.71,0,0,1,.017-.071.362.362,0,0,1,.079,0c0,.017.005.044,0,.062.041,0,.044-.023.053-.036a.121.121,0,0,0,.019.033c.02-.005.051-.064.051-.064.06.068.049.292.123.289.055-.005,0-.135-.009-.157s.015-.052.017-.069a.923.923,0,0,0-.045-.176c-.113.006-.092-.14-.2-.144-.073,0-.046.114-.093.114-.014,0-.02,0-.034,0,0-.048-.018-.079-.058-.088-.012-.1-.106-.074-.132-.108a.936.936,0,0,1-.031-.167C-141.72,206.212-141.742,206.249-141.761,206.277Z" transform="translate(167.384 -193.143)"/></g></g><path class="h" d="M-139,205.29a14.36,14.36,0,0,1-14.36,14.361,14.36,14.36,0,0,1-14.36-14.361,14.36,14.36,0,0,1,14.36-14.361A14.361,14.361,0,0,1-139,205.29Z" transform="translate(167.741 -190.906)"/><g transform="translate(0.1 0.697)"><path class="a" d="M-139.718,192.755l.034.016C-139.7,192.762-139.7,192.756-139.718,192.755Z" transform="translate(160.043 -192.099)"/><path class="a" d="M-139.64,192.791l0,0,.012,0Z" transform="translate(160.022 -192.108)"/><path class="a" d="M-140.44,219.077c-.028.05-.027.187-.063.232a4.839,4.839,0,0,1-.584.544c-.243.141-.517.141-.548.5-.009.122.1.291.093.371,0,.013-.182.334-.182.334a.823.823,0,0,0-.169.153c-.007.1-.014.216.073.274,0,.044-.024.082-.03.173a.318.318,0,0,0,.329.342c.469-.052.58-.494.748-.826a3.41,3.41,0,0,0,.46-1.325,1.1,1.1,0,0,1,.127.026c0-.032.009-.079.009-.111C-140.236,219.576-140.177,219.094-140.44,219.077Z" transform="translate(160.634 -199.242)"/><path class="a" d="M-131.458,212.342c0,.114.052.22.13.22.107-.012.177-.194.187-.344.014-.26-.147-.348-.22-.544C-131.366,211.92-131.449,212.1-131.458,212.342Z" transform="translate(157.802 -197.233)"/><path class="a" d="M-128.709,213.047c-.026,0-.022.008-.025-.028-.017-.1-.026-.195-.08-.232-.069.015-.024,0-.093.015-.027-.052.009-.06-.055-.052-.013,0-.017-.011-.018,0s0,.037,0,.054c.012.066.012.235.061.256s.055-.011.06.048a1.4,1.4,0,0,0,.025.19c.008.087.065.047.076.192a.724.724,0,0,0,.011.216c.013.019.036.007.035.021s-.01.055,0,.055c.031-.175.059-.35.085-.526a.5.5,0,0,0-.015-.054C-128.667,213.143-128.673,213.071-128.709,213.047Z" transform="translate(157.13 -197.523)"/><path class="a" d="M-128.726,214.372c-.014.01,0,.007-.02.007a.061.061,0,0,0,0,.025c-.008.044-.007.131.025.138a.346.346,0,0,0-.006-.139C-128.727,214.393-128.727,214.383-128.726,214.372Z" transform="translate(157.067 -197.965)"/><path class="a" d="M-128.8,213.87c0,.012-.005.009-.015.017h0c-.006.039.007.125.033.13C-128.737,213.986-128.778,213.912-128.8,213.87Z" transform="translate(157.084 -197.829)"/><path class="a" d="M-140.125,194.04l.2.039c.11.036.062.063.121.1.012.017.117.023.163.034.02,0,.039.019.05.026.168.037.331.071.5.112-.007,0-.013-.011-.02-.015-.156-.082-.367-.15-.4-.233-.036-.154.339-.189.635-.133.106.017.114-.02.261.025.065.017.068-.008.109-.008.176.032.319.085.5.122.039.009.1.029.175.05-.077-.052-.154-.1-.232-.154a3.679,3.679,0,0,1-.451-.1c-.066-.018-.114-.058-.183-.077-.11-.033-.1-.007-.176-.031a4.658,4.658,0,0,0-.5-.05c-.1-.023-.146-.025-.243-.047-.041-.021-.067,0-.055.006s.049.024.056.049c.02.056-.294.015-.289.055.015.021.086.039.111.07-.1-.01-.3-.043-.294,0,0,.016.01.018.009.034.015.057-.185,0-.174.054C-140.238,194.005-140.125,194.04-140.125,194.04Z" transform="translate(160.19 -192.354)"/><path class="a" d="M-138.711,194.566c-.014-.009-.034-.017-.047-.026C-138.744,194.549-138.725,194.557-138.711,194.566Z" transform="translate(159.783 -192.583)"/><path class="a" d="M-138.693,194.576l0,0h0Z" transform="translate(159.765 -192.593)"/><path class="a" d="M-128.618,212.032c-.007.015.013.026,0,0Z" transform="translate(157.031 -197.33)"/><path class="a" d="M-134.974,195.966c.036.018.1.035.172.061-.083-.076-.166-.151-.251-.224,0,.013-.013.022-.04.027C-135.1,195.841-135.037,195.932-134.974,195.966Z" transform="translate(158.788 -192.925)"/><path class="a" d="M-141.9,195.465a.515.515,0,0,0-.157-.065c.042.079.137.2.04.167,0,0-.024.021-.064.036a.371.371,0,0,1-.217-.006c-.06,0-.032-.1-.042-.109-.034-.006.144-.024.13-.05s.032-.035.014-.062a1.036,1.036,0,0,1-.152-.122c-.043-.079-.042-.136-.081-.2a.758.758,0,0,0-.136-.141.019.019,0,0,1,.01-.025q-.129-.1-.259-.207h0l-.1-.079c-.02,0-.025,0-.017.019s0,.012,0,.016a.488.488,0,0,0-.1-.025c-.074-.009-.07.07-.133.071s-.129-.023-.167,0c-.058.024.093.07.109.1.044.071-.044.06.022.1a2.513,2.513,0,0,1,.249.13c.144.131.138.162.023.118-.074-.024-.193-.108-.3-.163-.2-.1-.41-.192-.531-.248-.857-.329-.44-.034-.463-.023-.377,0-.207-.109-.321-.146a4.062,4.062,0,0,1-.951-.111c-.019-.025.165-.037.13-.05a2.676,2.676,0,0,0-.793,0c-.127.013-.236-.031-.351-.02-.175.028-.028.157-.386.085-.088-.018-.3-.1-.273-.145s.343.053.34.014c-.03-.106-.486-.3-.621-.187-.043.035.146.054.016.176-.031.019.138.068.147.127s-.243.025-.313.007c-.034-.013.006-.076-.07-.076-.168,0-.449.1-.544.1-.1.021.1.122.055.157a3.224,3.224,0,0,1-.823-.152,1.433,1.433,0,0,0,.115.141c.1.024.179.048.278.075-.179-.009-.278.039-.42-.02a.888.888,0,0,1-.23-.079c-.049-.028,0-.071-.034-.12a1.716,1.716,0,0,0-.27-.206,6.546,6.546,0,0,1,.842.085c.436.071,1.273-.087-.059-.372a8.529,8.529,0,0,0-.921-.178,2.091,2.091,0,0,0-.405-.061c-.022,0-.2-.012-.289-.021,0-.02-.06-.017-.15-.044.2-.02.272.008.345-.049-.069-.017-.269-.048-.305-.052a.156.156,0,0,0-.129.034c-.1-.008-.077-.019-.09-.06a2.216,2.216,0,0,0-.329.064c-.012-.018-.009-.032-.045-.047a2.356,2.356,0,0,1-.375.073c.041-.037.18-.034.183-.081s-.331.027-.463.029a.672.672,0,0,1-.184-.037,1.149,1.149,0,0,0-.184.04c0,.023.06.025.13.029a1.283,1.283,0,0,0-.422.079c0-.019,0-.025,0-.044-.185,0-.214.067-.326.078,0-.013,0-.017,0-.031a2.915,2.915,0,0,0-.377.045.194.194,0,0,0,.068.018,2.157,2.157,0,0,1-.287.025.415.415,0,0,0-.181.057.694.694,0,0,1,.123,0c-.014,0-.111.047-.144.053-.1.007-.032,0-.158,0,.03-.015-.015,0-.055-.01-.022.014-.052.028-.073.043a.121.121,0,0,0-.06-.005.139.139,0,0,0-.119.055s-.051.036-.018.029a.823.823,0,0,0-.152.061,5.56,5.56,0,0,0,.619-.068,1.084,1.084,0,0,1-.434.219.939.939,0,0,0-.377.157s-.084.079-.084.079c-.053.006-.057.1-.152.14a3.561,3.561,0,0,1-.737.254c.064,0,.1.007.182.007-.274.018-.288.1-.432.123a.82.82,0,0,0-.359.153c-.045.027-.127.067-.133.119a.323.323,0,0,0,.165.3c-.035.023-.128.079-.135.1.058-.009.136-.023.2-.037a.19.19,0,0,1-.007.053c-.026.011-.133.037-.138.067a1.321,1.321,0,0,0,.34.07,1.858,1.858,0,0,0,.823-.291.567.567,0,0,0,.152.077c-.015.013-.044.036-.043.054-.009.064.11.071.15.126.05.077.031.13.164.188,0,.013-.014.026-.018.039s.058.208.127.211c.208-.019.246-.192.388-.2.052,0,.187,0,.3,0,.033-.075.219-.093.255-.191-.039-.009-.122-.019-.12-.059,0-.079-.02-.221.148-.232.082-.005.328-.1.332-.157s-.028-.162-.179-.168c0-.026-.025-.054-.061-.061a1.13,1.13,0,0,0-.124-.095c.128-.032.05-.093.111-.143a1.223,1.223,0,0,1,.343-.128c.171-.039.546-.16.554-.238.022-.022,0-.031,0-.077,0-.1.2-.171.467-.171.2,0,.456.012.462.1,0,.064-.341.181-.456.21-.206.064-.152.162-.493.166.014.026-.026.147-.03.173a.1.1,0,0,0,.1.1c-.022.017-.112.042-.115.08,0,.077.176.119.348.119,0,.042.034.044.142.047a3.708,3.708,0,0,0,.4,0,.58.58,0,0,0,.4-.1c.068.04.415.046.482.108-.1.03-.185.127-.3.127-.143,0-.429-.063-.612-.066s-.685.178-.563.238c.146.06.259-.056.406.06.107.088-.051.176-.116.179-.165,0-.187-.085-.331-.092-.146.009-.289.248-.3.344,0,.148-.293.107-.318.242a2.923,2.923,0,0,1-.3.016.4.4,0,0,0,.035-.044,2.442,2.442,0,0,0-.283-.008,2.632,2.632,0,0,0-.311.085c-.122.036-.206,0-.347.039a.328.328,0,0,1-.144.045,1.181,1.181,0,0,1-.137-.054c0-.012.042-.03.052-.05-.193,0-.346.1-.571.117a1.754,1.754,0,0,1-.223-.185c-.06.006.063.119-.025.132,0-.015,0-.031,0-.047-.04,0-.085-.029-.083-.07.006-.085.108-.113.189-.168.022-.007.1-.028.1-.047a.087.087,0,0,1,0-.034c-.052.008-.152.006-.15-.036a.164.164,0,0,1,.057-.11.126.126,0,0,0,0-.05c-.2.087-.51.119-.534.3-.007.1.116.126.14.236a.469.469,0,0,1,.048.1.409.409,0,0,1-.184.085.5.5,0,0,0-.2.028c-.014.007-.05.036-.071.025-.046.013-.008,0-.112.009a1.729,1.729,0,0,0-.605.3c-.008,0-.082.044-.085.064-.006.058.01.122-.055.169-.025.022-.357.135-.405.152-.032.009-.071.014-.111.02-.059.132.007.165-.23.195a.232.232,0,0,1-.14.093.329.329,0,0,1-.224-.044c-.022,0-.055.006-.076.009s0,.028-.005.042-.028.094.027.1c0,.011,0,.026,0,.037-.027,0-.117.037-.179.045s-.18,0-.2-.03c-.081.028-.287.08-.3.129,0,.007,0,.013.005.02,0,.08.313.084.436.1.033.005.04.026.087.028-.009.082.068.275.227.266,0,.039.042.025.039.078a.241.241,0,0,1-.039.085s.012-.007.016-.01c0,.03-.006.133-.006.153-.01.109-.146.113-.158.228-.02,0-.144.039-.2.046-.078.007-.122-.027-.214,0-.125.014-.24.028-.366.036a.339.339,0,0,1-.125-.02c-.119.012-.221.028-.335.037-.037.017-.082-.012-.109-.009a1.2,1.2,0,0,0-.308.184c0,.044.068.116.057.2-.02.144-.1.3-.11.44-.006.034-.086.066-.093.139-.007.039.05.072.109.068-.012.114-.02.231-.032.35a.049.049,0,0,0,.054.054c.122-.007.189-.069.326-.082.167-.014.157.256.275.251.166-.017.281-.168.468-.187a1.383,1.383,0,0,1,.244-.034v-.007c.157.037.181-.152.282-.208.174-.093.236-.244.344-.377-.034-.005-.077-.031-.074-.07a.765.765,0,0,1,.405-.417.583.583,0,0,0,.41-.213c-.013-.036-.031-.086-.04-.123.008-.079.136-.149.263-.16.157-.015.115.053.3.043a1.311,1.311,0,0,0,.457-.181c.077-.023.085-.1.239-.11.32-.018.507.122.5.342.012.035.141.06.2.1a.785.785,0,0,0,.465.177c0,.029.136.06.162.055a3.644,3.644,0,0,0,.426.32c.015.044.084.077.084.168a.164.164,0,0,1-.152.168c0,.019.035.047.095.04.125-.005.126-.138.208-.193,0,0,.082-.066.083-.09.006-.074-.08-.04-.079-.117,0-.048.013-.151.119-.154s.152.074.279.085c.028-.128-.219-.219-.394-.277-.042-.009-.255-.038-.222-.112.006-.012.013-.035.018-.048a1.1,1.1,0,0,1-.346,0c-.055-.015-.141-.165-.168-.243a.329.329,0,0,0-.216-.172c-.1-.022-.176-.05-.173-.136,0-.029.026-.074.039-.1a.066.066,0,0,1-.041-.032c0-.054.188-.066.285-.114.039.03-.008.152.1.149.089,0,.17-.008.257-.009,0,.141.254.361.447.365.031,0,.09,0,.122,0,0,.08.134.085.257.123s.308.156.31.242c0,.042,0,.1,0,.155-.006.12-.043.138.063.212a.471.471,0,0,1,.182.191c0,.009.025.065.052.066a1.288,1.288,0,0,1,.15,0c-.019.025-.116.135-.117.187a.385.385,0,0,0,.334.309.782.782,0,0,0,.124,0c-.09-.033,0-.144,0-.181a.633.633,0,0,0-.052-.216c0-.013,0-.036,0-.049.036.02.13.163.229.186h.018c.013-.044.117-.117.151-.132a.254.254,0,0,0-.035-.055,1.329,1.329,0,0,1-.31-.169c0-.015.029-.043.036-.073-.041-.038-.111-.085-.167-.132,0-.024.063-.068.1-.066.085.005.1.093.229.089a.209.209,0,0,0,0-.132,1.227,1.227,0,0,1,.291-.078c.16,0,.163.061.3.068A.706.706,0,0,0-151,199.2c.082-.02.24-.022.32-.036.032-.009.085,0,.114-.022-.055-.057-.288-.14-.293-.259,0-.078.157-.2.241-.255,0-.042,0-.1,0-.151.02-.03.023.015.054-.081,0-.049.091-.082.179-.095,0-.025-.005-.061-.011-.086.191-.03.211-.244.405-.246a3.114,3.114,0,0,0,.507.122c.027,0-.178.073-.16.094a1.35,1.35,0,0,0,.336.23,1.989,1.989,0,0,0,.59-.155c-.013,0-.238-.032-.238-.032-.027,0-.144-.02-.149-.09a4.462,4.462,0,0,1,.834-.216.894.894,0,0,1-.146.087c.015.028.256.192-.24.259.241.34,1.166.392,1.208.868.009,0,.026,0,.034,0h0a1.1,1.1,0,0,1-.408.112c-.165,0-.318-.016-.485-.021-.1-.007-.424-.062-.433-.135-.2-.012-.189-.091-.425-.1a1.621,1.621,0,0,0-.5.039,1.363,1.363,0,0,1-.354.111c-.089,0-.179-.006-.272-.005-.033,0-.207-.033-.209.027,0,.034.052.023.071.072-.159.046-.911-.052-.93.132,0,.029.087.034.151.031-.013.025,0,.039,0,.073,0,.117-.093.108-.184.162a.67.67,0,0,1,.3.209c-.083.082.166.2.224.244a.209.209,0,0,1-.071.047.726.726,0,0,0,.1,0c.173-.063.256.14.427.146s.12-.177.307-.177.365.216.552.227c.259,0,.294-.091.435-.187a.285.285,0,0,0,.176.068c.053,0,.1-.05.164-.067a.57.57,0,0,1,0,.079c-.014.012-.058.039-.058.077.007.09.045.2.052.341,0,.188-.164.214-.219.377s-.072.243-.133.426c-.007.025-.068.029-.069.089.019.029.044.1.06.128a.813.813,0,0,1-.042-.079.843.843,0,0,1-.267.012c-.2,0-.377-.089-.553-.086-.277-.009-.122.07-.416.077a3.91,3.91,0,0,1-1.008-.226c-.146-.053-.347.011-.431-.082-.027-.037-.133-.068-.134-.187-.049,0-.13.006-.2,0-.007,0-.021-.009-.026-.016-.282.085-.488.079-.5.345,0,.042,0,.109,0,.163,0,.032-.1.119-.181.125-.67,0-1.019-.517-1.6-.522-.082.006-.163.005-.246.007a.4.4,0,0,1-.381-.364c.007-.123.117-.187.122-.3,0-.057-.1-.094-.106-.17.012-.1.122-.086.136-.208-.039.007-.091.05-.131.052-.138,0-.086-.128-.252-.13-.161.013-.173.124-.346.13-.1.009-.14-.047-.253-.043s-.263.126-.358.133c-.053,0-.172-.071-.289-.063a3.683,3.683,0,0,0-1.231.387,1.191,1.191,0,0,1-.435.155.676.676,0,0,1-.541-.143c-.085.071-.121.261-.189.344-.039.018-.084.058-.133.087-.206.252-.41.294-.623.561a.813.813,0,0,0-.119.481,1.9,1.9,0,0,1-.326.388,1.767,1.767,0,0,0-.492.348,3.152,3.152,0,0,0-.424.872c-.051.129-.2.223-.205.382-.011.316.128.55.125.9a1.018,1.018,0,0,1-.27.666,1.212,1.212,0,0,1,.165.371c0,.056.029.133.033.251h-.02a1.357,1.357,0,0,0,.086.11,5.047,5.047,0,0,0,.4.447,2.567,2.567,0,0,1,.352.587c.157.254.458.212.775.718a.456.456,0,0,0,.219.072c.289.009.481-.143.8-.137.16.006.364.13.486.136s.154-.1.283-.141a4.189,4.189,0,0,1,1.2-.3c.359.011.072.52.33.541.082,0,.372-.035.53-.034a.611.611,0,0,1,.557.36c-.089.072-.081.313-.081.415,0,.025-.038.053,0,.125a.69.69,0,0,0-.195.326c.013.395.486.789.729,1.062.115.146.089.318.16.487a2.168,2.168,0,0,1,.237.665,2.152,2.152,0,0,1,.126.449c0,.409-.456.6-.441,1.123a1.909,1.909,0,0,0,.539,1.1c.072.094.172.14.179.238,0,.055.008.125.007.186a1.217,1.217,0,0,0,.541,1.063c.06.051.229.364.4.579a.137.137,0,0,1-.015.195c.07.05.07.141.074.267.014,0,.031-.02.079-.027a.287.287,0,0,0,.264.124c.309.009.384-.175.733-.18.091,0,.139.058.229.06s.137-.033.245-.042c.028-.108.3-.05.448-.095a1.684,1.684,0,0,0,.664-.517c.14-.126.246-.13.439-.277a.687.687,0,0,0,.27-.427c0-.055-.046-.1-.119-.134.1-.173-.039-.146.283-.259.1-.034.26-.028.341-.1a.992.992,0,0,0,.129-.5c.007-.27-.2-.2-.195-.4a.309.309,0,0,1,.259-.232c.129-.485,1.178-.436,1.236-1.027a.2.2,0,0,0-.06-.147c.006-.161.015-.318.021-.492.008-.048.022-.117.034-.18a.248.248,0,0,0,.065-.119c.005-.147-.317-.321-.315-.6.012-.235-.133-.439-.131-.7.016-.221.23-.285.3-.493.106-.316.333-.291.548-.471.082-.074.1-.379.2-.45.222-.157.455-.3.689-.477a3.574,3.574,0,0,0,.682-.808,3.35,3.35,0,0,0,.614-1.459c0-.037-.033-.072-.056-.124a8.2,8.2,0,0,1-.855.275c-.127.017-.211-.04-.339,0-.109.035-.12.14-.257.144s-.263-.265-.369-.353c.086-.1.008-.117.005-.264-.286,0-.362-.343-.5-.452a2.581,2.581,0,0,1-.4-.256c-.156-.158-.068-.364-.224-.578a2.407,2.407,0,0,1-.426-.6c0-.149,0-.3,0-.447-.136-.1-.381-.275-.34-.458-.279-.494-.544-.968-.825-1.451,0-.036,0-.1,0-.14.152.151.307.507.5.543.029-.085.114-.278.155-.405a2.037,2.037,0,0,0-.042.258,2,2,0,0,0,.154.2c.1.149.182.228.3.377a.969.969,0,0,1,.127.2c.009.039.005.173.057.227.023.016.147.023.177.044a1.215,1.215,0,0,0,.117.111c.044.158.17.2.176.4.01.319.074.487.388.563a1.037,1.037,0,0,0,.3.572c.093.1.29.192.251.381-.012.057-.087.235.012.245a.978.978,0,0,0,.07.473c.058.087-.006.086.01.1s.249.114.269.116.04-.023.054-.031c.173,0,.208-.137.353-.24l.318.027a5.469,5.469,0,0,1,.527-.324,3.139,3.139,0,0,0,.571-.2c-.009-.015-.035-.055-.032-.074.005-.181.437-.2.661-.242a.309.309,0,0,1,.216-.232c.117,0,.1-.23.219-.23.088,0,.078-.132.11-.232s.1-.125.216-.122c0-.2.3-.262.293-.45-.007-.055-.1-.058-.146-.132v.007c-.046-.026-.067-.167-.149-.2-.223-.082-.362-.122-.483-.363-.005-.1-.014-.192-.012-.294-.278.206-.276.522-.826.51-.122-.006-.326-.066-.335-.182,0-.1.048-.16.048-.256,0-.023-.012-.066-.012-.089-.088.016-.06.117-.157.139-.009-.056-.054-.1-.063-.189a1.093,1.093,0,0,1-.489-.6,1.7,1.7,0,0,1-.024-.184c0-.121.034-.251.154-.248.236.009.418.265.514.446.013.025,0,.095.045.145.094.092.218.05.318.151a.8.8,0,0,0,.278.236c.13.01.261.009.389.018.036-.041.066-.111.157-.11.161.012.173.243.25.329a1.772,1.772,0,0,0,.266.085c.205.014.522.121.663.129a.143.143,0,0,1,.035,0c.046.008.1.021.149.033.006-.017.035-.035.06-.051.055.022.118.044.184.065a2.207,2.207,0,0,1,.238-.026.725.725,0,0,1,.2.02c.089.039.131.214.188.317a.676.676,0,0,0,.4.29,1.008,1.008,0,0,1,.148.024c-.02.031-.029.094-.079.109s-.1-.023-.158.022c.1.124.184.353.381.369.165,0,.176-.17.25-.264a.123.123,0,0,1,.049,0c0,.025-.035.085-.032.1.007.1.068.192.071.313,0,.1-.022.106-.023.212l0,0c0,.018.011.089.014.108a1.629,1.629,0,0,0,.111.442c.039.168.1.4.126.511a1.588,1.588,0,0,0,.071.241c.047.092.022.187.063.307a.913.913,0,0,1,.124.238c.041.164.1.3.137.479.006.02.015.068.048.072.005.044.035.082.081.071.052.005.057-.088.074-.15.036-.078.036-.044.1-.093.05-.03.034-.216.106-.251.02-.007.052-.012.053-.031s.017,0,.026-.009c-.005-.055-.019-.122-.023-.188.006-.138.063-.252.065-.439,0-.114-.04-.284-.039-.415,0-.156.109-.114.2-.161.047-.012.085-.1.125-.165.087-.139.169-.291.258-.437.067-.118.2-.148.269-.273.041-.066.026-.144.039-.247.022-.065.1.023.124-.083.031.054.034.074.1.084.1.006.2-.019.191-.235a.259.259,0,0,1,.14.181c.028.079.017.192.052.289a1.342,1.342,0,0,0,.123.238,1.4,1.4,0,0,1,.09.275c0,.032.02.055.022.087a1.272,1.272,0,0,0-.01.2c0,.093,0,.147.043.152.086,0,.114-.164.158-.275a.711.711,0,0,1,.028.1c.017.007.035,0,.037.035.031.1-.063.275.022.29.006.207.055.5.055.783,0,.066-.037.193-.006.242h-.013c-.014.085-.028.171-.035.261,0,.012.012.039,0,.038l.007.013a.039.039,0,0,1,.027-.017c.106.009.05.216.06.306.017.136.017.268.023.445,0,.026,0,.05.005.074.024-.189.043-.379.06-.57a.234.234,0,0,1-.036-.063c-.01-.062-.01-.152-.02-.2h.005c0-.184-.061-.117-.061-.312s.047-.245.051-.452c0-.052.025-.135.027-.192,0-.034-.037-.073.014-.074.069,0,.051.009.058.087,0,0,0,.084.01.085l.005,0c0-.047,0-.094,0-.141A14.324,14.324,0,0,0-141.9,195.465Zm-6.829,6.324Zm1.416-2.765a.051.051,0,0,0,.017,0S-147.313,199.026-147.316,199.024Zm2.519.455c-.059,0-.116.109-.125.195.165.039.246.106.26.221,0,.039.009.1.007.14s.011.16.016.167c.007.037,0,.1.01.136a1.314,1.314,0,0,1-.357.018c-.094-.009-.294-.007-.361-.072-.041-.036-.074-.118-.144-.146a.42.42,0,0,1-.238-.153c-.049-.078.016-.115-.052-.192-.036-.036-.1-.047-.11-.107.031,0,.082.018.112.02.095-.1.079-.225.2-.264a1.315,1.315,0,0,1-.584-.669c0-.049-.186-.149-.192-.24a1.1,1.1,0,0,1,.167-.253,1.051,1.051,0,0,0,.289-.057,1.47,1.47,0,0,1,.544-.063.923.923,0,0,1,.674.4c-.112.051-.256-.023-.395-.037a1.811,1.811,0,0,0-.52.087c.019.117.137.119.192.184.167.2.391.264.417.493a1.827,1.827,0,0,1,.249-.06c.013.1.157.186.165.279C-144.645,199.491-144.72,199.486-144.8,199.479Z" transform="translate(165.948 -192.311)"/><path class="a" d="M-141.029,192.547c-.016,0-.026,0-.042,0s0,0,0,.007C-141.056,192.542-141.045,192.555-141.029,192.547Z" transform="translate(160.41 -192.042)"/><path class="a" d="M-142.121,192.3c.058.01.09.026.155.042a.561.561,0,0,0-.093,0,.788.788,0,0,0,.118.025,1.121,1.121,0,0,1-.132-.01.514.514,0,0,0,.183.053h0a.428.428,0,0,0,.077.031c.058.012.058-.015.116-.015a1.64,1.64,0,0,1,.222.038c.007,0,0-.01,0-.01a.128.128,0,0,1,.063.012c.071,0,.156.065.158.005-.039-.005-.116-.04-.2-.058a1.758,1.758,0,0,0-.227-.025c-.118-.024-.211-.062-.382-.094a2.515,2.515,0,0,0-.5-.051,1.328,1.328,0,0,0,.148.031C-142.309,192.283-142.193,192.288-142.121,192.3Z" transform="translate(160.814 -191.958)"/><path class="a" d="M-139.639,192.908c.013,0,.034.02.066.028.056.017.066.038.082.007a.96.96,0,0,0,.127.051.7.7,0,0,0,.111.014l-.107-.053C-139.425,192.933-139.65,192.865-139.639,192.908Z" transform="translate(160.022 -192.136)"/><path class="a" d="M-139.591,192.844l-.158-.075c-.079-.019-.157-.045-.24-.063a.188.188,0,0,0-.07,0c.012-.005.275.1.315.111Z" transform="translate(160.136 -192.084)"/><path class="a" d="M-139.732,192.748l-.039-.018c0,.009,0,.007.009.019A.144.144,0,0,1-139.732,192.748Z" transform="translate(160.057 -192.092)"/><path class="a" d="M-151.507,192.191c-.044.037.067.042.187.047l-.057.009a.43.43,0,0,0,.222.014.607.607,0,0,0,.22-.07.12.12,0,0,0,.058,0,.62.62,0,0,0,.1.011,1.627,1.627,0,0,1,.186-.011,2.789,2.789,0,0,1-.369.073c-.033,0-.2.006-.2.034,0,.078.183.015.269.007a2.787,2.787,0,0,1,.322-.009c-.086.01-.165.013-.24.03,0,0-.161.006-.265.016,0,.068.375.074.549.1.109-.034.094-.092.219-.126a.491.491,0,0,0,.11-.021.626.626,0,0,1,.405-.155.488.488,0,0,0,.172.025l-.1.006a.6.6,0,0,0,.143.053c-.024.044-.089.02-.111.06.095,0,.243,0,.334,0-.023.01-.023.013-.008.038.189-.016.262-.047.46-.073-.069-.019-.267-.007-.275-.073-.078,0-.15,0-.232,0,.022-.009.015-.015,0-.031a.735.735,0,0,1-.13,0l.072,0a3.417,3.417,0,0,0-.571-.068c-.022,0-.05,0-.072,0,.024-.017.032-.046-.082-.043a1.067,1.067,0,0,0-.13.031c0-.023.011-.021.025-.039-.005-.032-.186-.02-.281-.023s-.139-.012-.144.036.036.052.075.079c-.179-.007-.116-.071-.309-.063-.058,0-.115.013-.124.041.011.009.017.007.024.018-.044-.011-.1,0-.164-.01a.451.451,0,0,1,.088-.034c-.16.007-.235.014-.349.022a1.186,1.186,0,0,0-.251.069.643.643,0,0,0,.167.029A.14.14,0,0,1-151.507,192.191Z" transform="translate(163.302 -191.893)"/><path class="a" d="M-149.6,191.95c-.025.072.124.015.247.012.013,0,.31,0,.336,0-.032.009-.109,0-.179.015-.013,0-.09,0-.143.006.019.018.025.026.091.028.141,0,.268-.011.409-.009a.53.53,0,0,0,.25.033,5.968,5.968,0,0,0,.737-.093,1.126,1.126,0,0,0-.323-.056h-.235c-.106,0-.149.018-.213.019-.023-.012-.009-.005,0-.046h-.086a.545.545,0,0,1-.178.045,2.7,2.7,0,0,1-.283-.031c-.071,0-.128.007-.2.006l.035.018c-.037,0-.084,0-.121,0,.006,0,.005.009,0,.009a1.32,1.32,0,0,1-.141,0c-.033,0-.074,0-.106,0C-149.7,191.943-149.655,191.936-149.6,191.95Z" transform="translate(162.753 -191.854)"/><path class="a" d="M-151.53,192.374c-.055-.055-.128-.041-.205-.058,0,0,0-.006,0-.006l-.014,0,.009,0-.01,0C-151.862,192.34-151.666,192.374-151.53,192.374Z" transform="translate(163.317 -191.978)"/><path class="a" d="M-151.737,192.315h0Z" transform="translate(163.305 -191.979)"/><path class="a" d="M-151.739,192.314h0Z" transform="translate(163.307 -191.979)"/><path class="a" d="M-158.477,198.616a.509.509,0,0,0,.14-.041.7.7,0,0,1,.277-.147.542.542,0,0,0,.195-.052c.068-.046.021-.1.028-.137.005-.054.017-.108.025-.163.014-.036.13-.056.144-.092,0-.086-.048-.179-.217-.155-.037.008-.084.013-.122.02a.454.454,0,0,0-.23.124c0,.024,0,.028.032.054a1.3,1.3,0,0,1-.214.087c-.02.007-.072,0-.087.065-.005.047.05.068.117.076-.05.12-.224.154-.246.279C-158.643,198.591-158.562,198.634-158.477,198.616Z" transform="translate(165.177 -193.474)"/><path class="a" d="M-157.513,197.133c.074-.018.146-.072.154-.125-.052.015-.176.054-.187.079S-157.534,197.135-157.513,197.133Z" transform="translate(164.881 -193.253)"/><path class="a" d="M-157.275,197.173a.123.123,0,0,1-.006.036s-.059.044-.061.068.063.024.1.019a.131.131,0,0,1-.007.042.114.114,0,0,1-.035.037c0,.025-.011.049-.012.074a.322.322,0,0,0,.058-.009c-.013-.018-.031-.022.012-.069a.225.225,0,0,0,.121,0c-.028.032-.012.039-.014.089-.015.035-.079.072-.089.109s.046.03.112.021.1-.034.176-.048a.25.25,0,0,0,.066-.005c-.012.02-.06.036-.062.074s.1.044.173.028a.405.405,0,0,0-.009.073.7.7,0,0,1-.353.137c-.007.052.051.067.04.133s-.215.1-.231.181c0,.009.02.019.034.02.034,0,.028-.028.078-.035.08-.013.1.04.2.032a.355.355,0,0,0,.143-.066.056.056,0,0,0,.012.033c-.007.077-.159.061-.268.1a3.5,3.5,0,0,0-.289.219.031.031,0,0,0,0,.03l.053-.007a.177.177,0,0,1,.111-.054.511.511,0,0,1,.106-.014.152.152,0,0,1,.133-.1c.047-.006.082.021.135.014.117-.017.332-.084.409-.092.111-.008.2-.022.315-.034a.553.553,0,0,0,.23-.1c0-.011,0-.025,0-.036a.589.589,0,0,1-.157,0c.076-.071.256-.14.276-.227,0-.047-.061-.082-.156-.077a.185.185,0,0,0-.1.031l.041-.024c-.027.009-.044.025-.1.045,0-.011,0-.023,0-.035a.055.055,0,0,0,.043-.039c.007-.037-.077-.055-.074-.093.014-.125-.181-.125-.3-.189-.088-.047-.043-.162-.185-.171-.055,0-.1.017-.173.019a.1.1,0,0,1,.066-.046c.016-.1.256-.179.246-.31-.146.023-.29.041-.44.063a.069.069,0,0,1-.016-.033c.031-.066.195-.078.2-.144,0-.009-.04-.031-.067-.029-.074.013-.143.025-.213.033a.277.277,0,0,0-.127.077c0,.023-.035.043-.042.081-.046.01-.1.034-.111.07,0,.009.017.022.031.021a.058.058,0,0,1-.034.032c-.012,0-.045,0-.043-.032a.552.552,0,0,0-.115.019C-157.44,197.175-157.384,197.181-157.275,197.173Z" transform="translate(164.849 -193.2)"/><path class="a" d="M-156.976,197.971c-.011,0-.026,0-.037.005-.039.019-.06.041-.06.065a.351.351,0,0,1,.082-.012A.574.574,0,0,0-156.976,197.971Z" transform="translate(164.753 -193.514)"/><path class="a" d="M-160.285,196.007c0,.013-.011.019-.012.034-.028.006-.028-.01-.074,0s-.092.044-.145.066-.03,0-.063-.005c-.02.018-.015.01-.016.044a.88.88,0,0,1-.109.055c-.042.024-.071-.007-.058-.037s-.015-.009-.015-.037c-.018.005-.026.012-.044.016-.052.02-.067.057-.112.073,0,.012-.009.015-.009.026a.294.294,0,0,0-.1.035c0,.05.184-.005.248-.031,0,.013-.009.017.013.019a2.525,2.525,0,0,1-.3.135c.074.034.141-.051.229-.073-.02.046-.05.063-.064.112a.337.337,0,0,0-.056.035c.125-.04.15-.007.225-.023a2.721,2.721,0,0,0,.508-.1,3.618,3.618,0,0,0,.5-.224,1.684,1.684,0,0,0,.324-.2c.005,0,.01-.007.015-.01.027-.1-.211-.014-.182-.113,0-.014.029-.028.047-.042-.059.018-.1.046-.155.059s-.1.027-.1-.012c-.028.009-.018.022-.067.02a.248.248,0,0,0-.042.058c-.07-.021-.132.042-.208.072C-160.158,195.975-160.2,195.982-160.285,196.007Z" transform="translate(165.84 -192.914)"/><path class="a" d="M-165.885,216.34a.852.852,0,0,1,.044-.1,1.6,1.6,0,0,0,.157-.893.468.468,0,0,0-.149-.33c-.06-.036-.1-.009-.16-.046a1.166,1.166,0,0,1-.265-.353.806.806,0,0,0-.193-.14.389.389,0,0,0-.135,0c-.074-.02-.092-.121-.167-.136-.05-.031-.016.008-.065.048-.012-.008-.007-.009-.023-.006a.549.549,0,0,0-.025-.154c-.011-.049-.039-.044-.067-.083-.05-.055-.163-.2-.217-.216s-.058,0-.065.031a.559.559,0,0,0-.007-.1c0-.013,0-.058-.025-.066s-.025.066-.042-.025c-.05-.007-.034-.035-.058-.074,0-.008-.008.005-.009,0-.075-.01-.032.05-.028.149.012.059.079.2.119.209.025.016.038,0,.044-.029a.631.631,0,0,1-.006.093c-.009.034.007.068-.019.061s-.017-.052-.021-.069c-.043-.028-.007-.014-.059-.02a.384.384,0,0,0-.057-.149c-.021-.028-.035-.017-.04-.076a1.419,1.419,0,0,1,.061-.481c0-.06-.039-.068-.055-.13a2.263,2.263,0,0,1-.07-.337c-.085-.068-.04-.2-.128-.24a14.261,14.261,0,0,0,1.6,5.243c.02.012.027.034.062.052a.067.067,0,0,0,.106-.058c0-.027-.029-.066-.016-.108.02-.086.025-.126.047-.229a.716.716,0,0,0-.029-.18c-.011-.047.011-.07.017-.109.012-.015,0-.03,0-.06-.022-.071-.062-.364-.079-.469-.041-.144-.109-.221-.071-.3S-165.91,216.416-165.885,216.34Z" transform="translate(167.613 -197.505)"/><path class="a" d="M-159.975,194.937l-.145.111a.679.679,0,0,0,.181-.114C-159.96,194.938-159.972,194.941-159.975,194.937Z" transform="translate(165.58 -192.69)"/><path class="a" d="M-161.039,195.825c.1-.061.146-.073.235-.133-.074.028-.326.139-.442.167-.119.106-.236.212-.35.321l.158-.09C-161.3,196.005-161.218,195.919-161.039,195.825Z" transform="translate(165.98 -192.896)"/><path class="a" d="M-159.725,194.742l-.136.1a1.065,1.065,0,0,0,.218-.13A.451.451,0,0,0-159.725,194.742Z" transform="translate(165.509 -192.63)"/><path class="a" d="M-160.339,195.237c.011-.019-.007-.009-.037.007-.049.039-.1.077-.146.117l.078-.031C-160.377,195.29-160.356,195.274-160.339,195.237Z" transform="translate(165.689 -192.769)"/><path class="a" d="M-160.6,195.581a.432.432,0,0,0,.151-.083c.034-.086-.068-.081-.183-.062l-.2.165C-160.761,195.6-160.779,195.653-160.6,195.581Z" transform="translate(165.771 -192.823)"/><path class="a" d="M-159.408,194.564l.186-.1a.683.683,0,0,0-.091.034c0-.015.011-.012.013-.027a.573.573,0,0,0-.08.03l-.079.056C-159.459,194.574-159.443,194.574-159.408,194.564Z" transform="translate(165.401 -192.563)"/><path class="a" d="M-151.44,202.2c-.132-.02-.182.053-.3.055s-.191-.083-.38-.01c0,.014,0,.037,0,.05.024.026.1.026.119.033.144.036.241.145.393.178-.008.015.05.03.069.027s.05-.035.053-.052c0-.047-.042-.065-.041-.115a.261.261,0,0,1,.045-.081C-151.467,202.263-151.45,202.223-151.44,202.2Z" transform="translate(163.408 -194.661)"/><path class="a" d="M-153.183,201.058c.014-.038.06-.192.09-.281-.021,0-.031-.044-.03-.074-.033.009-.081.066-.137.075-.014.008-.045.009-.06.017C-153.284,200.84-153.268,201.044-153.183,201.058Z" transform="translate(163.734 -194.256)"/><path class="a" d="M-153.352,201.5c-.007.039-.044.088-.058.143s-.009.146.078.145c.052-.006.224-.109.23-.208a.382.382,0,0,0-.04-.285c-.02,0-.047-.041-.107-.036s-.085.07-.181.1C-153.422,201.4-153.351,201.438-153.352,201.5Z" transform="translate(163.764 -194.406)"/><path class="a" d="M-155.1,201.868c.005-.016-.038-.062-.036-.074a.752.752,0,0,0-.133.057c.008,0,.075.057.1.056S-155.108,201.885-155.1,201.868Z" transform="translate(164.264 -194.551)"/><path class="a" d="M-152.325,197.278c0-.031-.036-.024-.033-.06-.028,0-.074,0-.1.007a.14.14,0,0,0,0,.031c0,.03.057.04.12.033,0,.007,0,.017,0,.024C-152.334,197.3-152.326,197.3-152.325,197.278Z" transform="translate(163.501 -193.31)"/><path class="a" d="M-152.2,197.268c0-.005-.009-.007-.01-.012a.06.06,0,0,1-.028.017.232.232,0,0,0,.074.014c.125,0,.079-.109.174-.133-.021-.052-.026-.078-.133-.072-.031,0-.107.086-.108.1s.053.04.109.042C-152.126,197.238-152.174,197.257-152.2,197.268Z" transform="translate(163.441 -193.272)"/><path class="a" d="M-149.924,196.609c.018,0,.094-.023.093-.032s0-.025,0-.036a.117.117,0,0,0,.044-.04.483.483,0,0,1-.058-.028s-.051.016-.05.031.023.025.037.035c-.035.005-.085.023-.12.028C-149.985,196.582-149.964,196.61-149.924,196.609Z" transform="translate(162.827 -193.107)"/><path class="a" d="M-147.66,203.114a1.4,1.4,0,0,0-.558-.045,1.089,1.089,0,0,0,.337.06A.4.4,0,0,0-147.66,203.114Z" transform="translate(162.35 -194.894)"/><path class="a" d="M-145.186,203.2a.525.525,0,0,0,.27-.076c.007-.017,0-.066.016-.074.04-.015.095.008.112-.063a2.4,2.4,0,0,0-.5.136c0,.012.031.038.044.038C-145.248,203.183-145.205,203.206-145.186,203.2Z" transform="translate(161.556 -194.876)"/><path class="a" d="M-138.145,210.951c.052,0,.132-.082.143-.111a.61.61,0,0,0-.23.047C-138.225,210.922-138.164,210.951-138.145,210.951Z" transform="translate(159.64 -197.006)"/><path class="a" d="M-141.005,194.331c-.012,0-.082.031-.079.044.01.031.044.039.132.05a.671.671,0,0,0,.281.005c.006-.013,0-.019-.007-.033-.1-.026-.151-.06-.249-.077C-140.959,194.315-140.973,194.333-141.005,194.331Z" transform="translate(160.414 -192.523)"/><path class="a" d="M-138.409,194.709c0,.039.157.093.235.114,0,0,.079.031.077.009C-138.131,194.776-138.425,194.667-138.409,194.709Z" transform="translate(159.688 -192.626)"/></g><path class="a" d="M-138.982,205.281c0-.1,0-.2,0-.3a14.308,14.308,0,0,0-.841-4.556.367.367,0,0,0-.012-.047h0a14.391,14.391,0,0,0-2.468-4.29.8.8,0,0,0-.063-.085l-.005.005a14.553,14.553,0,0,0-1.564-1.587l0-.005q-.478-.414-1-.783c-.247-.179-.5-.35-.757-.514a1.3,1.3,0,0,0-.112-.078l0,.006a14.315,14.315,0,0,0-3.268-1.5h0l-.074-.022-.1-.03h0l-.11-.032a14.3,14.3,0,0,0-1.773-.4h-.009a14.474,14.474,0,0,0-1.529-.155v0h-.066q-.2-.009-.393-.012c-.08,0-.161,0-.241,0h0c-.08,0-.16,0-.24,0-.132,0-.264.006-.394.012h-.066v0a14.468,14.468,0,0,0-1.529.155h-.009a14.167,14.167,0,0,0-1.774.4l-.069.02h0l-.128.039-.082.024h0a14.336,14.336,0,0,0-3.261,1.493l0-.005a1.247,1.247,0,0,0-.119.082q-.389.246-.761.517c-.344.244-.676.5-.993.78l0,.005a14.491,14.491,0,0,0-1.561,1.583l-.005,0a.687.687,0,0,0-.065.087,14.383,14.383,0,0,0-2.467,4.286h0c-.006.015-.009.031-.013.047a14.32,14.32,0,0,0-.846,4.861,14.311,14.311,0,0,0,.863,4.908h0c.007.017.015.034.023.051a14.389,14.389,0,0,0,2.518,4.316l-.005,0c.021.024.044.047.069.071q.3.355.631.689c.267.279.546.548.839.8l0-.006a14.431,14.431,0,0,0,1.894,1.4l0,.006c.038.023.079.046.123.069a14.307,14.307,0,0,0,3.076,1.4l.1.034h0l.171.051h0l.071.02a14.314,14.314,0,0,0,3.307.552l.029,0v0c.224.01.448.016.674.016s.45-.006.674-.016v0l.03,0a14.329,14.329,0,0,0,3.3-.55l.119-.033v0l.132-.039h0l.109-.036a14.3,14.3,0,0,0,3.068-1.4c.047-.024.092-.049.133-.074l0-.006a14.51,14.51,0,0,0,1.886-1.394l0,.006q.442-.386.843-.808.324-.331.626-.683a.9.9,0,0,0,.074-.077l-.005,0a14.4,14.4,0,0,0,2.513-4.307c.009-.018.017-.037.025-.055h0a14.315,14.315,0,0,0,.863-4.908h0Zm-.479.759a13.682,13.682,0,0,1-.775,4.552,5.928,5.928,0,0,1-1.892.792,15.468,15.468,0,0,0,.6-4.338c0-.08,0-.16,0-.24a6.931,6.931,0,0,0,2.066-.835C-139.463,205.993-139.462,206.017-139.462,206.039Zm-6.494,11.51a3.891,3.891,0,0,1-.609.242,10.389,10.389,0,0,0,2.482-2.412,5.379,5.379,0,0,0,1.407-.568q-.211.244-.434.477A14.433,14.433,0,0,1-145.956,217.549Zm-17.663-2.259c-.149-.157-.3-.317-.437-.48a5.405,5.405,0,0,0,1.407.568,10.4,10.4,0,0,0,2.481,2.412,3.962,3.962,0,0,1-.608-.24A14.454,14.454,0,0,1-163.619,215.291Zm-4.084-10.01h0a13.648,13.648,0,0,1,.8-4.6,1.009,1.009,0,0,0,.427.515,14.45,14.45,0,0,0-.836,4.692.818.818,0,0,1-.386-.609h0Zm6.48-11.8a.379.379,0,0,1,.144-.269l.211-.128a12.948,12.948,0,0,1,2.664-1.193.216.216,0,0,0-.026.1.188.188,0,0,0,.014.068,14.491,14.491,0,0,0-3,1.46A.226.226,0,0,1-161.223,193.484Zm3.856-1.97a9.275,9.275,0,0,1,2.182-.334.114.114,0,0,0-.042.082v0a13.386,13.386,0,0,0-2.826.535,1.686,1.686,0,0,1,.46-.218Zm4-.569h0l.231,0,.185.007a1.178,1.178,0,0,0-.416.281,1.182,1.182,0,0,0-.415-.281l.184-.007Zm7.858,2.539a.216.216,0,0,1-.006.038,14.474,14.474,0,0,0-3-1.46.189.189,0,0,0,.015-.068.208.208,0,0,0-.026-.1,12.931,12.931,0,0,1,2.664,1.193l.211.128A.381.381,0,0,1-145.509,193.484Zm3.935,13.562a15.414,15.414,0,0,1-.608,4.352,25.7,25.7,0,0,1-3.237.617,21.282,21.282,0,0,0,.406-4.547,28.122,28.122,0,0,0,3.438-.648C-141.575,206.894-141.574,206.97-141.574,207.046Zm-23.582-.227a28.122,28.122,0,0,0,3.438.648,21.282,21.282,0,0,0,.406,4.547,25.7,25.7,0,0,1-3.237-.617,15.419,15.419,0,0,1-.608-4.352C-165.158,206.97-165.157,206.894-165.156,206.819Zm6.974-14.826a.2.2,0,0,1,.05-.121,13.332,13.332,0,0,1,2.92-.562.167.167,0,0,0,.034.04,14.514,14.514,0,0,0-2.994.7A.168.168,0,0,1-158.182,191.993Zm9.581-.121a.192.192,0,0,1,.051.121.15.15,0,0,1-.01.053,14.563,14.563,0,0,0-2.994-.7.17.17,0,0,0,.034-.04A13.319,13.319,0,0,1-148.6,191.872Zm3.132,20.15c-1.467.2-3.151.338-4.966.413.1-1.39.155-2.918.146-4.528,1.911-.079,3.682-.227,5.227-.433A21.233,21.233,0,0,1-145.469,212.022Zm-7.9.472c-.988,0-1.953-.02-2.885-.058-.1-1.389-.155-2.917-.145-4.528.977.039,1.991.06,3.03.06s2.053-.021,3.03-.06c.01,1.611-.041,3.14-.145,4.528C-151.413,212.475-152.378,212.494-153.366,212.494Zm2.881-.01a31.961,31.961,0,0,1-.478,3.721c-.777.032-1.582.05-2.4.05s-1.626-.018-2.4-.05a31.961,31.961,0,0,1-.478-3.721c.93.038,1.894.058,2.881.058S-151.416,212.522-150.485,212.484Zm-11.185-5.01c1.545.205,3.316.354,5.227.433-.009,1.61.041,3.138.146,4.528-1.815-.075-3.5-.218-4.966-.413A21.235,21.235,0,0,1-161.67,207.474Zm8.3-4.433c-.967,0-1.91-.019-2.819-.055.129-1.644.313-3.194.537-4.6.737.028,1.5.044,2.282.044s1.545-.015,2.282-.044c.224,1.406.407,2.957.537,4.6C-151.456,203.022-152.4,203.041-153.366,203.041Zm2.823-.008q.086,1.1.138,2.241c.04.879.063,1.745.068,2.588-.976.039-1.99.059-3.029.059s-2.053-.02-3.029-.059c.005-.843.028-1.709.068-2.588q.052-1.143.138-2.241c.911.036,1.855.055,2.823.055S-151.454,203.069-150.543,203.033Zm-2.823-4.651c-.78,0-1.54-.015-2.275-.043.2-1.262.438-2.407.7-3.4q.764.028,1.578.028t1.578-.028c.259.992.494,2.136.7,3.4C-151.826,198.367-152.586,198.382-153.366,198.382Zm0-7.091a2.42,2.42,0,0,1,.238.284c-.078,0-.157,0-.238,0s-.16,0-.238,0A2.422,2.422,0,0,1-153.366,191.291Zm-.283.283c-.149,0-.289-.012-.42-.022a5.883,5.883,0,0,1,.63-.241A2.55,2.55,0,0,0-153.65,191.575Zm.357-.263a5.88,5.88,0,0,1,.63.241c-.131.01-.272.017-.42.022A2.653,2.653,0,0,0-153.293,191.312Zm.212.021q.408.073.809.178c-.091.013-.189.024-.3.034C-152.736,191.465-152.908,191.395-153.081,191.333Zm-1.086.211c-.106-.009-.2-.02-.3-.034q.4-.1.81-.178Q-153.911,191.426-154.166,191.544Zm-.086.04a7.977,7.977,0,0,0-1.716,1.14c-.412-.05-.783-.109-1.1-.178a11.553,11.553,0,0,1,2.484-1C-154.479,191.558-154.369,191.572-154.252,191.584Zm.093.009c.153.014.313.023.477.028a6.662,6.662,0,0,0-.629,1.228c-.572-.021-1.11-.062-1.594-.118A7.811,7.811,0,0,1-154.159,191.593Zm.521.03c.09,0,.181,0,.272,0s.181,0,.272,0a6.337,6.337,0,0,1,.634,1.228q-.442.016-.906.017t-.906-.017A6.337,6.337,0,0,1-153.638,191.623Zm.588,0c.163-.005.324-.015.477-.028a7.811,7.811,0,0,1,1.746,1.138c-.483.056-1.022.1-1.594.118A6.661,6.661,0,0,0-153.05,191.621Zm.57-.037c.117-.012.227-.026.329-.042a11.552,11.552,0,0,1,2.484,1c-.315.068-.686.128-1.1.178A7.959,7.959,0,0,0-152.48,191.584Zm.437-.061a2.25,2.25,0,0,0,.251-.06,14.292,14.292,0,0,1,2.941.828,3.693,3.693,0,0,1-.746.239A11.644,11.644,0,0,0-152.043,191.523Zm-.108-.031c-.242-.066-.487-.122-.734-.171q.494.044.979.121C-151.978,191.461-152.06,191.477-152.151,191.492Zm-.364-.18q.409.023.81.069c-.027.011-.058.021-.093.032Q-152.153,191.353-152.514,191.312Zm-1.7,0q-.362.042-.718.1c-.034-.011-.066-.021-.093-.032Q-154.626,191.336-154.218,191.312Zm.37.009c-.246.049-.492.1-.734.171-.091-.015-.173-.031-.245-.05Q-154.342,191.366-153.848,191.322Zm-.842.2a11.645,11.645,0,0,0-2.447,1.007,3.693,3.693,0,0,1-.746-.239,14.247,14.247,0,0,1,2.941-.828A2.25,2.25,0,0,0-154.689,191.523Zm-2.512,1.043a13.6,13.6,0,0,0-2.471,1.774,4.709,4.709,0,0,1-1.2-.429,14.835,14.835,0,0,1,2.93-1.6A3.357,3.357,0,0,0-157.2,192.566Zm.068.016a10.79,10.79,0,0,0,1.113.187,11.975,11.975,0,0,0-1.741,1.906,17.167,17.167,0,0,1-1.854-.321A13.531,13.531,0,0,1-157.134,192.582Zm1.175.195c.489.058,1.038.1,1.628.12a17.487,17.487,0,0,0-.642,1.994c-.994-.038-1.919-.11-2.737-.21A11.819,11.819,0,0,1-155.959,192.777Zm.973,2.163c-.26.993-.5,2.138-.7,3.4-1.441-.056-2.778-.165-3.954-.313a17.678,17.678,0,0,1,1.9-3.3C-156.923,194.829-155.991,194.9-154.985,194.939Zm1.619-.017c-.536,0-1.059-.01-1.565-.029a17.132,17.132,0,0,1,.64-1.994c.3.01.608.016.925.016s.626-.006.925-.016a17.27,17.27,0,0,1,.64,1.994C-152.307,194.912-152.83,194.922-153.366,194.922Zm.964-2.025c.591-.022,1.14-.063,1.628-.12a11.85,11.85,0,0,1,1.751,1.9c-.818.1-1.744.172-2.737.21A17.484,17.484,0,0,0-152.4,192.9Zm1.692-.128a10.806,10.806,0,0,0,1.112-.187,13.506,13.506,0,0,1,2.482,1.771,17.166,17.166,0,0,1-1.854.321A12.006,12.006,0,0,0-150.71,192.769Zm1.18-.2a3.4,3.4,0,0,0,.737-.252,14.8,14.8,0,0,1,2.93,1.6,4.709,4.709,0,0,1-1.2.429A13.6,13.6,0,0,0-149.531,192.566Zm.789-.282a.58.58,0,0,0,.2-.18,14.432,14.432,0,0,1,3.012,1.467.66.66,0,0,1-.3.313A14.827,14.827,0,0,0-148.742,192.284Zm-.053-.022a14.309,14.309,0,0,0-2.9-.832.637.637,0,0,0,.083-.039,14.512,14.512,0,0,1,3.033.7A.57.57,0,0,1-148.795,192.262Zm-6.323-.871a.637.637,0,0,0,.083.039,14.31,14.31,0,0,0-2.9.832.575.575,0,0,1-.213-.173A14.523,14.523,0,0,1-155.118,191.391Zm-2.873.893a14.8,14.8,0,0,0-2.92,1.6.656.656,0,0,1-.3-.313,14.414,14.414,0,0,1,3.012-1.467A.577.577,0,0,0-157.991,192.284Zm-2.958,1.627a15.294,15.294,0,0,0-3.126,2.962.779.779,0,0,1-.372-.462,14.342,14.342,0,0,1,3.2-2.815A.713.713,0,0,0-160.949,193.911Zm.044.028a4.575,4.575,0,0,0,1.19.44,15.988,15.988,0,0,0-2.665,3.151,5.914,5.914,0,0,1-1.655-.63A15.215,15.215,0,0,1-160.905,193.939Zm1.246.454a16.646,16.646,0,0,0,1.863.329,17.717,17.717,0,0,0-1.891,3.3,23.014,23.014,0,0,1-2.644-.476A15.879,15.879,0,0,1-159.659,194.393Zm-.045,3.665a23.328,23.328,0,0,0-1.457,4.526,27.152,27.152,0,0,1-3.236-.6,17.536,17.536,0,0,1,2.045-4.414A22.688,22.688,0,0,0-159.7,198.058Zm.048.007c1.178.152,2.52.262,3.964.319-.226,1.408-.41,2.958-.54,4.6-1.784-.071-3.436-.207-4.883-.394A23.241,23.241,0,0,1-159.656,198.065Zm3.42,4.967c-.058.73-.1,1.478-.138,2.241-.04.879-.063,1.744-.068,2.587-1.912-.077-3.682-.225-5.226-.428,0-.108,0-.216.005-.325a25.017,25.017,0,0,1,.541-4.475C-159.675,202.821-158.021,202.959-156.236,203.032Zm5.947,4.828c-.006-.843-.028-1.709-.069-2.587-.034-.762-.081-1.51-.138-2.241,1.784-.073,3.439-.211,4.888-.4a25.019,25.019,0,0,1,.541,4.475c0,.109,0,.217.005.325C-146.607,207.634-148.377,207.782-150.289,207.859Zm-.211-4.875c-.13-1.642-.314-3.193-.54-4.6,1.444-.058,2.786-.168,3.964-.319a23.243,23.243,0,0,1,1.459,4.526C-147.063,202.777-148.716,202.914-150.5,202.984Zm-.547-4.647c-.2-1.26-.44-2.4-.7-3.4,1.006-.038,1.937-.111,2.759-.212a17.677,17.677,0,0,1,1.9,3.3C-148.269,198.172-149.606,198.281-151.047,198.337Zm2.111-3.615a16.692,16.692,0,0,0,1.864-.329,15.9,15.9,0,0,1,2.671,3.149,23.014,23.014,0,0,1-2.644.476A17.715,17.715,0,0,0-148.936,194.722Zm1.919-.342a4.592,4.592,0,0,0,1.191-.44,15.231,15.231,0,0,1,3.129,2.96,5.892,5.892,0,0,1-1.655.63A15.987,15.987,0,0,0-147.017,194.379Zm1.234-.468a.713.713,0,0,0,.3-.315,14.345,14.345,0,0,1,3.2,2.815.78.78,0,0,1-.372.461A15.276,15.276,0,0,0-145.783,193.911Zm-5.839-2.569q-.414-.049-.835-.074c.3,0,.589.017.881.039A.193.193,0,0,1-151.623,191.342Zm-3.487,0a.209.209,0,0,1-.046-.036c.292-.022.586-.036.881-.039Q-154.7,191.293-155.11,191.342Zm-9.375,5.115a.883.883,0,0,0,.388.444,15.065,15.065,0,0,0-2.369,4.261.85.85,0,0,1-.407-.57A13.917,13.917,0,0,1-164.485,196.457Zm.427.471a6.052,6.052,0,0,0,1.658.634,17.6,17.6,0,0,0-2.043,4.414,6.636,6.636,0,0,1-1.983-.785A15,15,0,0,1-164.058,196.928Zm-.4,5.083a17.442,17.442,0,0,0-.748,4.758,6.638,6.638,0,0,1-2.066-.842,14.408,14.408,0,0,1,.83-4.7A6.879,6.879,0,0,0-164.454,202.011Zm.046.012a27.077,27.077,0,0,0,3.238.6,25,25,0,0,0-.541,4.48c0,.106,0,.213-.006.319a28.133,28.133,0,0,1-3.438-.643A17.382,17.382,0,0,1-164.409,202.023Zm3.1,10.038a14.5,14.5,0,0,0,1.2,3.559q.057.113.116.223a20.747,20.747,0,0,1-2.635-.514c-.141-.192-.279-.388-.41-.591a12.78,12.78,0,0,1-1.5-3.294A26.055,26.055,0,0,0-161.3,212.061Zm1.239,3.538a14.409,14.409,0,0,1-1.188-3.532c1.467.2,3.148.34,4.96.415a32.068,32.068,0,0,0,.477,3.72c-1.5-.064-2.9-.186-4.117-.352C-159.978,215.768-160.022,215.684-160.065,215.6Zm4.259.654a11.276,11.276,0,0,0,.645,2.224c-1.072-.047-2.072-.136-2.939-.257a8.219,8.219,0,0,1-1.8-2.308C-158.694,216.073-157.306,216.191-155.806,216.253Zm.047,0c.772.031,1.573.047,2.394.047s1.621-.016,2.393-.047a11,11,0,0,1-.649,2.225c-.565.024-1.149.037-1.744.037s-1.178-.013-1.744-.037A11.04,11.04,0,0,1-155.76,216.255Zm4.834,0c1.5-.062,2.888-.179,4.095-.342a8.236,8.236,0,0,1-1.8,2.309c-.867.121-1.867.209-2.939.256A11.274,11.274,0,0,0-150.926,216.253Zm.01-.05a32.068,32.068,0,0,0,.477-3.72c1.811-.075,3.493-.219,4.96-.415a14.407,14.407,0,0,1-1.188,3.532c-.043.085-.087.169-.131.252C-148.015,216.017-149.414,216.139-150.916,216.2Zm4.292-.583a14.5,14.5,0,0,0,1.2-3.559,26.055,26.055,0,0,0,3.233-.617,12.781,12.781,0,0,1-1.5,3.294c-.131.2-.27.4-.411.591a20.822,20.822,0,0,1-2.634.515C-146.7,215.77-146.662,215.7-146.624,215.62Zm1.61-8.195c0-.106,0-.213-.006-.319a25,25,0,0,0-.541-4.48,27.1,27.1,0,0,0,3.238-.6,17.381,17.381,0,0,1,.747,4.759A28.134,28.134,0,0,1-145.015,207.425Zm-.556-4.841a23.331,23.331,0,0,0-1.457-4.526,22.688,22.688,0,0,0,2.648-.484,17.536,17.536,0,0,1,2.045,4.414A27.152,27.152,0,0,1-145.571,202.584Zm1.239-5.022a6.029,6.029,0,0,0,1.658-.634,15.011,15.011,0,0,1,2.369,4.263,6.636,6.636,0,0,1-1.983.785A17.6,17.6,0,0,0-144.332,197.562Zm1.7-.66a.883.883,0,0,0,.388-.444,13.926,13.926,0,0,1,2.389,4.136.848.848,0,0,1-.407.57A15.065,15.065,0,0,0-142.635,196.9Zm-5.938-5.071a.594.594,0,0,0-.128-.106,14.147,14.147,0,0,1,1.714.721A13.122,13.122,0,0,0-148.572,191.83Zm-.568-.25a1.682,1.682,0,0,1,.46.218,13.386,13.386,0,0,0-2.826-.535v0a.113.113,0,0,0-.042-.082,9.294,9.294,0,0,1,2.181.333Zm-2.413-.321c-.424-.032-.851-.047-1.281-.039a9.856,9.856,0,0,1,1.206-.044C-151.58,191.2-151.555,191.233-151.553,191.26Zm-1.447-.069.057-.014a5.045,5.045,0,0,1,.952-.116,1.964,1.964,0,0,1,.246.066A9.991,9.991,0,0,0-153,191.191Zm-.286.025a.914.914,0,0,1,.5-.253c.219.014.415.034.584.061a5.113,5.113,0,0,0-.755.107C-153.065,191.155-153.176,191.184-153.287,191.215Zm1.3-.2.025,0h-.014Zm-1.454.2c-.111-.031-.222-.06-.333-.085a5.113,5.113,0,0,0-.755-.107c.168-.026.365-.047.584-.061A.914.914,0,0,1-153.446,191.215Zm-1.307-.2h-.014l.026,0Zm.012.048a5.045,5.045,0,0,1,.952.116l.057.014a10.131,10.131,0,0,0-1.255-.064A2.037,2.037,0,0,1-154.741,191.061Zm.843.16c-.43-.007-.857.007-1.28.039,0-.027.026-.055.074-.083A9.856,9.856,0,0,1-153.9,191.221Zm-4.262.61a13.085,13.085,0,0,0-1.588.616,14.294,14.294,0,0,1,1.716-.721A.629.629,0,0,0-158.16,191.83Zm-9.157,14.106c0,.034,0,.068,0,.1a13.746,13.746,0,0,0,.753,4.5.976.976,0,0,1-.259-.313,14.256,14.256,0,0,1-.876-4.719A1.153,1.153,0,0,0-167.316,205.937Zm.046.1c0-.023,0-.046,0-.068a6.931,6.931,0,0,0,2.066.835c0,.08,0,.16,0,.24a15.459,15.459,0,0,0,.6,4.338,5.93,5.93,0,0,1-1.892-.791A13.682,13.682,0,0,1-167.271,206.039Zm2.68,5.39a12.853,12.853,0,0,0,1.513,3.334c.121.187.247.367.376.544a4.419,4.419,0,0,1-1.482-.648,13.13,13.13,0,0,1-2.286-4A6.4,6.4,0,0,0-164.591,211.429Zm2.015,3.97a20.784,20.784,0,0,0,2.616.5,8.332,8.332,0,0,0,1.773,2.3,13.663,13.663,0,0,1-1.828-.37A10.325,10.325,0,0,1-162.575,215.4Zm4.461,2.872a5.487,5.487,0,0,0,1.525.943,7.906,7.906,0,0,1-.774-.165c-.113-.033-.224-.066-.335-.1a9.35,9.35,0,0,1-2.174-1.018A14.57,14.57,0,0,0-158.115,218.272Zm.088.012c.853.116,1.833.2,2.888.243a2.953,2.953,0,0,0,.489.8,1.271,1.271,0,0,0,.095.093c-.658-.031-1.27-.087-1.8-.165A5.3,5.3,0,0,1-158.026,218.283Zm3.411,1.007a2.933,2.933,0,0,1-.471-.761c.556.023,1.132.034,1.721.034s1.166-.012,1.721-.034a2.933,2.933,0,0,1-.471.761,1.3,1.3,0,0,1-.136.128c-.36.016-.732.025-1.113.025s-.753-.009-1.113-.025A1.38,1.38,0,0,1-154.616,219.29Zm2.533.032a2.953,2.953,0,0,0,.489-.8c1.055-.044,2.034-.128,2.888-.243a5.322,5.322,0,0,1-1.672.968c-.53.077-1.141.133-1.8.164A1.268,1.268,0,0,0-152.082,219.322Zm3.465-1.051a14.457,14.457,0,0,0,1.757-.341,9.338,9.338,0,0,1-2.168,1.015c-.117.038-.235.074-.353.108-.222.06-.479.114-.764.162A5.48,5.48,0,0,0-148.618,218.272Zm.072-.063a8.363,8.363,0,0,0,1.773-2.3,20.746,20.746,0,0,0,2.615-.5,10.288,10.288,0,0,1-2.56,2.438A13.754,13.754,0,0,1-148.546,218.208Zm4.515-2.9c.129-.177.255-.357.376-.544a12.854,12.854,0,0,0,1.513-3.334,6.4,6.4,0,0,0,1.879-.765,13.159,13.159,0,0,1-2.287,4A4.438,4.438,0,0,1-144.031,215.308Zm2.5-8.539a17.441,17.441,0,0,0-.748-4.758,6.879,6.879,0,0,0,1.985-.784,14.408,14.408,0,0,1,.83,4.7A6.638,6.638,0,0,1-141.53,206.769Zm1.277-5.57a1.012,1.012,0,0,0,.427-.515,13.641,13.641,0,0,1,.8,4.6h0a.816.816,0,0,1-.387.609A14.444,14.444,0,0,0-140.252,201.2Zm.234-1.149a13.985,13.985,0,0,0-2.216-3.652.436.436,0,0,0,0-.054.412.412,0,0,0-.012-.1A14.337,14.337,0,0,1-140.018,200.05Zm-2.332-3.934a.424.424,0,0,1,.072.228h0a14.384,14.384,0,0,0-3.191-2.8.29.29,0,0,0,.009-.066.344.344,0,0,0-.059-.185q.284.18.559.376A14.451,14.451,0,0,1-142.351,196.116Zm-9.268-4.987a.977.977,0,0,0-.176-.07,4.492,4.492,0,0,1,.649.058c.167.025.333.055.5.087A9.531,9.531,0,0,0-151.619,191.129Zm-3.968-.012a4.5,4.5,0,0,1,.65-.058,1,1,0,0,0-.176.07,9.531,9.531,0,0,0-.971.074Q-155.837,191.157-155.587,191.117Zm-6.187,2.559q.277-.2.562-.377a.342.342,0,0,0-.059.185.29.29,0,0,0,.009.066,14.4,14.4,0,0,0-3.191,2.8h0a.426.426,0,0,1,.074-.23A14.461,14.461,0,0,1-161.774,193.676ZM-164.5,196.4a13.973,13.973,0,0,0-2.218,3.654,14.353,14.353,0,0,1,2.227-3.806.415.415,0,0,0-.013.1A.33.33,0,0,0-164.5,196.4Zm-2.041,14.215a13.255,13.255,0,0,0,1.424,2.876,14.338,14.338,0,0,1-1.637-3.072A1.363,1.363,0,0,0-166.538,210.613Zm6.112,7.142c.121.045.254.089.4.131a9.433,9.433,0,0,0,.847.5Q-159.821,218.1-160.426,217.755Zm4.058,1.543.028.009-.071-.015Zm.806.152h0a4.583,4.583,0,0,1-.523-.114c.481.061,1.018.1,1.588.13a.969.969,0,0,0,.2.12C-154.726,219.558-155.147,219.514-155.561,219.45Zm1.494.15a.708.708,0,0,1-.345-.13c.34.013.689.021,1.046.021s.707-.008,1.046-.021a.711.711,0,0,1-.345.13q-.349.018-.7.017C-153.6,219.617-153.835,219.612-154.067,219.6Zm1.832-.134c.57-.025,1.106-.069,1.585-.13a4.543,4.543,0,0,1-.521.114h0c-.415.064-.835.109-1.26.136A.937.937,0,0,0-152.235,219.466Zm1.842-.159.027-.009.042-.006Zm2.843-.924a9.553,9.553,0,0,0,.844-.5c.144-.042.277-.086.4-.131Q-146.911,218.1-147.55,218.383Zm5.934-4.9a13.312,13.312,0,0,0,1.422-2.872,1.4,1.4,0,0,0,.212-.2A14.329,14.329,0,0,1-141.616,213.485Zm1.706-3.256a.987.987,0,0,1-.258.308,13.743,13.743,0,0,0,.753-4.5c0-.034,0-.068,0-.1a1.154,1.154,0,0,0,.383-.431A14.264,14.264,0,0,1-139.91,210.229Z" transform="translate(167.75 -190.897)"/></g></g><path class="a" d="M-139.963,194.655l-9.946,7.015a3.523,3.523,0,0,0-1.059,1.187l-1.783-2.409a.922.922,0,0,0-1.328-.221.922.922,0,0,0-.222,1.328l3.538,5.05.255.361,11.1,15.733a1.991,1.991,0,0,0,2.775.48l9.946-7.015a3.542,3.542,0,0,0,.853-4.934l-11.352-16.095A1.992,1.992,0,0,0-139.963,194.655Z" transform="translate(174.05 -170.894)"/><path class="b" d="M-125.835,211.229l-11.352-16.095a1.992,1.992,0,0,0-2.775-.479l-9.946,7.015a3.523,3.523,0,0,0-1.059,1.187l-1.783-2.409a.922.922,0,0,0-1.328-.221.922.922,0,0,0-.222,1.328l3.538,5.05.255.361,11.1,15.733a1.991,1.991,0,0,0,2.775.48l9.946-7.015A3.542,3.542,0,0,0-125.835,211.229Zm-5.6-3.9h0a.885.885,0,0,1-.213,1.234l-.9.638a.884.884,0,0,1-1.234-.213.885.885,0,0,1,.213-1.234l.9-.638A.885.885,0,0,1-131.433,207.325Zm-9.477-9.022.9-.638a.554.554,0,0,1,.771.133.553.553,0,0,1-.133.771l-.9.638a.553.553,0,0,1-.771-.133A.553.553,0,0,1-140.911,198.3Zm-3.707,2.614.9-.638a.553.553,0,0,1,.771.133.553.553,0,0,1-.133.771l-.9.638a.553.553,0,0,1-.771-.133h0A.554.554,0,0,1-144.618,200.917Zm-3.841,3.386a.554.554,0,0,1,.133-.771l.9-.638a.553.553,0,0,1,.771.133.553.553,0,0,1-.133.771l-.9.638A.554.554,0,0,1-148.458,204.3Zm4.544,8.169-3.444-4.883a1.992,1.992,0,0,1,.48-2.775l8.5-5.994a.885.885,0,0,1,1.234.213l3.444,4.883a1.992,1.992,0,0,1-.479,2.775l-8.5,5.994A.885.885,0,0,1-143.915,212.473Zm8.109-.981-.9.638a.885.885,0,0,1-1.234-.213h0a.886.886,0,0,1,.213-1.234l.9-.638a.885.885,0,0,1,1.234.213A.885.885,0,0,1-135.806,211.492Zm-6.3,3.358a.884.884,0,0,1,.213-1.234l.9-.638a.886.886,0,0,1,1.234.213.885.885,0,0,1-.213,1.234l-.9.638A.885.885,0,0,1-142.1,214.85Zm1.786,2.531a.885.885,0,0,1,.213-1.234l.9-.638a.885.885,0,0,1,1.234.214.885.885,0,0,1-.213,1.234l-.9.638A.885.885,0,0,1-140.317,217.381Zm3.923,2.107-.9.638a.885.885,0,0,1-1.234-.213.886.886,0,0,1,.214-1.234l.9-.638a.885.885,0,0,1,1.234.213A.885.885,0,0,1-136.394,219.489Zm.236-5.041a.885.885,0,0,1,.213-1.234l.9-.638a.884.884,0,0,1,1.233.213.885.885,0,0,1-.213,1.234l-.9.638A.886.886,0,0,1-136.158,214.448Zm3.924,2.107-.9.638a.885.885,0,0,1-1.234-.213.885.885,0,0,1,.213-1.234l.9-.638a.885.885,0,0,1,1.234.213A.885.885,0,0,1-132.234,216.555Zm.235-5.041h0a.886.886,0,0,1,.213-1.234l.9-.638a.885.885,0,0,1,1.234.213h0a.884.884,0,0,1-.214,1.234l-.9.638A.886.886,0,0,1-132,211.514Zm3.924,2.107-.9.638a.885.885,0,0,1-1.234-.213.884.884,0,0,1,.213-1.234l.9-.638a.886.886,0,0,1,1.234.213A.886.886,0,0,1-128.075,213.622Z" transform="translate(174.05 -170.894)"/><g transform="translate(56.381 19.631)"><g transform="translate(0 0)"><path class="f" d="M-100.34,189.206c4.206,0,6.367,1.983,6.367,5.453v.681H-98.06v-.9c0-1.549-.786-2.138-2.162-2.138s-2.161.589-2.161,2.138c0,4.461,8.449,5.3,8.449,11.494,0,3.47-2.2,5.452-6.445,5.452s-6.445-1.983-6.445-5.452V204.6h4.087v1.549c0,1.549.865,2.107,2.241,2.107s2.24-.558,2.24-2.107c0-4.461-8.45-5.3-8.45-11.493C-106.707,191.189-104.545,189.206-100.34,189.206Z" transform="translate(106.824 -189.206)"/></g><g transform="translate(35.406 0)"><path class="f" d="M-51.746,189.206c4.206,0,6.367,1.983,6.367,5.453v.681h-4.087v-.9c0-1.549-.786-2.138-2.162-2.138s-2.162.589-2.162,2.138c0,4.461,8.45,5.3,8.45,11.494,0,3.47-2.2,5.452-6.445,5.452s-6.445-1.983-6.445-5.452V204.6h4.088v1.549c0,1.549.865,2.107,2.24,2.107s2.241-.558,2.241-2.107c0-4.461-8.45-5.3-8.45-11.493C-58.113,191.189-55.951,189.206-51.746,189.206Z" transform="translate(58.231 -189.206)"/></g><g transform="translate(14.942 0.168)"><path class="f" d="M-77.121,204.834l2.948-15.4h6.013v21.686h-4.087V195.571l-2.987,15.552h-4.087l-3.223-15.335v15.335h-3.773V189.437H-80.3Z" transform="translate(86.317 -189.437)"/></g></g><g transform="translate(23.726 24.394)"><path class="a" d="M-125.744,215.721l-9.946,7.015a1,1,0,0,1-1.387-.24L-148.43,206.4a2.547,2.547,0,0,1,.613-3.546l9.947-7.015a1,1,0,0,1,1.387.24l11.352,16.095A2.548,2.548,0,0,1-125.744,215.721Zm-21.946-12.685a2.326,2.326,0,0,0-.56,3.238l11.352,16.095a.776.776,0,0,0,1.079.187l9.947-7.015a2.327,2.327,0,0,0,.56-3.238l-11.352-16.095a.775.775,0,0,0-1.079-.187Z" transform="translate(148.894 -195.658)"/></g></svg>