<svg xmlns="http://www.w3.org/2000/svg" xmlns:xlink="http://www.w3.org/1999/xlink" width="320" height="320" viewBox="0 0 320 320"><defs><style>.a,.j{fill:none;}.a{stroke:#707070;}.b{clip-path:url(#a);}.c{opacity:0.51;}.d{fill:#cae4eb;}.e{fill:#7abed1;}.f{fill:#7fc0d2;}.g{fill:#ff882b;}.h{opacity:0.15;}.i{fill:#ff383f;stroke:#cd6514;}.j{stroke:#dd6100;stroke-miterlimit:10;}.k{opacity:0.5;}.l{fill:#fff79e;}.m{fill:#30b721;}.n{fill:#4bcf3d;}.o{fill:#ececec;}</style><clipPath id="a"><rect class="a" width="320" height="320" transform="translate(890 3754)"/></clipPath></defs><g class="b" transform="translate(-890 -3754)"><g transform="translate(428.469 2866.09)"><g class="c" transform="translate(461.695 1058.743)"><g transform="translate(0.001 0)"><rect class="d" width="69.195" height="102.658" transform="translate(0 65.366) rotate(-70.852)"/></g><g transform="translate(22.695)"><path class="e" d="M594.709,1162.842a7.157,7.157,0,0,1-1.2.556l-3.522,1.428-13.024,5.1-43.2,16.529-.356.136-.2-.324-.493-.781-24.9-39.719-7.454-12.094-1.987-3.313a7.379,7.379,0,0,1-.639-1.189,7.181,7.181,0,0,1,.8,1.088l2.135,3.22,7.705,11.936c6.477,10.2,15.337,24.155,25.128,39.573l.493.781-.559-.187,43.3-16.27,13.129-4.821,3.583-1.266A7.1,7.1,0,0,1,594.709,1162.842Z" transform="translate(-497.728 -1129.169)"/></g><g transform="translate(0 37.449)"><path class="e" d="M461.7,1216.545c-.132-.221,10.273-6.649,23.235-14.356s23.582-13.777,23.713-13.555-10.27,6.648-23.237,14.357S461.828,1216.766,461.7,1216.545Z" transform="translate(-461.695 -1188.628)"/></g><g transform="translate(79.458 47.83)"><path class="e" d="M587.861,1205.11c.244-.083,4.361,11.314,9.2,25.453s8.558,25.673,8.315,25.757-4.36-11.311-9.2-25.455S587.618,1205.193,587.861,1205.11Z" transform="translate(-587.85 -1205.109)"/></g></g><g class="c" transform="translate(674.609 1041.768)"><g transform="translate(0)"><g transform="translate(0 0.001)"><rect class="d" width="97.327" height="65.602" transform="translate(0 16.259) rotate(-9.617)"/></g><path class="e" d="M895.7,1102.219a6.767,6.767,0,0,1-.748,1.012l-2.276,2.794-8.5,10.178-28.36,33.445-.234.275-.317-.176-.766-.425-38.812-21.651-11.713-6.649-3.162-1.847a7,7,0,0,1-1.074-.7,6.987,6.987,0,0,1,1.16.541l3.242,1.7,11.849,6.4,38.938,21.425.765.424-.55.1L883.7,1115.8l8.712-10,2.4-2.686A6.771,6.771,0,0,1,895.7,1102.219Z" transform="translate(-799.739 -1102.218)"/></g><g transform="translate(10.954 36.323)"><path class="e" d="M817.137,1204.505c-.21-.124,5.5-10.213,12.761-22.531s13.313-22.209,13.523-22.085-5.5,10.21-12.762,22.533S817.347,1204.629,817.137,1204.505Z" transform="translate(-817.131 -1159.888)"/></g><g transform="translate(69.001 30.108)"><path class="e" d="M909.295,1150.023c.164-.181,8.786,7.413,19.255,16.958s18.825,17.431,18.661,17.612-8.784-7.411-19.256-16.96S909.13,1150.2,909.295,1150.023Z" transform="translate(-909.292 -1150.02)"/></g></g><g class="c" transform="translate(657.349 938.911)"><g transform="translate(0 0)"><path class="d" d="M0,0H47.234V70.076H0Z" transform="matrix(0.366, -0.931, 0.931, 0.366, 0, 43.958)"/></g><g transform="translate(0 0.61)"><g transform="translate(17.284)"><path class="f" d="M864.994,965.523a4.816,4.816,0,0,1-.837.346l-2.441.877-9.024,3.117-29.92,10.081-.246.083-.13-.226-.314-.546-15.885-27.778-4.75-8.454-1.263-2.315a4.942,4.942,0,0,1-.4-.828,4.989,4.989,0,0,1,.514.765l1.367,2.255,4.925,8.354,16.046,27.685.314.546-.376-.143,29.98-9.9,9.088-2.926,2.479-.765A4.874,4.874,0,0,1,864.994,965.523Z" transform="translate(-799.776 -939.88)"/></g><g transform="translate(0 26.212)"><path class="f" d="M772.336,999.242c-.084-.155,7.19-4.252,16.244-9.15s16.465-8.746,16.548-8.592-7.188,4.251-16.245,9.151S772.419,999.4,772.336,999.242Z" transform="translate(-772.335 -981.496)"/></g><g transform="translate(54.678 34.19)"><path class="f" d="M859.156,994.164c.168-.05,2.662,7.837,5.57,17.614s5.129,17.747,4.96,17.8-2.662-7.835-5.57-17.615S858.988,994.214,859.156,994.164Z" transform="translate(-859.147 -994.164)"/></g></g></g><g transform="translate(546.566 1043.639)"><g transform="translate(0 0)"><path class="g" d="M597.572,1106.268l148.561-1.079,4.141,101-153.829-1.426Z" transform="translate(-596.445 -1105.189)"/></g></g><g transform="translate(547.693 986.029)"><g transform="translate(0)"><path class="g" d="M598.235,1072.41l70.31-56.892a8.074,8.074,0,0,1,10.2.032l68.052,55.781" transform="translate(-598.235 -1013.72)"/></g></g><g class="h" transform="translate(547.693 986.029)"><g transform="translate(0)"><path d="M598.235,1072.41l70.31-56.892a8.074,8.074,0,0,1,10.2.032l68.052,55.781" transform="translate(-598.235 -1013.72)"/></g></g><g transform="translate(546.564 1085.84)"><g transform="translate(0 0)"><path class="i" d="M596.444,1229.567c-.185-.174,11.708-13.159,26.561-29s27.049-28.548,27.235-28.374-11.706,13.156-26.564,29S596.629,1229.741,596.444,1229.567Z" transform="translate(-596.442 -1172.191)"/></g></g><g transform="translate(649.344 1087.198)"><path class="j" d="M810.677,1231.791c-.19.169-11.772-12.554-25.867-28.414s-25.371-28.86-25.182-29.029,11.77,12.552,25.869,28.417S810.867,1231.622,810.677,1231.791Z" transform="translate(-759.626 -1174.346)"/></g><g class="k" transform="translate(547.693 1043.639)"><g transform="translate(0 0)"><path d="M746.8,1105.189l-74.6,59.594-73.961-58.515" transform="translate(-598.235 -1105.189)"/></g></g><g transform="translate(554.837 1002.135)"><g transform="translate(0.106 0.165)"><path class="l" d="M609.977,1087.491l-.232-46.4,130.084-1.538,1.466,48.819-64.846,51.334Z" transform="translate(-609.745 -1039.554)"/></g><path class="l" d="M609.915,1087.394s.421.315,1.22.935l3.529,2.749,13.424,10.5,48.383,37.928H676.3l64.829-51.356-.061.132c-.28-9.314-.574-19.084-.874-29.027-.2-6.693-.4-13.307-.593-19.792l.165.159-130.085,1.48.1-.106c.051,14.6.091,26.191.119,34.139.008,3.973.015,7.035.019,9.108,0,1.033,0,1.818,0,2.351s-.009.8-.009.8-.01-.264-.017-.789-.014-1.312-.025-2.34c-.016-2.071-.041-5.127-.073-9.095-.052-7.956-.127-19.56-.222-34.175v-.1h.105l130.083-1.6.161,0,.005.161c.195,6.484.394,13.1.6,19.792l.87,29.027,0,.082-.064.05-64.863,51.313-.084.066-.083-.065-48.346-38.056-13.366-10.545-3.494-2.769C610.311,1087.721,609.915,1087.394,609.915,1087.394Z" transform="translate(-609.577 -1039.292)"/></g><g transform="translate(575.605 1025.616)"><g transform="translate(0 0)"><path class="g" d="M731.414,1076.618c0,.091-19.894.285-44.429.434s-44.435.2-44.435.106,19.889-.285,44.433-.434S731.414,1076.528,731.414,1076.618Z" transform="translate(-642.55 -1076.573)"/></g></g><g transform="translate(575.605 1038.722)"><g transform="translate(0 0)"><path class="g" d="M731.414,1097.427c0,.091-19.894.285-44.429.434s-44.435.2-44.435.106,19.889-.285,44.433-.434S731.414,1097.336,731.414,1097.427Z" transform="translate(-642.55 -1097.381)"/></g></g><g transform="translate(575.605 1053.828)"><path class="g" d="M731.414,1121.411c0,.091-19.894.285-44.429.433s-44.435.2-44.435.106,19.889-.285,44.433-.433S731.414,1121.32,731.414,1121.411Z" transform="translate(-642.55 -1121.365)"/></g><g transform="translate(579.689 1068.932)"><g transform="translate(0 0)"><path class="g" d="M733.815,1145.393c0,.091-18.979.28-42.387.421s-42.392.184-42.393.093,18.975-.279,42.391-.421S733.814,1145.3,733.815,1145.393Z" transform="translate(-649.035 -1145.345)"/></g></g><g transform="translate(596.539 1082.174)"><g transform="translate(0 0)"><path class="g" d="M727.079,1166.435a3.077,3.077,0,0,1-.521.036l-1.494.04-5.5.091-18.131.26c-7.083.118-13.5.159-18.138.164l-5.5-.013-1.495-.021a3.164,3.164,0,0,1-.521-.03,3.035,3.035,0,0,1,.521-.036l1.494-.041,5.5-.091,18.134-.26c7.081-.118,13.493-.158,18.134-.164l5.5.014,1.495.021A3.084,3.084,0,0,1,727.079,1166.435Z" transform="translate(-675.787 -1166.371)"/></g></g><g transform="translate(612.138 1094.819)"><path class="g" d="M719.5,1186.611c0,.091-4.242.164-9.473.164s-9.474-.073-9.474-.164,4.241-.164,9.474-.164S719.5,1186.521,719.5,1186.611Z" transform="translate(-700.553 -1186.447)"/></g><g transform="translate(659.157 1053.266)"><circle class="m" cx="15.714" cy="15.714" r="15.714" transform="translate(0)"/></g><g transform="translate(655.067 1053.266)"><circle class="n" cx="15.713" cy="15.713" r="15.713"/></g><g transform="translate(667.589 1061.664)"><path class="o" d="M793.783,1133.806v13.064h-2.426v-11.03h-2.763v-2.034Z" transform="translate(-788.594 -1133.806)"/></g></g></g></svg>