<svg xmlns="http://www.w3.org/2000/svg" xmlns:xlink="http://www.w3.org/1999/xlink" width="436" height="486.342" viewBox="0 0 436 486.342"><defs><style>.a{fill:#f9fafb;}.b{opacity:0.51;}.c{fill:#cae4eb;}.d{fill:#7abed1;}.e,.g{fill:#d8d5db;}.e{opacity:0.2;}.f{fill:#7fc0d2;}.g{opacity:0.39;}.h{fill:#2a2963;}.i{fill:#383784;}.j{fill:url(#a);}.k{fill:url(#b);}.l{fill:url(#c);}.m{fill:#232323;}.n{fill:url(#d);}.o{opacity:0.1;}.p{fill:url(#e);}.q{fill:#2c2477;}.r{fill:url(#f);}.s{fill:url(#g);}.t{fill:#fff79e;}.u{fill:#2b2b2b;}.v{opacity:0.64;}.w{fill:#fff;}.x{fill:url(#h);}.y{fill:#ff383f;}.z{fill:#ff4848;}.aa{fill:url(#i);}.ab{fill:#ffb073;}.ac{fill:url(#j);}.ad{fill:url(#k);}.ae{fill:#ff882b;stroke:#ff882b;}.af{fill:#6d6cd1;}.ag{fill:none;stroke:#ff383f;stroke-miterlimit:10;stroke-width:2px;}</style><linearGradient id="a" x1="0.468" y1="0.5" x2="0.748" y2="0.5" gradientUnits="objectBoundingBox"><stop offset="0" stop-color="#ff7e75"/><stop offset="0.287" stop-color="#ff776e"/><stop offset="0.696" stop-color="#ff665b"/><stop offset="1" stop-color="#ff5649"/></linearGradient><linearGradient id="b" y1="0.5" x2="1" y2="0.5" gradientUnits="objectBoundingBox"><stop offset="0" stop-color="#ed1c24"/><stop offset="1" stop-color="#d7004f"/></linearGradient><linearGradient id="c" y1="0.5" x2="1" y2="0.5" gradientUnits="objectBoundingBox"><stop offset="0" stop-color="#fc4148"/><stop offset="1" stop-color="#d7004f"/></linearGradient><linearGradient id="d" x1="0" y1="0.5" x2="1" y2="0.5" xlink:href="#a"/><linearGradient id="e" x1="0.117" y1="0.626" x2="0.973" y2="0.29" xlink:href="#a"/><linearGradient id="f" x1="-1.472" y1="0.5" x2="-0.472" y2="0.5" xlink:href="#a"/><linearGradient id="g" x1="0.524" y1="0.376" x2="0.414" y2="1.292" gradientUnits="objectBoundingBox"><stop offset="0" stop-color="#ff7e75"/><stop offset="1" stop-color="#ff5649"/></linearGradient><linearGradient id="h" x1="0.034" y1="0.84" x2="0.989" y2="-0.07" xlink:href="#b"/><linearGradient id="i" x1="0.55" y1="-4.687" x2="1.502" y2="-4.687" gradientUnits="objectBoundingBox"><stop offset="0" stop-color="#fff79e"/><stop offset="1" stop-color="#ffa466"/></linearGradient><linearGradient id="j" x1="0.521" y1="0.513" x2="0.488" y2="0.915" xlink:href="#a"/><linearGradient id="k" y1="0.5" x2="1" y2="0.5" gradientUnits="objectBoundingBox"><stop offset="0" stop-color="#f35056"/><stop offset="1" stop-color="#d7004f"/></linearGradient></defs><g transform="translate(0 0)"><g transform="translate(0)"><rect class="a" width="486" height="436" rx="16" transform="translate(0 486) rotate(-90)"/></g></g><g transform="translate(6 69)"><g class="b" transform="translate(302.128 171.163)"><g transform="translate(0 0)"><rect class="c" width="23.14" height="34.33" transform="translate(0 21.859) rotate(-70.852)"/><g transform="translate(7.591 0.001)"><path class="d" d="M-809.921,730a2.4,2.4,0,0,1-.4.186l-1.178.478-4.355,1.705L-830.3,737.9l-.119.045-.067-.108-.165-.261-8.327-13.283-2.493-4.044-.664-1.108a2.449,2.449,0,0,1-.214-.4,2.408,2.408,0,0,1,.268.364l.714,1.077,2.577,3.992,8.4,13.234.165.261-.187-.062,14.48-5.441,4.391-1.612,1.2-.423A2.4,2.4,0,0,1-809.921,730Z" transform="translate(842.351 -718.741)"/></g><g transform="translate(0.001 12.524)"><path class="d" d="M-865.048,765.523c-.044-.074,3.435-2.224,7.77-4.8s7.886-4.607,7.93-4.533-3.434,2.223-7.771,4.8S-865,765.6-865.048,765.523Z" transform="translate(865.048 -756.187)"/></g><g transform="translate(26.571 15.995)"><path class="d" d="M-785.591,766.569c.082-.028,1.458,3.784,3.077,8.512s2.862,8.585,2.781,8.614-1.458-3.783-3.077-8.513S-785.672,766.6-785.591,766.569Z" transform="translate(785.594 -766.568)"/></g></g></g><g class="b" transform="translate(41.257 148.432)"><g transform="translate(0 0)"><g transform="translate(0)"><rect class="c" width="32.547" height="21.938" transform="matrix(0.986, -0.167, 0.167, 0.986, 0, 5.437)"/></g><g transform="translate(0 0)"><path class="d" d="M-1613.048,650.764a2.251,2.251,0,0,1-.25.338l-.761.934-2.843,3.4-9.484,11.184-.078.092-.106-.059-.256-.142-12.979-7.24-3.917-2.224-1.057-.618a2.326,2.326,0,0,1-.359-.234,2.344,2.344,0,0,1,.388.181l1.084.569,3.963,2.14,13.021,7.165.256.142-.184.033,9.55-11.124,2.914-3.344.8-.9A2.278,2.278,0,0,1-1613.048,650.764Z" transform="translate(1645.139 -650.764)"/></g></g><g transform="translate(3.664 12.147)"><path class="d" d="M-1634.182,702.006c-.07-.041,1.839-3.415,4.267-7.535s4.452-7.427,4.522-7.385-1.839,3.414-4.268,7.535S-1634.111,702.048-1634.182,702.006Z" transform="translate(1634.183 -687.086)"/></g><g transform="translate(23.075 10.068)"><path class="d" d="M-1576.135,680.872c.055-.061,2.938,2.479,6.439,5.671s6.3,5.829,6.24,5.89-2.937-2.478-6.439-5.672S-1576.191,680.931-1576.135,680.872Z" transform="translate(1576.136 -680.871)"/></g></g><g transform="translate(0)"><path class="e" d="M-1640.54,585.332c-3.217.13-5.832.194-8.223.194h-.01a.493.493,0,0,0-.481.508.489.489,0,0,0,.491.472c2.415,0,4.963-.06,8.263-.2h.013a.491.491,0,0,0,.478-.508A.591.591,0,0,0-1640.54,585.332Zm-16.41.08c-2.833-.077-5.708-.244-8.183-.391a.809.809,0,0,0-.09,0h-.01a.456.456,0,0,0-.475.431.557.557,0,0,0,.492.548c2.635.157,5.438.311,8.227.391v0a.507.507,0,0,0,.512-.451A.5.5,0,0,0-1656.95,585.412Zm32.859-1.224a.555.555,0,0,0-.077.007c-2.846.281-5.6.518-8.186.706h-.01a.493.493,0,0,0-.482.508.525.525,0,0,0,.532.468h.04c2.589-.187,5.341-.421,8.187-.706a.563.563,0,0,0,.491-.548A.5.5,0,0,0-1624.09,584.188Zm-48.871.237a.53.53,0,0,0-.354-.194c-2.491-.251-5.14-.612-8.1-1.1a.655.655,0,0,0-.083,0,.535.535,0,0,0-.532.4.458.458,0,0,0,.09.351.55.55,0,0,0,.358.2c2.913.515,5.882.876,8.143,1.134h.083l0,0a.528.528,0,0,0,.274-.094A.477.477,0,0,0-1672.961,584.425Zm65.655-1.916a.468.468,0,0,0-.488-.391.819.819,0,0,0-.087.007c-.96.134-1.91.268-2.829.4h-.01c-1.829.257-3.558.5-5.3.736a.52.52,0,0,0-.358.194.449.449,0,0,0-.094.348.562.562,0,0,0,.532.435h.043c2.568-.341,5.321-.736,8.183-1.177A.5.5,0,0,0-1607.306,582.509Zm-82.135-.933c-2.518-.545-5.187-1.2-7.939-1.953a.605.605,0,0,0-.174-.023.479.479,0,0,0-.482.334.484.484,0,0,0,.047.385.521.521,0,0,0,.321.234c2.558.682,5.063,1.341,7.615,1.923.053.013.107.023.164.033a1.074,1.074,0,0,1,.2.044h.124a.478.478,0,0,0,.211-.06l.037-.013.04-.04c.124-.043.167-.16.2-.278A.553.553,0,0,0-1689.441,581.576Zm98.3-2.037a.534.534,0,0,0-.485-.368.438.438,0,0,0-.13.017c-2.458.5-5.327,1.08-7.979,1.565h-.08a.17.17,0,0,0-.043.007.459.459,0,0,0-.368.542.529.529,0,0,0,.535.385h.08c1.869-.318,3.755-.669,5.6-1.05.8-.154,1.622-.311,2.458-.508h.007A.5.5,0,0,0-1591.144,579.54Zm15.43-4.076a.736.736,0,0,0-.083,0c-.943.244-1.836.472-2.692.686-1.9.478-3.608.893-5.247,1.271a.505.505,0,0,0-.378.465.508.508,0,0,0,.5.515v0a.167.167,0,0,0,.124-.04c1.592-.368,3.187-.752,4.755-1.137.746-.177,1.488-.358,2.22-.538l1-.244a.569.569,0,0,0,.368-.625A.6.6,0,0,0-1575.714,575.463Zm-129.444,1.649c-.97-.338-1.813-.649-2.659-.98-1.736-.645-3.4-1.381-4.869-2.03a.522.522,0,0,0-.211-.047.56.56,0,0,0-.488.277.471.471,0,0,0-.017.375.513.513,0,0,0,.264.291c1.609.736,3.317,1.408,4.973,2.057l.348.137c.655.281,1.361.532,2.04.772l.251.09h.2a.506.506,0,0,0,.5-.341A.479.479,0,0,0-1705.159,577.112Zm145.266-6.04a.71.71,0,0,0-.147.017c-.227.067-.451.141-.686.217-.308.1-.625.2-.953.291l-1.184.351-.04.01c-1.615.478-3.287.97-4.953,1.438l-.037.01a.47.47,0,0,0-.334.582.506.506,0,0,0,.492.348h.164v0l.936-.268.114-.033c1.682-.478,3.418-.97,5.046-1.461.268-.077.528-.157.779-.234h.007c.334-.1.652-.2.977-.3a.494.494,0,0,0,.358-.492A.506.506,0,0,0-1559.893,571.072Zm-159.819-.264a.487.487,0,0,0-.264-.3l-.284-.2c-2.287-1.251-4.515-2.592-6.631-3.99a.391.391,0,0,0-.251-.077.556.556,0,0,0-.445.234.381.381,0,0,0-.08.3.551.551,0,0,0,.207.368c2.3,1.478,4.548,2.832,6.668,4.03l.328.194a.625.625,0,0,0,.248.037.478.478,0,0,0,.448-.231A.422.422,0,0,0-1719.712,570.808Zm175.878-4.488a.534.534,0,0,0-.478-.321.331.331,0,0,0-.177.043c-.575.2-1.157.4-1.736.6-1.278.435-2.555.863-3.806,1.281h-.007l-.037.013q-1.089.361-2.15.722a.489.489,0,0,0-.3.234.441.441,0,0,0-.05.207.507.507,0,0,0,.512.5.387.387,0,0,0,.164-.034c1.809-.575,3.642-1.2,5.448-1.829q.838-.286,1.672-.579l.615-.214a.062.062,0,0,1,.023-.007A.479.479,0,0,0-1543.834,566.32Zm15.306-5.755a.513.513,0,0,0-.458-.321.451.451,0,0,0-.2.047l-.318.127c-2.391.936-4.866,1.906-7.334,2.809a.546.546,0,0,0-.288.665.537.537,0,0,0,.492.311.217.217,0,0,0,.067-.013.472.472,0,0,1,.137-.023c2.769-1.05,5.521-2.144,7.611-2.976a.515.515,0,0,0,.308-.294A.408.408,0,0,0-1528.528,560.565Zm-204.908,1.09c-.88-.652-1.829-1.4-2.742-2.15-.592-.488-1.171-.993-1.736-1.491l0,0c-.288-.254-.572-.5-.853-.756s-.535-.482-.806-.719l0,0a.537.537,0,0,0-.732,0s0,.007-.007.007a.48.48,0,0,0,.007.7c.3.271.592.528.873.773l0,0c1.187,1.053,2.207,1.909,3.217,2.709l.194.164c.625.522,1.267,1.06,1.933,1.555a.468.468,0,0,0,.328.12.568.568,0,0,0,.411-.2A.536.536,0,0,0-1733.437,561.655Zm219.967-7.508a.487.487,0,0,0-.458-.288.529.529,0,0,0-.237.057c-.548.244-1.1.488-1.662.739-1.846.823-3.752,1.675-5.825,2.545a.421.421,0,0,0-.254.241.443.443,0,0,0,.007.385.469.469,0,0,0,.137.184l0,0a.518.518,0,0,0,.311.127.289.289,0,0,0,.2-.084l.1-.044s0,0,.007,0c2.391-1,4.943-2.09,7.421-3.237a.517.517,0,0,0,.267-.284A.418.418,0,0,0-1513.47,554.148Zm-231.671-3.13a.212.212,0,0,0-.084-.157c-1.395-1.521-2.739-3.1-4.006-4.715l0,0c-.361-.462-.716-.92-1.063-1.385a.493.493,0,0,0-.415-.211.591.591,0,0,0-.321.094.472.472,0,0,0-.084.666c.2.277.411.552.625.836l0,0c1.167,1.542,2.495,3.143,4.036,4.872a2.532,2.532,0,0,1,.221.247,2.816,2.816,0,0,0,.231.261.621.621,0,0,0,.368.157.675.675,0,0,0,.368-.117A.481.481,0,0,0-1745.141,551.018Zm246.369-3.946a.505.505,0,0,0-.455-.247.513.513,0,0,0-.244.054c-2.615,1.354-5.411,2.7-7.287,3.6a.422.422,0,0,0-.244.545c-.027.02-.02.05-.01.077a.089.089,0,0,1,.01.04.563.563,0,0,0,.448.274.5.5,0,0,0,.211-.064l.04-.017a3.287,3.287,0,0,1,.328-.157,2.875,2.875,0,0,0,.324-.154c1.99-.913,3.929-1.9,5.806-2.846l.057-.027.809-.411A.5.5,0,0,0-1498.772,547.071Zm14.32-7.708a.5.5,0,0,0-.455-.254.54.54,0,0,0-.241.054c-.217.114-.421.237-.639.365s-.441.261-.672.381c-1.726,1.006-3.628,2.057-5.812,3.21a.424.424,0,0,0-.231.271.473.473,0,0,0,.067.395.483.483,0,0,0,.451.231.685.685,0,0,0,.248-.037l.17-.094c2.314-1.277,4.705-2.6,6.952-3.859l.037-.037c.027-.027.053-.053.084-.08A.4.4,0,0,0-1484.453,539.363Zm-270.266-1.18a67.224,67.224,0,0,1-3.766-6.919.547.547,0,0,0-.485-.281.44.44,0,0,0-.208.047.5.5,0,0,0-.247.666c1.284,2.628,2.528,4.919,3.806,7a.476.476,0,0,0,.451.234.622.622,0,0,0,.241-.08h0A.489.489,0,0,0-1754.719,538.183Zm284.218-7.113a.142.142,0,0,0-.02-.063.148.148,0,0,1-.02-.054.536.536,0,0,0-.442-.224.514.514,0,0,0-.254.067,1.621,1.621,0,0,0-.231.14,1.84,1.84,0,0,1-.221.134c-1.144.739-2.364,1.522-3.558,2.227-.7.465-1.431.916-2.134,1.351l-.03.017c-.237.144-.468.291-.7.435a.431.431,0,0,0-.231.271.466.466,0,0,0,.07.391.459.459,0,0,0,.408.237.9.9,0,0,0,.284-.077c1.7-1.023,2.993-1.833,4.217-2.625.866-.525,1.789-1.083,2.7-1.679A.47.47,0,0,0-1470.5,531.07Zm13.343-9.23a.5.5,0,0,0-.415-.214.472.472,0,0,0-.281.094c-2.214,1.6-4.495,3.184-6.628,4.658a.211.211,0,0,0-.037.023.447.447,0,0,0-.087.642.568.568,0,0,0,.408.191.553.553,0,0,0,.328-.074c2.388-1.652,4.535-3.143,6.631-4.662a.441.441,0,0,0,.211-.328A.4.4,0,0,0-1457.158,521.84Zm-304.433,2.187c-.839-2.261-1.618-4.705-2.374-7.471a.525.525,0,0,0-.5-.375.546.546,0,0,0-.151.02.555.555,0,0,0-.368.585c.762,2.679,1.589,5.22,2.454,7.551a.483.483,0,0,0,.492.355.317.317,0,0,0,.164-.044.48.48,0,0,0,.288-.247A.457.457,0,0,0-1761.591,524.027Zm317.244-12.129a.594.594,0,0,0-.739-.037c-2.127,1.746-4.127,3.347-6.1,4.892l0,0-.194.15a.478.478,0,0,0-.181.324.467.467,0,0,0,.1.341.579.579,0,0,0,.411.194.551.551,0,0,0,.328-.117l.686-.525c1.782-1.371,3.628-2.856,5.615-4.518A.491.491,0,0,0-1444.347,511.9Zm-321.378-2.97c-.545-3.083-.9-5.484-1.147-7.788a.467.467,0,0,0-.465-.431.446.446,0,0,0-.067,0,.549.549,0,0,0-.348.184.456.456,0,0,0-.1.365c.287,2.679.662,5.31,1.107,7.825a.525.525,0,0,0,.532.388h.08a.463.463,0,0,0,.318-.171A.5.5,0,0,0-1765.724,508.928Zm333.41-7.708a.047.047,0,0,1-.013-.01.532.532,0,0,0-.726.01c-.675.645-1.381,1.311-2.127,2.006-1.154,1.07-2.4,2.207-3.766,3.431a.459.459,0,0,0-.174.331.425.425,0,0,0,.134.338.46.46,0,0,0,.368.154v0a.649.649,0,0,0,.368-.117c1.15-1.037,2.2-1.983,3.17-2.883.99-.91,1.9-1.762,2.766-2.592a.473.473,0,0,0,.151-.371A.4.4,0,0,0-1432.314,501.22Zm11.089-11.617a.471.471,0,0,0-.328-.13.606.606,0,0,0-.411.174c-1.542,1.8-3.361,3.786-5.4,5.906a.423.423,0,0,0-.134.314.54.54,0,0,0,.177.385.46.46,0,0,0,.324.12v0a.545.545,0,0,0,.368-.15c1.913-1.983,3.759-3.986,5.484-5.949A.47.47,0,0,0-1421.225,489.6Zm-346.261-.592c0-1.137,0-2.311.043-3.485v-.01a.5.5,0,0,0-.492-.5h-.01a.493.493,0,0,0-.522.468c-.043,1.174-.043,2.371-.043,3.525,0,1.465.043,2.913.084,4.314v.07a.521.521,0,0,0,.491.468h.04a.526.526,0,0,0,.492-.512v-.01C-1767.443,492-1767.486,490.486-1767.486,489.011Zm356.367-11.7a.373.373,0,0,0-.2-.234.572.572,0,0,0-.3-.094.477.477,0,0,0-.391.207c-1.1,1.528-2.308,3.154-3.625,4.846,0,0,0,0,0,.007q-.567.737-1.16,1.485a.464.464,0,0,0-.114.361.509.509,0,0,0,.2.348.8.8,0,0,0,.328.08.507.507,0,0,0,.408-.2c.161-.2.318-.4.472-.6l0,0c1.649-2.113,3.067-4.006,4.314-5.775A.525.525,0,0,0-1411.12,477.313Zm-355.1-7.8a.461.461,0,0,0-.328-.147.6.6,0,0,0-.134-.013.44.44,0,0,0-.441.411c-.324,2.371-.622,4.943-.9,7.862v.01a.494.494,0,0,0,.492.5h.04a.481.481,0,0,0,.495-.435c.288-3.013.572-5.488.9-7.782A.5.5,0,0,0-1766.216,469.515Zm363.547-5.675a.5.5,0,0,0-.264-.291.615.615,0,0,0-.7.234c-1.171,2.2-2.5,4.488-3.969,6.805a.459.459,0,0,0-.074.365.527.527,0,0,0,.237.341.6.6,0,0,0,.244.037v-.007a.466.466,0,0,0,.452-.224c1.418-2.221,2.782-4.541,4.053-6.886A.471.471,0,0,0-1402.669,463.84Zm-360.925-9.962a.646.646,0,0,0-.083-.007.545.545,0,0,0-.535.4l-.037.167c-.548,2.481-1.117,5.046-1.6,7.541a.552.552,0,0,0,.408.585h.124a.486.486,0,0,0,.495-.391c.578-2.99,1.1-5.438,1.635-7.708A.518.518,0,0,0-1763.594,453.877Zm367.129-4.769a.788.788,0,0,0-.177-.027.479.479,0,0,0-.478.338c-.819,2.277-1.826,4.725-2.986,7.277a.467.467,0,0,0-.013.385.534.534,0,0,0,.3.281.53.53,0,0,1,.07.013.476.476,0,0,0,.134.027.52.52,0,0,0,.452-.314c1.224-2.732,2.2-5.137,2.986-7.354A.478.478,0,0,0-1396.465,449.109ZM-1759.34,438.7a.446.446,0,0,0-.134-.02.518.518,0,0,0-.481.368c-.87,2.665-1.635,5.207-2.291,7.554a.5.5,0,0,0,.368.582c.04.04.08.04.164.04a.566.566,0,0,0,.492-.348c.592-2.271,1.328-4.739,2.251-7.551,0,0,0-.007,0-.007A.5.5,0,0,0-1759.34,438.7Zm367.513-4.565a.439.439,0,0,0-.3-.171.531.531,0,0,0-.127-.017.539.539,0,0,0-.488.364c-.6,2.645-1.348,5.344-2,7.635a.51.51,0,0,0,.368.585.215.215,0,0,1,.06.02.2.2,0,0,0,.063.02.479.479,0,0,0,.488-.391c.762-2.628,1.451-5.2,2.047-7.631A.532.532,0,0,0-1391.827,434.137Zm-361.908-10.089a.418.418,0,0,0-.244-.214.678.678,0,0,0-.184-.027.482.482,0,0,0-.472.3c-1.013,2.542-1.95,5.04-2.782,7.431a.49.49,0,0,0,.284.629h.164a.494.494,0,0,0,.491-.314c.93-2.542,1.866-5.026,2.782-7.394A.52.52,0,0,0-1753.735,424.048Zm364.554-5.578a.414.414,0,0,0-.064,0,.536.536,0,0,0-.508.435c-.257,1.816-.569,3.7-.953,5.829q-.17.923-.358,1.916a.523.523,0,0,0,.408.592h.084a.562.562,0,0,0,.532-.4c.05-.264.1-.528.147-.786.472-2.572.853-4.862,1.164-7A.563.563,0,0,0-1389.182,418.47Zm-358.28-8.912a.533.533,0,0,0-.3-.274.446.446,0,0,0-.2-.043.511.511,0,0,0-.458.311c-1.057,2.287-2.18,4.749-3.234,7.243a.519.519,0,0,0,.037.4.453.453,0,0,0,.251.221.389.389,0,0,0,.2.037.477.477,0,0,0,.452-.308c1.12-2.622,2.317-5.224,3.234-7.2A.5.5,0,0,0-1747.462,409.558Zm360.123-6.5a.63.63,0,0,0-.408-.227.591.591,0,0,0-.532.472c-.141,2.963-.314,5.521-.535,7.822a.458.458,0,0,0,.1.351.518.518,0,0,0,.354.194h.043a.479.479,0,0,0,.488-.468c.247-2.237.425-4.662.575-7.865A.358.358,0,0,0-1387.339,403.057Zm-353.341-7.976a.567.567,0,0,0-.244-.057.5.5,0,0,0-.451.251c-1.5,2.869-2.612,5.05-3.6,7.079a.488.488,0,0,0,.244.662.344.344,0,0,0,.208.043.433.433,0,0,0,.448-.274c1.277-2.528,2.5-4.9,3.642-7.039A.491.491,0,0,0-1740.68,395.081Zm353.421-7.477a.505.505,0,0,0-.515-.451.505.505,0,0,0-.508.495c.137,2.9.2,5.458.2,7.825a.521.521,0,0,0,.491.508.526.526,0,0,0,.532-.508C-1387.055,393.081-1387.119,390.506-1387.259,387.6Zm-345.642-6.411a.553.553,0,0,0-.244-.054.5.5,0,0,0-.452.247c-1.334,2.21-2.592,4.461-3.809,6.638l-.164.288a.471.471,0,0,0-.033.368.449.449,0,0,0,.237.258h.007a.6.6,0,0,0,.241.08v0a.478.478,0,0,0,.455-.271l.742-1.314c1.037-1.823,2.1-3.712,3.227-5.571A.5.5,0,0,0-1732.9,381.193Zm345.071-1.448c-.247-2.615-.575-5.264-.983-7.862a.458.458,0,0,0-.445-.408.4.4,0,0,0-.127.017.475.475,0,0,0-.321.174.487.487,0,0,0-.09.368c.408,2.859.715,5.4.943,7.792a.49.49,0,0,0,.532.428h.04a.46.46,0,0,0,.344-.147A.447.447,0,0,0-1387.831,379.745ZM-1724.514,367.7a.4.4,0,0,0-.251-.077.547.547,0,0,0-.445.234c-1.444,2.244-2.856,4.444-4.257,6.728a.423.423,0,0,0-.07.361.543.543,0,0,0,.234.3.567.567,0,0,0,.244.077.473.473,0,0,0,.451-.234c1.391-2.264,2.849-4.535,4.257-6.725v0a.225.225,0,0,1,.023-.037A.451.451,0,0,0-1724.514,367.7Zm334.349-3.6a.965.965,0,0,0-.02-.137.914.914,0,0,1-.02-.137h-.04c-.428-2.324-.983-4.6-1.575-7.009l-.1-.428a.451.451,0,0,0-.465-.368.537.537,0,0,0-.147.02.469.469,0,0,0-.308.207.455.455,0,0,0-.063.381c.552,2.137,1.087,4.478,1.639,7.16.023.08.043.177.063.264s.04.171.06.244a.482.482,0,0,0,.488.391h.084A.524.524,0,0,0-1390.165,364.094Zm-325.143-9.818a.475.475,0,0,0-.284-.094.5.5,0,0,0-.411.211l-.2.274-.645.916-.01.013,0,.007c-1.291,1.829-2.622,3.722-3.883,5.595h0a.494.494,0,0,0,.124.706.856.856,0,0,0,.288.08.456.456,0,0,0,.408-.234l.12-.174.007-.01c1.448-2.1,2.946-4.264,4.458-6.351l.2-.274A.493.493,0,0,0-1715.308,354.276Zm321.257-5.515c-.161-.572-.354-1.137-.575-1.762-.649-2.07-1.338-4.066-1.923-5.752a.506.506,0,0,0-.5-.334.511.511,0,0,0-.157.023.508.508,0,0,0-.324.625c.772,2.137,1.515,4.347,2.207,6.571.043.157.094.308.144.451s.1.294.144.448a.521.521,0,0,0,.492.355h.164A.508.508,0,0,0-1394.051,348.761Zm-311.8-7.357a.59.59,0,0,0-.318-.094.5.5,0,0,0-.418.211c-.635.866-1.294,1.749-1.926,2.6-.923,1.237-1.876,2.521-2.823,3.816a.406.406,0,0,0-.077.348.034.034,0,0,0,.007.017v0a.52.52,0,0,0,.194.3.457.457,0,0,0,.184.07h0a.4.4,0,0,0,.14.007.5.5,0,0,0,.408-.194c1.478-2.047,3.077-4.2,4.749-6.417A.477.477,0,0,0-1705.854,341.4Zm9.741-12.674a.575.575,0,0,0-.321-.1.622.622,0,0,0-.418.174c-1.572,1.99-3.224,4.123-4.909,6.337a.4.4,0,0,0-.077.348.54.54,0,0,0,.2.318.426.426,0,0,0,.284.117.587.587,0,0,0,.451-.234q1.059-1.4,2.211-2.893c.856-1.107,1.742-2.247,2.659-3.4a.454.454,0,0,0,.1-.348A.473.473,0,0,0-1696.113,328.73Zm296.658,5.123c-.244-.585-.535-1.224-.816-1.839-.124-.311-.288-.669-.451-1.017-.672-1.582-1.425-3.174-2.007-4.381a.524.524,0,0,0-.468-.281.6.6,0,0,0-.227.047.509.509,0,0,0-.261.274.416.416,0,0,0,.017.351c.5,1.033.987,2.043,1.431,3.053.3.609.592,1.267.859,1.953a19.491,19.491,0,0,1,.859,1.956l.037.07.023.043.063.124a.474.474,0,0,0,.452.311.362.362,0,0,0,.2-.04.475.475,0,0,0,.328-.508A.148.148,0,0,0-1399.455,333.853Zm-286.552-17.57a.614.614,0,0,0-.314-.09.6.6,0,0,0-.421.174c-1.114,1.3-2.21,2.655-3.267,3.966-.535.659-1.087,1.341-1.642,2.02a.39.39,0,0,1-.083.1.426.426,0,0,0-.08.1.487.487,0,0,0-.127.391.435.435,0,0,0,.077.191.419.419,0,0,0,.131.124.452.452,0,0,0,.287.117.487.487,0,0,0,.328-.117l.08-.077a.483.483,0,0,0,.037-.047c1.883-2.311,3.494-4.26,5.08-6.136A.532.532,0,0,0-1686.007,316.283Zm279.68,3.254c-.181-.321-.365-.652-.515-.92-.351-.625-.682-1.214-1.04-1.819-.722-1.314-1.528-2.669-2.455-4.147a.493.493,0,0,0-.451-.251.62.62,0,0,0-.247.053.534.534,0,0,0-.241.324.443.443,0,0,0,.077.341c.662,1.083,1.284,2.167,1.946,3.314.194.341.391.686.592,1.03.137.247.281.5.418.756l.024.037c.314.572.642,1.16.95,1.749a.564.564,0,0,0,.451.234.53.53,0,0,0,.248-.04.542.542,0,0,0,.264-.294A.47.47,0,0,0-1406.327,319.537ZM-1675.486,304.2a.584.584,0,0,0-.321-.1.623.623,0,0,0-.418.174l-.368.408c-1.629,1.813-3.314,3.685-4.953,5.578a.571.571,0,0,0-.1.438.425.425,0,0,0,.187.268.481.481,0,0,0,.328.117.5.5,0,0,0,.368-.2c1.635-1.893,3.321-3.765,4.953-5.578l.368-.408A.517.517,0,0,0-1675.486,304.2Zm260.809,1.722c-1.3-1.93-2.722-3.933-4.625-6.494a.51.51,0,0,0-.418-.214.591.591,0,0,0-.318.1.521.521,0,0,0-.124.7c1.532,2.026,3.157,4.214,4.665,6.454a.514.514,0,0,0,.408.2h0a.508.508,0,0,0,.488-.324A.5.5,0,0,0-1414.677,305.923Zm-249.84-13.42a.582.582,0,0,0-.344-.114.473.473,0,0,0-.354.151q-1.053,1.053-2.1,2.14v0c-.211.217-.415.435-.625.652-.957,1-1.9,2.006-2.836,3l0,0a.479.479,0,0,0,.043.7.474.474,0,0,0,.328.12.454.454,0,0,0,.368-.157q1.705-1.811,3.484-3.652c.214-.221.428-.445.645-.669.478-.492.956-.98,1.438-1.471l0,0A.479.479,0,0,0-1664.517,292.5Zm240.222.665c-1.6-1.93-3.337-3.913-5.32-6.063a.454.454,0,0,0-.354-.154.566.566,0,0,0-.341.114.468.468,0,0,0-.187.348.451.451,0,0,0,.147.354c2,2.184,3.715,4.14,5.237,5.986a.583.583,0,0,0,.411.2.575.575,0,0,0,.328-.117.472.472,0,0,0,.177-.318A.451.451,0,0,0-1424.3,293.169ZM-1652.98,281.31l-.03-.03a.487.487,0,0,0-.665.03c-1.217,1.117-2.5,2.324-3.956,3.722-.214.2-.428.411-.649.622-.4.391-.816.793-1.247,1.211a.491.491,0,0,0-.15.378.391.391,0,0,0,.15.291.406.406,0,0,0,.368.157.519.519,0,0,0,.368-.161c.679-.662,1.328-1.291,1.953-1.889.211-.2.418-.4.622-.6,1.154-1.1,2.227-2.107,3.237-3.033,0,0,0,0,0,0A.476.476,0,0,0-1652.98,281.31Zm217.8.043c-1.719-1.679-3.759-3.645-5.892-5.518a0,0,0,0,1,0,0,.538.538,0,0,0-.736,0,.522.522,0,0,0,.044.706c2.14,1.876,4.25,3.913,5.852,5.478a.528.528,0,0,0,.368.154.376.376,0,0,0,.328-.154.52.52,0,0,0,.157-.368A.413.413,0,0,0-1435.18,281.354Zm-205.607-10.6a.607.607,0,0,0-.408-.167.479.479,0,0,0-.331.13c-1.448,1.194-2.946,2.428-4.377,3.679-.157.12-.311.247-.462.378q-.291.251-.562.522c-.073.06-.151.117-.231.181a5.316,5.316,0,0,0-.542.445.514.514,0,0,0-.04.7.74.74,0,0,0,.408.157.473.473,0,0,0,.324-.117l.886-.769.465-.4.816-.716.659-.575c1.017-.87,2.046-1.709,3.043-2.518l.271-.221A.531.531,0,0,0-1640.787,270.749Zm193.575-.157c-2.053-1.689-4.19-3.314-6.384-4.966a.608.608,0,0,0-.331-.1.522.522,0,0,0-.4.174.513.513,0,0,0,.08.7c2.254,1.629,4.491,3.408,6.384,4.933a.488.488,0,0,0,.328.117.5.5,0,0,0,.368-.194.425.425,0,0,0,.134-.338A.459.459,0,0,0-1447.213,270.592Zm-180.72-9.624a.545.545,0,0,0-.408-.191.41.41,0,0,0-.288.114c-1.809,1.237-3.578,2.558-5.448,3.953l-.1.077-1,.742a.525.525,0,0,0-.084.706.6.6,0,0,0,.411.2.577.577,0,0,0,.328-.12c2.324-1.8,4.454-3.364,6.508-4.772A.517.517,0,0,0-1627.933,260.968Zm167.665,0c-2.1-1.425-4.347-2.856-6.875-4.381a.515.515,0,0,0-.254-.067.537.537,0,0,0-.441.221.457.457,0,0,0-.067.388.434.434,0,0,0,.231.278c2.321,1.425,4.4,2.746,6.34,4.02.167.107.331.217.5.324a.413.413,0,0,0,.288.077.419.419,0,0,0,.408-.194l0,0,.02-.03A.444.444,0,0,0-1460.268,260.971Zm-154-8.765a.621.621,0,0,0-.468-.211.448.448,0,0,0-.228.053c-2.752,1.615-4.963,2.97-6.956,4.264,0,0-.007,0-.007.007a.485.485,0,0,0-.117.7.518.518,0,0,0,.408.2.608.608,0,0,0,.288-.08c2.361-1.535,4.625-2.916,6.916-4.224A.533.533,0,0,0-1614.265,252.206Zm140.32.629a.447.447,0,0,0-.234-.278c-2.18-1.164-4.755-2.525-7.283-3.759a.491.491,0,0,0-.207-.043.524.524,0,0,0-.495.284.487.487,0,0,0,.251.659c2.91,1.421,5.133,2.555,7.2,3.682a.3.3,0,0,0,.247.077.468.468,0,0,0,.452-.234A.459.459,0,0,0-1473.946,252.835Zm-125.873-8.063a.474.474,0,0,0-.442-.288.718.718,0,0,0-.254.054c-2.5,1.134-4.97,2.334-7.327,3.561a.5.5,0,0,0-.2.665.475.475,0,0,0,.452.271.565.565,0,0,0,.244-.077c2.492-1.291,4.973-2.475,7.287-3.561a.52.52,0,0,0,.267-.291A.417.417,0,0,0-1599.818,244.772Zm110.908.625c-2.261-.956-4.926-2.073-7.571-3.09a.555.555,0,0,0-.164-.023.566.566,0,0,0-.2.03.5.5,0,0,0-.311.652.53.53,0,0,0,.3.281c2.769,1.027,5.478,2.17,7.531,3.053a.384.384,0,0,0,.2.037.567.567,0,0,0,.491-.274c.007-.01.01-.023.017-.037A.485.485,0,0,0-1488.911,245.4Zm-95.686-6.488a.465.465,0,0,0-.458-.338.464.464,0,0,0-.154.023c-2.408.766-5.009,1.689-7.735,2.739a.534.534,0,0,0-.308.294.388.388,0,0,0,.02.328.526.526,0,0,0,.451.314.329.329,0,0,0,.2-.037c2.886-1.114,5.4-2.01,7.695-2.739a.49.49,0,0,0,.294-.264A.362.362,0,0,0-1584.6,238.91Zm80.376.659c-2.605-.856-5.25-1.642-7.859-2.348a.539.539,0,0,0-.147-.02.523.523,0,0,0-.5.375.4.4,0,0,0,.033.331.539.539,0,0,0,.334.254c2.906.8,5.461,1.565,7.815,2.348h.164a.538.538,0,0,0,.492-.311l.01-.03A.477.477,0,0,0-1504.22,239.569Zm-64.455-4.655a.587.587,0,0,0-.542-.395.543.543,0,0,0-.074,0c-2.5.465-4.765.963-6.9,1.508h0c-.378.094-.749.191-1.117.291a.446.446,0,0,0-.314.191.479.479,0,0,0-.057.4.492.492,0,0,0,.492.351h.124c.144-.037.288-.074.431-.107h0c2.418-.605,4.953-1.16,7.544-1.652A.531.531,0,0,0-1568.675,234.914Zm48.577.388c-3.083-.625-5.729-1.1-8.1-1.448a.565.565,0,0,0-.074,0,.549.549,0,0,0-.542.395.513.513,0,0,0,.107.391.524.524,0,0,0,.344.2c2.7.395,5.408.869,8.063,1.408a.124.124,0,0,0,.08.04.563.563,0,0,0,.532-.395A.524.524,0,0,0-1520.1,235.3Zm-32.291-2.231a.515.515,0,0,0-.492-.465h-.04c-2.809.157-5.578.4-8.227.706a.529.529,0,0,0-.354.2.439.439,0,0,0-.094.348.525.525,0,0,0,.532.431h.04c2.672-.314,5.424-.548,8.183-.7a.488.488,0,0,0,.338-.157A.43.43,0,0,0-1552.389,233.071Zm15.961-.15c-2.856-.251-5.625-.395-8.226-.431h-.007a.5.5,0,0,0-.525.468v.01a.494.494,0,0,0,.492.5c2.6.04,5.274.181,8.186.431h.04a.526.526,0,0,0,.532-.468v-.01A.494.494,0,0,0-1536.427,232.921Z" transform="translate(1768.51 -223.933)"/><g class="b" transform="translate(189.299 -15)"><path class="c" d="M-1202.447,226.686l7.776-19.781,29.347,11.537-7.777,19.781Z" transform="translate(1202.447 -206.905)"/><g transform="translate(0 0.282)"><g transform="translate(7.778)"><path class="f" d="M-1149.854,219.283a2.159,2.159,0,0,1-.376.156l-1.1.395-4.059,1.4-13.459,4.535-.111.037-.058-.1-.141-.245-7.146-12.5-2.137-3.8-.568-1.041a2.183,2.183,0,0,1-.18-.373,2.215,2.215,0,0,1,.231.344l.615,1.014,2.216,3.758,7.218,12.454.141.245-.169-.064,13.486-4.453,4.088-1.316,1.115-.344A2.18,2.18,0,0,1-1149.854,219.283Z" transform="translate(1179.187 -207.748)"/></g><g transform="translate(0 11.791)"><path class="f" d="M-1202.447,250.989c-.038-.07,3.234-1.913,7.307-4.116s7.407-3.934,7.444-3.865-3.233,1.913-7.307,4.117S-1202.409,251.06-1202.447,250.989Z" transform="translate(1202.447 -243.006)"/></g><g transform="translate(24.596 15.38)"><path class="f" d="M-1128.894,253.738c.076-.022,1.2,3.525,2.505,7.924s2.308,7.983,2.231,8.007-1.2-3.524-2.505-7.924S-1128.969,253.761-1128.894,253.738Z" transform="translate(1128.898 -253.738)"/></g></g></g><path class="g" d="M-1085.948,559.553c.167,5.224-2.214,10.531-8.481,14.333-4.805,2.923-13.33,5.849-23.526,8.564.458,6.267.876,12.454,1.254,18.386.027.448.053.89.084,1.334v0c.221,3.618.435,7.106.585,10.531.03.448.057.89.087,1.334v0c.167,2.655.311,5.223.455,7.728a12.515,12.515,0,0,0,.043,1.3c.458,10.32.752,19.262.752,26.074q.542,27.363.983,48.162h-135.926q-10.117-3.18-20.5-7.3c1.124-13.711,2.632-27.077,4.595-38.1q.125-.7.251-1.384c.054-.318.107-.639.164-.956.114-.682.237-1.358.381-2.01-.836-.12-1.716-.251-2.592-.378.294-.96.585-1.963.836-2.966.167-.6.328-1.2.488-1.8h0c.147-.545.291-1.087.431-1.632q2.227-8.447,3.966-17c.077-.364.151-.729.224-1.094q.858-4.3,1.6-8.631v0c.077-.448.154-.89.227-1.338.5-2.879.963-5.809,1.421-8.775.074-.572.157-1.16.251-1.752v0c.067-.445.14-.89.211-1.338.542-3.762,1.043-7.558,1.545-11.4-.545.334-1,.752-1.629,1.087a83.166,83.166,0,0,1-7.692,3.926c-.538.237-1.083.468-1.628.689-2.023.833-4.09,1.565-6.183,2.2a72.722,72.722,0,0,1-13.958,3.05c-.247.037-.495.067-.736.1-1.478.187-2.863.291-4.153.361a68.418,68.418,0,0,1-7.856,0,3.31,3.31,0,0,1-.709.545,12.42,12.42,0,0,1-1.93.789s-.007,0-.01,0-.007,0-.01,0c-6.414,2.113-21.419,3.893-25.212,2.628a14.64,14.64,0,0,1-3.521-1.993c-.264-.2-.525-.415-.776-.635a0,0,0,0,1,0,0l0,0-.044-.037c-.545-.378-1.087-.833-1.632-1.3a35.315,35.315,0,0,1-5.33-5.705,13.158,13.158,0,0,1-.856-1.358,3.011,3.011,0,0,1-.468-1.02v0a2.927,2.927,0,0,1-.074-.936,1.8,1.8,0,0,1,.167-.418c.719-1.863,2.943-3.632,5.886-5.448a0,0,0,0,0,0,0q.727-.447,1.508-.9c2.966-1.756,6.391-3.551,9.651-5.474.218-.124.432-.254.642-.395.354-.227.7-.471,1.03-.732a2.539,2.539,0,0,1,1.759-.592,8.411,8.411,0,0,1,1.164.174,3.722,3.722,0,0,1,.88.124c.415.08.876.207,1.421.334.137.047.278.094.415.144a52.484,52.484,0,0,1,13.584,7.083c.04,0,.04-.043.083-.043,8.347-1.431,13.52-4.923,17.363-8.9.291-.3.578-.609.856-.916,3.886-4.307,6.518-8.946,10.113-11.912.8-5.267,2.237-12.3,4.046-20.205.946-4.14,1.99-8.521,3.1-13.015.508-2.063,1.017-4.18,1.545-6.287.117-.462.234-.923.351-1.381.01-.033.017-.07.027-.1.043-.211.127-.462.167-.669.16-.645.324-1.288.485-1.926v0c.341-1.344.679-2.682,1.02-4.043l-.378-.094-.706-.177-.421-.107-2.09-.5-5.1-1.211s1.879-8.357,5.1-19.684c.271-.916.542-1.853.819-2.809.408-1.395.823-2.829,1.271-4.29.538-1.769,1.1-3.558,1.685-5.4a0,0,0,0,1,0-.007s0,0,0-.007,0-.007,0-.013c.4-1.267.816-2.548,1.244-3.829,0,0,0,0,0-.007.107-.328.217-.655.328-.983.208-.709.458-1.378.669-2.087.057-.144.114-.291.167-.441v0c.181-.495.341-1,.5-1.478a187.319,187.319,0,0,1,8.7-21.168v0s0,0,0,0c.258-.535.522-1.063.786-1.6,2.715-5.3,5.6-9.738,8.568-12.621.251-.291.542-.542.792-.793.589-.682,1.217-1.344,1.88-1.98.094-.094.187-.184.284-.274l0,0c.171-.164.345-.321.522-.478.288-.258.578-.512.88-.762h0c5.22-4.384,12.377-7.7,21.292-9.832.084-.368.161-.749.231-1.14v0c.03-.164.057-.324.083-.492.07-.425.134-.859.187-1.291.167-.96.291-2.007.418-3.05.251-2.675.418-5.518.5-8.441a26.389,26.389,0,0,1-7.775-1.13c-.11-.03-.221-.064-.328-.1a14.283,14.283,0,0,1-4.143-2.07c-.221-.154-.435-.311-.642-.478-6-4.709-6.962-13.544-6.14-24.131,0-.057.01-.114.013-.171a20.673,20.673,0,0,1,.167-2.174c.2-2.311.515-4.732.87-7.2.017-.12.033-.244.05-.365.107-.813.217-1.645.324-2.485v0c.06-.451.117-.9.177-1.354.02-.127.04-.251.06-.378v0c.522-3.264,1.047-6.6,1.528-9.942.171-1.187.375-2.338.6-3.468,0,0,0,0,0-.007v0a0,0,0,0,0,0,0v-.033c.214-1.08.448-2.137.692-3.17-.04.084-.083.127-.124.211l-.438-.2-1.445-.675a9.843,9.843,0,0,1,1.491-2.338,9.267,9.267,0,0,1,.893-.92c.251-.211.5-.378.753-.585.04-.043.084-.043.124-.084.211-.669.418-1.338.625-1.966.251-.709.5-1.418.752-2.087.057-2.093.194-4.187.415-6.267v0q.16-1.55.381-3.09a5.253,5.253,0,0,1-2.592-1.421c-.919-1.13-.585-2.843,1.505-5.267a10.037,10.037,0,0,1,1.839-1.585,32.286,32.286,0,0,1,5.521-2.819,33.053,33.053,0,0,1,4.3-1.361,74.551,74.551,0,0,1,7.688-1.712c.418-.084.879-.167,1.3-.211a22.765,22.765,0,0,1,2.421-.375c2.478-.375,5-.622,7.518-.829h0c.03,0,.057,0,.087-.007.709-.043,1.461-.127,2.17-.127a87.515,87.515,0,0,1,17.928.6c.408.064.806.134,1.194.2,4.02.749,7.1,1.94,8.625,3.625a5.083,5.083,0,0,0,.161-.769c.625.421,1.237.863,1.839,1.318-.013.04-.023.08-.033.12a1.485,1.485,0,0,0-.167.291c4.388.963,4.929,11.577,4.511,21.269-.207,5.267-.752,10.28-1.127,13.333,1.8,1.963,2.672,5.013,1.752,8.691a18.125,18.125,0,0,1-1.211,2.923,7.555,7.555,0,0,1-.542.963c-1.672,3.006-4.638,6.641-9.026,7.645-.92,14.417-1.8,33.264-1.716,44.42,13.457,1.5,22.439,5.224,28.666,10.989.084.043.127.084.211.127,11.109,7.424,27.144,31.415,37.491,48.152q.411.672.813,1.324c5.625,9.156,9.374,15.834,9.374,15.834l-10.28,3.511c9.277,23.359,17.466,46.881,19.847,54.78A11.336,11.336,0,0,1-1085.948,559.553Z" transform="translate(1483.672 -279.962)"/><path class="h" d="M-939.417,1349.595c-.134.274-.341.686-.612,1.224h-93.08q2.679-22.152,5.417-44.29c.094-.746.184-1.492.277-2.237.077-.612.151-1.221.228-1.833.057-.475.428-3.454.488-3.929l15.748.545,3.414.124,3.414.13h.047l53.3,1.792.023.044h.438l9.728.331.124,0c.023.709.07,1.585.12,2.589.288,8.37.642,26.549.906,44.256C-939.431,1348.762-939.424,1349.177-939.417,1349.595Z" transform="translate(1279.037 -933.476)"/><path class="i" d="M-1138.922,1357.475h-83.139q1.2-22.332,3.712-45.015c.13-1.2.271-2.4.408-3.6.01-.11.023-.217.037-.328l14.41.545,3.124.124,3.123.131h.043l10.949.4,33.077,1.217,4.739.174.023.04h.4l9.009.334c.02.445.05,1.033.077,1.732.013.271.023.558.037.859q.291,7.2.378,14.249C-1138.383,1338.336-1138.544,1348.074-1138.922,1357.475Z" transform="translate(1404.8 -940.132)"/><path class="j" d="M-1414.592,880.846c-7.467,4.471-16.134,8.182-17.178,12.277-.643,2.508,8.3,11.558,12.666,12.992,4.3,1.408,22.69-.991,27.173-3.439a3.329,3.329,0,0,0,.731-.552,76.518,76.518,0,0,0,42.2-10.292,20.556,20.556,0,0,0,8.671-8.867,12.632,12.632,0,0,0,2.841-3.823c4.643-12.945,22.515-70.318,26.956-100.483l-30.487-11.337s-20.233,71.6-24.249,97.905c-7.245,6-10.4,18.674-28.314,21.746-.037.013-.074.024-.112.033-3.957-3.126-11.78-6.882-15.415-7.551-3.368-.614-2.5-.393-5.478,1.392Z" transform="translate(1544.402 -579.911)"/><path class="k" d="M-1177.184,684.1c-22.7-51.033-49.564,67.539-49.564,67.539l55.008,13.113s3.163-61.3-5.445-80.652Z" transform="translate(1407.92 -516.032)"/><path class="l" d="M-1060.187,860.145s-33.719,2.391-72.588,2.575c-4.782.023-9.641.013-14.527-.043-11.153-.117-22.436-.455-33.214-1.114-11.206-.686-21.864-1.719-31.271-3.214-.344-.054-.689-.107-1.03-.164,1.027-3.468,2-7.1,2.916-10.878q.2-.808.391-1.625.326-1.369.639-2.762c.084-.358.164-.716.244-1.077,1.294-5.792,2.475-11.865,3.552-18.139.669-3.886,1.3-7.849,1.889-11.865v0c.084-.565.167-1.134.248-1.7q.386-2.659.746-5.344c.194-1.415.378-2.832.562-4.257.6-4.662,1.151-9.374,1.662-14.106,1.217-11.266,2.2-22.643,3-33.722.548-7.6,1-15.059,1.388-22.252.037-.659.07-1.314.1-1.966.047-.873.09-1.746.13-2.608.478-9.527.826-18.52,1.084-26.669s.418-15.457.528-21.6c.08-4.515.13-8.4.164-11.537a27.586,27.586,0,0,1,4.4-15.052,0,0,0,0,1,0,0,27.726,27.726,0,0,1,2.167-2.879c5.067-5.922,12.985-10.34,23.446-13.1l1.013-.261a99.821,99.821,0,0,1,13.162-2.294h0a149.421,149.421,0,0,1,18.229-.789c1,.013,2.013.033,3.037.067.2,0,.4.01.609.017,3.545.117,6.835.351,9.9.7h0c.565.064,1.124.134,1.672.2,12.343,1.619,20.734,5.2,26.646,10.571,5.585,5.066,8.956,11.731,11.353,19.847a90.519,90.519,0,0,1,1.986,9.2c1.873,10.661,3.97,27.412,6.006,46.821,1.625,15.49,3.214,32.676,4.622,49.8.033.418.067.833.1,1.251.435,5.3.849,10.6,1.241,15.828.669,8.875,1.274,17.573,1.792,25.84.254,4.07.492,8.036.7,11.868.492,8.822.859,16.931,1.073,23.954q.025.853.05,1.685c.084,2.99.137,5.769.161,8.3Q-1060.187,858.938-1060.187,860.145Z" transform="translate(1398.647 -489.626)"/><path class="m" d="M-1066.562,389.653s5.294-36-3.033-37.673-20.091-10.033-21.863,2.495c-4.856,34.336,12.009,32.125,15.24,34.562Z" transform="translate(1318.453 -300.616)"/><path class="n" d="M-1022.31,501.5c1.161,11.433-54.147,14.7-46.909,2.1a22.087,22.087,0,0,0,2.131-5.808c.159-.635.3-1.3.426-1.972,2.482-13.07.836-33.88-.025-42.572-.251-2.524-.435-4.028-.435-4.028l47.845-17.492c-1.245,8.056-3.577,47.553-3.284,64.459C-1022.527,498.376-1022.443,500.189-1022.31,501.5Z" transform="translate(1303.506 -356.544)"/><path class="o" d="M-1019.387,457.664c-.071,19.011-11.29,32.026-12.536,33.429a50.458,50.458,0,0,1-28.4,15.87c2.482-13.07.836-33.88-.025-42.572,6.957-2.3,14.241-4.938,21.788-7.971,6.457-2.595,12.57-5.263,18.334-7.95A49.1,49.1,0,0,1-1019.387,457.664Z" transform="translate(1297.165 -367.688)"/><path class="p" d="M-1063.327,381.06a37.476,37.476,0,0,1-19.013,20.124c-21.478,10.121-29-.485-33.1-17.258-1.839-7.513-2.992-16.255-4.4-24.929v-.008c-8.984-55.125,44.2-65.312,57.941-23.543C-1060.134,340.828-1055.755,362.983-1063.327,381.06Z" transform="translate(1337.444 -275.381)"/><path class="q" d="M-1150.17,270.6c-.344.086-.668.381-.951.982-3.715,7.9-4.277,18.738.862,26.157,8.355,12.062,33.324,15.113,55.448-1.594-.127,6.837-.326,13.678-.108,20.517.107,3.363.263,6.753.685,10.093.228,1.809.515,10.343,4.082,8.914,1.716-.687,2.131-2.978,2.738-4.505,1.479-3.72,5.755-5.337,9.552-5.042q-.292,7.566-.695,15.128c-.188,3.528-.624,7.019-.662,10.561-.018,1.616-.049,4.125,2.117,2.29,5.938-5.03,11.082-11.385,13.759-18.755,2.934-8.074,2.84-16.9,1.684-25.309-.977-7.1-2.274-14.558-5.786-20.9a36.425,36.425,0,0,0-13.762-13.413c-11.786-6.867-25.855-9.226-39.266-10.41-5.989-.529-12.969-1.3-18.793.6-1.914.625-3.214,1.686-3.368,3.757-.107,1.445,1.8,6.033-1.269,5.719a3.4,3.4,0,0,1-2-1.172C-1146.777,273.3-1148.726,270.239-1150.17,270.6Z" transform="translate(1359.507 -245.37)"/><path class="r" d="M-1081.657,432.651l2,.585-4.517,15.411,7.317-.1.029,2.089-10.146.138Z" transform="translate(1314.887 -357.159)"/><path class="s" d="M-959.645,443.544c4.826-10.867,16.232-6.521,13.9,2.521-.436,1.695-4.016,10.34-11.722,9.348s-4.629-6.341-2.178-11.869Z" transform="translate(1231.955 -360.135)"/><path class="t" d="M-1737.578,1182.282h0a5.934,5.934,0,0,1-5.933-5.935,5.933,5.933,0,0,1,5.934-5.933h399.844a5.933,5.933,0,0,1,5.933,5.933,5.934,5.934,0,0,1-5.933,5.935Z" transform="translate(1751.872 -848.205)"/><path class="q" d="M-1056.4,505.17a33.954,33.954,0,0,1-5.211,6.524,38.09,38.09,0,0,1-9.941,6.739c-21.478,10.121-29-.485-33.1-17.258a8.085,8.085,0,0,1,.618-1.02c3.184-4.538,9.235-5.089,19.222-5.85a105.825,105.825,0,0,1,23.4.836q2.837-9.4,4.179-9.193Q-1055.368,486.238-1056.4,505.17Z" transform="translate(1326.657 -392.629)"/><path class="o" d="M-984.4,1182.282a5.934,5.934,0,0,1-5.932-5.933,5.933,5.933,0,0,1,5.932-5.934h150.94a5.934,5.934,0,0,1,5.933,5.933,5.934,5.934,0,0,1-5.933,5.935Z" transform="translate(1250.566 -848.205)"/><path class="u" d="M-1714.617,960.03a10.763,10.763,0,0,1-10.146-8.583l-13.526-74.383c-.861-4.743,2.281-8.583,7.02-8.583h124.025a10.758,10.758,0,0,1,10.146,8.583l13.526,74.383c.861,4.739-2.281,8.583-7.016,8.583Z" transform="translate(1748.49 -647.241)"/><path class="q" d="M-1723.67,960.03a10.759,10.759,0,0,1-10.142-8.583l-13.522-74.383c-.865-4.743,2.277-8.583,7.02-8.583h124.021a10.753,10.753,0,0,1,10.141,8.583l13.526,74.383c.861,4.739-2.281,8.583-7.016,8.583Z" transform="translate(1754.511 -647.241)"/><path class="q" d="M-1661.413,1149.355a7.069,7.069,0,0,0,7.049,7.045h129.742a7.069,7.069,0,0,0,7.05-7.045Z" transform="translate(1697.228 -834.188)"/><path class="q" d="M-1313.286,1149.355a7.069,7.069,0,0,0,7.049,7.045h51.021a7.064,7.064,0,0,0,7.045-7.045Z" transform="translate(1465.519 -834.188)"/><g class="v" transform="translate(69.421 251.971)"><path class="w" d="M-1530.552,975.421c1.187,8.308-4.7,15.043-13.152,15.043a17.59,17.59,0,0,1-17.106-15.043c-1-8.308,4.891-15.043,13.152-15.043S-1531.739,967.113-1530.552,975.421Z" transform="translate(1560.92 -960.378)"/></g><path class="w" d="M-1078.881,526.987a13.833,13.833,0,0,1-2.149-.832l.967-1.849c.35.182,8.657,4.361,16.041-2.258l1.392,1.556a16.457,16.457,0,0,1-16.256,3.382Z" transform="translate(1310.932 -416.66)"/><g transform="translate(239.426 72.714)"><path class="q" d="M-1048.182,434.639a1.909,1.909,0,0,0,.6-2.229,29.376,29.376,0,0,1-1.154-6.159,1.926,1.926,0,0,0-1.9-1.909,1.892,1.892,0,0,0-1.916,1.85,31.757,31.757,0,0,0,1.434,7.653,1.91,1.91,0,0,0,2.486,1.053A2,2,0,0,0-1048.182,434.639Z" transform="translate(1052.551 -424.342)"/></g><g transform="translate(219.369 75.221)"><path class="q" d="M-1108.16,442.136a1.908,1.908,0,0,0,.6-2.229,29.423,29.423,0,0,1-1.154-6.159,1.926,1.926,0,0,0-1.9-1.909,1.891,1.891,0,0,0-1.916,1.85,31.755,31.755,0,0,0,1.433,7.653,1.91,1.91,0,0,0,2.486,1.053A2,2,0,0,0-1108.16,442.136Z" transform="translate(1112.529 -431.839)"/></g><path class="x" d="M-1069.219,631.894a22.086,22.086,0,0,0,2.131-5.808c11.374,2.014,28.916,3.568,44.527-1.6.033,2.189.117,4,.251,5.315C-1021.148,641.229-1076.457,644.5-1069.219,631.894Z" transform="translate(1303.506 -484.838)"/><g transform="translate(205.923 142.457)"><path class="y" d="M-1150.73,654.917l-.383-1.839c11.775-16.149,26.786-18.227,27.488-18.332l1.7-.252-.845,1.491a10.885,10.885,0,0,0-.807,1.784,9.2,9.2,0,0,0-.542,2.447c.094,1.475,5.123,2.963,8.717,3.469.313.044,31.38,4.262,37.182-8.631a10.7,10.7,0,0,0,.7-2.158l1.637.339a12.42,12.42,0,0,1-.817,2.505c-6.311,14.026-37.61,9.787-38.94,9.6v-.005c-1.119-.142-9.925-1.456-10.153-5.013a10.2,10.2,0,0,1,.631-3.1c.056-.161.115-.321.178-.48C-1129.419,637.827-1141.464,642.208-1150.73,654.917Z" transform="translate(1152.736 -632.896)"/></g><g transform="translate(219.209 195.851)"><g transform="translate(1.609 37.95)"><path class="z" d="M-1105.895,906.438a2.465,2.465,0,0,0-1.253-.371c-.162-.013-.339-.021-.53-.024a3.645,3.645,0,0,0-.518.03q.079,1.191.158,2.381l.075,1.1.666.062q-.031-.481-.062-.962-.009-.143-.018-.286l.334.027a3.377,3.377,0,0,0,.709-.008,1.361,1.361,0,0,0,.52-.162.769.769,0,0,0,.312-.339,1.1,1.1,0,0,0,.085-.53A1.132,1.132,0,0,0-1105.895,906.438Zm-.457,1.334a1.6,1.6,0,0,1-.74.069l-.319-.026q-.038-.6-.076-1.205a3.847,3.847,0,0,1,.421.017,2.464,2.464,0,0,1,.358.056,1.082,1.082,0,0,1,.3.117.566.566,0,0,1,.2.2.623.623,0,0,1,.087.3A.431.431,0,0,1-1106.352,907.773Z" transform="translate(1108.195 -906.043)"/><path class="z" d="M-1096.188,910.269a1.541,1.541,0,0,0-.294-.468,1.438,1.438,0,0,0-.441-.319,1.588,1.588,0,0,0-.547-.14,1.31,1.31,0,0,0-.527.068,1.024,1.024,0,0,0-.413.256,1.086,1.086,0,0,0-.252.427,1.494,1.494,0,0,0-.067.572,1.714,1.714,0,0,0,.13.59,1.536,1.536,0,0,0,.3.471,1.453,1.453,0,0,0,.433.325,1.517,1.517,0,0,0,.545.147,1.264,1.264,0,0,0,.534-.063,1,1,0,0,0,.41-.255,1.123,1.123,0,0,0,.248-.433,1.714,1.714,0,0,0,.071-.581A1.809,1.809,0,0,0-1096.188,910.269Zm-.678,1.184a.511.511,0,0,1-.484.2.672.672,0,0,1-.507-.276,1.2,1.2,0,0,1-.212-.66.966.966,0,0,1,.145-.625.527.527,0,0,1,.486-.2.668.668,0,0,1,.509.273,1.135,1.135,0,0,1,.209.653h.006A.988.988,0,0,1-1096.867,911.453Z" transform="translate(1101.897 -908.237)"/><path class="z" d="M-1086.484,910.887a.913.913,0,0,0-.04-.089v0a1.391,1.391,0,0,0-.254-.38,1.48,1.48,0,0,0-.455-.313,1.743,1.743,0,0,0-.6-.136,4,4,0,0,0-.6.009c-.184.022-.344.042-.471.065l-.012,0,0,.047,0,.006v.006q.04.953.081,1.906.036.824.072,1.648l.631.049q-.021-.532-.042-1.064a1.341,1.341,0,0,0,.274.126,1.45,1.45,0,0,0,.361.074,1.19,1.19,0,0,0,.516-.07.919.919,0,0,0,.372-.267,1.2,1.2,0,0,0,.219-.439,1.918,1.918,0,0,0,.063-.573A1.84,1.84,0,0,0-1086.484,910.887Zm-.543.573a1.066,1.066,0,0,1-.14.629.52.52,0,0,1-.5.2.951.951,0,0,1-.3-.071,1.147,1.147,0,0,1-.23-.121l-.017-.411q-.022-.58-.045-1.161a.99.99,0,0,1,.194-.021c.063,0,.126,0,.186.006a.827.827,0,0,1,.635.276,1.119,1.119,0,0,1,.159.308A.987.987,0,0,1-1087.028,911.46Z" transform="translate(1095.365 -908.649)"/><path class="z" d="M-1077.17,911.676v0a1.717,1.717,0,0,0-.069-.236,1.506,1.506,0,0,0-.283-.476,1.319,1.319,0,0,0-.433-.32,1.492,1.492,0,0,0-.543-.136,1.3,1.3,0,0,0-.528.079,1.076,1.076,0,0,0-.419.269,1.185,1.185,0,0,0-.262.442,1.65,1.65,0,0,0-.08.588,1.832,1.832,0,0,0,.115.6,1.46,1.46,0,0,0,.228.4.471.471,0,0,0,.058.074,1.426,1.426,0,0,0,.425.326,1.45,1.45,0,0,0,.541.142,1.259,1.259,0,0,0,.536-.074,1.057,1.057,0,0,0,.416-.268,1.267,1.267,0,0,0,.258-.448,1.735,1.735,0,0,0,.082-.6A1.645,1.645,0,0,0-1077.17,911.676Zm-.617.329a1.054,1.054,0,0,1-.159.656.525.525,0,0,1-.489.212.626.626,0,0,1-.49-.261s-.007-.01-.01-.013a1.186,1.186,0,0,1-.2-.673,1.036,1.036,0,0,1,.16-.644.534.534,0,0,1,.491-.214.641.641,0,0,1,.5.271,1.145,1.145,0,0,1,.193.666Z" transform="translate(1089.289 -909.012)"/><path class="z" d="M-1070.058,908.664l.64-.077q.006.424.013.848l.989.049q0,.27.006.54l-.987-.051.018,1.143a.882.882,0,0,0,.114.489.451.451,0,0,0,.361.167,1.127,1.127,0,0,0,.308-.02,1.921,1.921,0,0,0,.21-.058q.056.261.112.523a2.183,2.183,0,0,1-.289.082,1.5,1.5,0,0,1-.421.025,1.376,1.376,0,0,1-.493-.11.815.815,0,0,1-.321-.253,1.007,1.007,0,0,1-.171-.38,2.364,2.364,0,0,1-.056-.5Q-1070.041,909.873-1070.058,908.664Z" transform="translate(1082.811 -907.736)"/><path class="z" d="M-1061.667,911.724a1.209,1.209,0,0,0-.6-.371,1.145,1.145,0,0,0-.3-.036,1.28,1.28,0,0,0-.48.073,1.113,1.113,0,0,0-.412.26,1.281,1.281,0,0,0-.284.453,1.755,1.755,0,0,0-.1.642,2.1,2.1,0,0,0,.084.6,1.393,1.393,0,0,0,.267.478,1.286,1.286,0,0,0,.444.333,1.688,1.688,0,0,0,.633.145,1.618,1.618,0,0,0,.181,0c.034,0,.065,0,.1,0,.09-.007.177-.015.255-.026a2.144,2.144,0,0,0,.211-.043,1.088,1.088,0,0,0,.145-.048l-.083-.545a1.639,1.639,0,0,1-.3.077,1.859,1.859,0,0,1-.328.024l-.094-.005a.916.916,0,0,1-.606-.22.807.807,0,0,1-.24-.539l.933.049.892.047a.505.505,0,0,0,.006-.123c0-.045,0-.087,0-.123A1.663,1.663,0,0,0-1061.667,911.724Zm-.586.813-.918-.047a.984.984,0,0,1,.056-.24.626.626,0,0,1,.118-.207.514.514,0,0,1,.187-.138.505.505,0,0,1,.26-.044.547.547,0,0,1,.244.062.151.151,0,0,1,.045.03.489.489,0,0,1,.133.122.621.621,0,0,1,.1.215.851.851,0,0,1,.04.262Z" transform="translate(1078.673 -909.553)"/><path class="z" d="M-1054.132,918.176a1.208,1.208,0,0,1,.009.137v.088a2.514,2.514,0,0,1-.108.695,2.924,2.924,0,0,1-.287.667l-.5-.172a2.642,2.642,0,0,0,.171-.61,3.771,3.771,0,0,0,.044-.529c0-.044,0-.1,0-.164a.839.839,0,0,0-.007-.148Z" transform="translate(1072.8 -914.095)"/><path class="z" d="M-1044.5,909.819c.053.2.108.413.168.634s.121.44.185.66.13.437.194.65.127.414.185.6q.085-.3.167-.648c.055-.234.109-.478.165-.73s.109-.512.163-.777.106-.525.154-.779l.692.027q-.214,1.046-.463,2t-.549,1.827l-.631-.034q-.386-1.147-.746-2.491-.209.659-.419,1.258t-.419,1.149l-.632-.034q-.273-.887-.486-1.855t-.389-2.006l.719.028q.06.379.126.774t.138.782q.073.382.146.741t.15.66q.109-.277.211-.585t.213-.628q.111-.32.2-.637t.183-.614Z" transform="translate(1067.573 -908.194)"/><path class="z" d="M-1030.449,913.374a.974.974,0,0,0-.175-.378.862.862,0,0,0-.339-.251,1.445,1.445,0,0,0-.529-.105,2.487,2.487,0,0,0-.5.023,2.774,2.774,0,0,0-.359.073q.032.277.064.554a1.623,1.623,0,0,1,.305-.063,2.058,2.058,0,0,1,.409-.016.683.683,0,0,1,.271.057.453.453,0,0,1,.173.132.542.542,0,0,1,.084.2.9.9,0,0,1,.018.225c0,.038,0,.076,0,.114a2.056,2.056,0,0,0-.245-.06c-.075-.011-.148-.019-.223-.023a1.9,1.9,0,0,0-.436.028,1.071,1.071,0,0,0-.373.138.793.793,0,0,0-.26.273.88.88,0,0,0-.1.422,1.1,1.1,0,0,0,.07.448.744.744,0,0,0,.219.3.935.935,0,0,0,.344.184,1.853,1.853,0,0,0,.449.072,4.45,4.45,0,0,0,.671-.01c.2-.023.347-.044.446-.058q.03-.9.061-1.793A2.023,2.023,0,0,0-1030.449,913.374Zm-.617,1.8a2.258,2.258,0,0,1-.45.009.712.712,0,0,1-.379-.11.375.375,0,0,1-.131-.343.356.356,0,0,1,.059-.2.312.312,0,0,1,.141-.118.583.583,0,0,1,.2-.054,1.148,1.148,0,0,1,.213-.007,1.632,1.632,0,0,1,.219.027,1.189,1.189,0,0,1,.154.043Q-1031.054,914.791-1031.066,915.169Z" transform="translate(1057.928 -910.431)"/><path class="z" d="M-1023.048,911.489l.27-.279c.1-.1.19-.2.283-.3l.264-.29c.084-.094.156-.175.214-.244l.757.033q-.279.309-.585.637t-.615.639a3.739,3.739,0,0,1,.318.359q.165.212.318.448t.285.474a4.665,4.665,0,0,1,.217.435l-.736-.041c-.059-.118-.126-.249-.2-.382s-.16-.264-.25-.39-.181-.245-.276-.357a2.618,2.618,0,0,0-.28-.291q-.026.683-.052,1.366l-.631-.034q.077-2.142.156-4.286l.645-.089Q-1023,910.193-1023.048,911.489Z" transform="translate(1051.989 -907.942)"/><path class="z" d="M-1013.347,914.141a.918.918,0,0,0-.058-.19.867.867,0,0,0-.109-.193.821.821,0,0,0-.334-.262,1.457,1.457,0,0,0-.527-.109,2.774,2.774,0,0,0-.5.021,2.549,2.549,0,0,0-.357.074l.053.566a1.9,1.9,0,0,1,.306-.064,2.05,2.05,0,0,1,.406-.015.68.68,0,0,1,.272.059.393.393,0,0,1,.167.139.474.474,0,0,1,.084.2.962.962,0,0,1,.014.233l-.006.113a1.51,1.51,0,0,0-.246-.059,1.579,1.579,0,0,0-.219-.027,2.082,2.082,0,0,0-.44.027,1.01,1.01,0,0,0-.373.144.76.76,0,0,0-.265.275.931.931,0,0,0-.11.43,1.128,1.128,0,0,0,.058.457.8.8,0,0,0,.213.308.931.931,0,0,0,.343.188,1.992,1.992,0,0,0,.448.079,4.239,4.239,0,0,0,.471,0c.068,0,.134-.007.2-.012.2-.023.347-.039.447-.058q.048-.914.1-1.83A2.138,2.138,0,0,0-1013.347,914.141Zm-1.1,1.842a.722.722,0,0,1-.376-.117.38.38,0,0,1-.125-.351.372.372,0,0,1,.063-.207.35.35,0,0,1,.146-.12.674.674,0,0,1,.2-.055c.072-.006.141-.008.213-.006a1.165,1.165,0,0,1,.219.031.739.739,0,0,1,.152.04q-.019.386-.038.772A2.44,2.44,0,0,1-1014.449,915.983Z" transform="translate(1046.563 -910.929)"/><path class="z" d="M-1006.522,911.316l.645-.087q-.027.457-.052.915l.984.049-.035.583-.983-.051q-.035.618-.07,1.234a.97.97,0,0,0,.076.528.4.4,0,0,0,.348.178,1.059,1.059,0,0,0,.309-.022,1.956,1.956,0,0,0,.215-.063q.036.282.072.564a2.238,2.238,0,0,1-.294.089,1.442,1.442,0,0,1-.423.029,1.234,1.234,0,0,1-.486-.116.743.743,0,0,1-.3-.271,1.046,1.046,0,0,1-.14-.409,2.7,2.7,0,0,1-.018-.538Q-1006.6,912.623-1006.522,911.316Z" transform="translate(1040.629 -909.495)"/><path class="z" d="M-999.313,910.417a.377.377,0,0,0-.271-.132.394.394,0,0,0-.288.1.437.437,0,0,0-.137.314.428.428,0,0,0,.1.324.374.374,0,0,0,.273.129.368.368,0,0,0,.285-.1.424.424,0,0,0,.134-.311A.426.426,0,0,0-999.313,910.417Zm-.669,1.187q-.1,1.522-.19,3.043l.632.039q.1-1.523.193-3.047Z" transform="translate(1036.296 -908.866)"/><path class="z" d="M-989.55,912.214c.04.217.082.442.127.679s.093.471.143.707.1.468.152.7.1.444.146.646q.1-.315.209-.688t.211-.775q.106-.4.213-.825t.2-.827l.688.043q-.28,1.111-.59,2.125t-.664,1.937l-.629-.047q-.311-1.229-.585-2.668-.25.7-.5,1.336t-.493,1.22l-.629-.044q-.216-.95-.366-1.984t-.259-2.144l.716.038c.023.27.049.545.077.827s.057.56.087.836.065.536.1.792.07.491.107.707q.127-.295.249-.621t.253-.667q.131-.339.245-.676t.222-.653Z" transform="translate(1030.971 -909.741)"/><path class="z" d="M-975.327,916.623a1.558,1.558,0,0,0-.22-.54,1.178,1.178,0,0,0-.393-.367,1.209,1.209,0,0,0-.526-.159,1.274,1.274,0,0,0-.54.081,1.264,1.264,0,0,0-.449.306,1.517,1.517,0,0,0-.318.495,2.227,2.227,0,0,0-.157.668,2.259,2.259,0,0,0,.043.681,1.629,1.629,0,0,0,.222.54,1.218,1.218,0,0,0,.385.366,1.174,1.174,0,0,0,.524.163,1.183,1.183,0,0,0,.545-.075,1.22,1.22,0,0,0,.45-.3,1.608,1.608,0,0,0,.317-.5,2.374,2.374,0,0,0,.156-.672A2.158,2.158,0,0,0-975.327,916.623Zm-.615.635a1.389,1.389,0,0,1-.243.735.564.564,0,0,1-.516.238.557.557,0,0,1-.466-.317,1.4,1.4,0,0,1-.112-.761,1.377,1.377,0,0,1,.244-.726.557.557,0,0,1,.514-.235.547.547,0,0,1,.469.308A1.355,1.355,0,0,1-975.942,917.257Z" transform="translate(1021.499 -912.374)"/><path class="z" d="M-968.028,913.583l.648-.074-.092.955.982.079-.06.608-.979-.081q-.062.645-.124,1.288a1.051,1.051,0,0,0,.052.553.392.392,0,0,0,.341.2,1.015,1.015,0,0,0,.309-.015,1.943,1.943,0,0,0,.217-.06q.024.3.047.592a2.153,2.153,0,0,1-.3.085,1.372,1.372,0,0,1-.424.019,1.18,1.18,0,0,1-.48-.134.737.737,0,0,1-.289-.291,1.137,1.137,0,0,1-.122-.431,2.991,2.991,0,0,1,.005-.563Q-968.162,914.948-968.028,913.583Z" transform="translate(1015.09 -911.013)"/><path class="z" d="M-959.829,917.3a1.04,1.04,0,0,0-.845-.487,1.092,1.092,0,0,0-.485.067,1.2,1.2,0,0,0-.443.28,1.575,1.575,0,0,0-.342.5,2.3,2.3,0,0,0-.178.72,2.531,2.531,0,0,0,.01.676,1.5,1.5,0,0,0,.207.546,1.174,1.174,0,0,0,.4.391,1.508,1.508,0,0,0,.614.183,1.721,1.721,0,0,0,.278.006,2.323,2.323,0,0,0,.258-.02,1.085,1.085,0,0,0,.216-.041.75.75,0,0,0,.151-.049l-.017-.612a1.872,1.872,0,0,1-.313.076,1.668,1.668,0,0,1-.423.007.81.81,0,0,1-.578-.267.908.908,0,0,1-.173-.618q.905.083,1.81.171a.851.851,0,0,0,.023-.134c0-.051.008-.1.014-.138A1.976,1.976,0,0,0-959.829,917.3Zm-1.6.81a1.358,1.358,0,0,1,.086-.268.769.769,0,0,1,.139-.225.66.66,0,0,1,.207-.153.545.545,0,0,1,.265-.041.467.467,0,0,1,.236.082.5.5,0,0,1,.16.173.712.712,0,0,1,.078.249,1.011,1.011,0,0,1,.008.293Q-960.835,918.162-961.424,918.109Z" transform="translate(1010.983 -913.208)"/></g><g transform="translate(1.3 28.664)"><path class="z" d="M-1107.258,878.338q.226.356.522.879t.612,1.133q.319.61.635,1.249.295.6.588,1.2.236-.579.473-1.16.253-.614.516-1.212t.5-1.107q.245-.516.437-.862.808.019,1.615.035.136.747.266,1.674t.234,1.929q.107,1,.2,2.011t.171,1.9q-.842-.04-1.684-.083-.076-1.087-.182-2.367t-.27-2.584q-.186.446-.411.982t-.442,1.073l-.42,1.023q-.2.486-.34.828l-1.213-.065q-.174-.359-.424-.863t-.521-1.059q-.272-.552-.55-1.1t-.508-1q-.037,1.271-.021,2.522t.049,2.311q-.841-.055-1.682-.114-.012-.854-.013-1.823t.007-1.936q.011-.965.049-1.858t.107-1.613Q-1108.106,878.309-1107.258,878.338Z" transform="translate(1109.118 -878.275)"/><path class="z" d="M-1076.5,879.071q.005.738.011,1.476-1.182-.015-2.364-.034.049,3.08.1,6.156-.862-.034-1.725-.07-.072-3.056-.139-6.116-1.183-.022-2.366-.05-.022-.72-.044-1.441Q-1079.758,879.05-1076.5,879.071Z" transform="translate(1091.75 -878.751)"/><path class="z" d="M-1059.066,885.791c-.115-.344-.23-.675-.338-.993s-.224-.628-.336-.931v0q-.2-.573-.41-1.1-.37-.952-.735-1.808c-.245-.573-.5-1.128-.75-1.669l-1.679-.007c-.271.535-.528,1.084-.77,1.641-.027.062-.055.124-.082.189-.217.5-.435,1.024-.658,1.574q-.368.927-.753,1.967c-.255.694-.525,1.45-.8,2.261l1.16.045h0l.632.022c.046-.151.1-.3.146-.454v0q.061-.174.121-.358c.089-.258.178-.48.269-.739v-.035c.006-.019.015-.042.02-.061l1.638.045h0l1.368.038q.144.43.286.86c.045.134.089.265.13.395.048.154.1.3.141.451l1.85.057C-1058.769,886.689-1058.921,886.227-1059.066,885.791Zm-4.572-1.839c.121-.331.244-.649.36-.952s.228-.58.324-.834.18-.473.256-.666.136-.347.172-.455v0h0l0,0c.049.109.112.261.186.451s.161.423.262.678.2.54.315.848.223.635.338.976Z" transform="translate(1080.672 -878.94)"/><path class="z" d="M-1036.411,887.384q-.691-1.4-1.522-2.753a24.134,24.134,0,0,0-1.786-2.547q-.061,2.6-.119,5.2l-1.7-.052q.066-3.943.137-7.893l1.436,0q.366.379.8.932t.887,1.185q.449.632.888,1.315t.82,1.316q.079-2.37.161-4.741l1.756,0q-.162,4.043-.317,8.079Z" transform="translate(1064.138 -878.984)"/><path class="z" d="M-1011.145,881.487a3.127,3.127,0,0,0-.818-1.333c-.026-.023-.051-.044-.076-.068a3.332,3.332,0,0,0-1.288-.7,6.349,6.349,0,0,0-1.814-.245c-.115,0-.232,0-.36,0h-.007c-.232.006-.488.013-.772.031a10.146,10.146,0,0,0-1.281.151q-.024.526-.047,1.053-.15,3.43-.3,6.855a8.7,8.7,0,0,0,1.2.21c.41.041.77.065,1.078.076a5.784,5.784,0,0,0,1.659-.155,1.684,1.684,0,0,0,.18-.041,3.716,3.716,0,0,0,1.428-.735,3.637,3.637,0,0,0,.964-1.295,5.3,5.3,0,0,0,.428-1.872A5.23,5.23,0,0,0-1011.145,881.487Zm-1.614,1.9a2.9,2.9,0,0,1-.631,1.793l0,0a1.273,1.273,0,0,1-.106.128,2.494,2.494,0,0,1-1.96.636c-.15,0-.275-.009-.384-.016s-.2-.016-.281-.026q.127-2.578.255-5.159a2.683,2.683,0,0,1,.365-.025c.127-.006.251-.005.371,0a2.4,2.4,0,0,1,1.884.695,2.658,2.658,0,0,1,.5,1.34v.007A2.923,2.923,0,0,1-1012.759,883.384Z" transform="translate(1048.408 -878.854)"/><path class="z" d="M-990.984,885.736q-.289-1.182-.578-2.226t-.588-1.971q-.3-.932-.617-1.816-.835-.018-1.671-.033-.465.864-.9,1.766c-.286.6-.581,1.24-.876,1.9s-.6,1.377-.91,2.132-.638,1.568-.981,2.451l1.786.077c.1-.286.214-.578.332-.881s.236-.6.357-.9q1.493.057,2.984.123.11.467.22.936c.073.316.14.622.2.92q.922.048,1.844.1Q-990.692,886.92-990.984,885.736Zm-4.155-.987c.147-.357.288-.7.435-1.028s.277-.625.393-.9.218-.514.312-.722.161-.377.208-.494h0c.036.119.077.284.138.5s.127.456.2.734.162.588.245.926.172.691.263,1.062Q-994.037,884.788-995.139,884.75Z" transform="translate(1035.228 -879.217)"/><path class="z" d="M-966.566,882.563a3.891,3.891,0,0,0-.677-1.469,3.107,3.107,0,0,0-1.15-.924,3.808,3.808,0,0,0-1.481-.351,3.939,3.939,0,0,0-1.512.229,3.718,3.718,0,0,0-1.318.808,4.48,4.48,0,0,0-.974,1.366,5.584,5.584,0,0,0-.483,1.911,5.623,5.623,0,0,0,.133,1.934,3.854,3.854,0,0,0,.694,1.434,3.239,3.239,0,0,0,1.131.917,3.836,3.836,0,0,0,1.446.383,4.005,4.005,0,0,0,1.523-.179,3.46,3.46,0,0,0,1.294-.766,4.451,4.451,0,0,0,.95-1.359,6.332,6.332,0,0,0,.508-1.947A5.912,5.912,0,0,0-966.566,882.563Zm-1.955,3.013a3.024,3.024,0,0,1-.489.858,1.914,1.914,0,0,1-.705.523,1.811,1.811,0,0,1-.878.145,1.8,1.8,0,0,1-.841-.249,1.726,1.726,0,0,1-.581-.6,2.587,2.587,0,0,1-.318-.893,4.221,4.221,0,0,1-.035-1.144h0a4.379,4.379,0,0,1,.25-1.123,2.858,2.858,0,0,1,.484-.86,2.01,2.01,0,0,1,.7-.544,1.918,1.918,0,0,1,.893-.165,1.764,1.764,0,0,1,.854.241,1.681,1.681,0,0,1,.6.6,2.664,2.664,0,0,1,.311.91,4.636,4.636,0,0,1,.018,1.163A4.558,4.558,0,0,1-968.521,885.576Z" transform="translate(1019.312 -879.299)"/></g><g transform="translate(0 3.254)"><path class="z" d="M-1105.614,802.332c5.1-.356,7.714,1.577,7.729,5.358l.005.739q-2.415.139-4.833.263l-.022-.961c-.036-1.655-.989-2.225-2.637-2.131s-2.563.758-2.5,2.381c.226,4.67,10.113,5.2,10.128,11.923.025,3.762-2.4,5.918-7.135,5.846s-7.325-2.211-7.556-5.756q-.043-.685-.085-1.37,2.343.015,4.685,0,.036.809.072,1.618c.075,1.615,1.079,2.207,2.633,2.211s2.513-.593,2.471-2.242c-.088-4.748-9.915-5.448-10.337-11.817C-1113.213,804.831-1110.71,802.679-1105.614,802.332Z" transform="translate(1113.005 -802.29)"/></g><g transform="translate(40.804)"><path class="z" d="M-981.757,792.583c5.058-.286,7.365,2.107,6.872,6.4q-.048.421-.095.84-2.4.03-4.8.1l.11-1.1c.191-1.887-.669-2.572-2.3-2.5a2.6,2.6,0,0,0-2.79,2.689c-.428,5.282,9.26,6.153,8.367,13.869-.485,4.289-3.184,6.6-7.875,6.476s-6.974-2.439-6.7-6.521q.055-.786.111-1.572,2.325-.044,4.649-.066l-.155,1.852c-.153,1.851.762,2.52,2.3,2.537a2.442,2.442,0,0,0,2.76-2.523c.565-5.485-9.062-6.3-8.575-13.544C-989.588,795.435-986.814,792.879-981.757,792.583Z" transform="translate(990.988 -792.56)"/></g><g transform="translate(17.595 0.918)"><path class="z" d="M-1049.893,813.624q1.962-8.76,4.142-17.745,3.617-.3,7.229-.574-.842,12.723-1.624,25.383-2.271,0-4.545.008.428-8.942.888-17.917-2.218,9.083-4.214,17.938-2.275.015-4.553.032-1.6-8.573-3.371-16.965-.126,8.511-.222,16.99-2.1.013-4.211.02-.033-11.814-.006-23.691,3.629-.292,7.252-.6Q-1051.424,804.974-1049.893,813.624Z" transform="translate(1060.392 -795.305)"/></g></g><g transform="translate(163.821 206.591)"><path class="aa" d="M-1194.351,878.978c-1.221,3.861-3.807,4.66-6.571,4.481l-73.132-4.2a5.624,5.624,0,0,1-4.481-6.57l8.147-43.072a6.226,6.226,0,0,1,6.653-4.923s21.944,2.043,35.886,4.6c13.594,2.5,38.761,6.812,38.761,6.812,3.05.578,4.479,3.065,3.88,6.619Z" transform="translate(1278.634 -824.678)"/><g transform="translate(7.547 2.815)"><path class="ab" d="M-1215.616,870.088a1.022,1.022,0,0,1-.295-.182l-39.808-35.019a1.021,1.021,0,0,1-.093-1.443,1.023,1.023,0,0,1,1.443-.093L-1215.1,867.9l44.225-24.045a1.028,1.028,0,0,1,1.387.41,1.024,1.024,0,0,1-.41,1.388l-44.853,24.387A1.031,1.031,0,0,1-1215.616,870.088Z" transform="translate(1256.066 -833.097)"/></g><g transform="translate(0.181 32.29)"><path class="ab" d="M-1277.452,942.419a1.018,1.018,0,0,1-.482-.4,1.023,1.023,0,0,1,.316-1.411l30.3-19.211a1.024,1.024,0,0,1,1.411.316,1.024,1.024,0,0,1-.316,1.412l-30.3,19.211A1.025,1.025,0,0,1-1277.452,942.419Z" transform="translate(1278.093 -921.236)"/></g><g transform="translate(61.156 37.003)"><path class="ab" d="M-1075.454,957.157a1.019,1.019,0,0,1-.346-.23l-19.662-19.856a1.022,1.022,0,0,1,.007-1.446,1.02,1.02,0,0,1,1.446.006l19.662,19.856a1.022,1.022,0,0,1-.007,1.446A1.019,1.019,0,0,1-1075.454,957.157Z" transform="translate(1095.758 -935.328)"/></g></g><path class="ac" d="M-944.676,841.413q-.038-6-.451-11.987a190.526,190.526,0,0,0-4.139-28.446,190.985,190.985,0,0,0-20.522-52.963l-31.21,9.16a319.965,319.965,0,0,0,8.1,37.506,320.012,320.012,0,0,0,15.294,42.734c-2.912-.706-7.29-1.782-12.6-3.149-16.9-4.354-25.35-6.522-31.038-8.547-10.482-3.73-25.337-10.232-26.54-8.1-.079.141-.043.221-.45,1.8a22.722,22.722,0,0,1-.9,3.149c-1.522,2.38-10.743-2.555-12.6-.45-1.281,1.455.778,6.094,4.446,10.76a27.7,27.7,0,0,0,13.1,5.884,75.287,75.287,0,0,0,8.1.45c6.638.167,11.638,3.671,20.105,7.924,2.817,1.415,11.8,6.4,14.636,7.771,13.278,6.425,25.468,8.765,40.83,8.595,5-.056,9.989-.942,13.045-4.5a12.345,12.345,0,0,0,2.01-3.428C-943.529,851.1-944.638,847.36-944.676,841.413Z" transform="translate(1298.336 -567.063)"/><path class="ad" d="M-884.694,665.238c-7.694-1.828-12.142-.465-14.844,1.349-12.6,8.458-8.771,41.174,8.416,82.382l42.864-14.008A99.976,99.976,0,0,0-863.1,689.528,98.656,98.656,0,0,0-884.694,665.238Z" transform="translate(1195.078 -511.389)"/><rect class="t" width="68.824" height="37.336" rx="7" transform="translate(77.853 50.835)"/><path class="ae" d="M-1503.423,389.862q4.33-.194,8.659-.26c2.886-.053,5.773-.068,8.659-.074s5.773.02,8.659.073,5.773.131,8.659.261q-4.33.195-8.659.261c-2.887.053-5.773.067-8.659.073s-5.773-.021-8.659-.074S-1500.536,389.991-1503.423,389.862Z" transform="translate(1592.071 -328.456)"/><path class="ae" d="M-1496.7,418.782q2.84-.194,5.679-.26c1.893-.053,3.786-.068,5.679-.074s3.786.02,5.679.073,3.786.131,5.679.261q-2.84.195-5.679.261c-1.893.053-3.786.068-5.679.073s-3.786-.021-5.679-.074S-1494.8,418.911-1496.7,418.782Z" transform="translate(1587.595 -347.705)"/><path class="ae" d="M-1496.7,444.34c1.106-.138,2.212-.211,3.318-.26s2.212-.068,3.318-.074,2.211.02,3.317.073,2.212.122,3.318.261c-1.106.139-2.211.212-3.318.261s-2.212.067-3.317.073-2.212-.021-3.318-.074S-1495.591,444.479-1496.7,444.34Z" transform="translate(1587.595 -364.716)"/></g><g transform="translate(264.815 388.185)"><path class="af" d="M-973.5,1367.763l-.793,29.094h-2.338l.789-29.157.682.02Z" transform="translate(976.63 -1367.7)"/></g><g transform="translate(287.118 155.904)"><path class="y" d="M-897.4,746.754c-9.467-19.883-13.606-39.023-12.3-56.89.944-12.937,4.03-15.76,6.27-16.757l.632,1.537c-2.867,1.277-4.65,6.44-5.3,15.346-1.281,17.563,2.8,36.411,12.141,56.021Z" transform="translate(910.506 -673.107)"/></g><path class="ag" d="M-927.216,632.9s4.432.782,10.111,2.3a72.068,72.068,0,0,1,11.393,3.974" transform="translate(1208.556 -490.445)"/><g transform="translate(202.752 189.417)"><rect class="y" width="19.742" height="1.672" transform="translate(0 19.73) rotate(-88.052)"/></g><g transform="translate(188.747 356.056)"><path class="y" d="M-1054.6,1273.6a450.238,450.238,0,0,1-110.9,3.765q-4.841-.456-9.24-.99c-12.7-1.518-22.543-3.364-28.957-4.752q-.19.818-.391,1.625c6.424,1.391,16.253,3.237,28.914,4.759h0q4.495.542,9.46,1.017c7.294.692,15.751,1.281,25.215,1.6q6.912.226,14.53.238a464.5,464.5,0,0,0,71.421-5.571Z" transform="translate(1204.096 -1271.625)"/></g><g transform="translate(300.693 213.381)"><path class="y" d="M-869.045,862.085l-.3-1.645c.325-.059,32.585-6.013,43.986-15.46l1.067,1.287C-836.029,855.993-867.7,861.841-869.045,862.085Z" transform="translate(869.344 -844.98)"/></g></g></svg>