<svg xmlns="http://www.w3.org/2000/svg" xmlns:xlink="http://www.w3.org/1999/xlink" width="320" height="320" viewBox="0 0 320 320"><defs><style>.a,.d{fill:none;}.a{stroke:#707070;}.b{clip-path:url(#a);}.c{fill:#cae4eb;}.d{stroke:#383784;stroke-miterlimit:10;stroke-width:3px;}.e{fill:#4bcf3d;}.f{opacity:0.1;}.g{fill:#43ba37;}.h{opacity:0.8;}.i{fill:#fff;}.j{opacity:0.54;}.k{fill:#ff882b;}.l{fill:#f14950;}.m{fill:#383784;}</style><clipPath id="a"><path class="a" d="M0,0H320V320H0Z" transform="translate(70 1580)"/></clipPath></defs><g class="b" transform="translate(-70 -1580)"><g transform="translate(-101.785 1605.5)"><path class="c" d="M412.919,117.81H386.412s-2.039-10.875,12.234-8.156c5.437-8.836,8.156-9.515,12.234-9.515s8.836,4.078,8.836,4.078Z" transform="translate(-156.348 -45.839)"/><g transform="translate(365.219 110.033)"><path class="c" d="M676.686,234.662h26.508s2.039-10.875-12.234-8.157c-5.437-8.836-8.156-9.515-12.235-9.515s-8.836,4.078-8.836,4.078Z" transform="translate(-669.889 -216.99)"/></g><path class="d" d="M466.085,340.254c1.508,14.263,25.685,37.625,0,57.551-26.836,20.819-112.027,37.135-120.016,63.148" transform="translate(-150.92 -171.429)"/><ellipse class="e" cx="68.464" cy="72.773" rx="68.464" ry="72.773" transform="translate(251.16 12.5)"/><path class="f" d="M497.5,151.683a65.141,65.141,0,0,0,36.627,11.29c37.811,0,68.464-32.584,68.464-72.773,0-31.326-18.623-58.031-44.75-68.281C576.977,34.813,589.68,57.534,589.68,83.4c0,40.189-30.653,72.773-68.464,72.773A64.534,64.534,0,0,1,497.5,151.683Z" transform="translate(-214.505 -4.927)"/><path class="g" d="M552.389,311.1l10.244,16.962H533.139L543.384,311.1Z" transform="translate(-233.145 -156.182)"/><g class="h" transform="translate(289.669 71.601)"><path class="i" d="M511.49,142.539l.242,20.093a.977.977,0,0,0,1.585.752L526.863,152.6a.977.977,0,0,0-.062-1.574l-13.788-9.306A.977.977,0,0,0,511.49,142.539Z" transform="translate(-511.49 -139.099)"/><path class="i" d="M521.855,138.625l18.166,12.262a.977.977,0,0,0,1.125-.022l17.276-12.688a.977.977,0,0,0-.59-1.764l-35.443.426A.977.977,0,0,0,521.855,138.625Z" transform="translate(-516.686 -136.413)"/><path class="i" d="M593.166,161.523l-.24-19.965a.977.977,0,0,0-1.555-.776l-13.144,9.652A.977.977,0,0,0,578.21,152l13.384,10.313A.976.976,0,0,0,593.166,161.523Z" transform="translate(-546.188 -138.598)"/><path class="i" d="M521.124,177.053a.977.977,0,0,0,.62,1.741l36.563-.438a.977.977,0,0,0,.584-1.75l-12.976-10a.977.977,0,0,0-1.174-.014l-3.768,2.768a1.187,1.187,0,0,1-1.369.027l-4.2-2.833a.977.977,0,0,0-1.155.046Z" transform="translate(-516.335 -152.091)"/></g><g class="j" transform="translate(271.277 30.707)"><path class="i" d="M500.188,58.63c-11.754,2.36-19.1,13.431-19.1,25.077,0,5.248-8.158,5.257-8.157,0,.007-15.035,9.852-29.881,25.09-32.942C503.145,49.736,505.338,57.6,500.188,58.63Z" transform="translate(-472.93 -50.673)"/></g><path class="c" d="M339.244,224.808h79.522s2.719-14.953-16.992-12.914C392.259,194.9,388.181,194.9,377.986,194.9s-14.953,14.274-14.953,14.274-2.719-2.039-7.477-1.359-6.117,5.437-6.117,5.437-5.437-4.078-8.836,0-3.4,8.156-2.039,11.554" transform="translate(-130.93 -95.404)"/><path class="c" d="M769.351,118.5H685.776s0-14.8,14.8-13.929c2.612-10.447,7.836-17.411,17.412-17.411s13.929,13.929,13.929,13.929,1.741-3.482,10.447-3.482,10.447,8.706,10.447,8.706a17.354,17.354,0,0,1,8.706-.871C765.869,106.308,770.222,112.4,769.351,118.5Z" transform="translate(-312.98 -39.048)"/></g><g transform="translate(-119.444 1046.221)"><rect class="k" width="2.657" height="20.88" transform="translate(204.709 797.972) rotate(-180)"/><rect class="k" width="3.417" height="28.093" rx="1.708" transform="translate(217.537 775.193) rotate(90)"/><rect class="l" width="16.472" height="61.692" transform="translate(212.034 853.779) rotate(-180)"/><rect class="m" width="21.639" height="3.701" transform="translate(214.618 853.779) rotate(-180)"/><rect class="m" width="21.639" height="3.701" transform="translate(214.618 793.321) rotate(-180)"/></g></g></svg>