<svg xmlns="http://www.w3.org/2000/svg" xmlns:xlink="http://www.w3.org/1999/xlink" width="24" height="24" viewBox="0 0 24 24"><defs><style>.a{fill:none;}.b{clip-path:url(#a);}.c{fill:#fff;}</style><clipPath id="a"><rect class="a" width="24" height="24" transform="translate(-164.406 33.043)"/></clipPath></defs><g transform="translate(24 24) rotate(180)"><g class="b" transform="translate(164.406 -33.043)"><g transform="translate(1.698 1.512)"><path class="c" d="M-161.576,36.143h14.943a.8.8,0,0,1,.83.755v.15a.8.8,0,0,1-.83.755h-14.943a.8.8,0,0,1-.83-.755V36.9A.8.8,0,0,1-161.576,36.143Z"/><path class="c" d="M-161.511,51.943h13.153a.833.833,0,0,1,.895.755v.15a.834.834,0,0,1-.895.755h-13.153a.834.834,0,0,1-.895-.755V52.7A.834.834,0,0,1-161.511,51.943Z" transform="translate(0 -2.684)"/><rect class="c" width="10" height="2" rx="0.909" transform="translate(-162.104 42.531)"/></g></g></g></svg>