<svg xmlns="http://www.w3.org/2000/svg" xmlns:xlink="http://www.w3.org/1999/xlink" width="80" height="80" viewBox="0 0 80 80"><defs><style>.a{fill:none;}.b{fill:#f9fafb;}.c{clip-path:url(#a);}.d{opacity:0.88;}.e{fill:#ed1c24;}.f{opacity:0.08;}.g{opacity:0.1;}.h{fill:#fffde8;}.i{fill:#383784;}</style><clipPath id="a"><rect class="a" width="46" height="46" transform="translate(2 2)"/></clipPath></defs><g transform="translate(-735 -712)"><rect class="b" width="80" height="80" rx="16" transform="translate(735 792) rotate(-90)"/></g><g transform="translate(15 15)"><g class="c"><g class="d"><path class="e" d="M37.9,23.034a2.076,2.076,0,0,1-.365,2.277,17.349,17.349,0,0,1-12.379,5.628,17.373,17.373,0,0,1-12.612-5.493,2.069,2.069,0,0,1-.42-2.2c.2-.507.437-1.033.707-1.571a12.137,12.137,0,0,1,.713-1.285,8.74,8.74,0,0,1,6.035-3.812,1.155,1.155,0,0,1,.9.224,7.483,7.483,0,0,0,8.687.115,1.938,1.938,0,0,1,1.031-.34,7.836,7.836,0,0,1,4.174,1.781,11.845,11.845,0,0,1,2.02,2.171,13.481,13.481,0,0,1,1.43,2.331C37.844,22.917,37.872,22.976,37.9,23.034Z"/><path class="e" d="M26.275,2.139a7.032,7.032,0,1,0,5.516,5.515A7.045,7.045,0,0,0,26.275,2.139Z"/><g class="f"><path d="M30.528,13.219A7.021,7.021,0,0,0,18.4,6.345,7.03,7.03,0,0,1,31.788,7.657,6.984,6.984,0,0,1,30.528,13.219Z"/></g><g class="g"><path d="M37.612,25.193a2.144,2.144,0,0,0-.178-.556c-.032-.073-.063-.136-.095-.2a14.435,14.435,0,0,0-1.626-2.655,13.407,13.407,0,0,0-2.288-2.467,8.921,8.921,0,0,0-4.754-2.025.536.536,0,0,0-.126.01c.21-.115.419-.251.619-.388a1.91,1.91,0,0,1,1.028-.336,7.867,7.867,0,0,1,4.177,1.774,12.493,12.493,0,0,1,2.015,2.172,13.116,13.116,0,0,1,1.428,2.33c.031.063.063.126.084.178A2.047,2.047,0,0,1,37.612,25.193Z"/></g></g><path class="h" d="M37.19,45.6H12.778a3.112,3.112,0,0,1-3.223-2.368l-2.4-15.258C6.9,26.345,8.418,24.9,10.382,24.9h29.2c1.964,0,3.48,1.448,3.224,3.079l-2.4,15.258A3.114,3.114,0,0,1,37.19,45.6Z"/><path class="i" d="M37.19,47.1H12.778a4.568,4.568,0,0,1-4.7-3.636l-2.4-15.259A3.854,3.854,0,0,1,6.6,25.062,4.937,4.937,0,0,1,10.382,23.4h29.2a4.937,4.937,0,0,1,3.784,1.664,3.854,3.854,0,0,1,.921,3.146L41.9,43.467A4.569,4.569,0,0,1,37.19,47.1ZM10.382,26.4a1.981,1.981,0,0,0-1.505.614.886.886,0,0,0-.237.731L11.036,43a1.666,1.666,0,0,0,1.742,1.1H37.19A1.667,1.667,0,0,0,38.933,43l2.4-15.259a.886.886,0,0,0-.237-.731,1.981,1.981,0,0,0-1.505-.614Z"/><path class="i" d="M42.886,48H7.114a1.5,1.5,0,0,1,0-3H42.886a1.5,1.5,0,0,1,0,3Z"/><circle class="e" cx="3.234" cy="3.234" r="3.234" transform="translate(21.766 32.463)"/></g></g></svg>