<svg xmlns="http://www.w3.org/2000/svg" xmlns:xlink="http://www.w3.org/1999/xlink" width="40" height="40" viewBox="0 0 40 40"><defs><style>.a{fill:#fff;}.b{fill:#f9fafb;}.c{clip-path:url(#a);}.d{fill:#383784;}.e{fill:#ed1c24;}.f{fill:#fffde8;}</style><clipPath id="a"><rect class="a" width="36" height="36" transform="translate(60 6284.001)"/></clipPath></defs><g transform="translate(-165 -1509)"><g transform="translate(-570 757)"><rect class="b" width="40" height="40" rx="8" transform="translate(735 792) rotate(-90)"/></g></g><g class="c" transform="translate(-58 -6282)"><g transform="translate(-7 13.001)"><g transform="translate(71 6272)"><path class="d" d="M81.115,337.148a11.145,11.145,0,0,1-14.891,0,12.87,12.87,0,0,0-2.717,2.756A13.08,13.08,0,0,0,61,347.654v.133a.987.987,0,0,0,.975,1H85.363a.987.987,0,0,0,.975-1v-.133a13.08,13.08,0,0,0-2.506-7.75A12.874,12.874,0,0,0,81.115,337.148Z" transform="translate(-59.669 -314.785)"/><path class="e" d="M68.023,9.651h-.257A13.743,13.743,0,0,0,63.31,2.966a13.124,13.124,0,0,0-16.619,0,13.743,13.743,0,0,0-4.456,6.685h-.257a.988.988,0,0,0-.977,1v3.993a.988.988,0,0,0,.977,1H43.6v-2a11.822,11.822,0,0,1,.69-3.993h0a11.318,11.318,0,0,1,21.417,0h0a11.822,11.822,0,0,1,.69,3.993v3.993h-2.8l-1.2,2h4.975a.988.988,0,0,0,.977-1V15.582a1,1,0,0,0,.651-.94V10.649A.988.988,0,0,0,68.023,9.651Z" transform="translate(-41 0)"/><path class="f" d="M8.782,0C13.632,0,17.4,3.283,17.9,9.085a9.062,9.062,0,0,1-9.122,9.8C3.932,18.886,0,14.1,0,9.085A8.937,8.937,0,0,1,8.782,0Z" transform="translate(5.191 4.326)"/><path class="d" d="M122.082,74.594a1,1,0,0,1,.993-.95h5.77a9.863,9.863,0,0,0,.838-3.993,9.346,9.346,0,1,0-9.341,9.651,9.223,9.223,0,0,0,7.319-3.661h-4.613A.985.985,0,0,1,122.082,74.594Z" transform="translate(-106.341 -56.007)"/></g></g></g></svg>