<svg xmlns="http://www.w3.org/2000/svg" xmlns:xlink="http://www.w3.org/1999/xlink" width="80" height="80" viewBox="0 0 80 80"><defs><style>.a{fill:none;}.b{fill:#f9fafb;}.c{clip-path:url(#a);}.d{fill:#fffde8;}.e{fill:#383784;}.f{opacity:0.06;}.g{fill:#ed1c24;}.h{opacity:0.1;}</style><clipPath id="a"><rect class="a" width="46" height="46" transform="translate(2 2)"/></clipPath></defs><g transform="translate(-735 -712)"><rect class="b" width="80" height="80" rx="16" transform="translate(735 792) rotate(-90)"/></g><g transform="translate(15 15)"><g class="c"><path class="d" d="M44.539,6.674v36.64a1.505,1.505,0,0,1-1.5,1.5h-30.7a1.505,1.505,0,0,1-1.5-1.5V6.674a1.5,1.5,0,0,1,1.5-1.5h2.391v17.48a1.5,1.5,0,0,0,3,0V5.174h25.31A1.5,1.5,0,0,1,44.539,6.674Z"/><path class="e" d="M16.232,29.151a1.5,1.5,0,0,0-1.5,1.5v4.341a1.5,1.5,0,0,0,3,0V30.651A1.5,1.5,0,0,0,16.232,29.151Z"/><path class="e" d="M16.232,29.151a1.5,1.5,0,0,0-1.5,1.5v4.341a1.5,1.5,0,0,0,3,0V30.651A1.5,1.5,0,0,0,16.232,29.151Z"/><path class="e" d="M16.232,29.151a1.5,1.5,0,0,0-1.5,1.5v4.341a1.5,1.5,0,0,0,3,0V30.651A1.5,1.5,0,0,0,16.232,29.151Z"/><path class="e" d="M43.041,2.172h-30.7a4.505,4.505,0,0,0-4.5,4.5v.34H3.551a1.5,1.5,0,0,0,0,3H7.838v5.682H3.551a1.5,1.5,0,1,0,0,3H7.838v5.68H3.551a1.5,1.5,0,0,0,0,3H7.838v5.681H3.551a1.5,1.5,0,0,0,0,3H7.838V43.31a4.505,4.505,0,0,0,4.5,4.5h30.7a4.505,4.505,0,0,0,4.5-4.5V6.672A4.505,4.505,0,0,0,43.041,2.172Zm1.5,41.138a1.5,1.5,0,0,1-1.5,1.5h-30.7a1.5,1.5,0,0,1-1.5-1.5V6.672a1.5,1.5,0,0,1,1.5-1.5h2.394V22.651a1.5,1.5,0,0,0,3,0V5.172H43.041a1.5,1.5,0,0,1,1.5,1.5Z"/><path class="f" d="M17.848,39.414V22.485c-.04,0-.08,0-.119-.01v.179a1.5,1.5,0,0,1-3,0V5.174H12.338a1.5,1.5,0,0,0-1.5,1.5v36.64a1.505,1.505,0,0,0,1.5,1.5h30.7a1.505,1.505,0,0,0,1.5-1.5v-3.9Z"/><circle class="g" cx="9.894" cy="9.894" r="9.894" transform="translate(21.296 13.927)"/><path class="h" d="M41.078,23.824a9.852,9.852,0,0,1-3.73,7.73,9.883,9.883,0,0,0-13.889-13.89,9.879,9.879,0,0,1,17.619,6.16Z"/><path class="d" d="M34.691,21.525l-2.58-2.579a1.249,1.249,0,0,0-1.768,0L27.689,21.6a1.25,1.25,0,0,0,1.768,1.768l.483-.484v4.929a1.25,1.25,0,1,0,2.5,0v-5l.483.483a1.25,1.25,0,1,0,1.768-1.767Z"/></g></g></svg>