<svg xmlns="http://www.w3.org/2000/svg" xmlns:xlink="http://www.w3.org/1999/xlink" width="24" height="24" viewBox="0 0 24 24"><defs><style>.a,.c{fill:#fff;}.a{stroke:#707070;}.b{clip-path:url(#a);}</style><clipPath id="a"><rect class="a" width="24" height="24" transform="translate(439 546)"/></clipPath></defs><g class="b" transform="translate(-439 -546)"><g transform="translate(424 547)"><g transform="translate(21.5)"><path class="c" d="M138.936,10.028a.686.686,0,0,0-.626-.4h-2.75V.687A.688.688,0,0,0,134.873,0h-2.75a.688.688,0,0,0-.687.687V9.625h-2.75a.687.687,0,0,0-.517,1.14l4.812,5.5a.686.686,0,0,0,1.034,0l4.813-5.5A.685.685,0,0,0,138.936,10.028Z" transform="translate(-127.998)"/></g><g transform="translate(16 15.125)"><g transform="translate(0)"><path class="c" d="M35.067,352v4.125H18.933V352H16v5.5a1.423,1.423,0,0,0,1.467,1.375H36.533A1.422,1.422,0,0,0,38,357.5V352Z" transform="translate(-16 -352)"/></g></g></g></g></svg>