<svg xmlns="http://www.w3.org/2000/svg" xmlns:xlink="http://www.w3.org/1999/xlink" width="80" height="80" viewBox="0 0 80 80"><defs><style>.a{fill:none;}.b{fill:#f9fafb;}.c{clip-path:url(#a);}.d{fill:#fffde8;}.e{fill:#ed1c24;}.f{opacity:0.08;}.g{fill:#383784;}.h{opacity:0.06;}</style><clipPath id="a"><rect class="a" width="46" height="46" transform="translate(2 2)"/></clipPath></defs><g transform="translate(-735 -712)"><rect class="b" width="80" height="80" rx="16" transform="translate(735 792) rotate(-90)"/></g><g transform="translate(15 15)"><g class="c"><path class="d" d="M44.941,10.072v33.32a1.5,1.5,0,0,1-1.5,1.5H15.911a1.5,1.5,0,0,1-1.5-1.5v-2.1a1.5,1.5,0,0,0-1.5-1.5H6.561L14,29.9a3.049,3.049,0,0,0,.18-.32,3.318,3.318,0,0,0,.12-.32,2.721,2.721,0,0,0,.07-.33c.02-.11.03-.22.04-.32V10.072a1.5,1.5,0,0,1,1.5-1.5h27.53A1.5,1.5,0,0,1,44.941,10.072Z"/><path class="e" d="M37.571,8.572v13.94a1,1,0,0,1-1.67.75l-.29-.26-4.68-4.22a1.01,1.01,0,0,0-1.35.01l-4.89,4.45a1,1,0,0,1-1.67-.74V8.572Z"/><path class="f" d="M37.571,8.572v13.94a1,1,0,0,1-1.67.75l-.29-.26V8.572Z"/><path class="g" d="M32.742,32.747H23a1.5,1.5,0,0,1,0-3h9.744a1.5,1.5,0,0,1,0,3Z"/><path class="g" d="M40.828,32.747h-2.51a1.5,1.5,0,0,1,0-3h2.51a1.5,1.5,0,0,1,0,3Z"/><path class="e" d="M40.111,42.442v2.45H20.491v-2.45a2.88,2.88,0,0,1,.06-.59,2.951,2.951,0,0,1,1.23-1.87,1.644,1.644,0,0,1,.22-.14c.04-.02.08-.05.13-.07s.13-.06.2-.09a3.794,3.794,0,0,1,.51-.17c.11-.02.23-.04.35-.05.1-.01.2-.02.3-.02h13.62A3,3,0,0,1,40.111,42.442Z"/><path class="f" d="M40.111,42.442v2.45h-1.87v-.24a3,3,0,0,0-3-3H21.621a2.908,2.908,0,0,0-1.07.2,2.951,2.951,0,0,1,1.23-1.87,1.644,1.644,0,0,1,.22-.14c.04-.02.08-.05.13-.07s.13-.06.2-.09a3.794,3.794,0,0,1,.51-.17c.11-.02.23-.04.35-.05.1-.01.2-.02.3-.02h13.62A3,3,0,0,1,40.111,42.442Z"/><path class="h" d="M18.441,8.572v20.46a.755.755,0,0,1-.16.46l-5.9,7.3a.722.722,0,0,0,.56,1.18h3.88a.734.734,0,0,1,.73.73v6.19h-1.64a1.5,1.5,0,0,1-1.5-1.5v-2.1a1.5,1.5,0,0,0-1.5-1.5H6.561L14,29.9a3.049,3.049,0,0,0,.18-.32,3.318,3.318,0,0,0,.12-.32,2.721,2.721,0,0,0,.07-.33c.02-.11.03-.22.04-.32V10.072a1.5,1.5,0,0,1,1.5-1.5Z"/><path class="g" d="M43.441,5.572H15.911a4.5,4.5,0,0,0-4.5,4.5V28.35L2.353,40.387a1.5,1.5,0,0,0,1.2,2.4h7.86v.6a4.5,4.5,0,0,0,4.5,4.5h27.53a4.5,4.5,0,0,0,4.5-4.5V10.072A4.505,4.505,0,0,0,43.441,5.572Zm1.5,37.819a1.5,1.5,0,0,1-1.5,1.5H15.911a1.5,1.5,0,0,1-1.5-1.5V41.962c0-.115,0-.555,0-.673a1.5,1.5,0,0,0-1.5-1.5H6.557L14,29.9a2.6,2.6,0,0,0,.182-.324,2.478,2.478,0,0,0,.123-.313c.027-.1.052-.211.072-.332s.03-.223.037-.322V10.072a1.5,1.5,0,0,1,1.5-1.5h27.53a1.5,1.5,0,0,1,1.5,1.5Z"/></g></g></svg>