<svg xmlns="http://www.w3.org/2000/svg" xmlns:xlink="http://www.w3.org/1999/xlink" width="24" height="24" viewBox="0 0 24 24"><defs><style>.a,.c{fill:#7674af;}.a{stroke:#707070;}.b{clip-path:url(#a);}</style><clipPath id="a"><rect class="a" width="24" height="24"/></clipPath></defs><g class="b"><g transform="translate(1 4)"><path class="c" d="M282.4,213.333a5.062,5.062,0,1,0,2.531,9.446.46.46,0,1,0-.461-.8,4.142,4.142,0,1,1,2.071-3.588v.46a.92.92,0,1,1-1.841,0v-1.841a.459.459,0,0,0-.778-.331,2.3,2.3,0,1,0,.194,3.227,1.838,1.838,0,0,0,3.344-1.055v-.46A5.068,5.068,0,0,0,282.4,213.333Zm0,6.442a1.38,1.38,0,1,1,1.38-1.38A1.382,1.382,0,0,1,282.4,219.775Z" transform="translate(-265.458 -206.891)"/><path class="c" d="M13.933,65.065l7.581,6.167a.436.436,0,0,0,.081.053.694.694,0,0,0,.319.078.745.745,0,0,0,.4-.134l7.575-6.164a.46.46,0,0,0-.027-.734A1.828,1.828,0,0,0,28.815,64H15.01a1.827,1.827,0,0,0-1.05.331.46.46,0,0,0-.027.734Z" transform="translate(-13.17 -64)"/><path class="c" d="M11.044,122.936a5.989,5.989,0,0,1,5.982-5.982.46.46,0,0,0,.46-.46V114.03a.46.46,0,0,0-.262-.416.465.465,0,0,0-.488.059l-7.06,5.745-.081.053a1.606,1.606,0,0,1-1.782-.053L.75,113.673a.46.46,0,0,0-.75.357v8.446a1.842,1.842,0,0,0,1.841,1.841h8.816a.46.46,0,0,0,.456-.525A5.973,5.973,0,0,1,11.044,122.936Z" transform="translate(0 -111.432)"/></g></g></svg>