<svg xmlns="http://www.w3.org/2000/svg" width="35" height="35" viewBox="0 0 35 35"><defs><style>.a,.d{fill:none;}.a{stroke:#383784;}.b{fill:#ed1c24;}.c{stroke:none;}</style></defs><g class="a"><ellipse class="c" cx="17.5" cy="17.5" rx="17.5" ry="17.5"/><ellipse class="d" cx="17.5" cy="17.5" rx="17" ry="17"/></g><g transform="translate(10.5 12.505)"><g transform="translate(0 0)"><path class="b" d="M7,9,5.268,7.484.316,11.724A1.014,1.014,0,0,0,1.007,12H12.993a1.007,1.007,0,0,0,.688-.271L8.732,7.484Z" transform="translate(0 -2.006)"/><path class="b" d="M13.684,2.271A1.008,1.008,0,0,0,12.993,2H1.007a1,1,0,0,0-.689.273L7,7.993Z" transform="translate(0 -2)"/><path class="b" d="M0,2.878v8.3l4.833-4.1Z" transform="translate(0 -2.001)"/><path class="b" d="M9.167,7.074,14,11.177v-8.3Z" transform="translate(0 -2.001)"/></g></g></svg>