<svg xmlns="http://www.w3.org/2000/svg" xmlns:xlink="http://www.w3.org/1999/xlink" width="80" height="80" viewBox="0 0 80 80"><defs><style>.a,.e{fill:none;}.b{fill:#f9fafb;}.c{clip-path:url(#a);}.d{fill:#fffde8;}.e{stroke:#383784;stroke-linecap:round;stroke-linejoin:round;stroke-width:3px;}.f{opacity:0.06;}.g{fill:#ed1c24;}.h{opacity:0.08;}.i{fill:#383784;}</style><clipPath id="a"><rect class="a" width="46" height="46" transform="translate(2 2)"/></clipPath></defs><g transform="translate(-118 -2873)"><g transform="translate(-47 1404)"><g transform="translate(-570 757)"><rect class="b" width="80" height="80" rx="16" transform="translate(735 792) rotate(-90)"/></g></g><g transform="translate(133 2888)"><g class="c"><path class="d" d="M44.982,9.986V36.1a1.507,1.507,0,0,1-1.51,1.5l-8.33.01a.985.985,0,0,0-.17-.02H22.782a1.434,1.434,0,0,0-.61.14,1.444,1.444,0,0,0-.76.4l-5.94,6.23-6.72-6.73a1.038,1.038,0,0,0-.17-.12,1.483,1.483,0,0,0-1.04-.42H5V9.986a1.5,1.5,0,0,1,1.5-1.5h36.98A1.511,1.511,0,0,1,44.982,9.986Z"/><path class="e" d="M32.342,39.109"/><path class="f" d="M24.312,37.586h-1.53a1.434,1.434,0,0,0-.61.14,1.444,1.444,0,0,0-.76.4l-5.94,6.23-6.72-6.73a1.038,1.038,0,0,0-.17-.12,1.483,1.483,0,0,0-1.04-.42H5V9.986a1.5,1.5,0,0,1,1.5-1.5h3.55v22.82a1.788,1.788,0,0,0,1.79,1.79h3.73a10.533,10.533,0,0,1,7.83,3.49Z"/><path class="g" d="M41.872,23.356a8.47,8.47,0,0,1-.83,3.66,3.191,3.191,0,0,1-.23.45,8.5,8.5,0,1,1-14.16-9.31,2.65,2.65,0,0,1,.21-.26,8.5,8.5,0,0,1,15.01,5.46Z"/><path class="h" d="M33.372,14.856a8.477,8.477,0,0,0-6.51,3.04,2.65,2.65,0,0,0-.21.26A8.491,8.491,0,0,1,39.2,29.466a8.184,8.184,0,0,0,1.61-2,3.191,3.191,0,0,0,.23-.45,8.5,8.5,0,0,0-7.67-12.16Z"/><path class="i" d="M18.507,30.154,15.79,34.861a1,1,0,0,1-1.732,0L11.34,30.154a1,1,0,0,1,.866-1.5h5.435A1,1,0,0,1,18.507,30.154Z"/><path class="i" d="M11.34,19.441l2.718-4.707a1,1,0,0,1,1.732,0l2.717,4.707a1,1,0,0,1-.866,1.5H12.206A1,1,0,0,1,11.34,19.441Z"/><path class="d" d="M34.188,26.74l-3.633-2.1a1,1,0,0,1,0-1.732l3.633-2.1a1,1,0,0,1,1.5.866v4.195A1,1,0,0,1,34.188,26.74Z"/><path class="i" d="M43.479,5.489H6.5A4.505,4.505,0,0,0,2,9.989V38.457A1.5,1.5,0,0,0,3.23,39.93a1.491,1.491,0,0,0,.653.155H6.974l7.46,7.475a1.5,1.5,0,0,0,1.061.44h.017a1.5,1.5,0,0,0,1.068-.465l6.628-6.946h8.94a1.536,1.536,0,0,0,.194.019h0L43.479,40.6a4.505,4.505,0,0,0,4.5-4.5V9.989A4.505,4.505,0,0,0,43.479,5.489Zm1.5,30.607a1.5,1.5,0,0,1-1.5,1.5l-8.339.009a1.457,1.457,0,0,0-.162-.016H22.787a1.487,1.487,0,0,0-.615.135,1.461,1.461,0,0,0-.757.4l-5.944,6.229L8.753,37.621a1.4,1.4,0,0,0-.168-.112,1.5,1.5,0,0,0-1.042-.424H5V9.989a1.5,1.5,0,0,1,1.5-1.5H43.479a1.5,1.5,0,0,1,1.5,1.5Z"/></g></g></g></svg>