<svg xmlns="http://www.w3.org/2000/svg" xmlns:xlink="http://www.w3.org/1999/xlink" width="80" height="80" viewBox="0 0 80 80"><defs><style>.a{fill:none;}.b{fill:#f9fafb;}.c{clip-path:url(#a);}.d,.g{fill:#fffde8;}.e{fill:#383784;}.f{fill:#ed1c24;}.g{stroke:#383784;stroke-linecap:round;stroke-miterlimit:10;stroke-width:3px;}</style><clipPath id="a"><rect class="a" width="46" height="46" transform="translate(2 2)"/></clipPath></defs><g transform="translate(-735 -712)"><rect class="b" width="80" height="80" rx="16" transform="translate(735 792) rotate(-90)"/></g><g transform="translate(15 15)"><g class="c"><rect class="d" width="24.721" height="37.683" rx="4.468" transform="translate(3.5 8.817)"/><path class="e" d="M23.753,48H7.969A5.975,5.975,0,0,1,2,42.032V13.285A5.975,5.975,0,0,1,7.969,7.317H23.753a5.974,5.974,0,0,1,5.968,5.968V42.032A5.974,5.974,0,0,1,23.753,48ZM7.969,10.317A2.972,2.972,0,0,0,5,13.285V42.032A2.972,2.972,0,0,0,7.969,45H23.753a2.971,2.971,0,0,0,2.968-2.968V13.285a2.971,2.971,0,0,0-2.968-2.968Z"/><ellipse class="f" cx="2.117" cy="2.053" rx="2.117" ry="2.053" transform="translate(13.743 38.115)"/><path class="f" d="M17.265,15.254H14.456a1.5,1.5,0,0,1,0-3h2.809a1.5,1.5,0,0,1,0,3Z"/><path class="d" d="M3,0H21.872a3,3,0,0,1,3,3v9.936a3,3,0,0,1-3,3H0a0,0,0,0,1,0,0V3A3,3,0,0,1,3,0Z" transform="translate(21.649 16.562)"/><path class="e" d="M43.521,34H20.149V19.563a4.5,4.5,0,0,1,4.5-4.5H43.521a4.5,4.5,0,0,1,4.5,4.5V29.5A4.5,4.5,0,0,1,43.521,34ZM23.149,31H43.521a1.5,1.5,0,0,0,1.5-1.5V19.563a1.5,1.5,0,0,0-1.5-1.5H24.649a1.5,1.5,0,0,0-1.5,1.5Z"/><path class="f" d="M36.981,23.326h-9.1a1.573,1.573,0,0,1,0-3.145h9.1a1.573,1.573,0,0,1,0,3.145Z"/><path class="f" d="M32.966,28.879H27.881a1.572,1.572,0,1,1,0-3.144h5.085a1.572,1.572,0,0,1,0,3.144Z"/><path class="g" d="M24.266,23.583"/><path class="g" d="M19.373,27.754"/></g></g></svg>