<svg xmlns="http://www.w3.org/2000/svg" xmlns:xlink="http://www.w3.org/1999/xlink" width="18" height="18" viewBox="0 0 18 18"><defs><style>.a{fill:#ffb073;stroke:#707070;}.b{clip-path:url(#a);}.c{fill-rule:evenodd;fill:url(#b);}</style><clipPath id="a"><rect class="a" width="18" height="18" transform="translate(0 -0.081)"/></clipPath><linearGradient id="b" x1="0.5" x2="0.5" y2="1" gradientUnits="objectBoundingBox"><stop offset="0" stop-color="#bd137d"/><stop offset="1" stop-color="#ef552f"/></linearGradient></defs><g class="b" transform="translate(0 0.081)"><path class="c" d="M7.552,1.343a23.156,23.156,0,0,1,3.021.084A3.892,3.892,0,0,1,12,1.678,2.947,2.947,0,0,1,13.426,3.1a3.892,3.892,0,0,1,.252,1.426c0,.755.084,1.007.084,3.021a23.156,23.156,0,0,1-.084,3.021A3.892,3.892,0,0,1,13.426,12,2.947,2.947,0,0,1,12,13.426a3.892,3.892,0,0,1-1.426.252c-.755,0-1.007.084-3.021.084a23.156,23.156,0,0,1-3.021-.084A3.892,3.892,0,0,1,3.1,13.426,2.947,2.947,0,0,1,1.678,12a3.892,3.892,0,0,1-.252-1.426c0-.755-.084-1.007-.084-3.021a23.156,23.156,0,0,1,.084-3.021A3.892,3.892,0,0,1,1.678,3.1a3.014,3.014,0,0,1,.587-.839A1.419,1.419,0,0,1,3.1,1.678a3.892,3.892,0,0,1,1.426-.252,23.156,23.156,0,0,1,3.021-.084M7.552,0a24.793,24.793,0,0,0-3.1.084A5.18,5.18,0,0,0,2.6.42a3.285,3.285,0,0,0-1.343.839A3.285,3.285,0,0,0,.42,2.6,3.823,3.823,0,0,0,.084,4.447,24.793,24.793,0,0,0,0,7.552a24.793,24.793,0,0,0,.084,3.1A5.18,5.18,0,0,0,.42,12.5a3.285,3.285,0,0,0,.839,1.343,3.285,3.285,0,0,0,1.343.839,5.18,5.18,0,0,0,1.846.336,24.793,24.793,0,0,0,3.1.084,24.793,24.793,0,0,0,3.1-.084,5.18,5.18,0,0,0,1.846-.336A3.52,3.52,0,0,0,14.684,12.5a5.18,5.18,0,0,0,.336-1.846c0-.839.084-1.091.084-3.1a24.793,24.793,0,0,0-.084-3.1A5.18,5.18,0,0,0,14.684,2.6a3.285,3.285,0,0,0-.839-1.343A3.285,3.285,0,0,0,12.5.42,5.18,5.18,0,0,0,10.657.084,24.793,24.793,0,0,0,7.552,0m0,3.692a3.8,3.8,0,0,0-3.86,3.86,3.86,3.86,0,1,0,3.86-3.86m0,6.377A2.472,2.472,0,0,1,5.035,7.552,2.472,2.472,0,0,1,7.552,5.035a2.472,2.472,0,0,1,2.517,2.517,2.472,2.472,0,0,1-2.517,2.517M11.58,2.6a.923.923,0,1,0,.923.923A.931.931,0,0,0,11.58,2.6" transform="translate(1.079 1.306)"/></g></svg>