<svg xmlns="http://www.w3.org/2000/svg" xmlns:xlink="http://www.w3.org/1999/xlink" width="35" height="35" viewBox="0 0 35 35"><defs><style>.a{fill:#ed1c24;}.b,.e{fill:none;}.b{stroke:#383784;}.c{clip-path:url(#a);}.d{stroke:none;}</style><clipPath id="a"><path class="a" d="M0-64H11.815v18.884H0Z" transform="translate(0 64)"/></clipPath></defs><g class="b"><ellipse class="d" cx="17.5" cy="17.5" rx="17.5" ry="17.5"/><ellipse class="e" cx="17.5" cy="17.5" rx="17" ry="17"/></g><g transform="translate(12 7.989)"><g class="c"><g transform="translate(0 0)"><path class="a" d="M-14.092-21.881a3.189,3.189,0,0,1-3.19-3.187,3.188,3.188,0,0,1,3.19-3.186,3.188,3.188,0,0,1,3.19,3.186,3.189,3.189,0,0,1-3.19,3.187m0-9.158A5.9,5.9,0,0,0-20-25.138c0,5.635,5.908,12.983,5.908,12.983S-8.185-19.5-8.185-25.138a5.9,5.9,0,0,0-5.908-5.9" transform="translate(20 31.039)"/></g></g></g></svg>