<svg xmlns="http://www.w3.org/2000/svg" xmlns:xlink="http://www.w3.org/1999/xlink" width="80" height="80" viewBox="0 0 80 80"><defs><style>.a{fill:none;}.b{fill:#f9fafb;}.c{clip-path:url(#a);}.d{fill:#e41b23;}.e{fill:#fffde8;}.f{fill:#ed1c24;}.g{opacity:0.88;}.h{opacity:0.08;}.i{opacity:0.04;}.j{opacity:0.06;}.k{fill:#383784;}</style><clipPath id="a"><rect class="a" width="46" height="46" transform="translate(2 2)"/></clipPath></defs><g transform="translate(-735 -712)"><rect class="b" width="80" height="80" rx="16" transform="translate(735 792) rotate(-90)"/></g><g transform="translate(15 15)"><g class="c"><rect class="d" width="20.234" height="5.553" rx="2.777" transform="translate(15.18 5.608)"/><path class="e" d="M45.017,26.842v16.84a1.459,1.459,0,0,1-.23.61,1.5,1.5,0,0,1-1.25.67H6.517a1.5,1.5,0,0,1-1.5-1.5V27.112a1.463,1.463,0,0,1,.68-1.25,1.5,1.5,0,0,1,.83-.26,1.552,1.552,0,0,1,.74.2l.67.38,14.87,8.49a4.549,4.549,0,0,0,4.45-.01L42.8,25.8a1.472,1.472,0,0,1,1.49.01A1.5,1.5,0,0,1,45.017,26.842Z"/><path class="f" d="M41.107,7.932H9.487c-.1,0-.2.01-.3.02s-.2.02-.3.04-.19.05-.29.08a.161.161,0,0,0-.09.03,3.039,3.039,0,0,0-.45.19,3.505,3.505,0,0,0-.4.27,3.467,3.467,0,0,0-.29.25,1.538,1.538,0,0,1-.12.13,2.725,2.725,0,0,0-.25.32,2.135,2.135,0,0,0-.23.42,2.226,2.226,0,0,0-.16.43c0,.01-.01.02-.01.03a2.9,2.9,0,0,0-.11.79V22.6a4.553,4.553,0,0,1,2.26.6l2.88,1.64a6.749,6.749,0,0,1,3.56-1.63.9.9,0,0,1,.71.18,5.923,5.923,0,0,0,6.41.39h.01l.24-.15a2.516,2.516,0,0,0,.24-.15,1.46,1.46,0,0,1,.82-.27,6.2,6.2,0,0,1,3.32,1.41,9.689,9.689,0,0,1,1.6,1.72,10.756,10.756,0,0,1,1.14,1.86c.01.02.02.05.03.07a.076.076,0,0,1,.02.04.037.037,0,0,0,.01.03c.03.08.06.19.11.33.11.34.21.64.29.89l11.08-6.3.1-.06a4.38,4.38,0,0,1,2.79-.56V10.932A3.009,3.009,0,0,0,41.107,7.932Zm-16.15,9.92a2.568,2.568,0,0,1-.06.4c-.02.1-.04.2-.07.3a2.418,2.418,0,0,1-.1.36,3.043,3.043,0,0,1-.14.39,6.363,6.363,0,0,1-.28.59,4.106,4.106,0,0,1-.24.39c-.05.08-.11.16-.17.24,0,.01-.01.01-.01.02a5.573,5.573,0,0,1-9.62-5.48v-.01a4.442,4.442,0,0,1,.24-.49,4.342,4.342,0,0,1,.28-.46,3.906,3.906,0,0,1,.3-.41l.02-.02a3.8,3.8,0,0,1,.33-.37,5.323,5.323,0,0,1,.86-.71,3.992,3.992,0,0,1,.44-.27,5.021,5.021,0,0,1,1.41-.54,3.105,3.105,0,0,1,.42-.08c.13-.02.26-.04.39-.05a3.54,3.54,0,0,1,.46-.02,5.747,5.747,0,0,1,2.27.48q.375.18.72.39a5.081,5.081,0,0,1,.95.77,5.459,5.459,0,0,1,1.53,2.85A5.982,5.982,0,0,1,24.957,17.852Zm10.96,4.92h-7.07a1.5,1.5,0,0,1,0-3h7.07a1.5,1.5,0,0,1,0,3Zm2.83-6.75H28.407a1.5,1.5,0,1,1,0-3h10.34a1.5,1.5,0,1,1,0,3Z"/><g class="g"><path class="f" d="M29.847,28.659c0,.008,0,.009,0,.009a2.579,2.579,0,0,1-.109-.326.037.037,0,0,1-.01-.03c0,.01.01.02.02.03A1.439,1.439,0,0,1,29.847,28.659Z"/><g class="h"><path d="M14.247,15.082c0-.01.01-.02.02-.03v.01Z"/><path d="M20.507,11.732a5.249,5.249,0,0,1,1.18.38,5.747,5.747,0,0,0-2.27-.48A5.817,5.817,0,0,1,20.507,11.732Z"/></g></g><path class="i" d="M41.107,7.932H9.487c-.1,0-.2.01-.3.02s-.2.02-.3.04-.19.05-.29.08a.161.161,0,0,0-.09.03,3.039,3.039,0,0,0-.45.19,3.505,3.505,0,0,0-.4.27,3.467,3.467,0,0,0-.29.25,1.538,1.538,0,0,1-.12.13,2.725,2.725,0,0,0-.25.32,2.135,2.135,0,0,0-.23.42,2.226,2.226,0,0,0-.16.43c0,.01-.01.02-.01.03h31.62a3.009,3.009,0,0,1,3,3v10.12l.1-.06a4.38,4.38,0,0,1,2.79-.56V10.932A3.009,3.009,0,0,0,41.107,7.932Z"/><path class="j" d="M45.017,41.372v2.31a1.459,1.459,0,0,1-.23.61,1.5,1.5,0,0,1-1.25.67H6.517a1.5,1.5,0,0,1-1.5-1.5V27.112a1.463,1.463,0,0,1,.68-1.25,1.5,1.5,0,0,1,.83-.26,1.552,1.552,0,0,1,.74.2l.67.38v15.19Z"/><path class="k" d="M43.537,47.962H6.517a4.5,4.5,0,0,1-4.5-4.5V27.112A4.507,4.507,0,0,1,8.751,23.2l15.539,8.86a1.529,1.529,0,0,0,1.489,0L41.314,23.2a4.5,4.5,0,0,1,6.723,3.913v16.35a4.493,4.493,0,0,1-4.5,4.5ZM6.526,25.6a1.515,1.515,0,0,0-.83.253,1.472,1.472,0,0,0-.679,1.254v16.35a1.5,1.5,0,0,0,1.5,1.5h37.02a1.492,1.492,0,0,0,1.5-1.5V27.112A1.5,1.5,0,0,0,42.8,25.806L27.26,34.665a4.536,4.536,0,0,1-4.45,0L7.264,25.805A1.489,1.489,0,0,0,6.526,25.6Z"/></g></g></svg>