<svg xmlns="http://www.w3.org/2000/svg" xmlns:xlink="http://www.w3.org/1999/xlink" width="80" height="80" viewBox="0 0 80 80"><defs><style>.a{fill:none;}.b{fill:#f9fafb;}.c{clip-path:url(#a);}.d{fill:#fffde8;}.e{opacity:0.06;}.f{opacity:0.88;}.g{fill:#ed1c24;}.h{opacity:0.08;}.i{opacity:0.1;}.j{fill:#6aa9ff;}.k{fill:#383784;}</style><clipPath id="a"><rect class="a" width="46" height="46" transform="translate(2 2)"/></clipPath></defs><g transform="translate(-165 -1469)"><g transform="translate(-570 757)"><rect class="b" width="80" height="80" rx="16" transform="translate(735 792) rotate(-90)"/></g></g><g transform="translate(15 15)"><g class="c"><path class="d" d="M44.919,34.752l2.379,9.04a26.051,26.051,0,0,1-3.73,3.56l-11.819-2.67a24.108,24.108,0,0,1-6.721.96c-12.67,0-22.98-9.78-22.98-21.8s10.31-21.8,22.98-21.8,22.981,9.78,22.981,21.8A20.985,20.985,0,0,1,44.919,34.752Z"/><path class="e" d="M46.318,44.862l-5.879,1.78-8.69-1.96a24.108,24.108,0,0,1-6.721.96c-12.67,0-22.98-9.78-22.98-21.8a20.116,20.116,0,0,1,.941-6.13l1.579-1.19a18.581,18.581,0,0,0,1.161,2.45c2.819,5.07,11.33,16.32,31.649,17.21a23.959,23.959,0,0,0,5.174,2.362,6.423,6.423,0,0,1,2.106.83C46.242,40.561,46.419,42.986,46.318,44.862Z"/><g class="f"><path class="g" d="M37.291,30.095a1.979,1.979,0,0,1-.348,2.169,16.539,16.539,0,0,1-11.8,5.363A16.553,16.553,0,0,1,13.13,32.392a1.973,1.973,0,0,1-.4-2.1c.2-.483.417-.984.674-1.5a11.405,11.405,0,0,1,.679-1.224,8.334,8.334,0,0,1,5.75-3.633,1.106,1.106,0,0,1,.856.214,7.132,7.132,0,0,0,8.276.11,1.841,1.841,0,0,1,.983-.324,7.474,7.474,0,0,1,3.978,1.7A11.251,11.251,0,0,1,35.85,27.7a12.864,12.864,0,0,1,1.362,2.22C37.24,29.982,37.266,30.039,37.291,30.095Z"/><path class="g" d="M26.216,10.184a6.7,6.7,0,1,0,5.255,5.256A6.713,6.713,0,0,0,26.216,10.184Z"/><g class="h"><path d="M30.269,20.742a6.69,6.69,0,0,0-11.56-6.55,6.7,6.7,0,0,1,12.76,1.25A6.662,6.662,0,0,1,30.269,20.742Z"/></g><g class="i"><path d="M37.019,32.152a2.013,2.013,0,0,0-.171-.53c-.03-.07-.059-.13-.089-.19a13.892,13.892,0,0,0-1.55-2.53,12.79,12.79,0,0,0-2.181-2.35,8.5,8.5,0,0,0-4.529-1.93.5.5,0,0,0-.121.01c.2-.11.4-.24.591-.37a1.813,1.813,0,0,1,.98-.32,7.5,7.5,0,0,1,3.98,1.69,11.932,11.932,0,0,1,1.919,2.07,12.549,12.549,0,0,1,1.361,2.22c.03.06.06.12.08.17A1.953,1.953,0,0,1,37.019,32.152Z"/></g></g><path class="j" d="M41.371,39.055"/><path class="k" d="M47.3,43.792l-2.379-9.04a20.985,20.985,0,0,0,3.09-10.91c0-12.02-10.31-21.8-22.981-21.8-10.43,0-19.259,6.62-22.039,15.67a20.116,20.116,0,0,0-.941,6.13c0,12.02,10.31,21.8,22.98,21.8a24.108,24.108,0,0,0,6.721-.96l8.69,1.96,3.129.71,2.55.57a1.25,1.25,0,0,0,.331.04,1.5,1.5,0,0,0,1.079-.46,1.517,1.517,0,0,0,.37-1.42Zm-15.25-2.12a.166.166,0,0,1-.069-.01,1,1,0,0,0-.17-.02h-.15c-.041,0-.091.01-.131.01a1.216,1.216,0,0,0-.18.04.17.17,0,0,0-.07.01,21.162,21.162,0,0,1-6.25.94c-11.019,0-19.98-8.43-19.98-18.8a17.846,17.846,0,0,1,.681-4.87c2.29-8.01,10.069-13.93,19.3-13.93,11.02,0,19.981,8.44,19.981,18.8a17.955,17.955,0,0,1-2.941,9.82,2.637,2.637,0,0,0-.149,1.5l1.78,6.75.669,2.54Z"/></g></g></svg>