<svg xmlns="http://www.w3.org/2000/svg" xmlns:xlink="http://www.w3.org/1999/xlink" width="80" height="80" viewBox="0 0 80 80"><defs><style>.a,.d{fill:none;}.b{fill:#f9fafb;}.c{clip-path:url(#a);}.d{stroke:#383784;stroke-linecap:round;stroke-miterlimit:10;stroke-width:3px;}.e{opacity:0.06;}.f{fill:#fffde8;}.g{fill:#383784;}.h{fill:#ed1c24;}.i{opacity:0.1;}</style><clipPath id="a"><rect class="a" width="46" height="46" transform="translate(2 2)"/></clipPath></defs><g transform="translate(-735 -712)"><rect class="b" width="80" height="80" rx="16" transform="translate(735 792) rotate(-90)"/></g><g transform="translate(15 15)"><g class="c"><path class="d" d="M26.445,30.821"/><path class="e" d="M30.128,29.575l-4.35,2.48a1.521,1.521,0,0,1-1.49,0l-4.35-2.48Z"/><path class="f" d="M44.583,16.482v6.66a4.32,4.32,0,0,0-3.483.384l-11.04,6.3-4.292,2.447a1.5,1.5,0,0,1-1.47,0l-4.292-2.447-7.468-4.262-2.319-1.322V16.482a1.1,1.1,0,0,1,.5-.937,1.121,1.121,0,0,1,1.174-.04l.641.365,12.846,7.321a4.132,4.132,0,0,0,4.045,0L42.9,15.505a1.1,1.1,0,0,1,1.115,0A1.121,1.121,0,0,1,44.583,16.482Z"/><path class="g" d="M45.51,12.95a4.023,4.023,0,0,0-4.065-.02L27.958,20.616a1.107,1.107,0,0,1-1.1,0L13.367,12.93A4.085,4.085,0,0,0,7.26,16.482v6.492a4.275,4.275,0,0,1,1.706.552l1.253.711V16.482a1.1,1.1,0,0,1,.5-.937,1.121,1.121,0,0,1,1.174-.04l13.487,7.686a4.132,4.132,0,0,0,4.045,0L42.9,15.505a1.1,1.1,0,0,1,1.115,0,1.121,1.121,0,0,1,.563.977v6.66a4.04,4.04,0,0,1,.937.4,4.392,4.392,0,0,1,2.023,2.565V16.482A4.048,4.048,0,0,0,45.51,12.95Z"/><path class="e" d="M12.538,15.87v9.689l-2.319-1.322V16.482a1.1,1.1,0,0,1,.5-.937,1.121,1.121,0,0,1,1.174-.04Z"/><path class="h" d="M30.892,2.481A19.546,19.546,0,0,0,19.465,6.2c-.354-.388-.71-.778-1.056-1.164a.5.5,0,0,0-.879.3q-.2,3.029-.4,6.056a.4.4,0,0,0,.7.28,19.631,19.631,0,0,1,1.525-1.588c.38-.354.755-.674,1.121-.966.013-.01.028-.012.041-.023A16.582,16.582,0,0,1,30.892,5.44a1.48,1.48,0,1,0,0-2.959Z"/><circle class="h" cx="14.663" cy="14.663" r="14.663" transform="translate(16.361 7.204)"/><path class="i" d="M43.252,29.948a14.476,14.476,0,0,0,1.4-6.243A14.666,14.666,0,0,0,17.78,15.574,14.66,14.66,0,1,1,43.252,29.948Z"/><path class="f" d="M37.136,22.481H31.744V17.42a1.48,1.48,0,1,0-2.96,0v6.293a1.457,1.457,0,0,0,.146.629,1.475,1.475,0,0,0,1.424,1.1h6.782a1.48,1.48,0,0,0,0-2.96Z"/><path class="f" d="M44.77,41.463v2.062a1.477,1.477,0,0,1-1.48,1.48H6.766a1.484,1.484,0,0,1-1.48-1.48V33.077q.03-1.2,0-2.368V27.394a1.46,1.46,0,0,1,.671-1.243,1.558,1.558,0,0,1,.819-.247,1.533,1.533,0,0,1,.73.2l.661.375V41.463Z"/><path class="f" d="M44.77,27.394V43.525a1.477,1.477,0,0,1-1.48,1.48H6.766a1.484,1.484,0,0,1-1.48-1.48V33.077q.03-1.2,0-2.368V27.394a1.46,1.46,0,0,1,.671-1.243,1.558,1.558,0,0,1,.819-.247,1.533,1.533,0,0,1,.73.2l15.332,8.742a4.465,4.465,0,0,0,4.39,0L42.56,26.1a1.484,1.484,0,0,1,2.21,1.293Z"/><path class="e" d="M44.77,41.463v2.062a1.477,1.477,0,0,1-1.48,1.48H6.766a1.484,1.484,0,0,1-1.48-1.48V33.077q.03-1.2,0-2.368V27.394a1.46,1.46,0,0,1,.671-1.243,1.558,1.558,0,0,1,.819-.247,1.533,1.533,0,0,1,.73.2l.661.375V41.463Z"/><path class="g" d="M43.288,47.962H6.765a4.445,4.445,0,0,1-4.44-4.44V27.391a4.446,4.446,0,0,1,6.643-3.86L24.3,32.272a1.506,1.506,0,0,0,1.469,0L41.1,23.531a4.437,4.437,0,0,1,6.632,3.86V43.522a4.428,4.428,0,0,1-4.44,4.44ZM6.774,25.906a1.5,1.5,0,0,0-.819.249,1.449,1.449,0,0,0-.67,1.236V43.522A1.482,1.482,0,0,0,6.765,45H43.288a1.5,1.5,0,0,0,1.236-.658,1.484,1.484,0,0,0,.244-.822V27.391A1.478,1.478,0,0,0,42.561,26.1L27.23,34.843a4.473,4.473,0,0,1-4.39,0L7.5,26.1A1.462,1.462,0,0,0,6.774,25.906Z"/><path class="h" d="M23.1,7.8"/></g></g></svg>