<svg xmlns="http://www.w3.org/2000/svg" xmlns:xlink="http://www.w3.org/1999/xlink" width="24" height="24" viewBox="0 0 24 24"><defs><style>.a{fill:#fff;stroke:#707070;}.b{clip-path:url(#a);}.c{fill:#fff79e;}.d{fill:#ff882b;}</style><clipPath id="a"><rect class="a" width="24" height="24" transform="translate(5121 -2819)"/></clipPath></defs><g class="b" transform="translate(-5121 2819)"><g transform="translate(6504.513 -3180.56)"><g transform="translate(0 -1)"><path class="c" d="M11,0A11,11,0,1,1,0,11,11,11,0,0,1,11,0Z" transform="translate(-1382.513 363.56)"/><g transform="translate(0 0.433)"><path class="d" d="M-1215.31,429.893a3.833,3.833,0,0,1-3.833,3.833,3.833,3.833,0,0,1-3.833-3.833,3.833,3.833,0,0,1,3.833-3.833A3.838,3.838,0,0,1-1215.31,429.893Z" transform="translate(-152.367 -60.933)"/><path class="d" d="M-1292.649,602.06h-5.368a4.99,4.99,0,0,0-4.984,4.983v3.589a11.46,11.46,0,0,0,7.668,2.928q.52,0,1.036-.047c.319-.028.636-.072.95-.127l.121-.022a11.454,11.454,0,0,0,5.562-2.736v-3.586A4.99,4.99,0,0,0-1292.649,602.06Z" transform="translate(-76.179 -228.5)"/></g></g></g></g></svg>