<svg xmlns="http://www.w3.org/2000/svg" xmlns:xlink="http://www.w3.org/1999/xlink" width="35" height="35" viewBox="0 0 35 35"><defs><style>.a{fill:#ed1c24;}.b,.f{fill:none;}.b{stroke:#383784;}.b,.c{opacity:0.95;}.d{clip-path:url(#a);}.e{stroke:none;}</style><clipPath id="a"><path class="a" d="M0-448.24H14.775V-463H0Z" transform="translate(-0.001 463)"/></clipPath></defs><g class="b"><circle class="e" cx="17.5" cy="17.5" r="17.5"/><circle class="f" cx="17.5" cy="17.5" r="17"/></g><g class="c" transform="translate(10.482 10.489)"><g class="d"><g transform="translate(0 0)"><path class="a" d="M-447.514-353.126a.712.712,0,0,1-.219.624l-2.078,2.06a1.17,1.17,0,0,1-.367.265,1.52,1.52,0,0,1-.445.14l-.094.008q-.078.008-.2.008a7.221,7.221,0,0,1-.961-.1,7.3,7.3,0,0,1-1.625-.5,13.647,13.647,0,0,1-2.18-1.194A16.247,16.247,0,0,1-458.279-354a17.115,17.115,0,0,1-1.812-2.06,14.677,14.677,0,0,1-1.156-1.818,9.776,9.776,0,0,1-.656-1.514,8.024,8.024,0,0,1-.3-1.17,3.855,3.855,0,0,1-.062-.773q.016-.281.016-.312a1.516,1.516,0,0,1,.141-.445,1.169,1.169,0,0,1,.266-.367l2.078-2.076a.689.689,0,0,1,.5-.219.583.583,0,0,1,.359.117,1.086,1.086,0,0,1,.266.289l1.672,3.168a.759.759,0,0,1,.078.546.972.972,0,0,1-.266.5l-.766.765a.261.261,0,0,0-.055.1.385.385,0,0,0-.023.117,2.811,2.811,0,0,0,.281.749,6.887,6.887,0,0,0,.578.913,10.153,10.153,0,0,0,1.109,1.241,10.339,10.339,0,0,0,1.25,1.116,7.219,7.219,0,0,0,.914.585,2.438,2.438,0,0,0,.563.226l.2.039a.374.374,0,0,0,.1-.023.259.259,0,0,0,.1-.055l.891-.905a.958.958,0,0,1,.656-.25.818.818,0,0,1,.422.094h.016l3.016,1.779a.785.785,0,0,1,.391.515" transform="translate(462.266 364.754)"/></g></g></g></svg>