<svg xmlns="http://www.w3.org/2000/svg" xmlns:xlink="http://www.w3.org/1999/xlink" width="82" height="82" viewBox="0 0 82 82"><defs><style>.a{fill:#fff;}.b{opacity:0.64;}.c{fill:none;stroke:#383784;stroke-linecap:round;stroke-width:3.5px;}.d,.e{stroke:none;}.e{fill:#edf3f8;}.f{filter:url(#a);}</style><filter id="a" x="0" y="0" width="82" height="82" filterUnits="userSpaceOnUse"><feOffset dy="3" input="SourceAlpha"/><feGaussianBlur stdDeviation="3" result="b"/><feFlood flood-color="#edf3f8"/><feComposite operator="in" in2="b"/><feComposite in="SourceGraphic"/></filter></defs><g transform="translate(9 6)"><g class="f" transform="matrix(1, 0, 0, 1, -9, -6)"><g class="a" transform="translate(9 6)"><path class="d" d="M 32 63.5 C 27.74731063842773 63.5 23.62208938598633 62.66722106933594 19.73892974853516 61.0247802734375 C 15.9879903793335 59.43827056884766 12.61919975280762 57.16693115234375 9.726140022277832 54.27386093139648 C 6.833069801330566 51.38079833984375 4.561729907989502 48.01200866699219 2.975219964981079 44.26107025146484 C 1.332780003547668 40.37791061401367 0.5 36.25268936157227 0.5 32 C 0.5 27.74731063842773 1.332780003547668 23.62208938598633 2.975219964981079 19.73892974853516 C 4.561729907989502 15.9879903793335 6.833069801330566 12.61919975280762 9.726140022277832 9.726140022277832 C 12.61919975280762 6.833069801330566 15.9879903793335 4.561729907989502 19.73892974853516 2.975219964981079 C 23.62208938598633 1.332780003547668 27.74731063842773 0.5 32 0.5 C 36.25268936157227 0.5 40.37791061401367 1.332780003547668 44.26107025146484 2.975219964981079 C 48.01200866699219 4.561729907989502 51.38079833984375 6.833069801330566 54.27386093139648 9.726140022277832 C 57.16693115234375 12.61919975280762 59.43827056884766 15.9879903793335 61.0247802734375 19.73892974853516 C 62.66722106933594 23.62208938598633 63.5 27.74731063842773 63.5 32 C 63.5 36.25268936157227 62.66722106933594 40.37791061401367 61.0247802734375 44.26107025146484 C 59.43827056884766 48.01200866699219 57.16693115234375 51.38079833984375 54.27386093139648 54.27386093139648 C 51.38079833984375 57.16693115234375 48.01200866699219 59.43827056884766 44.26107025146484 61.0247802734375 C 40.37791061401367 62.66722106933594 36.25268936157227 63.5 32 63.5 Z"/><path class="e" d="M 32 1 C 27.81459045410156 1 23.75490188598633 1.819499969482422 19.93370819091797 3.435718536376953 C 16.24237060546875 4.997028350830078 12.92699813842773 7.232379913330078 10.07968902587891 10.07968902587891 C 7.232379913330078 12.92699813842773 4.997028350830078 16.24237060546875 3.435718536376953 19.93370819091797 C 1.819499969482422 23.75490188598633 1 27.81459045410156 1 32 C 1 36.18540954589844 1.819499969482422 40.24510192871094 3.435718536376953 44.06629180908203 C 4.997028350830078 47.75762939453125 7.232379913330078 51.072998046875 10.07968902587891 53.92031097412109 C 12.92699813842773 56.76762008666992 16.24237060546875 59.00297164916992 19.93370819091797 60.56428146362305 C 23.75490188598633 62.18050003051758 27.81459045410156 63 32 63 C 36.18540954589844 63 40.24510192871094 62.18050003051758 44.06629180908203 60.56428146362305 C 47.75762939453125 59.00297164916992 51.072998046875 56.76762008666992 53.92031097412109 53.92031097412109 C 56.76762008666992 51.072998046875 59.00297164916992 47.75762939453125 60.56428146362305 44.06629180908203 C 62.18050003051758 40.24510192871094 63 36.18540954589844 63 32 C 63 27.81459045410156 62.18050003051758 23.75490188598633 60.56428146362305 19.93370819091797 C 59.00297164916992 16.24237060546875 56.76762008666992 12.92699813842773 53.92031097412109 10.07968902587891 C 51.072998046875 7.232379913330078 47.75762939453125 4.997028350830078 44.06629180908203 3.435718536376953 C 40.24510192871094 1.819499969482422 36.18540954589844 1 32 1 M 32 0 C 49.67311096191406 0 64 14.32688903808594 64 32 C 64 49.67311096191406 49.67311096191406 64 32 64 C 14.32688903808594 64 0 49.67311096191406 0 32 C 0 14.32688903808594 14.32688903808594 0 32 0 Z"/></g></g><g class="b" transform="translate(-1083.5 -2624.5)"><g transform="translate(1109.5 2646.5)"><line class="c" x2="12.054" y2="9.041"/><line class="c" y1="10.547" x2="12.054" transform="translate(0 9.041)"/></g></g></g></svg>