<svg xmlns="http://www.w3.org/2000/svg" xmlns:xlink="http://www.w3.org/1999/xlink" width="80" height="80" viewBox="0 0 80 80"><defs><style>.a{fill:none;}.b{fill:#f9fafb;}.c{clip-path:url(#a);}.d{fill:#fffde8;}.e{fill:#383784;}.f{opacity:0.06;}.g{fill:#ed1c24;}</style><clipPath id="a"><rect class="a" width="46" height="46" transform="translate(2 2)"/></clipPath></defs><g transform="translate(-735 -712)"><rect class="b" width="80" height="80" rx="16" transform="translate(735 792) rotate(-90)"/></g><g transform="translate(15 15)"><g class="c"><rect class="d" width="38.004" height="35.316" rx="3" transform="translate(46.129 3.997) rotate(90)"/><path class="e" d="M43.168,43.482H13.773a4.446,4.446,0,0,1-4.441-4.441V6.958a4.446,4.446,0,0,1,4.441-4.441H43.168a4.446,4.446,0,0,1,4.441,4.441V39.041A4.446,4.446,0,0,1,43.168,43.482Zm-29.395-38a1.482,1.482,0,0,0-1.481,1.48V39.041a1.482,1.482,0,0,0,1.481,1.481H43.168a1.482,1.482,0,0,0,1.48-1.481V6.958a1.482,1.482,0,0,0-1.48-1.48Z"/><path class="d" d="M37.3,27.46v16.1a1.909,1.909,0,0,1-.227.928.9.9,0,0,1-.73.543H6.307c-.454,0-.958-.622-.958-1.471V27.46a1.693,1.693,0,0,1,.543-1.313.733.733,0,0,1,.424-.167.6.6,0,0,1,.356.128l12.612,8.733a3.56,3.56,0,0,0,4.095-.009l12.612-8.724a.551.551,0,0,1,.631-.049A1.564,1.564,0,0,1,37.3,27.46Z"/><path class="f" d="M37.3,41.5v2.062a1.909,1.909,0,0,1-.227.928.9.9,0,0,1-.73.543H6.307c-.454,0-.958-.622-.958-1.471V27.46a1.693,1.693,0,0,1,.543-1.313.733.733,0,0,1,.424-.167.6.6,0,0,1,.356.128l.789.543V41.5Z"/><path class="e" d="M36.346,48H6.306a4.2,4.2,0,0,1-3.915-4.434v-16.1a4.569,4.569,0,0,1,1.666-3.635,3.553,3.553,0,0,1,4.3-.152L20.967,32.4a.608.608,0,0,0,.731,0L34.3,23.675a3.515,3.515,0,0,1,3.689-.243,4.467,4.467,0,0,1,2.268,4.031v16.1a4.942,4.942,0,0,1-.595,2.366A3.832,3.832,0,0,1,36.346,48ZM6.317,25.983a.679.679,0,0,0-.425.169,1.66,1.66,0,0,0-.54,1.311v16.1c0,.843.5,1.473.954,1.473h30.04a.923.923,0,0,0,.731-.545,1.945,1.945,0,0,0,.223-.928v-16.1a1.571,1.571,0,0,0-.682-1.409.558.558,0,0,0-.631.055l-12.61,8.727a3.548,3.548,0,0,1-4.089,0L6.672,26.109A.618.618,0,0,0,6.317,25.983Z"/><path class="g" d="M36.806,11.924h-19.4a1.48,1.48,0,1,1,0-2.96h19.4a1.48,1.48,0,1,1,0,2.96Z"/><path class="g" d="M31.6,19.65H17.406a1.48,1.48,0,1,1,0-2.96H31.6a1.48,1.48,0,1,1,0,2.96Z"/><path class="g" d="M22.026,27.714h-4.62a1.481,1.481,0,0,1,0-2.961h4.62a1.481,1.481,0,0,1,0,2.961Z"/></g></g></svg>