<svg xmlns="http://www.w3.org/2000/svg" xmlns:xlink="http://www.w3.org/1999/xlink" width="80" height="80" viewBox="0 0 80 80"><defs><style>.a,.e{fill:none;}.b{fill:#f9fafb;}.c{clip-path:url(#a);}.d{fill:#fffde8;}.e{stroke:#383784;stroke-linecap:round;stroke-linejoin:round;stroke-width:3px;}.f{opacity:0.06;}.g{fill:#ed1c24;}.h{fill:#383784;}.i{opacity:0.08;}</style><clipPath id="a"><rect class="a" width="46" height="46" transform="translate(2 2)"/></clipPath></defs><g transform="translate(-735 -712)"><rect class="b" width="80" height="80" rx="16" transform="translate(735 792) rotate(-90)"/></g><g transform="translate(15 15)"><g class="c"><path class="d" d="M4.785,8.182V38.46H16.732a1.549,1.549,0,0,1,.854.24,1.55,1.55,0,0,1,.736.425l7.063,7.062c.772-.783,1.677-1.715,2.754-2.836l4.376-4.375a1.527,1.527,0,0,1,.917-.464,1.68,1.68,0,0,1,.5-.074H46.041V8.182Z"/><path class="e" d="M32.351,39.132"/><path class="f" d="M28.095,41.794,23.413,36.6a10.547,10.547,0,0,0-7.833-3.483H11.85a1.789,1.789,0,0,1-1.789-1.79V8.055H4.274V38.268h12.9c.662,0,1.408.824,1.441.857L24.687,45.2Z"/><path class="g" d="M33.369,14.864a9.392,9.392,0,1,0,9.393,9.392A9.393,9.393,0,0,0,33.369,14.864ZM38.02,26.831H33.063A1.518,1.518,0,0,1,31.54,25.35a.1.1,0,0,1-.01-.052,1.278,1.278,0,0,1-.082-.429V20.434a1.533,1.533,0,1,1,3.066,0v3.331H38.02a1.533,1.533,0,1,1,0,3.066Z"/><path class="h" d="M19.956,18.757H9.509a1.5,1.5,0,1,1,0-3H19.956a1.5,1.5,0,1,1,0,3Z"/><path class="h" d="M16.509,26.7h-7a1.5,1.5,0,0,1,0-3h7a1.5,1.5,0,1,1,0,3Z"/><path class="i" d="M42.761,24.252a9.393,9.393,0,0,0-16.94-5.59,9.4,9.4,0,0,1,13.89,12.52A9.329,9.329,0,0,0,42.761,24.252Z"/><path class="h" d="M32.35,40.632a1.5,1.5,0,0,1,0-3l11.137-.013a1.5,1.5,0,0,0,1.5-1.5V10.013a1.5,1.5,0,0,0-1.5-1.5H6.509a1.5,1.5,0,0,0-1.5,1.5V36.119a1.5,1.5,0,0,0,1.5,1.5H17.594a1.5,1.5,0,0,1,0,3H6.509a4.5,4.5,0,0,1-4.5-4.5V10.013a4.5,4.5,0,0,1,4.5-4.5H43.487a4.5,4.5,0,0,1,4.5,4.5V36.119a4.5,4.5,0,0,1-4.5,4.5l-11.135.013Z"/><path class="h" d="M25.046,47.98a1.5,1.5,0,0,1-1.058-.436l-7.2-7.162A1.5,1.5,0,1,1,18.9,38.255l6.136,6.1,6.022-6.118a1.5,1.5,0,0,1,2.139,2.106l-7.081,7.191a1.5,1.5,0,0,1-1.06.447Z"/></g></g></svg>