<svg xmlns="http://www.w3.org/2000/svg" xmlns:xlink="http://www.w3.org/1999/xlink" width="18" height="18" viewBox="0 0 18 18"><defs><style>.a{fill:#3e5bca;stroke:#707070;}.b{clip-path:url(#a);}.c{fill:#1da1f2;fill-rule:evenodd;}</style><clipPath id="a"><rect class="a" width="18" height="18" transform="translate(0 -0.04)"/></clipPath></defs><g class="b" transform="translate(0 0.04)"><path class="c" d="M42.783,14.251A8.732,8.732,0,0,0,51.593,5.44v-.42A6.821,6.821,0,0,0,53.1,3.426a6.966,6.966,0,0,1-1.762.5,3.265,3.265,0,0,0,1.343-1.678,7.7,7.7,0,0,1-1.93.755A3,3,0,0,0,48.489,2a3.153,3.153,0,0,0-3.1,3.1,1.636,1.636,0,0,0,.084.671A8.675,8.675,0,0,1,39.091,2.5a3.213,3.213,0,0,0-.42,1.594,3.334,3.334,0,0,0,1.343,2.6,2.829,2.829,0,0,1-1.426-.42h0A3.067,3.067,0,0,0,41.1,9.3a2.587,2.587,0,0,1-.839.084,1.428,1.428,0,0,1-.587-.084,3.179,3.179,0,0,0,2.937,2.182,6.335,6.335,0,0,1-3.86,1.343A2.323,2.323,0,0,1,38,12.741a7.92,7.92,0,0,0,4.783,1.51" transform="translate(-36.921 0.271)"/></g></svg>