<svg xmlns="http://www.w3.org/2000/svg" width="36" height="36" viewBox="0 0 36 36"><defs><style>.a{fill:#383784;}.b{fill:#ed1c24;}</style></defs><path class="a" d="M214.2,75a3.2,3.2,0,1,0,3.2,3.2A3.208,3.208,0,0,0,214.2,75Zm0,0" transform="translate(-196.204 -69.66)"/><path class="b" d="M144.545,0a8.546,8.546,0,0,0-7.232,13.1l7.232,11.541L151.777,13.1A8.546,8.546,0,0,0,144.545,0Zm0,13.885a5.34,5.34,0,1,1,5.34-5.34A5.347,5.347,0,0,1,144.545,13.885Zm0,0" transform="translate(-126.545)"/><path class="a" d="M183,427.48h10.393l-.821-6.48H183.8Zm0,0" transform="translate(-170.194 -391.48)"/><path class="a" d="M197.992,328.412h3.625l-3.025-4.8Zm0,0" transform="translate(-184.09 -300.903)"/><path class="a" d="M333.107,307.408h8.415L338.852,301h-6.566Zm0,0" transform="translate(-309.082 -279.893)"/><path class="a" d="M50,307.408h8.386l.8-6.408H52.666Zm0,0" transform="translate(-46.436 -279.893)"/><path class="a" d="M263.094,329.213h3.594l-.607-4.737Zm0,0" transform="translate(-244.621 -301.705)"/><path class="a" d="M11.678,421H2.67L0,427.48H10.878Zm0,0" transform="translate(0 -391.48)"/><path class="a" d="M356.7,421h-9.031l.822,6.48h10.879Zm0,0" transform="translate(-323.373 -391.48)"/></svg>