<svg xmlns="http://www.w3.org/2000/svg" width="14" height="14" viewBox="0 0 14 14"><defs><style>.a{fill:#fff;}</style></defs><path class="a" d="M8.75,17.612v2.666a.431.431,0,0,0,.778.255l1.559-2.122Z" transform="translate(-3.631 -6.709)"/><path class="a" d="M13.816.085A.42.42,0,0,0,13.36.052L.235,7.264A.467.467,0,0,0,0,7.707a.457.457,0,0,0,.295.4L3.944,9.42l7.771-6.991L5.7,10.052l6.115,2.2a.428.428,0,0,0,.141.025.423.423,0,0,0,.227-.067.464.464,0,0,0,.205-.325L14,.528a.472.472,0,0,0-.179-.443Z" transform="translate(0 0)"/></svg>