<svg xmlns="http://www.w3.org/2000/svg" width="35.729" height="35.729" viewBox="0 0 35.729 35.729"><defs><style>.a{fill:#ffb073;stroke:#fff;stroke-width:2.917px;}.a,.b{stroke-miterlimit:10;}.b,.e{fill:none;}.b{stroke:#ffb073;stroke-width:0.729px;}.c{fill:#fff;}.d{stroke:none;}</style></defs><g transform="translate(0.365 0.365)"><g class="a"><rect class="d" width="35" height="35" rx="12"/><rect class="e" x="1.458" y="1.458" width="32.083" height="32.083" rx="10.542"/></g><rect class="b" width="35" height="35" rx="12"/><g transform="translate(10 12)"><path class="c" d="M15.766.239a.788.788,0,0,0-1.131,0L5.05,10.028,1.366,6.265a.788.788,0,0,0-1.131,0,.829.829,0,0,0,0,1.155l4.25,4.34a.788.788,0,0,0,1.131,0L15.766,1.395A.829.829,0,0,0,15.766.239Z"/></g></g></svg>