<svg xmlns="http://www.w3.org/2000/svg" xmlns:xlink="http://www.w3.org/1999/xlink" width="190" height="190" viewBox="0 0 190 190"><defs><style>.a{fill:none;}.b{opacity:0.08;}.c{fill:#bcccd9;}.d{clip-path:url(#a);}.e{fill:#ed1c24;}.f{fill:#383784;}.g{fill:#d51920;}.h{opacity:0.54;}.i{fill:#17175b;}.j{fill:#ff7a11;}.k{fill:#fff79e;}.l{fill:#ff6800;}.m{fill:#fffde8;}.n{fill:#ff8c3d;}.o{fill:#ffa466;}</style><clipPath id="a"><rect class="a" width="140" height="140"/></clipPath></defs><g class="b"><rect class="c" width="190" height="190" rx="16" transform="translate(0 190) rotate(-90)"/></g><g transform="translate(13 13)"><g class="d" transform="translate(12 12)"><g transform="translate(11.012 8.853)"><g transform="translate(58.422 0.383)"><path class="e" d="M154.835,31.117a59.183,59.183,0,0,0,8.409,1.144A59.664,59.664,0,0,0,179.729,31q.024,7.206.047,14.411a58.149,58.149,0,0,1-7.884,1.04,58.742,58.742,0,0,1-16.913-1.416Q154.907,38.077,154.835,31.117Z" transform="translate(-154.835 -31.001)"/></g><g transform="translate(3.849 28.688)"><path class="f" d="M97.71,89.228,42.57,143.983v43.34H83.138V147.508h29.148v39.815h40.568v-43.34ZM73.443,175.669H57.269V154.941H73.443ZM111.5,138.928H83.923V128.755h5.7V114.886H105.8v13.868h5.7Zm26.659,36.741H121.978V154.941h16.177Z" transform="translate(-42.57 -89.228)"/></g><rect class="g" width="4.4" height="28.179" rx="2.2" transform="translate(56.788)"/><g class="h" transform="translate(3.847 28.689)"><path class="i" d="M97.706,89.23,42.567,143.983v6.2L97.706,95.427l55.145,54.759v-6.2Z" transform="translate(-42.567 -89.23)"/></g><g transform="translate(70.458 90.08)"><rect class="j" width="3.107" height="36.703"/></g><g transform="translate(44.417 90.08)"><rect class="j" width="3.108" height="36.703"/></g><g transform="translate(0 18.504)"><path class="k" d="M34.652,126.845v10.191l3.849-3.818,55.14-54.755,55.145,54.755,3.844,3.818V126.845L93.641,68.278Z" transform="translate(-34.652 -68.278)"/></g><g transform="translate(20.619 105.806)"><rect class="l" width="4.979" height="7.25"/></g><g transform="translate(27.671 105.806)"><rect class="l" width="4.982" height="7.25"/></g><g transform="translate(20.619 96.476)"><rect class="l" width="4.979" height="7.257"/></g><g transform="translate(27.671 96.476)"><rect class="l" width="4.982" height="7.257"/></g><g transform="translate(18.547 94.4)"><path class="m" d="M72.807,245.137H88.982V224.408H72.807Zm9.123-18.653h4.982v7.257H81.93Zm0,9.33h4.982v7.249H81.93Zm-7.052-9.33h4.979v7.257H74.879Zm0,9.33h4.979v7.249H74.879Z" transform="translate(-72.807 -224.408)"/></g><g transform="translate(85.327 105.806)"><rect class="l" width="4.976" height="7.25"/></g><g transform="translate(92.381 105.806)"><rect class="l" width="4.978" height="7.25"/></g><g transform="translate(85.327 96.476)"><rect class="l" width="4.976" height="7.257"/></g><g transform="translate(92.381 96.476)"><rect class="l" width="4.978" height="7.257"/></g><g transform="translate(83.257 94.4)"><path class="m" d="M215.048,245.137H222.1V224.408H205.924v20.729h9.124Zm0-18.653h4.978v7.257h-4.978Zm0,9.33h4.978v7.249h-4.978Zm-7.054-9.33h4.976v7.257h-4.976Zm0,9.33h4.976v7.249h-4.976Z" transform="translate(-205.924 -224.408)"/></g><g transform="translate(52.977 65.745)"><rect class="l" width="4.976" height="2.47" transform="translate(0 0)"/></g><g transform="translate(60.027 65.745)"><rect class="l" width="4.977" height="2.47" transform="translate(0 0)"/></g><g transform="translate(52.977 56.422)"><rect class="l" width="4.976" height="7.25"/></g><g transform="translate(60.027 56.422)"><rect class="l" width="4.977" height="7.25"/></g><g transform="translate(50.901 54.346)"><path class="m" d="M139.364,142.011v13.868h2.076v-2.47h4.976v2.47h2.074v-2.47h4.977v2.47h2.076V142.011Zm7.052,9.325H141.44v-7.25h4.976Zm7.052,0H148.49v-7.25h4.977Z" transform="translate(-139.364 -142.011)"/></g><g transform="translate(47.524 90.08)"><rect class="m" width="22.934" height="36.703"/></g><g transform="translate(44.417 86.968)"><path class="j" d="M152.066,212.231h3.107v-3.112H126.024v3.112h26.042Z" transform="translate(-126.024 -209.118)"/></g><g transform="translate(45.202 68.214)"><path class="e" d="M140.391,170.54H127.64v10.174h13.786V170.54Z" transform="translate(-127.64 -170.54)"/></g><g transform="translate(58.988 68.214)"><path class="g" d="M157.039,170.54H156v10.174h13.787V170.54H157.039Z" transform="translate(-156 -170.54)"/></g><g transform="translate(2.279 125.511)"><g transform="translate(56.902)"><rect class="n" width="56.517" height="5.636"/></g><rect class="o" width="56.902" height="5.636"/></g></g></g></g></svg>