<svg xmlns="http://www.w3.org/2000/svg" xmlns:xlink="http://www.w3.org/1999/xlink" width="190" height="190" viewBox="0 0 190 190"><defs><style>.a{fill:none;}.b{opacity:0.08;}.c{fill:#bcccd9;}.d{clip-path:url(#a);}.e{fill:#fff79e;}.f{fill:#ff882b;}.g{fill:#ffa466;}.h{fill:#fffde8;}.i{fill:#c92c32;}.j{fill:#ed1c24;}.k{fill:#17175b;}.l{fill:#383784;}.m{fill:#ff7a11;}.n{fill:#ff8c3d;}.o{fill:#fff;}</style><clipPath id="a"><rect class="a" width="140" height="140"/></clipPath></defs><g class="b"><rect class="c" width="190" height="190" rx="16" transform="translate(0 190) rotate(-90)"/></g><g transform="translate(13 13)"><g class="d" transform="translate(12 12)"><g transform="translate(0 2.178)"><g transform="translate(70.196 0.056)"><path class="e" d="M156.4,16.6V60.7h61.584l3.9-3.907Z" transform="translate(-156.403 -16.596)"/></g><g transform="translate(4.532)"><path class="e" d="M86.988,60.64v-44.1l-.09-.056L21.324,56.733l3.9,3.907h61.76Z" transform="translate(-21.324 -16.481)"/></g><g transform="translate(70.196 44.159)"><path class="f" d="M156.4,123.2h55.491V107.323H156.4Z" transform="translate(-156.403 -107.323)"/></g><g transform="translate(15.074 44.159)"><path class="g" d="M98.041,107.323H43.008V123.2H98.131V107.323Z" transform="translate(-43.008 -107.323)"/></g><g transform="translate(23.801 60.036)"><rect class="h" width="93.007" height="58.209"/></g><g transform="translate(19.794 6.052)"><path class="i" d="M146.725,61.1h7.02L103.031,28.931,52.72,61.1h6.965l43.346-27.717Z" transform="translate(-52.72 -28.931)"/></g><g transform="translate(26.76 10.506)"><path class="j" d="M110.477,65.81h43.611L110.395,38.093,67.048,65.81h43.429Z" transform="translate(-67.048 -38.093)"/></g><g transform="translate(17.989 60.036)"><rect class="k" width="5.813" height="58.209"/></g><g transform="translate(110.996 60.036)"><rect class="k" width="5.813" height="58.209"/></g><g transform="translate(41.223 60.036)"><rect class="k" width="5.811" height="58.209"/></g><g transform="translate(64.384 60.036)"><rect class="k" width="5.813" height="58.209"/></g><g transform="translate(87.616 60.036)"><rect class="k" width="5.815" height="58.209"/></g><g transform="translate(107.685 60.037)"><path class="l" d="M242.647,148.712h0V189.48c-.131-.009-.263-.012-.4-.012a8.73,8.73,0,0,0-8.728,8.726h17.455a8.684,8.684,0,0,0-2.521-6.13v-45.57a8.7,8.7,0,0,0,2.917-6.509H233.921A8.725,8.725,0,0,0,242.647,148.712Z" transform="translate(-233.523 -139.985)"/></g><g transform="translate(84.309 60.037)"><path class="l" d="M194.557,148.712h0V189.48c-.131-.009-.263-.012-.394-.012a8.727,8.727,0,0,0-8.728,8.726h17.453a8.691,8.691,0,0,0-2.519-6.13v-45.57a8.718,8.718,0,0,0,2.911-6.509H185.826A8.727,8.727,0,0,0,194.557,148.712Z" transform="translate(-185.436 -139.985)"/></g><g transform="translate(61.076 60.037)"><path class="l" d="M146.762,148.712h0V189.48c-.133-.009-.261-.012-.392-.012a8.727,8.727,0,0,0-8.728,8.726h17.451a8.676,8.676,0,0,0-2.521-6.13v-45.57a8.694,8.694,0,0,0,2.915-6.509H138.035A8.727,8.727,0,0,0,146.762,148.712Z" transform="translate(-137.643 -139.985)"/></g><g transform="translate(37.912 60.037)"><path class="l" d="M99.113,148.712h0V189.48c-.13-.009-.261-.012-.394-.012a8.73,8.73,0,0,0-8.728,8.726h17.453a8.684,8.684,0,0,0-2.521-6.13v-45.57a8.694,8.694,0,0,0,2.915-6.509H90.383A8.729,8.729,0,0,0,99.113,148.712Z" transform="translate(-89.991 -139.985)"/></g><g transform="translate(14.68 60.037)"><path class="l" d="M51.32,148.712h0V189.48c-.132-.009-.263-.012-.392-.012a8.728,8.728,0,0,0-8.73,8.726H59.653a8.686,8.686,0,0,0-2.523-6.13v-45.57a8.71,8.71,0,0,0,2.917-6.509H42.592A8.727,8.727,0,0,0,51.32,148.712Z" transform="translate(-42.198 -139.985)"/></g><g transform="translate(5.801 124.049)"><path class="f" d="M88.329,271.669h-64.4v5.8h64.4Z" transform="translate(-23.933 -271.669)"/></g><g transform="translate(70.196 124.049)"><path class="m" d="M156.4,277.464h64.005v-5.8H156.4Z" transform="translate(-156.403 -271.669)"/></g><g transform="translate(70.196 129.845)"><path class="n" d="M226.207,283.592H156.4v5.8h69.8Z" transform="translate(-156.403 -283.592)"/></g><g transform="translate(0 129.845)"><path class="g" d="M17.8,283.592H12v5.8H82.2v-5.8Z" transform="translate(-12 -283.592)"/></g><g transform="translate(70.196 118.246)"><rect class="n" width="58.204" height="5.804"/></g><g transform="translate(11.596 118.246)"><rect class="g" width="58.6" height="5.804"/></g><g transform="translate(65.841 16.183)"><path class="o" d="M148.919,59.639a7.282,7.282,0,0,0,2.138,1.08l.6.2c.118.039.225.084.333.127a3.243,3.243,0,0,1,1.043.6,1.363,1.363,0,0,1,.387,1.01,1.48,1.48,0,0,1-.383,1.052,1.315,1.315,0,0,1-1,.408c-.017,0-.03,0-.047,0a1.525,1.525,0,0,1-1.044-.388,1.578,1.578,0,0,1-.486-1.067h-2.677a4.415,4.415,0,0,0,.6,2.054,3.81,3.81,0,0,0,1.469,1.417,3.921,3.921,0,0,0,.956.372v2.4l1.179,0,1.043,0,0-2.411h0a3.873,3.873,0,0,0,.936-.383,3.943,3.943,0,0,0,1.5-1.442,3.865,3.865,0,0,0,.06-3.87A3.849,3.849,0,0,0,154.2,59.38a7.007,7.007,0,0,0-1.16-.541c-.07-.02-.259-.08-.561-.178-.174-.057-.335-.114-.489-.175a4.49,4.49,0,0,1-1.311-.7,1.82,1.82,0,0,1-.639-1.46,1.72,1.72,0,0,1,.522-1.292,1.83,1.83,0,0,1,1.33-.51c.035,0,.065,0,.1.006a1.774,1.774,0,0,1,1.834,1.776h2.717a4.288,4.288,0,0,0-.322-1.557,3.925,3.925,0,0,0-.9-1.363,4.417,4.417,0,0,0-2.287-1.27V49.772h-2.221v2.376a4.454,4.454,0,0,0-3.369,4.354A3.867,3.867,0,0,0,148.919,59.639Z" transform="translate(-147.444 -49.772)"/></g></g></g></g></svg>