<svg xmlns="http://www.w3.org/2000/svg" xmlns:xlink="http://www.w3.org/1999/xlink" width="190" height="190" viewBox="0 0 190 190"><defs><style>.a{fill:none;}.b{opacity:0.08;}.c{fill:#bcccd9;}.d{clip-path:url(#a);}.e{fill:#fff79e;}.f{fill:#ed1c24;}.g{fill:#ff7a11;}.h{fill:#ff6800;}.i{fill:#383784;}.j{fill:#17175b;}.k{fill:#fffde8;}.l{fill:#4bcf3d;}.m{opacity:0.1;}</style><clipPath id="a"><rect class="a" width="140" height="140"/></clipPath></defs><g class="b"><rect class="c" width="190" height="190" rx="16" transform="translate(0 190) rotate(-90)"/></g><g transform="translate(13 13)"><g class="d" transform="translate(12 12)"><g transform="translate(23.189 20.89)"><g transform="translate(11.901)"><path class="e" d="M157.208,66.64a11.666,11.666,0,0,0-11.667-11.667H84.186a11.9,11.9,0,0,1,11.9,11.9v64.259h61.12Z" transform="translate(-84.186 -54.973)"/></g><path class="f" d="M83.506,131.133V66.874a11.9,11.9,0,0,0-11.9-11.9h0a11.9,11.9,0,0,0-11.9,11.9v92.271h61.121V131.133Z" transform="translate(-59.703 -54.973)"/><g transform="translate(23.878 20.584)"><path class="e" d="M169.868,97.317H108.823v67.438h61.044V97.317Z" transform="translate(-108.823 -97.317)"/></g><g transform="translate(42.092 26.539)"><rect class="g" width="36.505" height="4.474"/></g><g transform="translate(42.092 35.483)"><rect class="g" width="36.516" height="4.474"/></g><g transform="translate(42.092 44.428)"><rect class="g" width="36.516" height="4.472"/></g><g transform="translate(42.092 53.372)"><rect class="g" width="36.516" height="4.472" transform="translate(0 0)"/></g><g transform="translate(42.092 17.596)"><rect class="g" width="36.505" height="4.471"/></g><g transform="translate(26.54 19.831)"><path class="h" d="M127,97.832l-2.064-2.064-5.481,5.481-3.088-3.087-2.065,2.064,5.149,5.146,0,0,0,0Z" transform="translate(-114.3 -95.769)"/></g><g transform="translate(26.54 35.155)"><path class="h" d="M127,129.353l-2.064-2.062-5.481,5.482-3.088-3.088-2.065,2.062,5.149,5.147,0,0,0,0Z" transform="translate(-114.3 -127.291)"/></g><g transform="translate(26.54 49.719)"><path class="h" d="M127,159.314l-2.064-2.062-5.481,5.482-3.088-3.088-2.065,2.062,5.149,5.147,0,0,0,0Z" transform="translate(-114.3 -157.252)"/></g><g transform="translate(64.423 62.922)"><path class="h" d="M205.242,186.318a1.44,1.44,0,0,0-1.218.744,2.766,2.766,0,0,0-4.8-.595,3.686,3.686,0,0,0-6.99,1.63h1.2a2.488,2.488,0,0,1,4.977,0h1.2c0-.06,0-.12,0-.179a1.868,1.868,0,0,1,3.728.179h.9a1.028,1.028,0,1,1,2.027,0h.49A1.661,1.661,0,0,0,205.242,186.318Z" transform="translate(-192.231 -184.413)"/></g><path class="i" d="M221.094,225.127a27.027,27.027,0,0,1-6.475,10.087,33.9,33.9,0,0,1-12.654,7.5,3.963,3.963,0,0,1-.522.142,3.91,3.91,0,0,1-.707.074h-.046a3.928,3.928,0,0,1-.755-.074,4.021,4.021,0,0,1-.519-.141,33.887,33.887,0,0,1-12.669-7.493,26.988,26.988,0,0,1-6.474-10.085c-2.615-7.1-2.467-14.915-2.346-21.2l0-.1c.024-.519.039-1.064.048-1.665a5.679,5.679,0,0,1,5.348-5.564,22.037,22.037,0,0,0,15-6.322l.036-.033a3.433,3.433,0,0,1,4.66,0l.035.033a22.041,22.041,0,0,0,15,6.322,5.679,5.679,0,0,1,5.348,5.564c.008.606.024,1.15.048,1.665v.041C223.571,210.175,223.719,218.009,221.094,225.127Z" transform="translate(-120.43 -124.024)"/><path class="j" d="M245.263,225.127a27.027,27.027,0,0,1-6.475,10.087,33.9,33.9,0,0,1-12.654,7.5,3.959,3.959,0,0,1-.522.142,3.908,3.908,0,0,1-.707.074V189.344a3.439,3.439,0,0,1,2.284.911l.035.033a22.041,22.041,0,0,0,15,6.322,5.679,5.679,0,0,1,5.348,5.564c.008.606.024,1.15.048,1.665v.041C247.74,210.175,247.888,218.009,245.263,225.127Z" transform="translate(-144.598 -124.025)"/><path class="k" d="M224.044,230.341A13.371,13.371,0,0,1,210.737,243.7h-.047a13.355,13.355,0,1,1,0-26.709h.047A13.371,13.371,0,0,1,224.044,230.341Z" transform="translate(-130.431 -138.23)"/><path class="k" d="M238.212,230.341A13.371,13.371,0,0,1,224.9,243.7V216.987A13.371,13.371,0,0,1,238.212,230.341Z" transform="translate(-144.598 -138.23)"/><path class="l" d="M223.753,237.665l-6.014,6.015-1.3,1.3a1.574,1.574,0,0,1-2.224,0l-2.794-2.8a1.572,1.572,0,0,1,2.223-2.223l1.683,1.683,6.2-6.2a1.572,1.572,0,0,1,2.223,2.223Z" transform="translate(-137.432 -147.477)"/><path class="m" d="M230.919,237.665,224.9,243.68v-4.447l3.791-3.791a1.572,1.572,0,1,1,2.223,2.223Z" transform="translate(-144.598 -147.477)"/></g></g></g></svg>