<svg xmlns="http://www.w3.org/2000/svg" xmlns:xlink="http://www.w3.org/1999/xlink" width="190" height="190" viewBox="0 0 190 190"><defs><style>.a{fill:none;}.b{opacity:0.08;}.c{fill:#bcccd9;}.d{clip-path:url(#a);}.e{fill:#fffde8;}.f{fill:#383784;}.g{fill:#17175b;}.h{fill:#ed1c24;}.i{opacity:0.1;}.j{fill:#f9b59d;}.k{fill:#ffcab3;}.l{fill:#ff7a11;}.m{fill:#ffa466;}.n{fill:#fff79e;}.o{fill:#e2e884;}</style><clipPath id="a"><rect class="a" width="140" height="140"/></clipPath></defs><g class="b"><rect class="c" width="190" height="190" rx="16" transform="translate(0 190) rotate(-90)"/></g><g transform="translate(13 13)"><g class="d" transform="translate(12 12)"><g transform="translate(34.463)"><g transform="translate(12.826 78.322)"><path class="e" d="M159.851,198.094a25.286,25.286,0,1,1-45-15.538,25.685,25.685,0,0,1,1.831-2.035,25.3,25.3,0,0,1,35.762,0,25.68,25.68,0,0,1,1.83,2.035A25.173,25.173,0,0,1,159.851,198.094Z" transform="translate(-109.28 -173.12)"/></g><g transform="translate(1.716 67.218)"><path class="f" d="M104.939,168.782a25.29,25.29,0,0,0,17.894,43.173l-.005,11.1a36.389,36.389,0,0,1-2.188-72.713c.731-.047,1.462-.068,2.193-.068v11.1c-.731,0-1.468.032-2.193.094A25.15,25.15,0,0,0,104.939,168.782Z" transform="translate(-86.426 -150.278)"/><g transform="translate(36.401)"><path class="g" d="M187.035,212.4a36.251,36.251,0,0,1-25.726,10.662l.005-11.1a25.287,25.287,0,0,0,2.467-50.453c-.82-.079-1.641-.121-2.467-.121v-11.1c.821,0,1.641.026,2.462.084A36.391,36.391,0,0,1,187.035,212.4Z" transform="translate(-161.309 -150.278)"/></g></g><g transform="translate(0 19.685)"><path class="h" d="M89.5,82.145c9.427,9.424,29.646,5.993,29.646,5.993L83.507,52.495S80.068,72.719,89.5,82.145Z" transform="translate(-82.895 -52.495)"/></g><g class="i" transform="translate(0 19.685)"><path d="M89.5,82.145c9.427,9.424,29.646,5.993,29.646,5.993L83.507,52.495S80.068,72.719,89.5,82.145Z" transform="translate(-82.895 -52.495)"/></g><g transform="translate(0.611 19.075)"><path class="h" d="M84.153,51.85l35.639,35.643s3.435-20.223-5.992-29.65S84.153,51.85,84.153,51.85Z" transform="translate(-84.153 -51.239)"/></g><g transform="translate(39.578 19.075)"><path class="h" d="M170.915,57.843c-9.428,9.427-5.989,29.65-5.989,29.65L200.565,51.85S180.345,48.415,170.915,57.843Z" transform="translate(-164.314 -51.239)"/><g transform="translate(0.612 0.61)"><path class="h" d="M201.211,52.495,165.572,88.138s20.219,3.435,29.646-5.993S201.211,52.495,201.211,52.495Z" transform="translate(-165.572 -52.495)"/></g><g class="i" transform="translate(0.612 0.61)"><path d="M201.211,52.495,165.572,88.138s20.219,3.435,29.646-5.993S201.211,52.495,201.211,52.495Z" transform="translate(-165.572 -52.495)"/></g></g><g transform="translate(27.872)"><path class="h" d="M140.232,27.427c0,8.16,10.241,15.426,10.241,15.426V12S140.232,19.263,140.232,27.427Z" transform="translate(-140.232 -12)"/><g transform="translate(10.241)"><path class="h" d="M161.3,12V42.852s10.238-7.266,10.238-15.426S161.3,12,161.3,12Z" transform="translate(-161.3 -12)"/></g><g class="i" transform="translate(10.241)"><path d="M161.3,12V42.852s10.238-7.266,10.238-15.426S161.3,12,161.3,12Z" transform="translate(-161.3 -12)"/></g></g><g transform="translate(43.348 87.761)"><path class="j" d="M172.1,192.537h-.028l0,.022Z" transform="translate(-172.069 -192.537)"/></g><g transform="translate(49.717 112.487)"><path class="j" d="M185.172,243.4l0,0h0Z" transform="translate(-185.17 -243.401)"/></g><g transform="translate(41.941 120.262)"><path class="j" d="M169.176,259.4l0,0h0Z" transform="translate(-169.173 -259.396)"/></g><g transform="translate(45.829 116.374)"><path class="j" d="M177.175,251.4l0,0h0Z" transform="translate(-177.172 -251.399)"/></g><g transform="translate(41.944 120.266)"><path class="j" d="M169.181,259.405h0Z" transform="translate(-169.18 -259.404)"/></g><g transform="translate(45.832 116.378)"><path class="j" d="M177.179,251.407Z" transform="translate(-177.178 -251.406)"/></g><g transform="translate(38.053 124.15)"><path class="j" d="M161.175,267.394h0l.005.005h0v0Z" transform="translate(-161.175 -267.394)"/></g><g transform="translate(49.719 112.49)"><path class="j" d="M185.177,243.409Z" transform="translate(-185.175 -243.409)"/></g><g transform="translate(24.451 110.547)"><path class="k" d="M133.208,239.41a.076.076,0,0,0-.013.011l0,0A.1.1,0,0,1,133.208,239.41Z" transform="translate(-133.195 -239.41)"/></g><g transform="translate(32.228 118.322)"><path class="k" d="M149.2,255.4a.145.145,0,0,0-.012.011l0,0S149.2,255.408,149.2,255.4Z" transform="translate(-149.192 -255.405)"/></g><g transform="translate(28.339 114.434)"><path class="k" d="M141.206,247.407s-.009.006-.013.011l0,0S141.2,247.411,141.206,247.407Z" transform="translate(-141.193 -247.407)"/></g><g transform="translate(25.536 87.758)"><path class="l" d="M173.287,208.069H168.8l-5.3,5.307c-.058-.058-.126-.105-.189-.158l-11.746-11.745-4.792,4.787c-5.633,5.633-11.346.021-11.346.021l13.75-13.75h4.061l0,.027.026-.027h14.444A25.173,25.173,0,0,1,173.287,208.069Z" transform="translate(-135.426 -192.531)"/></g><g transform="translate(12.828 87.758)"><path class="m" d="M150.064,213.376c-.058-.058-.126-.105-.189-.158l-11.746-11.745-4.792,4.787c-5.633,5.633-11.346.021-11.346.021l13.75-13.75H114.854a25.17,25.17,0,0,0-5.57,15.538h4.366l3.372,3.377c.005-.005.005-.011.011-.016a2.749,2.749,0,0,1,3.887,3.887,2.75,2.75,0,1,1,3.887,3.892A2.75,2.75,0,0,1,128.7,223.1a2.747,2.747,0,0,1,3.882,3.887l-.011.011,1.936,1.936.005-.005.005.005a2.748,2.748,0,0,0,3.887-3.887v-.005a2.749,2.749,0,0,0,3.887-3.887,2.748,2.748,0,0,0,3.887-3.887,2.748,2.748,0,1,0,3.887-3.887Z" transform="translate(-109.284 -192.531)"/></g><g transform="translate(31.435 117.518)"><path class="l" d="M152.253,258.442a2.749,2.749,0,1,0-3.887-3.887s0,.01-.01.013a2.748,2.748,0,0,0,3.886,3.886S152.251,258.446,152.253,258.442Z" transform="translate(-147.562 -253.75)"/></g><g transform="translate(27.548 113.629)"><path class="l" d="M144.258,250.444a2.749,2.749,0,0,0-3.887-3.888s-.006.009-.01.014a2.747,2.747,0,0,0,3.885,3.885A.135.135,0,0,1,144.258,250.444Z" transform="translate(-139.566 -245.752)"/></g><g transform="translate(23.661 109.742)"><path class="l" d="M136.26,242.446a2.749,2.749,0,1,0-3.888-3.887.1.1,0,0,0-.01.013,2.747,2.747,0,0,0,3.885,3.885S136.257,242.451,136.26,242.446Z" transform="translate(-131.569 -237.754)"/></g><g transform="translate(19.773 105.853)"><path class="l" d="M128.262,234.449a2.749,2.749,0,1,0-3.887-3.888s-.006.01-.01.014a2.747,2.747,0,0,0,3.884,3.885A.079.079,0,0,1,128.262,234.449Z" transform="translate(-123.571 -229.755)"/></g><path class="n" d="M159.133,56.356a2.326,2.326,0,0,0-2.325,2.325v54.529c.726-.063,1.462-.094,2.193-.094.046,0,.091,0,.137,0V56.356Z" transform="translate(-120.878 -34.794)"/><path class="o" d="M163.926,109.64V58.682a2.327,2.327,0,0,0-2.325-2.325V113.12q1.17.007,2.33.118Z" transform="translate(-123.341 -34.795)"/></g></g></g></svg>