<svg xmlns="http://www.w3.org/2000/svg" xmlns:xlink="http://www.w3.org/1999/xlink" width="190" height="190" viewBox="0 0 190 190"><defs><style>.a{fill:none;}.b{opacity:0.08;}.c{fill:#bcccd9;}.d{clip-path:url(#a);}.e{fill:#383784;}.f{fill:#fffde8;}.g{fill:#ed1c24;}.h{opacity:0.1;}.i{fill:#f9b59d;}.j{fill:#ffcab3;}.k{fill:#ff7a11;}.l{fill:#ffa466;}.m{fill:#fff79e;}.n{fill:#e2e884;}.o{fill:#ff8c3d;}</style><clipPath id="a"><rect class="a" width="140" height="140"/></clipPath></defs><g class="b"><rect class="c" width="190" height="190" rx="16" transform="translate(0 190) rotate(-90)"/></g><g transform="translate(13 13)"><g class="d" transform="translate(12 12)"><g transform="translate(15.364 8.688)"><path class="e" d="M150.393,152.834l-40.751-38.269a9.679,9.679,0,0,0-13.1,0L55.787,152.841a8.56,8.56,0,0,0-2.747,6.24v39.407H153.057l.083-39.4A8.561,8.561,0,0,0,150.393,152.834ZM90.578,142.346h1.755v1.48h20.279v-1.48h3v8.735H90.578Z" transform="translate(-48.454 -72.082)"/><g transform="translate(31.825 71.095)"><path class="f" d="M154.98,198.794a22.953,22.953,0,1,1-40.846-14.1,23.166,23.166,0,0,1,1.662-1.848,22.953,22.953,0,0,1,39.184,15.952Z" transform="translate(-109.076 -176.124)"/></g><g transform="translate(20.183 17.869)"><path class="g" d="M91.12,93.545c8.557,8.555,26.911,5.44,26.911,5.44L85.68,66.631S82.56,84.988,91.12,93.545Z" transform="translate(-85.125 -66.631)"/></g><g class="h" transform="translate(20.183 17.869)"><path d="M91.12,93.545c8.557,8.555,26.911,5.44,26.911,5.44L85.68,66.631S82.56,84.988,91.12,93.545Z" transform="translate(-85.125 -66.631)"/></g><g transform="translate(20.738 17.315)"><path class="g" d="M86.267,66.045,118.617,98.4s3.118-18.357-5.44-26.914S86.267,66.045,86.267,66.045Z" transform="translate(-86.267 -65.491)"/></g><g transform="translate(56.109 17.315)"><path class="g" d="M165.023,71.485c-8.557,8.557-5.437,26.914-5.437,26.914l32.35-32.353S173.583,62.927,165.023,71.485Z" transform="translate(-159.031 -65.491)"/><g transform="translate(0.555 0.554)"><path class="g" d="M192.523,66.631l-32.35,32.353s18.354,3.119,26.911-5.44S192.523,66.631,192.523,66.631Z" transform="translate(-160.173 -66.631)"/></g><g class="h" transform="translate(0.555 0.554)"><path d="M192.523,66.631l-32.35,32.353s18.354,3.119,26.911-5.44S192.523,66.631,192.523,66.631Z" transform="translate(-160.173 -66.631)"/></g></g><g transform="translate(45.483)"><path class="g" d="M137.172,43.875c0,7.407,9.3,14,9.3,14V29.872S137.172,36.465,137.172,43.875Z" transform="translate(-137.172 -29.872)"/><g transform="translate(9.296)"><path class="g" d="M156.295,29.872V57.878s9.293-6.6,9.293-14S156.295,29.872,156.295,29.872Z" transform="translate(-156.295 -29.872)"/></g><g class="h" transform="translate(9.296)"><path d="M156.295,29.872V57.878s9.293-6.6,9.293-14S156.295,29.872,156.295,29.872Z" transform="translate(-156.295 -29.872)"/></g></g><g transform="translate(59.531 79.663)"><path class="i" d="M166.1,193.749h-.025l0,.02Z" transform="translate(-166.07 -193.749)"/></g><g transform="translate(65.312 102.107)"><path class="i" d="M177.965,239.923l0,0h0Z" transform="translate(-177.962 -239.92)"/></g><g transform="translate(58.253 109.165)"><path class="i" d="M163.445,254.443l0,0h0Z" transform="translate(-163.442 -254.439)"/></g><g transform="translate(61.783 105.636)"><path class="i" d="M170.705,247.183l0,0h0Z" transform="translate(-170.703 -247.18)"/></g><g transform="translate(58.256 109.168)"><path class="i" d="M163.449,254.448h0Z" transform="translate(-163.448 -254.446)"/></g><g transform="translate(61.785 105.639)"><path class="i" d="M170.709,247.187Z" transform="translate(-170.708 -247.186)"/></g><g transform="translate(54.724 112.694)"><path class="i" d="M156.182,261.7h0l0,0h0v0Z" transform="translate(-156.182 -261.699)"/></g><g transform="translate(65.314 102.11)"><path class="i" d="M177.969,239.928Z" transform="translate(-177.967 -239.927)"/></g><g transform="translate(42.378 100.345)"><path class="j" d="M130.8,236.3a.093.093,0,0,0-.011.01h0Z" transform="translate(-130.784 -236.297)"/></g><g transform="translate(49.436 107.403)"><path class="j" d="M145.316,250.816a.123.123,0,0,0-.012.01l0,0S145.312,250.819,145.316,250.816Z" transform="translate(-145.304 -250.816)"/></g><g transform="translate(45.907 103.875)"><path class="j" d="M138.055,243.557s-.008.005-.012.009l0,0Z" transform="translate(-138.043 -243.557)"/></g><g transform="translate(43.362 79.66)"><path class="k" d="M167.176,207.849H163.1l-4.812,4.817c-.053-.053-.115-.1-.172-.143l-10.661-10.661-4.35,4.345c-5.113,5.113-10.3.019-10.3.019l12.481-12.48h3.686l0,.024.024-.024h13.111A22.844,22.844,0,0,1,167.176,207.849Z" transform="translate(-132.809 -193.745)"/></g><g transform="translate(31.827 79.66)"><path class="l" d="M146.1,212.666c-.053-.053-.115-.1-.172-.143l-10.661-10.661-4.35,4.345c-5.113,5.113-10.3.019-10.3.019l12.481-12.48h-18.96a22.839,22.839,0,0,0-5.056,14.1h3.963l3.061,3.065s0-.009.009-.014a2.495,2.495,0,0,1,3.529,3.528,2.5,2.5,0,1,1,3.528,3.533,2.5,2.5,0,0,1,3.533,3.529,2.493,2.493,0,1,1,3.524,3.528l-.01.01,1.757,1.757,0,0,0,0a2.495,2.495,0,0,0,3.529-3.528v0a2.495,2.495,0,0,0,3.528-3.528,2.495,2.495,0,0,0,3.528-3.529,2.495,2.495,0,0,0,3.529-3.528Z" transform="translate(-109.08 -193.745)"/></g><g transform="translate(48.717 106.673)"><path class="k" d="M148.084,253.574a2.5,2.5,0,0,0-3.528-3.529s0,.009-.009.012a2.494,2.494,0,0,0,3.528,3.527A.1.1,0,0,1,148.084,253.574Z" transform="translate(-143.825 -249.314)"/></g><g transform="translate(45.189 103.144)"><path class="k" d="M140.826,246.313a2.5,2.5,0,1,0-3.529-3.529l-.009.012a2.493,2.493,0,0,0,3.526,3.526A.127.127,0,0,1,140.826,246.313Z" transform="translate(-136.567 -242.054)"/></g><g transform="translate(41.66 99.615)"><path class="k" d="M133.566,239.054a2.5,2.5,0,1,0-3.53-3.529l-.009.011a2.494,2.494,0,0,0,3.526,3.527S133.563,239.058,133.566,239.054Z" transform="translate(-129.308 -234.794)"/></g><g transform="translate(38.131 96.085)"><path class="k" d="M126.306,231.793a2.5,2.5,0,0,0-3.528-3.529s-.006.009-.009.012a2.493,2.493,0,0,0,3.526,3.527A.1.1,0,0,1,126.306,231.793Z" transform="translate(-122.048 -227.533)"/></g><path class="m" d="M154.328,70.136a2.111,2.111,0,0,0-2.111,2.11v49.5c.659-.057,1.328-.086,1.991-.086l.124,0V70.136Z" transform="translate(-99.42 -50.563)"/><path class="n" d="M158.679,118.5V72.247a2.112,2.112,0,0,0-2.111-2.11v51.524q1.062.007,2.115.107Z" transform="translate(-101.656 -50.564)"/><path class="a" d="M172.177,215.552a22.261,22.261,0,0,0-13.564-37.9c-.691-.066-1.376-.1-2.045-.1v44.52A22.075,22.075,0,0,0,172.177,215.552Z" transform="translate(-101.656 -105.763)"/><path class="a" d="M130.831,177.628a22.263,22.263,0,0,0,1.931,44.443l.125,0v-44.52l-.125,0C132.115,177.545,131.466,177.573,130.831,177.628Z" transform="translate(-77.975 -105.76)"/><path class="n" d="M182.861,195.41a26.435,26.435,0,0,0-24.636-26.361c-.536-.037-1.094-.056-1.658-.059v4.162c.669,0,1.354.037,2.045.1a22.262,22.262,0,0,1-2.045,44.417v4.16a26.429,26.429,0,0,0,26.293-26.422Z" transform="translate(-101.656 -101.363)"/><path class="m" d="M128.364,217.672a22.263,22.263,0,0,1-1.931-44.443c.635-.055,1.284-.083,1.931-.083l.125,0v-4.162l-.125,0q-.816,0-1.594.05a26.422,26.422,0,0,0,1.591,52.8c.043,0,.086,0,.129,0v-4.16Z" transform="translate(-73.577 -101.361)"/><g transform="translate(0 126.164)"><g transform="translate(54.789)"><path class="o" d="M210.8,289.409H156.315v5.149H210.8Z" transform="translate(-156.315 -289.409)"/></g><path class="l" d="M48.134,289.409H43.607v5.149H98.4v-5.149Z" transform="translate(-43.607 -289.409)"/></g></g></g></g></svg>