<svg xmlns="http://www.w3.org/2000/svg" xmlns:xlink="http://www.w3.org/1999/xlink" width="190" height="190" viewBox="0 0 190 190"><defs><style>.a{fill:none;}.b{opacity:0.08;}.c{fill:#bcccd9;}.d{clip-path:url(#a);}.e{fill:#17175b;}.f{fill:#fffde8;}.g{opacity:0.1;}.h{fill:#fff79e;}.i{fill:#ed1c24;}.j{fill:#f57613;}.k{fill:#ff7a11;}.l{fill:#ffa466;}.m{fill:#383784;}</style><clipPath id="a"><rect class="a" width="140" height="140"/></clipPath></defs><g class="b"><rect class="c" width="190" height="190" rx="16" transform="translate(0 190) rotate(-90)"/></g><g transform="translate(13 13)"><g class="d" transform="translate(12 12)"><g transform="translate(21.913 11.418)"><path class="e" d="M0,0H67.723a0,0,0,0,1,0,0V23.8a3.447,3.447,0,0,1-3.447,3.447H3.447A3.447,3.447,0,0,1,0,23.8V0A0,0,0,0,1,0,0Z" transform="translate(14.226 99.859)"/><g transform="translate(48.905 57.678)"><path class="f" d="M164.58,161.039l-6.9-6.9,3.875,14.236Z" transform="translate(-157.682 -154.141)"/></g><g class="g" transform="translate(48.905 57.678)"><path d="M164.58,161.039l-6.9-6.9,3.875,14.236Z" transform="translate(-157.682 -154.141)"/></g><g transform="translate(41.943 57.678)"><path class="f" d="M143.36,161.1l3.01,7.553,3.952-14.515Z" transform="translate(-143.36 -154.141)"/></g><g class="g" transform="translate(41.943 57.678)"><path d="M143.36,161.1l3.01,7.553,3.952-14.515Z" transform="translate(-143.36 -154.141)"/></g><g transform="translate(40.121 50.105)"><path class="h" d="M144.486,143.438l-4.874-4.876v4.876h.08a15.374,15.374,0,0,0,7.437,2.645Z" transform="translate(-139.612 -138.562)"/></g><g transform="translate(40.121 46.897)"><path class="h" d="M139.612,131.962v3.208l4.874,4.876,2.643,2.645c.418.03.839.052,1.267.052.276,0,.545-.018.817-.032a15.319,15.319,0,0,0,7.873-2.655l.03-.01v-8.085Z" transform="translate(-139.612 -131.962)"/></g><g class="g" transform="translate(40.121 46.897)"><path d="M139.612,131.962v3.208l4.874,4.876,2.643,2.645c.418.03.839.052,1.267.052.276,0,.545-.018.817-.032a15.319,15.319,0,0,0,7.873-2.655l.03-.01v-8.085Z" transform="translate(-139.612 -131.962)"/></g><path class="h" d="M152.685,64.232a48.925,48.925,0,0,1-27.98,8.738c-1.207,0-2.4-.056-3.573-.146a17.661,17.661,0,0,0-.144,2.142v6.185a20.576,20.576,0,0,0,.129,2.218c1.057,9.389,8.506,20.47,17.546,20.47.054,0,.106,0,.162,0,8.968-.08,16.335-11.127,17.384-20.466a19.98,19.98,0,0,0,.132-2.218V74.966A17.557,17.557,0,0,0,152.685,64.232Z" transform="translate(-89.921 -50.26)"/><g transform="translate(25.775)"><path class="i" d="M152.2,45.39a23.123,23.123,0,0,0-42.06,11.98c-.022.413-.036.827-.036,1.246v4.631a5.353,5.353,0,0,0,5.32,5.35h.1a20.44,20.44,0,0,1-.13-2.217V60.2a17.663,17.663,0,0,1,.144-2.142c1.178.09,2.367.146,3.573.146A48.893,48.893,0,0,0,147.1,49.453s-.006,0-.006.008A17.557,17.557,0,0,1,150.747,60.2V66.38a19.964,19.964,0,0,1-.132,2.217h.426a5.352,5.352,0,0,0,5.32-5.35V58.617A23.008,23.008,0,0,0,152.2,45.39Z" transform="translate(-110.101 -35.489)"/></g><g transform="translate(40.121 54.981)"><path class="f" d="M139.692,148.593h-.08v5.091l1.822,4.568,6.962-6.962A15.325,15.325,0,0,1,139.692,148.593Z" transform="translate(-139.612 -148.593)"/></g><g transform="translate(48.905 54.981)"><path class="f" d="M166.44,153.684H166.4v-5.091h-.012a15.354,15.354,0,0,1-8.708,2.7l6.9,6.9Z" transform="translate(-157.682 -148.593)"/></g><g class="g" transform="translate(48.905 54.981)"><path d="M166.44,153.684H166.4v-5.091h-.012a15.354,15.354,0,0,1-8.708,2.7l6.9,6.9Z" transform="translate(-157.682 -148.593)"/></g><g transform="translate(32.943 54.981)"><path class="j" d="M159,148.593h-9.473l.038,5.091-4.882,11.842-3.875-14.236-3.952,14.516-4.832-12.122-7.178,7.179,14.446,14.446h35.136V164.019A15.427,15.427,0,0,0,159,148.593Z" transform="translate(-124.846 -148.593)"/></g><g transform="translate(15.087 54.981)"><g transform="translate(19.942 0)"><path class="k" d="M134.229,148.593h-5.092l5.092,5.09Z" transform="translate(-129.137 -148.593)"/></g><path class="k" d="M105.97,160.863l7.178-7.179-5.092-5.091h-4.373a15.424,15.424,0,0,0-15.424,15.424v.008a123.635,123.635,0,0,0,.063,13.153c.221,3.773.473,5.037,1.336,5.477,2.261,1.152,7.167-4.151,9.885-7.347h20.874Z" transform="translate(-88.113 -148.593)"/></g><g transform="translate(44.939 57.678)"><path class="l" d="M157.455,158.109l-3.965,3.961-3.965-3.961,3.965-3.967Z" transform="translate(-149.524 -154.141)"/></g><rect class="m" width="96.174" height="22.797" rx="6.66" transform="translate(0 78.491)"/><path class="f" d="M159.182,264.337a6.924,6.924,0,0,1-6.854,6.951H152.3a6.952,6.952,0,0,1,0-13.9h.024A6.924,6.924,0,0,1,159.182,264.337Z" transform="translate(-102.479 -150.993)"/><path class="f" d="M166.479,264.337a6.924,6.924,0,0,1-6.854,6.951v-13.9A6.924,6.924,0,0,1,166.479,264.337Z" transform="translate(-109.776 -150.993)"/></g></g></g></svg>