<svg xmlns="http://www.w3.org/2000/svg" xmlns:xlink="http://www.w3.org/1999/xlink" width="190" height="190" viewBox="0 0 190 190"><defs><style>.a{fill:none;}.b{opacity:0.08;}.c{fill:#bcccd9;}.d{clip-path:url(#a);}.e{fill:#ff882b;}.f{fill:#ff7a11;}.g{fill:#ff8c3d;}.h{fill:#ffa466;}.i{fill:#d51920;}.j{fill:#ed1c24;}.k{fill:#383784;}.l{fill:#17175b;}.m{fill:#fff79e;}.n{fill:#fffde8;}.o{fill:#ff6800;}</style><clipPath id="a"><rect class="a" width="140" height="140"/></clipPath></defs><g class="b"><rect class="c" width="190" height="190" rx="16" transform="translate(0 190) rotate(-90)"/></g><g transform="translate(13 13)"><g class="d" transform="translate(12 12)"><g transform="translate(1.52 7.957)"><g transform="translate(0 115.023)"><g transform="translate(5.675 5.678)"><path class="e" d="M89.8,276.668h-63v5.67h63Z" transform="translate(-26.802 -276.668)"/></g><g transform="translate(68.671 5.678)"><path class="f" d="M156.395,282.338H219.01v-5.67H156.395Z" transform="translate(-156.395 -276.668)"/></g><g transform="translate(0 11.348)"><g transform="translate(68.671)"><path class="g" d="M224.682,288.332H156.395V294h68.288Z" transform="translate(-156.395 -288.332)"/></g><path class="h" d="M20.8,288.332H15.128V294H83.8v-5.672Z" transform="translate(-15.128 -288.332)"/></g><g transform="translate(68.671)"><rect class="g" width="56.94" height="5.678"/></g><g transform="translate(11.344)"><rect class="h" width="57.328" height="5.678"/></g></g><g transform="translate(59.122)"><rect class="i" width="4.509" height="18.7" transform="translate(18.7 7.074) rotate(90)"/><rect class="j" width="4.594" height="23.913" transform="translate(7.053)"/></g><path class="k" d="M153.2,135.484v38.179H56.054V135.484l48.577-48.232,35.535,35.287,8.565,8.5Z" transform="translate(-36.159 -58.628)"/><path class="l" d="M153.2,135.484v3.972L104.627,91.224,56.054,139.456v-3.972l48.572-48.232Z" transform="translate(-36.159 -58.628)"/><g transform="translate(18.213 20.189)"><path class="m" d="M52.594,119.8v8.683l3.279-3.253,46.979-46.652,46.984,46.652,3.275,3.253V119.8L102.853,69.9Z" transform="translate(-52.594 -69.901)"/></g><path class="j" d="M264.373,104.236V177.25h-8.565V104.236l4.453-10Z" transform="translate(-138.81 -62.215)"/><path class="j" d="M47.011,104.236V177.25H38.446V104.236l4.453-10Z" transform="translate(-27.11 -62.215)"/><path class="l" d="M154.961,156.375V198.72H119.339V156.375c0-11.249,7.975-20.363,17.809-20.363h0C146.986,136.012,154.961,145.126,154.961,156.375Z" transform="translate(-68.681 -83.685)"/><g transform="translate(59.864 58.54)"><circle class="n" cx="8.605" cy="8.605" r="8.605"/><path class="o" d="M155.585,159.21a6.4,6.4,0,0,1-.068.951,6.877,6.877,0,0,1-5.874,5.874,6.6,6.6,0,0,1-1.9,0,6.88,6.88,0,0,1-5.874-5.874,6.334,6.334,0,0,1-.069-.951,6.265,6.265,0,0,1,.069-.946,6.876,6.876,0,0,1,5.874-5.874,6.6,6.6,0,0,1,1.9,0,6.881,6.881,0,0,1,5.874,5.874A6.33,6.33,0,0,1,155.585,159.21Z" transform="translate(-140.088 -150.607)"/><g transform="translate(1.714 1.714)"><path class="n" d="M155.925,152.39v13.646a6.6,6.6,0,0,1-1.9,0V152.39a6.6,6.6,0,0,1,1.9,0Z" transform="translate(-148.084 -152.321)"/><path class="n" d="M155.585,165.492a6.4,6.4,0,0,1-.068.951H141.871a6.334,6.334,0,0,1-.069-.951,6.265,6.265,0,0,1,.069-.946h13.646A6.329,6.329,0,0,1,155.585,165.492Z" transform="translate(-141.802 -158.603)"/></g></g><g transform="translate(30.079 81.78)"><g transform="translate(0)"><path class="n" d="M85.173,200.224v10.383H77V200.224a3.873,3.873,0,0,1,4.081-3.622,4.374,4.374,0,0,1,2.891,1.06A3.421,3.421,0,0,1,85.173,200.224Z" transform="translate(-77.004 -196.602)"/><path class="o" d="M80.385,210.691v-8.926a2.458,2.458,0,0,1,4.88,0v8.926Z" transform="translate(-78.741 -198.144)"/></g><g transform="translate(0 0.782)"><rect class="n" width="0.595" height="12.442" transform="translate(3.786)"/><rect class="n" width="8.169" height="0.53" transform="translate(0 5.956)"/></g></g><g transform="translate(98.217 81.78)"><g transform="translate(0)"><path class="n" d="M225.343,200.224v10.383h-8.169V200.224a3.873,3.873,0,0,1,4.082-3.622,4.373,4.373,0,0,1,2.891,1.06A3.422,3.422,0,0,1,225.343,200.224Z" transform="translate(-217.174 -196.602)"/><path class="o" d="M220.555,210.691v-8.926a2.458,2.458,0,0,1,4.88,0v8.926Z" transform="translate(-218.911 -198.144)"/></g><g transform="translate(0 0.782)"><rect class="n" width="0.595" height="12.442" transform="translate(3.786)"/><rect class="n" width="8.169" height="0.53" transform="translate(0 5.956)"/></g></g><path class="f" d="M152.371,200a9.728,9.728,0,0,0-7.282-3.4c-5.692,0-10.306,5.191-10.306,11.6v21.651H155.39V208.206A12.373,12.373,0,0,0,152.371,200Z" transform="translate(-76.618 -114.822)"/><path class="n" d="M155.506,210.608v21.651H138.934V210.608c0-5.148,3.719-9.332,8.288-9.332a7.783,7.783,0,0,1,5.858,2.734A9.915,9.915,0,0,1,155.506,210.608Z" transform="translate(-78.75 -117.224)"/></g></g></g></svg>