<svg xmlns="http://www.w3.org/2000/svg" xmlns:xlink="http://www.w3.org/1999/xlink" width="190" height="190" viewBox="0 0 190 190"><defs><style>.a{fill:none;}.b{opacity:0.08;}.c{fill:#bcccd9;}.d{clip-path:url(#a);}.e{fill:#383784;}.f{fill:#17175b;}.g{fill:#fafeff;}.h,.k{fill:#ffa466;}.i{fill:#fff79e;}.j{fill:#ed1c24;}.k{opacity:0.36;}.l{fill:#d51920;}</style><clipPath id="a"><rect class="a" width="140" height="140"/></clipPath></defs><g class="b"><rect class="c" width="190" height="190" rx="16" transform="translate(0 190) rotate(-90)"/></g><g transform="translate(13 13)"><g class="d" transform="translate(12 12)"><g transform="translate(22.308 4.659)"><g transform="translate(0 12.746)"><path class="e" d="M143.407,59.029l9.868,9.87V50.314a2.507,2.507,0,0,0-2.506-2.509H60.4a2.508,2.508,0,0,0-2.509,2.509V163.232a2.509,2.509,0,0,0,2.509,2.509H79.449L67.232,153.522Z" transform="translate(-57.891 -47.805)"/></g><g transform="translate(9.341 23.97)"><g transform="translate(0 0)"><path class="f" d="M163.149,175.1V80.764l-9.868-9.87L77.106,165.387l12.217,12.219h71.32A2.508,2.508,0,0,0,163.149,175.1Z" transform="translate(-77.106 -70.894)"/></g></g><g transform="translate(9.341 23.97)"><g transform="translate(0 0)"><path class="g" d="M153.281,70.894H77.106v94.493h76.175V70.894Z" transform="translate(-77.106 -70.894)"/></g></g><g transform="translate(19.022 65.358)"><rect class="h" width="58.601" height="5.582" rx="1"/></g><g transform="translate(32.068 76.521)"><rect class="h" width="45.566" height="5.578" rx="1"/></g><g transform="translate(32.068 87.68)"><rect class="h" width="45.566" height="5.584" rx="1"/></g><g transform="translate(31.394 98.617)"><rect class="h" width="45.566" height="5.582" rx="1"/></g><g transform="translate(22.041 12.746)"><path class="i" d="M148.346,63.551H109.424a6.192,6.192,0,0,1-6.192-6.192V47.805h51.306v9.554A6.192,6.192,0,0,1,148.346,63.551Z" transform="translate(-103.232 -47.805)"/></g><g transform="translate(18.887 76.159)"><path class="i" d="M103.05,181.405a3.153,3.153,0,1,1-3.152-3.151A3.151,3.151,0,0,1,103.05,181.405Z" transform="translate(-96.745 -178.254)"/></g><g transform="translate(18.887 87.319)"><path class="i" d="M103.05,204.365a3.153,3.153,0,1,1-3.152-3.153A3.154,3.154,0,0,1,103.05,204.365Z" transform="translate(-96.745 -201.212)"/></g><g transform="translate(18.887 98.479)"><path class="i" d="M103.05,227.322A3.153,3.153,0,1,1,99.9,224.17,3.152,3.152,0,0,1,103.05,227.322Z" transform="translate(-96.745 -224.17)"/></g><g transform="translate(24.419 42.005)"><path class="j" d="M114.785,117.793c0-.908-.884-1.161-2.515-1.668-1.788-.507-3.95-1.415-3.95-4.055,0-2.45,1.67-4.076,4.716-4.076a8.776,8.776,0,0,1,4.6,1.161l-.609,2.767a8.633,8.633,0,0,0-3.969-1.162c-1.08,0-1.611.38-1.611,1.12,0,.865,1.12,1.2,2.594,1.647,1.886.57,3.851,1.457,3.851,3.991,0,2.513-1.807,4.287-5.03,4.287a9.58,9.58,0,0,1-4.735-1.2l.59-2.787a8.713,8.713,0,0,0,4.2,1.225C114.019,119.038,114.785,118.616,114.785,117.793Z" transform="translate(-108.124 -107.994)"/><path class="j" d="M140.79,121.589h-3.341l-2.692-9.946-.079,10.157h-2.908l.432-13.2h4.421l2.555,9.9,2.555-9.9h4.361l.413,13.2h-2.967l-.059-10.178Z" transform="translate(-120.276 -108.306)"/><path class="j" d="M166.776,108.6h8.98v2.7h-5.914v2.534H174.6v2.682h-4.755V119.1h5.914v2.7h-8.98Z" transform="translate(-138.265 -108.306)"/><path class="j" d="M193.725,121.855c0-.549-.845-.718-2.063-1.056-1.415-.338-3.164-1.077-3.164-3.146,0-1.964,1.277-3.273,3.89-3.273a7.841,7.841,0,0,1,3.812.887l-.472,2.492a7.994,7.994,0,0,0-3.222-.866c-.767,0-1.14.233-1.14.676,0,.591,1.1.739,1.985,1.014,1.493.38,3.064,1.12,3.064,3.02,0,2.028-1.415,3.464-4.165,3.464a8.146,8.146,0,0,1-3.891-.929l.452-2.47a7.639,7.639,0,0,0,3.556.971C193.175,122.637,193.725,122.362,193.725,121.855Z" transform="translate(-149.357 -111.276)"/></g><rect class="k" width="51.343" height="2.11" transform="translate(22.041 12.717)"/><g transform="translate(34.947)"><path class="j" d="M142.527,21.584A12.746,12.746,0,1,0,155.273,34.33,12.746,12.746,0,0,0,142.527,21.584Z" transform="translate(-129.782 -21.584)"/></g><g transform="translate(43.25 8.308)"><path class="l" d="M155.746,43.113a4.442,4.442,0,1,1-4.442-4.439A4.44,4.44,0,0,1,155.746,43.113Z" transform="translate(-146.863 -38.674)"/></g></g></g></g></svg>